<svg xmlns="http://www.w3.org/2000/svg" xmlns:xlink="http://www.w3.org/1999/xlink" width="50" zoomAndPan="magnify" viewBox="0 0 37.5 37.499999" height="50" preserveAspectRatio="xMidYMid meet" version="1.0"><path fill="#5271ff" d="M 26.195312 4.332031 C 26.371094 4.503906 26.519531 4.648438 26.527344 4.648438 C 26.539062 4.648438 26.402344 4.503906 26.230469 4.332031 C 26.058594 4.15625 25.90625 4.015625 25.898438 4.015625 C 25.890625 4.015625 26.023438 4.15625 26.195312 4.332031 M 28.0625 8.632812 C 28.0625 8.738281 28.066406 8.816406 28.074219 8.808594 C 28.101562 8.777344 28.117188 8.445312 28.089844 8.445312 C 28.074219 8.445312 28.0625 8.53125 28.0625 8.632812 M 24.878906 11.277344 C 24.878906 12.714844 24.882812 13.300781 24.890625 12.582031 C 24.894531 11.863281 24.894531 10.6875 24.890625 9.96875 C 24.882812 9.25 24.878906 9.839844 24.878906 11.277344 M 8.554688 11.09375 C 8.554688 11.203125 8.5625 11.242188 8.570312 11.183594 C 8.578125 11.125 8.578125 11.035156 8.570312 10.984375 C 8.5625 10.933594 8.554688 10.984375 8.554688 11.09375 M 29.042969 16.039062 C 29.152344 16.148438 29.25 16.238281 29.257812 16.238281 C 29.269531 16.238281 29.1875 16.148438 29.078125 16.039062 C 28.96875 15.929688 28.871094 15.839844 28.863281 15.839844 C 28.855469 15.839844 28.9375 15.929688 29.042969 16.039062 M 4.015625 16.453125 C 3.878906 16.59375 3.773438 16.703125 3.785156 16.703125 C 3.792969 16.703125 3.910156 16.59375 4.046875 16.453125 C 4.183594 16.316406 4.289062 16.207031 4.28125 16.207031 C 4.269531 16.207031 4.152344 16.316406 4.015625 16.453125 M 2.992188 18.621094 C 2.996094 18.765625 3 18.824219 3.007812 18.742188 C 3.015625 18.664062 3.015625 18.546875 3.007812 18.476562 C 3 18.410156 2.992188 18.472656 2.992188 18.621094 M 32.925781 18.59375 C 32.925781 18.675781 32.933594 18.738281 32.945312 18.726562 C 32.976562 18.695312 32.984375 18.4375 32.953125 18.4375 C 32.9375 18.4375 32.925781 18.507812 32.925781 18.59375 M 29.027344 21.160156 L 28.84375 21.351562 L 29.035156 21.167969 C 29.214844 21 29.242188 20.96875 29.21875 20.96875 C 29.214844 20.96875 29.125 21.054688 29.027344 21.160156 M 24.878906 25.898438 C 24.878906 27.335938 24.882812 27.921875 24.890625 27.203125 C 24.894531 26.484375 24.894531 25.308594 24.890625 24.589844 C 24.882812 23.871094 24.878906 24.460938 24.878906 25.898438 M 28.0625 28.546875 C 28.0625 28.652344 28.074219 28.730469 28.085938 28.714844 C 28.109375 28.691406 28.101562 28.390625 28.078125 28.367188 C 28.070312 28.359375 28.0625 28.4375 28.0625 28.546875 M 26.195312 32.851562 L 25.878906 33.175781 L 26.207031 32.859375 C 26.382812 32.683594 26.53125 32.539062 26.53125 32.535156 C 26.53125 32.511719 26.488281 32.546875 26.195312 32.851562 M 15.730469 34.746094 C 15.808594 34.753906 15.9375 34.753906 16.011719 34.746094 C 16.089844 34.742188 16.027344 34.734375 15.871094 34.734375 C 15.714844 34.734375 15.652344 34.742188 15.730469 34.746094 " fill-opacity="1" fill-rule="evenodd"/><path fill="#5271ff" d="M 15.269531 2.25 C 14.300781 2.339844 13.503906 2.820312 13.015625 3.617188 C 12.636719 4.230469 12.578125 4.265625 11.890625 4.289062 C 11.484375 4.304688 11.335938 4.324219 11.09375 4.394531 C 10.480469 4.578125 9.890625 4.957031 9.519531 5.414062 C 9.269531 5.722656 9.035156 6.203125 8.941406 6.597656 C 8.851562 6.996094 8.867188 7.375 8.992188 7.84375 C 9.242188 8.769531 9.253906 8.820312 9.214844 8.972656 C 9.125 9.296875 8.75 9.507812 8.332031 9.464844 C 8.21875 9.453125 7.980469 9.457031 7.796875 9.476562 C 6.917969 9.570312 6.070312 10.074219 5.601562 10.789062 C 5.371094 11.140625 5.257812 11.433594 5.175781 11.890625 C 5.105469 12.296875 5.035156 12.480469 4.878906 12.679688 C 4.785156 12.792969 4.777344 12.828125 4.796875 12.949219 C 4.859375 13.378906 5.132812 13.886719 5.503906 14.277344 C 5.992188 14.789062 6.386719 14.964844 7.296875 15.074219 C 7.609375 15.113281 7.824219 15.1875 7.917969 15.292969 C 7.949219 15.328125 8.023438 15.492188 8.082031 15.65625 C 8.441406 16.675781 9.066406 17.304688 9.960938 17.550781 C 10.214844 17.617188 10.453125 17.625 11.128906 17.589844 C 11.707031 17.558594 11.773438 17.570312 11.929688 17.742188 C 12.300781 18.148438 12.136719 18.835938 11.640625 18.96875 C 11.09375 19.117188 10.335938 19.109375 9.695312 18.949219 C 8.550781 18.667969 7.460938 17.800781 6.921875 16.75 L 6.765625 16.445312 L 6.613281 16.421875 C 6.414062 16.390625 5.898438 16.226562 5.621094 16.101562 C 5.207031 15.914062 4.777344 15.625 4.421875 15.292969 C 4.328125 15.203125 4.25 15.144531 4.25 15.164062 C 4.25 15.179688 4.277344 15.28125 4.3125 15.386719 C 4.40625 15.660156 4.429688 15.875 4.382812 16.023438 C 4.355469 16.105469 4.222656 16.273438 4 16.503906 C 3.8125 16.695312 3.597656 16.9375 3.523438 17.039062 C 2.960938 17.789062 2.855469 18.902344 3.261719 19.785156 C 3.578125 20.472656 4.039062 20.914062 4.820312 21.277344 C 5.21875 21.460938 5.363281 21.570312 5.453125 21.746094 C 5.566406 21.964844 5.550781 22.105469 5.367188 22.5 C 5.089844 23.105469 5.015625 23.351562 4.992188 23.753906 C 4.910156 25.207031 6.03125 26.5625 7.507812 26.792969 C 7.847656 26.847656 8.097656 27.054688 8.175781 27.347656 C 8.214844 27.496094 8.191406 27.617188 8.066406 27.902344 C 7.851562 28.382812 7.769531 29.078125 7.859375 29.648438 C 8.089844 31.164062 9.214844 32.347656 10.792969 32.730469 C 11.132812 32.8125 11.714844 32.828125 12.375 32.777344 C 12.90625 32.738281 12.921875 32.746094 13.363281 33.375 C 13.757812 33.929688 14.222656 34.308594 14.78125 34.523438 C 15.21875 34.691406 15.460938 34.730469 15.972656 34.714844 C 16.5 34.695312 16.703125 34.648438 17.125 34.441406 C 17.828125 34.09375 18.289062 33.585938 18.5625 32.851562 L 18.652344 32.609375 L 18.664062 29.007812 L 18.671875 25.40625 L 18.351562 25.367188 C 18.175781 25.34375 17.789062 25.261719 17.492188 25.179688 C 16.816406 25 16.460938 24.929688 16.167969 24.929688 C 15.886719 24.929688 15.402344 25.035156 15.101562 25.160156 C 14.441406 25.441406 13.839844 26.058594 13.554688 26.757812 C 13.507812 26.875 13.476562 26.976562 13.480469 26.980469 C 13.484375 26.984375 13.621094 27.019531 13.785156 27.058594 C 14.605469 27.253906 15.210938 27.679688 15.589844 28.324219 C 15.78125 28.648438 15.882812 28.964844 15.851562 29.144531 C 15.742188 29.808594 14.945312 30.03125 14.582031 29.503906 C 14.519531 29.414062 14.394531 29.222656 14.296875 29.078125 C 14.179688 28.894531 14.074219 28.777344 13.960938 28.703125 C 13.351562 28.296875 12.527344 28.523438 12.203125 29.183594 L 12.097656 29.398438 L 12.125 29.851562 C 12.140625 30.105469 12.152344 30.367188 12.152344 30.433594 C 12.144531 30.824219 11.632812 31.183594 11.261719 31.058594 C 11.066406 30.996094 10.957031 30.878906 10.847656 30.617188 C 10.707031 30.277344 10.664062 30.015625 10.6875 29.632812 C 10.726562 28.9375 11.070312 28.253906 11.632812 27.753906 C 11.726562 27.671875 11.847656 27.578125 11.902344 27.542969 C 11.992188 27.492188 12.007812 27.457031 12.058594 27.183594 C 12.457031 25.109375 14.027344 23.6875 16.039062 23.578125 C 16.519531 23.550781 16.835938 23.59375 17.601562 23.785156 C 18.246094 23.945312 18.6875 24.023438 18.726562 23.988281 C 18.761719 23.953125 18.785156 16.324219 18.75 16.347656 C 18.734375 16.355469 18.546875 16.480469 18.335938 16.621094 C 17.664062 17.070312 17.003906 17.347656 16.355469 17.457031 C 15.875 17.535156 15.050781 17.503906 14.574219 17.394531 C 12.953125 17.015625 11.644531 15.875 11.144531 14.414062 L 11.023438 14.066406 L 10.792969 13.992188 C 10.316406 13.839844 9.914062 13.601562 9.535156 13.246094 C 8.9375 12.683594 8.625 12.050781 8.5625 11.273438 C 8.53125 10.929688 8.574219 10.753906 8.722656 10.585938 C 8.9375 10.339844 9.351562 10.265625 9.648438 10.421875 C 9.867188 10.535156 9.921875 10.644531 10.019531 11.148438 C 10.121094 11.660156 10.183594 11.832031 10.359375 12.042969 C 10.738281 12.5 11.308594 12.71875 11.929688 12.640625 C 12.3125 12.59375 12.582031 12.464844 12.859375 12.203125 C 13.195312 11.882812 13.292969 11.664062 13.40625 10.953125 C 13.429688 10.816406 13.476562 10.664062 13.519531 10.605469 C 13.734375 10.285156 14.316406 10.25 14.617188 10.535156 C 14.789062 10.699219 14.816406 10.796875 14.8125 11.160156 C 14.8125 11.371094 14.785156 11.589844 14.742188 11.757812 C 14.507812 12.675781 13.738281 13.53125 12.757812 13.957031 C 12.621094 14.015625 12.496094 14.074219 12.488281 14.082031 C 12.476562 14.09375 12.523438 14.203125 12.585938 14.328125 C 12.929688 15.011719 13.609375 15.609375 14.378906 15.898438 C 14.859375 16.078125 15.09375 16.117188 15.640625 16.117188 C 16.222656 16.121094 16.550781 16.050781 17.03125 15.820312 C 17.898438 15.410156 18.507812 14.667969 18.6875 13.808594 C 18.722656 13.632812 18.734375 12.765625 18.738281 9.328125 C 18.746094 5.074219 18.746094 5.0625 18.675781 4.773438 C 18.425781 3.746094 17.851562 2.96875 17.046875 2.570312 C 16.757812 2.425781 16.320312 2.292969 16.035156 2.265625 C 15.609375 2.226562 15.550781 2.226562 15.269531 2.25 M 21.304688 2.46875 C 20.984375 2.539062 20.742188 2.667969 20.507812 2.902344 C 19.898438 3.511719 19.882812 4.507812 20.480469 5.117188 C 20.816406 5.460938 21.09375 5.574219 21.699219 5.617188 C 22.410156 5.667969 22.898438 5.824219 23.417969 6.160156 C 24.101562 6.605469 24.5625 7.265625 24.804688 8.136719 C 24.875 8.390625 24.878906 8.464844 24.898438 11.441406 C 24.921875 14.707031 24.917969 14.597656 25.097656 15.3125 C 25.378906 16.410156 25.957031 17.417969 26.761719 18.230469 C 26.945312 18.414062 27.097656 18.574219 27.097656 18.585938 C 27.097656 18.597656 26.949219 18.753906 26.769531 18.9375 C 25.957031 19.75 25.378906 20.761719 25.097656 21.859375 C 24.917969 22.574219 24.921875 22.464844 24.898438 25.730469 C 24.878906 28.773438 24.878906 28.777344 24.800781 29.058594 C 24.597656 29.796875 24.214844 30.394531 23.660156 30.839844 C 23.121094 31.269531 22.507812 31.496094 21.710938 31.554688 C 21.085938 31.601562 20.820312 31.710938 20.480469 32.058594 C 19.882812 32.664062 19.898438 33.660156 20.507812 34.269531 C 20.75 34.511719 20.984375 34.636719 21.335938 34.710938 C 21.546875 34.753906 21.652344 34.757812 22.070312 34.726562 C 23.710938 34.597656 25.113281 33.953125 26.230469 32.800781 C 27.058594 31.949219 27.566406 31.066406 27.859375 29.957031 C 28.070312 29.15625 28.070312 29.164062 28.09375 25.863281 L 28.113281 22.851562 L 28.207031 22.558594 C 28.464844 21.722656 28.988281 21.046875 29.714844 20.625 C 30.160156 20.363281 30.554688 20.25 31.226562 20.1875 C 31.511719 20.160156 31.808594 20.117188 31.890625 20.085938 C 32.363281 19.917969 32.777344 19.449219 32.890625 18.964844 C 32.933594 18.777344 32.933594 18.394531 32.890625 18.207031 C 32.777344 17.722656 32.359375 17.253906 31.890625 17.085938 C 31.808594 17.058594 31.515625 17.011719 31.234375 16.988281 C 30.675781 16.933594 30.457031 16.886719 30.109375 16.742188 C 29.214844 16.371094 28.53125 15.628906 28.234375 14.707031 C 28.101562 14.289062 28.09375 14.171875 28.09375 11.542969 C 28.09375 8.769531 28.074219 8.222656 27.945312 7.59375 C 27.542969 5.601562 26.234375 3.929688 24.398438 3.054688 C 23.71875 2.726562 22.945312 2.523438 22.148438 2.453125 C 21.652344 2.410156 21.570312 2.410156 21.304688 2.46875 " fill-opacity="1" fill-rule="evenodd"/></svg>