<svg xmlns="http://www.w3.org/2000/svg" xmlns:xlink="http://www.w3.org/1999/xlink" width="64" zoomAndPan="magnify" viewBox="0 0 48 48" height="64" preserveAspectRatio="xMidYMid meet" version="1.0"><path fill="#5271ff" d="M 33.777344 5.503906 C 33.996094 5.726562 34.183594 5.90625 34.195312 5.90625 C 34.207031 5.90625 34.039062 5.726562 33.816406 5.503906 C 33.597656 5.28125 33.40625 5.101562 33.398438 5.101562 C 33.382812 5.101562 33.554688 5.28125 33.777344 5.503906 M 36.144531 10.96875 C 36.144531 11.101562 36.152344 11.203125 36.160156 11.191406 C 36.195312 11.15625 36.214844 10.730469 36.179688 10.730469 C 36.160156 10.730469 36.144531 10.839844 36.144531 10.96875 M 32.101562 14.328125 C 32.101562 16.152344 32.109375 16.902344 32.113281 15.988281 C 32.121094 15.074219 32.121094 13.578125 32.113281 12.667969 C 32.109375 11.753906 32.101562 12.5 32.101562 14.328125 M 11.359375 14.09375 C 11.359375 14.234375 11.367188 14.285156 11.378906 14.210938 C 11.386719 14.132812 11.386719 14.019531 11.378906 13.957031 C 11.367188 13.890625 11.359375 13.953125 11.359375 14.09375 M 37.394531 20.378906 C 37.53125 20.519531 37.65625 20.632812 37.667969 20.632812 C 37.679688 20.632812 37.574219 20.519531 37.4375 20.378906 C 37.296875 20.238281 37.175781 20.125 37.164062 20.125 C 37.152344 20.125 37.253906 20.238281 37.394531 20.378906 M 5.589844 20.90625 C 5.417969 21.082031 5.285156 21.226562 5.296875 21.226562 C 5.308594 21.226562 5.460938 21.082031 5.632812 20.90625 C 5.808594 20.734375 5.941406 20.589844 5.929688 20.589844 C 5.917969 20.589844 5.765625 20.734375 5.589844 20.90625 M 4.292969 23.660156 C 4.292969 23.84375 4.300781 23.914062 4.3125 23.816406 C 4.320312 23.714844 4.320312 23.5625 4.308594 23.476562 C 4.300781 23.390625 4.292969 23.472656 4.292969 23.660156 M 42.324219 23.625 C 42.324219 23.730469 42.335938 23.808594 42.347656 23.796875 C 42.386719 23.757812 42.398438 23.425781 42.359375 23.425781 C 42.339844 23.425781 42.324219 23.515625 42.324219 23.625 M 37.371094 26.886719 L 37.140625 27.128906 L 37.382812 26.898438 C 37.609375 26.683594 37.644531 26.640625 37.613281 26.640625 C 37.609375 26.640625 37.5 26.75 37.371094 26.886719 M 32.101562 32.90625 C 32.101562 34.730469 32.109375 35.480469 32.113281 34.566406 C 32.121094 33.652344 32.121094 32.15625 32.113281 31.242188 C 32.109375 30.332031 32.101562 31.078125 32.101562 32.90625 M 36.144531 36.269531 C 36.144531 36.40625 36.160156 36.503906 36.175781 36.488281 C 36.203125 36.457031 36.195312 36.074219 36.164062 36.042969 C 36.152344 36.03125 36.144531 36.132812 36.144531 36.269531 M 33.773438 41.738281 L 33.375 42.152344 L 33.785156 41.75 C 34.011719 41.53125 34.199219 41.34375 34.199219 41.335938 C 34.199219 41.308594 34.148438 41.355469 33.773438 41.738281 M 20.476562 44.148438 C 20.574219 44.160156 20.738281 44.160156 20.835938 44.148438 C 20.9375 44.140625 20.855469 44.132812 20.65625 44.132812 C 20.460938 44.132812 20.378906 44.140625 20.476562 44.148438 " fill-opacity="1" fill-rule="evenodd"/><path fill="#5271ff" d="M 19.890625 2.859375 C 18.660156 2.972656 17.648438 3.585938 17.027344 4.59375 C 16.546875 5.378906 16.472656 5.421875 15.601562 5.453125 C 15.082031 5.46875 14.894531 5.496094 14.585938 5.585938 C 13.808594 5.816406 13.058594 6.296875 12.585938 6.878906 C 12.265625 7.269531 11.96875 7.882812 11.851562 8.378906 C 11.734375 8.886719 11.753906 9.371094 11.917969 9.96875 C 12.234375 11.140625 12.25 11.207031 12.195312 11.398438 C 12.082031 11.8125 11.609375 12.078125 11.078125 12.023438 C 10.933594 12.007812 10.628906 12.015625 10.394531 12.042969 C 9.28125 12.160156 8.203125 12.800781 7.605469 13.707031 C 7.3125 14.152344 7.167969 14.527344 7.066406 15.105469 C 6.972656 15.625 6.886719 15.859375 6.6875 16.109375 C 6.570312 16.257812 6.558594 16.296875 6.582031 16.453125 C 6.667969 17 7.011719 17.644531 7.484375 18.140625 C 8.105469 18.789062 8.605469 19.011719 9.757812 19.152344 C 10.160156 19.199219 10.433594 19.296875 10.550781 19.433594 C 10.589844 19.476562 10.683594 19.683594 10.757812 19.894531 C 11.214844 21.1875 12.007812 21.984375 13.148438 22.296875 C 13.472656 22.386719 13.773438 22.394531 14.628906 22.351562 C 15.363281 22.308594 15.449219 22.328125 15.648438 22.542969 C 16.117188 23.0625 15.914062 23.933594 15.277344 24.105469 C 14.585938 24.289062 13.621094 24.28125 12.808594 24.078125 C 11.351562 23.71875 9.96875 22.621094 9.285156 21.28125 L 9.085938 20.894531 L 8.894531 20.863281 C 8.640625 20.828125 7.984375 20.617188 7.632812 20.457031 C 7.105469 20.222656 6.558594 19.851562 6.109375 19.433594 C 5.988281 19.316406 5.886719 19.242188 5.886719 19.265625 C 5.886719 19.289062 5.925781 19.417969 5.972656 19.550781 C 6.089844 19.894531 6.117188 20.171875 6.054688 20.359375 C 6.023438 20.464844 5.855469 20.675781 5.574219 20.96875 C 5.335938 21.214844 5.0625 21.519531 4.964844 21.652344 C 4.25 22.605469 4.117188 24.015625 4.632812 25.136719 C 5.039062 26.011719 5.621094 26.570312 6.613281 27.035156 C 7.117188 27.269531 7.304688 27.410156 7.421875 27.632812 C 7.5625 27.910156 7.542969 28.085938 7.308594 28.589844 C 6.957031 29.359375 6.863281 29.667969 6.832031 30.183594 C 6.726562 32.027344 8.15625 33.75 10.03125 34.042969 C 10.460938 34.113281 10.777344 34.375 10.875 34.746094 C 10.925781 34.9375 10.898438 35.089844 10.738281 35.453125 C 10.46875 36.0625 10.363281 36.949219 10.472656 37.671875 C 10.769531 39.597656 12.199219 41.101562 14.203125 41.585938 C 14.632812 41.691406 15.375 41.714844 16.214844 41.648438 C 16.890625 41.597656 16.90625 41.609375 17.46875 42.40625 C 17.96875 43.113281 18.5625 43.59375 19.273438 43.867188 C 19.824219 44.082031 20.132812 44.128906 20.785156 44.105469 C 21.453125 44.085938 21.714844 44.023438 22.25 43.761719 C 23.144531 43.320312 23.730469 42.671875 24.078125 41.738281 L 24.191406 41.433594 L 24.203125 36.855469 L 24.214844 32.28125 L 23.804688 32.230469 C 23.582031 32.203125 23.089844 32.09375 22.714844 31.996094 C 21.855469 31.761719 21.402344 31.675781 21.03125 31.675781 C 20.671875 31.675781 20.058594 31.8125 19.679688 31.96875 C 18.835938 32.324219 18.074219 33.109375 17.714844 34 C 17.65625 34.148438 17.609375 34.273438 17.617188 34.28125 C 17.625 34.289062 17.796875 34.332031 18.003906 34.382812 C 19.046875 34.628906 19.820312 35.167969 20.300781 35.988281 C 20.542969 36.402344 20.671875 36.800781 20.632812 37.03125 C 20.492188 37.871094 19.480469 38.15625 19.015625 37.484375 C 18.9375 37.375 18.777344 37.132812 18.65625 36.945312 C 18.503906 36.714844 18.371094 36.566406 18.230469 36.46875 C 17.457031 35.953125 16.410156 36.238281 15.996094 37.078125 L 15.863281 37.351562 L 15.898438 37.929688 C 15.914062 38.25 15.929688 38.582031 15.929688 38.667969 C 15.921875 39.164062 15.273438 39.621094 14.796875 39.464844 C 14.550781 39.382812 14.410156 39.230469 14.273438 38.902344 C 14.09375 38.46875 14.039062 38.136719 14.066406 37.652344 C 14.117188 36.765625 14.554688 35.898438 15.269531 35.265625 C 15.390625 35.160156 15.542969 35.039062 15.613281 35 C 15.726562 34.929688 15.746094 34.886719 15.8125 34.539062 C 16.316406 31.90625 18.3125 30.097656 20.867188 29.957031 C 21.480469 29.925781 21.882812 29.976562 22.855469 30.21875 C 23.675781 30.421875 24.234375 30.523438 24.28125 30.480469 C 24.328125 30.433594 24.355469 20.742188 24.3125 20.769531 C 24.292969 20.785156 24.054688 20.941406 23.789062 21.121094 C 22.933594 21.691406 22.09375 22.042969 21.269531 22.179688 C 20.660156 22.28125 19.613281 22.242188 19.003906 22.101562 C 16.949219 21.617188 15.285156 20.171875 14.648438 18.3125 L 14.496094 17.875 L 14.203125 17.78125 C 13.597656 17.585938 13.085938 17.28125 12.605469 16.828125 C 11.847656 16.117188 11.449219 15.308594 11.367188 14.324219 C 11.332031 13.886719 11.382812 13.664062 11.570312 13.453125 C 11.847656 13.136719 12.371094 13.042969 12.746094 13.242188 C 13.023438 13.386719 13.09375 13.523438 13.21875 14.164062 C 13.347656 14.816406 13.429688 15.035156 13.652344 15.300781 C 14.136719 15.882812 14.859375 16.160156 15.648438 16.0625 C 16.132812 16 16.476562 15.839844 16.828125 15.507812 C 17.257812 15.097656 17.378906 14.820312 17.523438 13.914062 C 17.554688 13.742188 17.613281 13.550781 17.667969 13.472656 C 17.941406 13.070312 18.679688 13.023438 19.0625 13.386719 C 19.277344 13.59375 19.316406 13.714844 19.3125 14.179688 C 19.308594 14.449219 19.273438 14.726562 19.21875 14.941406 C 18.921875 16.109375 17.945312 17.191406 16.703125 17.730469 C 16.523438 17.808594 16.367188 17.882812 16.355469 17.894531 C 16.34375 17.90625 16.402344 18.046875 16.480469 18.207031 C 16.917969 19.074219 17.785156 19.832031 18.761719 20.199219 C 19.371094 20.425781 19.667969 20.480469 20.359375 20.480469 C 21.101562 20.480469 21.519531 20.390625 22.128906 20.101562 C 23.230469 19.582031 24.007812 18.640625 24.234375 17.542969 C 24.28125 17.320312 24.292969 16.222656 24.300781 11.851562 C 24.308594 6.449219 24.308594 6.433594 24.21875 6.066406 C 23.898438 4.761719 23.171875 3.773438 22.148438 3.265625 C 21.78125 3.082031 21.226562 2.914062 20.863281 2.878906 C 20.320312 2.828125 20.25 2.828125 19.890625 2.859375 M 27.558594 3.136719 C 27.152344 3.222656 26.847656 3.390625 26.550781 3.6875 C 25.773438 4.464844 25.753906 5.726562 26.511719 6.5 C 26.941406 6.941406 27.289062 7.082031 28.058594 7.136719 C 28.964844 7.203125 29.582031 7.398438 30.246094 7.828125 C 31.109375 8.394531 31.699219 9.234375 32.007812 10.339844 C 32.097656 10.660156 32.101562 10.757812 32.128906 14.539062 C 32.15625 18.6875 32.148438 18.550781 32.382812 19.457031 C 32.738281 20.851562 33.46875 22.132812 34.496094 23.164062 C 34.726562 23.398438 34.917969 23.601562 34.917969 23.617188 C 34.917969 23.628906 34.730469 23.828125 34.5 24.058594 C 33.46875 25.097656 32.738281 26.382812 32.382812 27.777344 C 32.148438 28.683594 32.15625 28.542969 32.125 32.695312 C 32.097656 36.558594 32.097656 36.566406 32 36.921875 C 31.746094 37.863281 31.257812 38.617188 30.550781 39.1875 C 29.871094 39.730469 29.085938 40.015625 28.074219 40.09375 C 27.28125 40.152344 26.941406 40.292969 26.511719 40.730469 C 25.753906 41.503906 25.773438 42.769531 26.550781 43.542969 C 26.855469 43.851562 27.152344 44.007812 27.597656 44.101562 C 27.867188 44.160156 28.003906 44.164062 28.53125 44.121094 C 30.617188 43.960938 32.398438 43.140625 33.820312 41.675781 C 34.871094 40.597656 35.515625 39.472656 35.886719 38.0625 C 36.15625 37.046875 36.15625 37.058594 36.183594 32.863281 L 36.210938 29.03125 L 36.328125 28.660156 C 36.65625 27.597656 37.320312 26.746094 38.242188 26.203125 C 38.808594 25.871094 39.316406 25.726562 40.164062 25.648438 C 40.527344 25.617188 40.90625 25.558594 41.011719 25.523438 C 41.609375 25.304688 42.136719 24.714844 42.277344 24.097656 C 42.335938 23.859375 42.335938 23.371094 42.277344 23.132812 C 42.136719 22.519531 41.605469 21.921875 41.011719 21.710938 C 40.90625 21.671875 40.53125 21.617188 40.175781 21.582031 C 39.46875 21.519531 39.1875 21.457031 38.746094 21.273438 C 37.609375 20.804688 36.742188 19.859375 36.363281 18.6875 C 36.195312 18.15625 36.1875 18.003906 36.1875 14.667969 C 36.1875 11.140625 36.160156 10.449219 35.996094 9.648438 C 35.484375 7.117188 33.824219 4.992188 31.492188 3.878906 C 30.625 3.464844 29.644531 3.203125 28.632812 3.117188 C 28.003906 3.058594 27.898438 3.0625 27.558594 3.136719 " fill-opacity="1" fill-rule="evenodd"/></svg>