<svg xmlns="http://www.w3.org/2000/svg" xmlns:xlink="http://www.w3.org/1999/xlink" width="64" zoomAndPan="magnify" viewBox="0 0 48 48" height="64" preserveAspectRatio="xMidYMid meet" version="1.0"><defs><clipPath id="84718d047a"><path d="M 3.796875 0.367188 L 44.203125 0.367188 L 44.203125 46.652344 L 3.796875 46.652344 Z M 3.796875 0.367188 " clip-rule="nonzero"/></clipPath><clipPath id="5e54835958"><path d="M 25.90625 1.109375 L 42.300781 10.648438 C 43.476562 11.332031 44.203125 12.59375 44.203125 13.960938 L 44.203125 33.0625 C 44.203125 34.425781 43.476562 35.6875 42.300781 36.375 L 25.90625 45.910156 C 24.726562 46.597656 23.273438 46.597656 22.09375 45.910156 L 5.699219 36.375 C 4.523438 35.6875 3.796875 34.425781 3.796875 33.0625 L 3.796875 13.960938 C 3.796875 12.59375 4.523438 11.332031 5.699219 10.648438 L 22.09375 1.109375 C 23.273438 0.421875 24.726562 0.421875 25.90625 1.109375 Z M 25.90625 1.109375 " clip-rule="nonzero"/></clipPath><clipPath id="89e9f78c94"><path d="M 9 10 L 38 10 L 38 37.324219 L 9 37.324219 Z M 9 10 " clip-rule="nonzero"/></clipPath></defs><g clip-path="url(#84718d047a)"><g clip-path="url(#5e54835958)"><path fill="#5271ff" d="M 3.796875 0 L 44.203125 0 L 44.203125 47.019531 L 3.796875 47.019531 Z M 3.796875 0 " fill-opacity="1" fill-rule="nonzero"/></g></g><g clip-path="url(#89e9f78c94)"><path fill="#eef1ff" d="M 22.140625 10.21875 C 15.777344 10.921875 10.59375 16.058594 9.828125 22.410156 C 9.726562 23.207031 9.695312 24.011719 9.734375 24.816406 C 9.773438 25.621094 9.878906 26.417969 10.054688 27.203125 C 10.230469 27.988281 10.472656 28.753906 10.777344 29.5 C 11.085938 30.246094 11.453125 30.957031 11.882812 31.640625 C 12.308594 32.320312 12.792969 32.960938 13.332031 33.5625 C 13.871094 34.160156 14.460938 34.707031 15.09375 35.207031 C 15.726562 35.703125 16.398438 36.144531 17.105469 36.527344 C 17.816406 36.910156 18.550781 37.226562 19.316406 37.484375 C 20.019531 37.597656 20.242188 37.160156 20.242188 36.78125 L 20.242188 34.410156 C 16.355469 35.253906 15.527344 32.53125 15.527344 32.53125 C 14.886719 30.90625 13.972656 30.46875 13.972656 30.46875 C 12.695312 29.601562 14.070312 29.628906 14.070312 29.628906 C 15.472656 29.726562 16.21875 31.074219 16.21875 31.074219 C 17.4375 33.207031 19.5 32.574219 20.300781 32.238281 C 20.425781 31.324219 20.796875 30.707031 21.183594 30.359375 C 18.0625 30.007812 14.796875 28.800781 14.796875 23.457031 C 14.796875 21.898438 15.332031 20.652344 16.242188 19.65625 C 16.105469 19.304688 15.613281 17.84375 16.382812 15.949219 C 16.382812 15.949219 17.5625 15.570312 20.242188 17.382812 C 22.582031 16.753906 24.917969 16.753906 27.253906 17.382812 C 29.9375 15.570312 31.113281 15.949219 31.113281 15.949219 C 31.886719 17.84375 31.394531 19.304688 31.253906 19.65625 C 32.164062 20.648438 32.699219 21.898438 32.699219 23.457031 C 32.699219 28.8125 29.414062 29.992188 26.289062 30.34375 C 26.792969 30.777344 27.253906 31.632812 27.253906 32.9375 L 27.253906 36.78125 C 27.253906 37.160156 27.480469 37.609375 28.195312 37.484375 C 29.011719 37.210938 29.796875 36.867188 30.546875 36.449219 C 31.300781 36.03125 32.007812 35.546875 32.671875 35 C 33.335938 34.453125 33.941406 33.851562 34.496094 33.191406 C 35.046875 32.53125 35.535156 31.828125 35.960938 31.078125 C 36.382812 30.332031 36.734375 29.550781 37.015625 28.734375 C 37.292969 27.921875 37.496094 27.089844 37.625 26.238281 C 37.75 25.390625 37.796875 24.535156 37.769531 23.675781 C 37.738281 22.816406 37.628906 21.964844 37.441406 21.125 C 37.257812 20.285156 36.996094 19.46875 36.660156 18.679688 C 36.324219 17.886719 35.917969 17.132812 35.441406 16.414062 C 34.964844 15.699219 34.429688 15.03125 33.832031 14.410156 C 33.234375 13.792969 32.585938 13.234375 31.886719 12.734375 C 31.183594 12.234375 30.445312 11.804688 29.664062 11.441406 C 28.886719 11.078125 28.078125 10.789062 27.246094 10.574219 C 26.414062 10.359375 25.566406 10.222656 24.710938 10.160156 C 23.851562 10.101562 22.996094 10.121094 22.140625 10.21875 Z M 22.140625 10.21875 " fill-opacity="1" fill-rule="nonzero"/></g></svg>