<svg xmlns="http://www.w3.org/2000/svg" xmlns:xlink="http://www.w3.org/1999/xlink" width="64" zoomAndPan="magnify" viewBox="0 0 48 48" height="64" preserveAspectRatio="xMidYMid meet" version="1.0"><defs><clipPath id="145fae3136"><path d="M 3.796875 0.367188 L 44.203125 0.367188 L 44.203125 46.652344 L 3.796875 46.652344 Z M 3.796875 0.367188 " clip-rule="nonzero"/></clipPath><clipPath id="6fa2a1f2ba"><path d="M 25.90625 1.109375 L 42.300781 10.648438 C 43.476562 11.332031 44.203125 12.59375 44.203125 13.960938 L 44.203125 33.0625 C 44.203125 34.425781 43.476562 35.6875 42.300781 36.375 L 25.90625 45.910156 C 24.726562 46.597656 23.273438 46.597656 22.09375 45.910156 L 5.699219 36.375 C 4.523438 35.6875 3.796875 34.425781 3.796875 33.0625 L 3.796875 13.960938 C 3.796875 12.59375 4.523438 11.332031 5.699219 10.648438 L 22.09375 1.109375 C 23.273438 0.421875 24.726562 0.421875 25.90625 1.109375 Z M 25.90625 1.109375 " clip-rule="nonzero"/></clipPath><clipPath id="fac5c8d528"><path d="M 9.894531 9.402344 L 37.8125 9.402344 L 37.8125 37.324219 L 9.894531 37.324219 Z M 9.894531 9.402344 " clip-rule="nonzero"/></clipPath></defs><g clip-path="url(#145fae3136)"><g clip-path="url(#6fa2a1f2ba)"><path fill="#5271ff" d="M 3.796875 0 L 44.203125 0 L 44.203125 47.019531 L 3.796875 47.019531 Z M 3.796875 0 " fill-opacity="1" fill-rule="nonzero"/></g></g><g clip-path="url(#fac5c8d528)"><path fill="#eef1ff" d="M 23.996094 9.402344 C 16.207031 9.402344 9.894531 15.714844 9.894531 23.507812 C 9.894531 31.296875 16.207031 37.609375 23.996094 37.609375 C 31.785156 37.609375 38.097656 31.296875 38.097656 23.507812 C 38.085938 15.714844 31.773438 9.402344 23.996094 9.402344 Z M 31.589844 18.0625 L 28.84375 30.941406 C 28.710938 31.589844 27.953125 31.871094 27.425781 31.480469 L 20.90625 26.621094 L 28.113281 20.113281 C 28.113281 20.113281 28.601562 19.710938 28.464844 19.585938 C 28.320312 19.441406 27.78125 19.757812 27.511719 19.941406 C 27.230469 20.148438 18.683594 25.546875 18.683594 25.546875 L 14.351562 24.203125 C 13.863281 24.054688 13.863281 23.382812 14.570312 23.089844 L 30.492188 16.960938 C 31.1875 16.621094 31.738281 17.402344 31.589844 18.0625 Z M 31.589844 18.0625 " fill-opacity="1" fill-rule="nonzero"/></g></svg>