<svg xmlns="http://www.w3.org/2000/svg" xmlns:xlink="http://www.w3.org/1999/xlink" width="64" zoomAndPan="magnify" viewBox="0 0 48 48" height="64" preserveAspectRatio="xMidYMid meet" version="1.0"><defs><clipPath id="46a39492d4"><path d="M 3.796875 0.367188 L 44.203125 0.367188 L 44.203125 46.652344 L 3.796875 46.652344 Z M 3.796875 0.367188 " clip-rule="nonzero"/></clipPath><clipPath id="96285d1cfb"><path d="M 25.90625 1.109375 L 42.300781 10.648438 C 43.476562 11.332031 44.203125 12.59375 44.203125 13.960938 L 44.203125 33.0625 C 44.203125 34.425781 43.476562 35.6875 42.300781 36.375 L 25.90625 45.910156 C 24.726562 46.597656 23.273438 46.597656 22.09375 45.910156 L 5.699219 36.375 C 4.523438 35.6875 3.796875 34.425781 3.796875 33.0625 L 3.796875 13.960938 C 3.796875 12.59375 4.523438 11.332031 5.699219 10.648438 L 22.09375 1.109375 C 23.273438 0.421875 24.726562 0.421875 25.90625 1.109375 Z M 25.90625 1.109375 " clip-rule="nonzero"/></clipPath><clipPath id="4006c7793a"><path d="M 9.894531 9.402344 L 37.8125 9.402344 L 37.8125 37.324219 L 9.894531 37.324219 Z M 9.894531 9.402344 " clip-rule="nonzero"/></clipPath></defs><g clip-path="url(#46a39492d4)"><g clip-path="url(#96285d1cfb)"><path fill="#5271ff" d="M 3.796875 0 L 44.203125 0 L 44.203125 47.019531 L 3.796875 47.019531 Z M 3.796875 0 " fill-opacity="1" fill-rule="nonzero"/></g></g><g clip-path="url(#4006c7793a)"><path fill="#eef1ff" d="M 23.996094 9.402344 C 16.207031 9.402344 9.894531 15.714844 9.894531 23.507812 C 9.894531 31.296875 16.207031 37.609375 23.996094 37.609375 C 31.785156 37.609375 38.097656 31.296875 38.097656 23.507812 C 38.085938 15.714844 31.773438 9.402344 23.996094 9.402344 Z M 32.226562 20.332031 C 32.226562 20.332031 32.46875 25.730469 28.367188 29.074219 C 22.226562 34.070312 15.597656 30.015625 15.597656 30.015625 C 15.597656 30.015625 17.207031 30.039062 18.636719 29.660156 C 20.050781 29.28125 21.078125 28.355469 21.078125 28.355469 C 21.078125 28.355469 19.527344 28.035156 18.722656 27.449219 C 17.914062 26.863281 17.597656 25.742188 17.597656 25.742188 C 17.597656 25.742188 18.136719 25.789062 18.464844 25.777344 C 18.808594 25.765625 19.210938 25.605469 19.210938 25.605469 C 19.210938 25.605469 18.097656 25.472656 17.0625 24.3125 C 16.242188 23.398438 16.304688 21.871094 16.304688 21.871094 C 16.304688 21.871094 16.792969 22.164062 17.050781 22.226562 C 17.304688 22.296875 17.804688 22.296875 17.804688 22.296875 C 17.804688 22.296875 16.828125 21.722656 16.402344 20.222656 C 15.972656 18.734375 16.792969 17.21875 16.792969 17.21875 C 16.792969 17.21875 18.246094 18.976562 20.394531 20.101562 C 22.542969 21.222656 24.570312 21.1875 24.570312 21.1875 C 24.570312 21.1875 24.277344 20.296875 24.789062 18.976562 C 25.304688 17.65625 26.464844 16.707031 28.234375 16.570312 C 30.003906 16.425781 31.140625 17.769531 31.140625 17.769531 C 31.140625 17.769531 31.6875 17.671875 32.3125 17.4375 C 32.933594 17.21875 33.558594 16.925781 33.558594 16.925781 C 33.558594 16.925781 33.335938 17.597656 32.910156 18.121094 C 32.484375 18.648438 32.007812 18.964844 32.007812 18.964844 C 32.007812 18.964844 32.566406 18.929688 33.128906 18.769531 C 33.691406 18.609375 33.996094 18.453125 33.996094 18.453125 C 33.347656 19.527344 32.226562 20.332031 32.226562 20.332031 Z M 32.226562 20.332031 " fill-opacity="1" fill-rule="nonzero"/></g></svg>