<svg xmlns="http://www.w3.org/2000/svg" xmlns:xlink="http://www.w3.org/1999/xlink" width="100" zoomAndPan="magnify" viewBox="0 0 75 30.000001" height="40" preserveAspectRatio="xMidYMid meet" version="1.0"><defs><g/><clipPath id="39233c23f2"><path d="M 56 6 L 73.675781 6 L 73.675781 24 L 56 24 Z M 56 6 " clip-rule="nonzero"/></clipPath><clipPath id="2a084b9b5e"><path d="M 56 5 L 73.675781 5 L 73.675781 24 L 56 24 Z M 56 5 " clip-rule="nonzero"/></clipPath><clipPath id="a738845476"><path d="M 1.210938 7 L 9 7 L 9 15 L 1.210938 15 Z M 1.210938 7 " clip-rule="nonzero"/></clipPath><clipPath id="dcb5cf9014"><path d="M 1.210938 18 L 5 18 L 5 23 L 1.210938 23 Z M 1.210938 18 " clip-rule="nonzero"/></clipPath></defs><g clip-path="url(#39233c23f2)"><path fill="#5271ff" d="M 69.632812 6.566406 C 69.730469 6.660156 69.8125 6.742188 69.816406 6.742188 C 69.824219 6.742188 69.75 6.660156 69.652344 6.566406 C 69.554688 6.46875 69.472656 6.390625 69.46875 6.390625 C 69.464844 6.390625 69.539062 6.46875 69.632812 6.566406 M 70.667969 8.953125 C 70.667969 9.011719 70.671875 9.054688 70.675781 9.050781 C 70.691406 9.035156 70.699219 8.847656 70.683594 8.847656 C 70.675781 8.847656 70.667969 8.894531 70.667969 8.953125 M 68.902344 10.417969 C 68.902344 11.21875 68.90625 11.542969 68.910156 11.144531 C 68.910156 10.746094 68.910156 10.09375 68.910156 9.695312 C 68.90625 9.292969 68.902344 9.621094 68.902344 10.417969 M 59.84375 10.316406 C 59.84375 10.378906 59.847656 10.402344 59.851562 10.367188 C 59.855469 10.335938 59.855469 10.285156 59.851562 10.257812 C 59.847656 10.230469 59.84375 10.257812 59.84375 10.316406 M 71.214844 13.0625 C 71.273438 13.125 71.328125 13.171875 71.332031 13.171875 C 71.339844 13.171875 71.292969 13.125 71.234375 13.0625 C 71.171875 13 71.117188 12.953125 71.113281 12.953125 C 71.109375 12.953125 71.152344 13 71.214844 13.0625 M 57.324219 13.292969 C 57.246094 13.371094 57.191406 13.433594 57.195312 13.433594 C 57.199219 13.433594 57.265625 13.371094 57.339844 13.292969 C 57.417969 13.21875 57.476562 13.15625 57.46875 13.15625 C 57.464844 13.15625 57.398438 13.21875 57.324219 13.292969 M 56.757812 14.496094 C 56.757812 14.578125 56.761719 14.609375 56.765625 14.5625 C 56.769531 14.519531 56.769531 14.453125 56.765625 14.417969 C 56.757812 14.378906 56.757812 14.414062 56.757812 14.496094 M 73.367188 14.480469 C 73.367188 14.527344 73.371094 14.5625 73.378906 14.554688 C 73.394531 14.539062 73.398438 14.394531 73.382812 14.394531 C 73.375 14.394531 73.367188 14.433594 73.367188 14.480469 M 71.203125 15.90625 L 71.101562 16.011719 L 71.210938 15.910156 C 71.308594 15.816406 71.324219 15.796875 71.3125 15.796875 C 71.308594 15.796875 71.261719 15.847656 71.203125 15.90625 M 68.902344 18.535156 C 68.902344 19.332031 68.90625 19.660156 68.910156 19.257812 C 68.910156 18.859375 68.910156 18.207031 68.910156 17.808594 C 68.90625 17.410156 68.902344 17.734375 68.902344 18.535156 M 70.667969 20.003906 C 70.667969 20.0625 70.675781 20.105469 70.683594 20.097656 C 70.695312 20.085938 70.691406 19.917969 70.675781 19.902344 C 70.671875 19.898438 70.667969 19.945312 70.667969 20.003906 M 69.632812 22.394531 L 69.457031 22.574219 L 69.636719 22.398438 C 69.738281 22.300781 69.820312 22.21875 69.820312 22.21875 C 69.820312 22.203125 69.796875 22.226562 69.632812 22.394531 M 63.824219 23.445312 C 63.867188 23.449219 63.9375 23.449219 63.980469 23.445312 C 64.027344 23.441406 63.988281 23.4375 63.902344 23.4375 C 63.816406 23.4375 63.78125 23.441406 63.824219 23.445312 " fill-opacity="1" fill-rule="evenodd"/></g><g clip-path="url(#2a084b9b5e)"><path fill="#5271ff" d="M 63.570312 5.410156 C 63.03125 5.460938 62.589844 5.726562 62.320312 6.167969 C 62.109375 6.511719 62.078125 6.527344 61.695312 6.542969 C 61.46875 6.550781 61.386719 6.5625 61.25 6.601562 C 60.910156 6.699219 60.585938 6.914062 60.378906 7.167969 C 60.238281 7.335938 60.109375 7.605469 60.058594 7.820312 C 60.007812 8.042969 60.015625 8.253906 60.085938 8.515625 C 60.226562 9.027344 60.230469 9.054688 60.207031 9.140625 C 60.160156 9.320312 59.953125 9.4375 59.71875 9.414062 C 59.65625 9.40625 59.523438 9.410156 59.421875 9.421875 C 58.933594 9.472656 58.464844 9.753906 58.203125 10.148438 C 58.074219 10.34375 58.011719 10.507812 57.96875 10.757812 C 57.925781 10.984375 57.886719 11.089844 57.800781 11.199219 C 57.75 11.261719 57.746094 11.28125 57.757812 11.347656 C 57.792969 11.585938 57.941406 11.867188 58.152344 12.085938 C 58.421875 12.367188 58.640625 12.464844 59.144531 12.527344 C 59.320312 12.546875 59.4375 12.589844 59.488281 12.648438 C 59.507812 12.667969 59.546875 12.757812 59.578125 12.851562 C 59.777344 13.417969 60.125 13.765625 60.625 13.902344 C 60.765625 13.9375 60.898438 13.945312 61.269531 13.925781 C 61.59375 13.90625 61.628906 13.914062 61.714844 14.007812 C 61.921875 14.234375 61.832031 14.613281 61.554688 14.691406 C 61.253906 14.769531 60.832031 14.765625 60.476562 14.679688 C 59.839844 14.519531 59.234375 14.042969 58.9375 13.457031 L 58.847656 13.289062 L 58.765625 13.273438 C 58.65625 13.257812 58.367188 13.167969 58.214844 13.097656 C 57.984375 12.992188 57.746094 12.832031 57.550781 12.648438 C 57.496094 12.597656 57.453125 12.566406 57.453125 12.578125 C 57.453125 12.585938 57.46875 12.644531 57.488281 12.699219 C 57.542969 12.851562 57.554688 12.972656 57.527344 13.054688 C 57.511719 13.101562 57.4375 13.191406 57.316406 13.320312 C 57.210938 13.425781 57.09375 13.5625 57.050781 13.617188 C 56.738281 14.035156 56.679688 14.652344 56.90625 15.140625 C 57.082031 15.523438 57.335938 15.765625 57.769531 15.96875 C 57.988281 16.074219 58.070312 16.132812 58.121094 16.230469 C 58.183594 16.351562 58.175781 16.429688 58.074219 16.648438 C 57.917969 16.984375 57.878906 17.121094 57.867188 17.34375 C 57.820312 18.152344 58.441406 18.902344 59.261719 19.03125 C 59.449219 19.0625 59.589844 19.175781 59.632812 19.339844 C 59.652344 19.421875 59.640625 19.488281 59.570312 19.648438 C 59.453125 19.914062 59.40625 20.300781 59.457031 20.617188 C 59.585938 21.457031 60.210938 22.113281 61.085938 22.324219 C 61.273438 22.371094 61.597656 22.382812 61.964844 22.351562 C 62.257812 22.332031 62.265625 22.335938 62.511719 22.683594 C 62.730469 22.992188 62.988281 23.203125 63.296875 23.324219 C 63.539062 23.414062 63.675781 23.4375 63.960938 23.425781 C 64.25 23.417969 64.367188 23.390625 64.597656 23.277344 C 64.988281 23.082031 65.246094 22.800781 65.398438 22.390625 L 65.445312 22.257812 L 65.453125 20.261719 L 65.457031 18.261719 L 65.277344 18.238281 C 65.179688 18.226562 64.96875 18.179688 64.804688 18.136719 C 64.425781 18.035156 64.230469 17.996094 64.066406 17.996094 C 63.910156 17.996094 63.640625 18.054688 63.476562 18.125 C 63.109375 18.28125 62.777344 18.625 62.617188 19.011719 C 62.59375 19.078125 62.574219 19.132812 62.578125 19.136719 C 62.578125 19.136719 62.65625 19.15625 62.746094 19.179688 C 63.199219 19.289062 63.539062 19.523438 63.746094 19.878906 C 63.855469 20.0625 63.910156 20.238281 63.894531 20.335938 C 63.832031 20.703125 63.390625 20.828125 63.1875 20.535156 C 63.152344 20.488281 63.082031 20.378906 63.03125 20.300781 C 62.964844 20.199219 62.90625 20.132812 62.84375 20.089844 C 62.503906 19.867188 62.046875 19.992188 61.867188 20.359375 L 61.808594 20.476562 L 61.824219 20.730469 C 61.832031 20.867188 61.839844 21.015625 61.839844 21.050781 C 61.835938 21.269531 61.550781 21.46875 61.34375 21.398438 C 61.238281 21.363281 61.175781 21.296875 61.117188 21.152344 C 61.035156 20.964844 61.011719 20.820312 61.023438 20.609375 C 61.046875 20.21875 61.238281 19.84375 61.550781 19.5625 C 61.601562 19.519531 61.671875 19.464844 61.699219 19.449219 C 61.75 19.417969 61.757812 19.398438 61.789062 19.246094 C 62.007812 18.097656 62.878906 17.308594 63.996094 17.246094 C 64.265625 17.230469 64.4375 17.253906 64.863281 17.359375 C 65.222656 17.449219 65.46875 17.496094 65.488281 17.472656 C 65.507812 17.453125 65.519531 13.222656 65.5 13.234375 C 65.492188 13.238281 65.386719 13.308594 65.273438 13.386719 C 64.898438 13.636719 64.53125 13.789062 64.171875 13.847656 C 63.90625 13.894531 63.449219 13.875 63.183594 13.816406 C 62.285156 13.605469 61.558594 12.972656 61.28125 12.160156 L 61.214844 11.96875 L 61.085938 11.925781 C 60.820312 11.84375 60.597656 11.710938 60.386719 11.511719 C 60.054688 11.199219 59.882812 10.847656 59.847656 10.417969 C 59.832031 10.226562 59.851562 10.128906 59.933594 10.039062 C 60.054688 9.898438 60.285156 9.859375 60.449219 9.945312 C 60.570312 10.007812 60.601562 10.070312 60.65625 10.347656 C 60.710938 10.632812 60.746094 10.726562 60.84375 10.84375 C 61.054688 11.097656 61.371094 11.21875 61.714844 11.175781 C 61.929688 11.148438 62.078125 11.078125 62.230469 10.933594 C 62.417969 10.757812 62.472656 10.632812 62.535156 10.238281 C 62.546875 10.164062 62.574219 10.078125 62.597656 10.046875 C 62.71875 9.871094 63.039062 9.851562 63.207031 10.007812 C 63.300781 10.097656 63.320312 10.152344 63.316406 10.355469 C 63.316406 10.472656 63.300781 10.59375 63.277344 10.6875 C 63.148438 11.195312 62.71875 11.671875 62.175781 11.90625 C 62.097656 11.941406 62.03125 11.972656 62.023438 11.976562 C 62.019531 11.984375 62.042969 12.042969 62.078125 12.113281 C 62.269531 12.492188 62.648438 12.824219 63.074219 12.984375 C 63.339844 13.082031 63.472656 13.105469 63.773438 13.105469 C 64.097656 13.109375 64.28125 13.066406 64.546875 12.941406 C 65.027344 12.714844 65.367188 12.304688 65.464844 11.824219 C 65.488281 11.726562 65.492188 11.246094 65.496094 9.339844 C 65.5 6.976562 65.5 6.972656 65.460938 6.8125 C 65.320312 6.242188 65 5.808594 64.554688 5.585938 C 64.394531 5.507812 64.152344 5.433594 63.992188 5.417969 C 63.757812 5.398438 63.726562 5.398438 63.570312 5.410156 M 66.917969 5.53125 C 66.742188 5.570312 66.605469 5.644531 66.476562 5.773438 C 66.136719 6.109375 66.128906 6.664062 66.460938 7 C 66.648438 7.191406 66.800781 7.253906 67.136719 7.28125 C 67.53125 7.308594 67.804688 7.394531 68.089844 7.582031 C 68.46875 7.828125 68.726562 8.195312 68.863281 8.679688 C 68.902344 8.816406 68.902344 8.859375 68.914062 10.511719 C 68.925781 12.324219 68.925781 12.265625 69.023438 12.660156 C 69.179688 13.269531 69.5 13.828125 69.949219 14.28125 C 70.050781 14.382812 70.132812 14.46875 70.132812 14.476562 C 70.132812 14.484375 70.050781 14.570312 69.949219 14.671875 C 69.5 15.125 69.179688 15.683594 69.023438 16.292969 C 68.925781 16.691406 68.925781 16.628906 68.914062 18.441406 C 68.902344 20.128906 68.902344 20.132812 68.859375 20.289062 C 68.746094 20.699219 68.535156 21.03125 68.226562 21.277344 C 67.929688 21.515625 67.585938 21.640625 67.144531 21.675781 C 66.796875 21.699219 66.648438 21.761719 66.460938 21.953125 C 66.128906 22.289062 66.136719 22.84375 66.476562 23.179688 C 66.613281 23.316406 66.742188 23.382812 66.9375 23.425781 C 67.054688 23.449219 67.113281 23.453125 67.34375 23.433594 C 68.253906 23.363281 69.03125 23.003906 69.652344 22.367188 C 70.113281 21.894531 70.394531 21.402344 70.554688 20.785156 C 70.671875 20.34375 70.671875 20.347656 70.6875 18.515625 L 70.699219 16.84375 L 70.75 16.679688 C 70.890625 16.214844 71.183594 15.84375 71.585938 15.605469 C 71.832031 15.460938 72.054688 15.398438 72.425781 15.363281 C 72.582031 15.351562 72.75 15.324219 72.792969 15.308594 C 73.054688 15.214844 73.285156 14.957031 73.347656 14.6875 C 73.371094 14.582031 73.371094 14.371094 73.347656 14.265625 C 73.285156 13.996094 73.054688 13.738281 72.792969 13.644531 C 72.75 13.628906 72.585938 13.601562 72.429688 13.589844 C 72.121094 13.558594 71.996094 13.535156 71.804688 13.453125 C 71.308594 13.246094 70.929688 12.835938 70.765625 12.324219 C 70.691406 12.089844 70.6875 12.027344 70.6875 10.570312 C 70.6875 9.027344 70.675781 8.726562 70.605469 8.375 C 70.378906 7.269531 69.65625 6.339844 68.636719 5.855469 C 68.257812 5.675781 67.828125 5.5625 67.386719 5.523438 C 67.113281 5.5 67.066406 5.5 66.917969 5.53125 " fill-opacity="1" fill-rule="evenodd"/></g><g clip-path="url(#a738845476)"><g fill="#5271ff" fill-opacity="1"><g transform="translate(1.209676, 14.158995)"><g><path d="M 1.96875 0 C 1.4375 0 1.03125 -0.128906 0.75 -0.390625 C 0.476562 -0.660156 0.34375 -1.082031 0.34375 -1.65625 L 0.34375 -2.421875 L 1.640625 -2.421875 L 1.640625 -1.6875 L 3.1875 -1.6875 C 3.4375 -1.6875 3.617188 -1.722656 3.734375 -1.796875 C 3.847656 -1.878906 3.90625 -2.007812 3.90625 -2.1875 C 3.90625 -2.257812 3.890625 -2.351562 3.859375 -2.46875 C 3.828125 -2.582031 3.789062 -2.695312 3.75 -2.8125 L 2.75 -5.671875 L 4.203125 -6.171875 L 5.34375 -2.921875 C 5.425781 -2.671875 5.507812 -2.460938 5.59375 -2.296875 C 5.675781 -2.140625 5.765625 -2.015625 5.859375 -1.921875 C 5.953125 -1.835938 6.050781 -1.773438 6.15625 -1.734375 C 6.269531 -1.703125 6.398438 -1.6875 6.546875 -1.6875 L 6.890625 -1.6875 L 6.890625 -0.34375 L 6.546875 0 C 6.234375 0 5.957031 -0.0195312 5.71875 -0.0625 C 5.488281 -0.113281 5.28125 -0.195312 5.09375 -0.3125 C 4.914062 -0.4375 4.753906 -0.59375 4.609375 -0.78125 C 4.460938 -0.976562 4.320312 -1.234375 4.1875 -1.546875 L 4.140625 -1.53125 C 4.085938 -1.257812 4.019531 -1.023438 3.9375 -0.828125 C 3.863281 -0.628906 3.765625 -0.46875 3.640625 -0.34375 C 3.523438 -0.226562 3.378906 -0.140625 3.203125 -0.078125 C 3.035156 -0.0234375 2.832031 0 2.59375 0 Z M 1.96875 0 "/></g></g></g></g><g fill="#5271ff" fill-opacity="1"><g transform="translate(8.103909, 14.158995)"><g><path d="M -0.34375 -1.359375 L 0 -1.6875 L 0.34375 -1.6875 C 0.945312 -1.6875 1.25 -1.953125 1.25 -2.484375 L 1.25 -4.09375 L 2.484375 -4.09375 L 2.484375 -2.484375 C 2.484375 -1.953125 2.75 -1.6875 3.28125 -1.6875 L 3.734375 -1.6875 L 3.734375 -0.34375 L 3.390625 0 C 2.785156 0 2.328125 -0.117188 2.015625 -0.359375 C 1.703125 -0.609375 1.492188 -1 1.390625 -1.53125 L 1.328125 -1.53125 C 1.210938 -1 1.023438 -0.609375 0.765625 -0.359375 C 0.515625 -0.117188 0.144531 0 -0.34375 0 Z M 2.640625 2.4375 C 2.441406 2.4375 2.28125 2.375 2.15625 2.25 C 2.03125 2.125 1.96875 1.929688 1.96875 1.671875 C 1.96875 1.410156 2.03125 1.21875 2.15625 1.09375 C 2.28125 0.976562 2.441406 0.921875 2.640625 0.921875 L 2.875 0.921875 C 3.0625 0.921875 3.21875 0.976562 3.34375 1.09375 C 3.46875 1.21875 3.53125 1.410156 3.53125 1.671875 C 3.53125 1.929688 3.46875 2.125 3.34375 2.25 C 3.21875 2.375 3.0625 2.4375 2.875 2.4375 Z M 0.859375 2.4375 C 0.660156 2.4375 0.5 2.375 0.375 2.25 C 0.25 2.125 0.1875 1.929688 0.1875 1.671875 C 0.1875 1.410156 0.25 1.21875 0.375 1.09375 C 0.5 0.976562 0.660156 0.921875 0.859375 0.921875 L 1.078125 0.921875 C 1.273438 0.921875 1.4375 0.976562 1.5625 1.09375 C 1.6875 1.21875 1.75 1.410156 1.75 1.671875 C 1.75 1.929688 1.6875 2.125 1.5625 2.25 C 1.4375 2.375 1.273438 2.4375 1.078125 2.4375 Z M 0.859375 2.4375 "/></g></g></g><g fill="#5271ff" fill-opacity="1"><g transform="translate(11.833579, 14.158995)"><g><path d="M -0.34375 -1.359375 L 0 -1.6875 L 0.015625 -1.6875 C 0.367188 -1.6875 0.632812 -1.726562 0.8125 -1.8125 C 0.988281 -1.90625 1.132812 -2.0625 1.25 -2.28125 L 1.6875 -3.203125 L 2.796875 -2.65625 L 2.40625 -1.828125 C 2.582031 -1.742188 2.765625 -1.671875 2.953125 -1.609375 C 3.148438 -1.554688 3.34375 -1.53125 3.53125 -1.53125 C 3.851562 -1.53125 4.085938 -1.597656 4.234375 -1.734375 C 4.378906 -1.878906 4.453125 -2.128906 4.453125 -2.484375 L 4.453125 -3.203125 L 5.6875 -3.203125 L 5.6875 -2.484375 C 5.6875 -2.171875 5.738281 -1.941406 5.84375 -1.796875 C 5.957031 -1.648438 6.109375 -1.578125 6.296875 -1.578125 L 6.421875 -1.578125 C 6.578125 -1.578125 6.703125 -1.632812 6.796875 -1.75 C 6.898438 -1.875 6.953125 -2.0625 6.953125 -2.3125 C 6.953125 -2.414062 6.9375 -2.546875 6.90625 -2.703125 C 6.882812 -2.867188 6.859375 -3.070312 6.828125 -3.3125 L 6.71875 -3.890625 L 7.953125 -4.09375 L 8.046875 -3.515625 C 8.078125 -3.296875 8.097656 -3.085938 8.109375 -2.890625 C 8.128906 -2.703125 8.140625 -2.507812 8.140625 -2.3125 C 8.140625 -1.46875 7.992188 -0.847656 7.703125 -0.453125 C 7.421875 -0.0546875 6.972656 0.140625 6.359375 0.140625 C 5.828125 0.140625 5.425781 0.015625 5.15625 -0.234375 C 4.882812 -0.492188 4.695312 -0.894531 4.59375 -1.4375 L 4.53125 -1.4375 C 4.46875 -0.894531 4.332031 -0.492188 4.125 -0.234375 C 3.914062 0.015625 3.644531 0.140625 3.3125 0.140625 C 3.09375 0.140625 2.875 0.0976562 2.65625 0.015625 C 2.445312 -0.0664062 2.164062 -0.207031 1.8125 -0.40625 L 1.578125 -0.546875 C 1.347656 -0.316406 1.082031 -0.164062 0.78125 -0.09375 C 0.488281 -0.03125 0.113281 0 -0.34375 0 Z M -0.34375 -1.359375 "/></g></g></g><g fill="#5271ff" fill-opacity="1"><g transform="translate(20.321398, 14.158995)"><g/></g></g><g fill="#5271ff" fill-opacity="1"><g transform="translate(22.988678, 14.158995)"><g><path d="M 5.421875 0 C 4.816406 -0.0078125 4.375 -0.175781 4.09375 -0.5 C 3.8125 -0.832031 3.671875 -1.285156 3.671875 -1.859375 L 3.671875 -1.90625 L 3.609375 -1.90625 C 3.546875 -1.644531 3.472656 -1.421875 3.390625 -1.234375 C 3.316406 -1.054688 3.21875 -0.910156 3.09375 -0.796875 C 2.976562 -0.691406 2.835938 -0.613281 2.671875 -0.5625 C 2.503906 -0.519531 2.304688 -0.5 2.078125 -0.5 C 1.535156 -0.5 1.128906 -0.640625 0.859375 -0.921875 C 0.585938 -1.210938 0.453125 -1.625 0.453125 -2.15625 C 0.453125 -2.769531 0.625 -3.269531 0.96875 -3.65625 C 1.3125 -4.050781 1.769531 -4.390625 2.34375 -4.671875 L 3.609375 -5.3125 L 3.609375 -5.9375 L 4.96875 -5.9375 L 4.96875 -2.484375 C 4.96875 -1.953125 5.234375 -1.6875 5.765625 -1.6875 L 6.21875 -1.6875 C 6.738281 -1.6875 7 -1.953125 7 -2.484375 L 7 -6.8125 L 8.25 -6.8125 L 8.25 -2.484375 C 8.25 -1.953125 8.507812 -1.6875 9.03125 -1.6875 L 9.484375 -1.6875 C 10.015625 -1.6875 10.28125 -1.953125 10.28125 -2.484375 L 10.28125 -7.65625 L 11.640625 -7.65625 L 11.640625 -2.484375 C 11.640625 -1.628906 11.445312 -1 11.0625 -0.59375 C 10.6875 -0.195312 10.085938 0 9.265625 0 C 8.640625 0 8.15625 -0.117188 7.8125 -0.359375 C 7.476562 -0.609375 7.257812 -1 7.15625 -1.53125 L 7.078125 -1.53125 C 6.972656 -1 6.789062 -0.609375 6.53125 -0.359375 C 6.28125 -0.109375 5.910156 0.0078125 5.421875 0 Z M 12.984375 -8.359375 L 14.34375 -8.359375 L 14.34375 0 L 12.984375 0 Z M 6.578125 -7.625 C 6.359375 -7.625 6.1875 -7.707031 6.0625 -7.875 C 5.9375 -8.039062 5.875 -8.273438 5.875 -8.578125 L 5.875 -9.453125 L 6.640625 -9.453125 L 6.640625 -8.828125 C 6.640625 -8.671875 6.707031 -8.59375 6.84375 -8.59375 C 7.019531 -8.59375 7.109375 -8.726562 7.109375 -9 L 7.109375 -9.796875 L 7.890625 -9.796875 L 7.890625 -9.296875 C 7.890625 -9.117188 7.96875 -9.03125 8.125 -9.03125 C 8.289062 -9.03125 8.375 -9.117188 8.375 -9.296875 C 8.375 -9.398438 8.359375 -9.519531 8.328125 -9.65625 C 8.304688 -9.789062 8.265625 -9.9375 8.203125 -10.09375 L 8.96875 -10.296875 C 9.03125 -10.128906 9.078125 -9.957031 9.109375 -9.78125 C 9.140625 -9.601562 9.15625 -9.441406 9.15625 -9.296875 C 9.15625 -8.898438 9.0625 -8.59375 8.875 -8.375 C 8.695312 -8.164062 8.445312 -8.0625 8.125 -8.0625 C 7.925781 -8.0625 7.757812 -8.109375 7.625 -8.203125 C 7.5 -8.304688 7.421875 -8.445312 7.390625 -8.625 L 7.328125 -8.625 C 7.296875 -8.28125 7.21875 -8.023438 7.09375 -7.859375 C 6.976562 -7.703125 6.804688 -7.625 6.578125 -7.625 Z M 2.453125 -2.1875 C 2.890625 -2.1875 3.191406 -2.226562 3.359375 -2.3125 C 3.523438 -2.394531 3.609375 -2.546875 3.609375 -2.765625 L 3.609375 -4.125 L 2.78125 -3.734375 C 2.570312 -3.628906 2.394531 -3.539062 2.25 -3.46875 C 2.101562 -3.394531 1.976562 -3.316406 1.875 -3.234375 C 1.78125 -3.160156 1.707031 -3.082031 1.65625 -3 C 1.601562 -2.914062 1.578125 -2.820312 1.578125 -2.71875 C 1.578125 -2.519531 1.640625 -2.378906 1.765625 -2.296875 C 1.890625 -2.222656 2.117188 -2.1875 2.453125 -2.1875 Z M 7.109375 -12.21875 L 7.90625 -12.21875 L 7.90625 -10.171875 L 7.109375 -10.171875 Z M 7.109375 -12.21875 "/></g></g></g><g fill="#5271ff" fill-opacity="1"><g transform="translate(38.020365, 14.158995)"><g><path d="M 1.96875 0 C 1.4375 0 1.03125 -0.128906 0.75 -0.390625 C 0.476562 -0.660156 0.34375 -1.082031 0.34375 -1.65625 L 0.34375 -2.421875 L 1.640625 -2.421875 L 1.640625 -1.6875 L 3.1875 -1.6875 C 3.4375 -1.6875 3.617188 -1.722656 3.734375 -1.796875 C 3.847656 -1.878906 3.90625 -2.007812 3.90625 -2.1875 C 3.90625 -2.257812 3.890625 -2.351562 3.859375 -2.46875 C 3.828125 -2.582031 3.789062 -2.695312 3.75 -2.8125 L 2.75 -5.671875 L 4.203125 -6.171875 L 5.34375 -2.921875 C 5.425781 -2.671875 5.507812 -2.460938 5.59375 -2.296875 C 5.675781 -2.140625 5.765625 -2.015625 5.859375 -1.921875 C 5.953125 -1.835938 6.050781 -1.773438 6.15625 -1.734375 C 6.269531 -1.703125 6.398438 -1.6875 6.546875 -1.6875 L 6.890625 -1.6875 L 6.890625 -0.34375 L 6.546875 0 C 6.234375 0 5.957031 -0.0195312 5.71875 -0.0625 C 5.488281 -0.113281 5.28125 -0.195312 5.09375 -0.3125 C 4.914062 -0.4375 4.753906 -0.59375 4.609375 -0.78125 C 4.460938 -0.976562 4.320312 -1.234375 4.1875 -1.546875 L 4.140625 -1.53125 C 4.085938 -1.257812 4.019531 -1.023438 3.9375 -0.828125 C 3.863281 -0.628906 3.765625 -0.46875 3.640625 -0.34375 C 3.523438 -0.226562 3.378906 -0.140625 3.203125 -0.078125 C 3.035156 -0.0234375 2.832031 0 2.59375 0 Z M 1.96875 0 "/></g></g></g><g fill="#5271ff" fill-opacity="1"><g transform="translate(44.914598, 14.158995)"><g><path d="M -0.34375 -1.359375 L 0 -1.6875 L 0.34375 -1.6875 C 0.945312 -1.6875 1.25 -1.953125 1.25 -2.484375 L 1.25 -4.09375 L 2.484375 -4.09375 L 2.484375 -2.484375 C 2.484375 -1.953125 2.75 -1.6875 3.28125 -1.6875 L 3.734375 -1.6875 L 3.734375 -0.34375 L 3.390625 0 C 2.785156 0 2.328125 -0.117188 2.015625 -0.359375 C 1.703125 -0.609375 1.492188 -1 1.390625 -1.53125 L 1.328125 -1.53125 C 1.210938 -1 1.023438 -0.609375 0.765625 -0.359375 C 0.515625 -0.117188 0.144531 0 -0.34375 0 Z M 1.75 2.4375 C 1.550781 2.4375 1.390625 2.375 1.265625 2.25 C 1.140625 2.125 1.078125 1.929688 1.078125 1.671875 C 1.078125 1.410156 1.140625 1.21875 1.265625 1.09375 C 1.390625 0.976562 1.550781 0.921875 1.75 0.921875 L 1.96875 0.921875 C 2.164062 0.921875 2.328125 0.976562 2.453125 1.09375 C 2.578125 1.21875 2.640625 1.410156 2.640625 1.671875 C 2.640625 1.929688 2.578125 2.125 2.453125 2.25 C 2.328125 2.375 2.164062 2.4375 1.96875 2.4375 Z M 1.75 2.4375 "/></g></g></g><g fill="#5271ff" fill-opacity="1"><g transform="translate(48.644268, 14.158995)"><g><path d="M -0.34375 -1.359375 L 0 -1.6875 L 0.90625 -1.6875 L 0.90625 -1.75 C 0.75 -1.96875 0.628906 -2.203125 0.546875 -2.453125 C 0.472656 -2.703125 0.4375 -2.96875 0.4375 -3.25 C 0.4375 -3.625 0.503906 -3.972656 0.640625 -4.296875 C 0.773438 -4.617188 0.957031 -4.898438 1.1875 -5.140625 C 1.414062 -5.390625 1.6875 -5.582031 2 -5.71875 C 2.3125 -5.863281 2.648438 -5.9375 3.015625 -5.9375 C 3.628906 -5.9375 4.125 -5.8125 4.5 -5.5625 C 4.882812 -5.3125 5.207031 -4.972656 5.46875 -4.546875 L 4.265625 -3.46875 C 4.097656 -3.726562 3.90625 -3.921875 3.6875 -4.046875 C 3.46875 -4.171875 3.207031 -4.234375 2.90625 -4.234375 C 2.476562 -4.234375 2.144531 -4.148438 1.90625 -3.984375 C 1.675781 -3.816406 1.5625 -3.570312 1.5625 -3.25 C 1.5625 -2.863281 1.722656 -2.566406 2.046875 -2.359375 C 2.378906 -2.160156 2.835938 -2.0625 3.421875 -2.0625 C 3.617188 -2.0625 3.828125 -2.070312 4.046875 -2.09375 C 4.265625 -2.125 4.460938 -2.164062 4.640625 -2.21875 L 5.734375 -2.53125 L 6.171875 -1 L 4.5 -0.5 C 4.175781 -0.394531 3.863281 -0.3125 3.5625 -0.25 C 3.269531 -0.1875 2.941406 -0.132812 2.578125 -0.09375 C 2.210938 -0.0625 1.796875 -0.0351562 1.328125 -0.015625 C 0.859375 -0.00390625 0.300781 0 -0.34375 0 Z M -0.34375 -1.359375 "/></g></g></g><g clip-path="url(#dcb5cf9014)"><g fill="#5271ff" fill-opacity="1"><g transform="translate(1.216655, 22.855981)"><g><path d="M 3.15625 0 C 2.75 0 2.457031 -0.0820312 2.28125 -0.25 C 2.113281 -0.414062 2.03125 -0.671875 2.03125 -1.015625 L 2.03125 -1.109375 L 2 -1.109375 C 1.925781 -0.859375 1.816406 -0.675781 1.671875 -0.5625 C 1.535156 -0.457031 1.351562 -0.40625 1.125 -0.40625 C 0.820312 -0.40625 0.585938 -0.484375 0.421875 -0.640625 C 0.253906 -0.804688 0.171875 -1.039062 0.171875 -1.34375 C 0.171875 -1.488281 0.191406 -1.625 0.234375 -1.75 C 0.285156 -1.882812 0.351562 -2.003906 0.4375 -2.109375 C 0.53125 -2.222656 0.644531 -2.328125 0.78125 -2.421875 C 0.925781 -2.523438 1.09375 -2.628906 1.28125 -2.734375 L 2 -3.09375 L 2 -3.453125 L 2.59375 -3.453125 L 2.59375 -1.171875 C 2.59375 -1.015625 2.628906 -0.90625 2.703125 -0.84375 C 2.785156 -0.78125 2.914062 -0.75 3.09375 -0.75 L 3.3125 -0.75 L 3.3125 -0.15625 Z M 1.265625 -1.15625 C 1.535156 -1.15625 1.722656 -1.1875 1.828125 -1.25 C 1.941406 -1.320312 2 -1.441406 2 -1.609375 L 2 -2.5 L 1.390625 -2.203125 C 1.148438 -2.078125 0.976562 -1.96875 0.875 -1.875 C 0.769531 -1.78125 0.71875 -1.660156 0.71875 -1.515625 C 0.71875 -1.390625 0.757812 -1.296875 0.84375 -1.234375 C 0.925781 -1.179688 1.066406 -1.15625 1.265625 -1.15625 Z M 2.265625 -4 C 2.160156 -4 2.078125 -4.023438 2.015625 -4.078125 C 1.953125 -4.140625 1.921875 -4.238281 1.921875 -4.375 C 1.921875 -4.507812 1.953125 -4.601562 2.015625 -4.65625 C 2.078125 -4.71875 2.160156 -4.75 2.265625 -4.75 L 2.359375 -4.75 C 2.460938 -4.75 2.546875 -4.71875 2.609375 -4.65625 C 2.671875 -4.601562 2.703125 -4.507812 2.703125 -4.375 C 2.703125 -4.238281 2.671875 -4.140625 2.609375 -4.078125 C 2.546875 -4.023438 2.460938 -4 2.359375 -4 Z M 1.328125 -4 C 1.222656 -4 1.140625 -4.023438 1.078125 -4.078125 C 1.023438 -4.140625 1 -4.238281 1 -4.375 C 1 -4.507812 1.023438 -4.601562 1.078125 -4.65625 C 1.140625 -4.71875 1.222656 -4.75 1.328125 -4.75 L 1.421875 -4.75 C 1.523438 -4.75 1.609375 -4.71875 1.671875 -4.65625 C 1.734375 -4.601562 1.765625 -4.507812 1.765625 -4.375 C 1.765625 -4.238281 1.734375 -4.140625 1.671875 -4.078125 C 1.609375 -4.023438 1.523438 -4 1.421875 -4 Z M 1.328125 -4 "/></g></g></g></g><g fill="#5271ff" fill-opacity="1"><g transform="translate(4.53202, 22.855981)"><g><path d="M -0.15625 -0.59375 L 0 -0.75 L 0.21875 -0.75 C 0.582031 -0.75 0.765625 -0.925781 0.765625 -1.28125 L 0.765625 -2.28125 L 1.34375 -2.28125 L 1.34375 -1.28125 C 1.34375 -0.925781 1.515625 -0.75 1.859375 -0.75 L 2.125 -0.75 L 2.125 -0.15625 L 1.953125 0 C 1.628906 0 1.375 -0.0546875 1.1875 -0.171875 C 1.007812 -0.296875 0.894531 -0.488281 0.84375 -0.75 L 0.796875 -0.75 C 0.742188 -0.476562 0.644531 -0.285156 0.5 -0.171875 C 0.351562 -0.0546875 0.132812 0 -0.15625 0 Z M 1.484375 1.375 C 1.378906 1.375 1.296875 1.34375 1.234375 1.28125 C 1.171875 1.226562 1.140625 1.132812 1.140625 1 C 1.140625 0.863281 1.171875 0.765625 1.234375 0.703125 C 1.296875 0.648438 1.378906 0.625 1.484375 0.625 L 1.578125 0.625 C 1.679688 0.625 1.765625 0.648438 1.828125 0.703125 C 1.890625 0.765625 1.921875 0.863281 1.921875 1 C 1.921875 1.132812 1.890625 1.226562 1.828125 1.28125 C 1.765625 1.34375 1.679688 1.375 1.578125 1.375 Z M 0.546875 1.375 C 0.441406 1.375 0.359375 1.34375 0.296875 1.28125 C 0.242188 1.226562 0.21875 1.132812 0.21875 1 C 0.21875 0.863281 0.242188 0.765625 0.296875 0.703125 C 0.359375 0.648438 0.441406 0.625 0.546875 0.625 L 0.640625 0.625 C 0.742188 0.625 0.828125 0.648438 0.890625 0.703125 C 0.953125 0.765625 0.984375 0.863281 0.984375 1 C 0.984375 1.132812 0.953125 1.226562 0.890625 1.28125 C 0.828125 1.34375 0.742188 1.375 0.640625 1.375 Z M 0.546875 1.375 "/></g></g></g><g fill="#5271ff" fill-opacity="1"><g transform="translate(6.651461, 22.855981)"><g><path d="M 0.75 -0.375 C 0.644531 -0.238281 0.519531 -0.140625 0.375 -0.078125 C 0.238281 -0.0234375 0.0625 0 -0.15625 0 L -0.15625 -0.59375 L 0 -0.75 C 0.164062 -0.75 0.285156 -0.785156 0.359375 -0.859375 C 0.441406 -0.929688 0.515625 -1.054688 0.578125 -1.234375 L 0.765625 -1.71875 C 0.878906 -1.988281 1.019531 -2.207031 1.1875 -2.375 C 1.363281 -2.539062 1.601562 -2.625 1.90625 -2.625 C 2.257812 -2.625 2.535156 -2.46875 2.734375 -2.15625 C 2.929688 -1.851562 3.03125 -1.425781 3.03125 -0.875 L 3.03125 -0.609375 L 2.53125 0.125 Z M 1.0625 -1.078125 L 2.453125 -0.6875 L 2.453125 -0.875 C 2.453125 -1.1875 2.390625 -1.429688 2.265625 -1.609375 C 2.148438 -1.785156 1.988281 -1.875 1.78125 -1.875 C 1.625 -1.875 1.5 -1.828125 1.40625 -1.734375 C 1.3125 -1.640625 1.234375 -1.515625 1.171875 -1.359375 Z M 1.0625 -1.078125 "/></g></g></g><g fill="#5271ff" fill-opacity="1"><g transform="translate(9.946897, 22.855981)"><g><path d="M 1.6875 0 C 1.25 0 0.929688 -0.0859375 0.734375 -0.265625 C 0.546875 -0.441406 0.453125 -0.742188 0.453125 -1.171875 L 0.453125 -4.921875 L 1.078125 -4.921875 L 1.078125 -1.234375 C 1.078125 -1.046875 1.117188 -0.914062 1.203125 -0.84375 C 1.285156 -0.78125 1.429688 -0.75 1.640625 -0.75 L 1.859375 -0.75 L 1.859375 -0.15625 Z M 1.6875 0 "/></g></g></g><g fill="#5271ff" fill-opacity="1"><g transform="translate(11.800575, 22.855981)"><g><path d="M 0.75 -0.375 C 0.644531 -0.238281 0.519531 -0.140625 0.375 -0.078125 C 0.238281 -0.0234375 0.0625 0 -0.15625 0 L -0.15625 -0.59375 L 0 -0.75 C 0.164062 -0.75 0.285156 -0.785156 0.359375 -0.859375 C 0.441406 -0.929688 0.515625 -1.054688 0.578125 -1.234375 L 0.765625 -1.71875 C 0.878906 -1.988281 1.019531 -2.207031 1.1875 -2.375 C 1.363281 -2.539062 1.601562 -2.625 1.90625 -2.625 C 2.257812 -2.625 2.535156 -2.46875 2.734375 -2.15625 C 2.929688 -1.851562 3.03125 -1.425781 3.03125 -0.875 L 3.03125 -0.609375 L 2.53125 0.125 Z M 1.0625 -1.078125 L 2.453125 -0.6875 L 2.453125 -0.875 C 2.453125 -1.1875 2.390625 -1.429688 2.265625 -1.609375 C 2.148438 -1.785156 1.988281 -1.875 1.78125 -1.875 C 1.625 -1.875 1.5 -1.828125 1.40625 -1.734375 C 1.3125 -1.640625 1.234375 -1.515625 1.171875 -1.359375 Z M 1.0625 -1.078125 "/></g></g></g><g fill="#5271ff" fill-opacity="1"><g transform="translate(15.096012, 22.855981)"><g><path d="M 0.359375 -0.734375 L 1.578125 -1.875 L -0.0625 -3.59375 L 0.390625 -4.046875 L 2.03125 -2.3125 C 2.101562 -2.375 2.160156 -2.4375 2.203125 -2.5 C 2.253906 -2.570312 2.296875 -2.640625 2.328125 -2.703125 C 2.359375 -2.773438 2.378906 -2.851562 2.390625 -2.9375 C 2.398438 -3.019531 2.40625 -3.117188 2.40625 -3.234375 L 2.40625 -4.921875 L 3.03125 -4.921875 L 3.03125 -3.234375 C 3.03125 -3.085938 3.019531 -2.957031 3 -2.84375 C 2.976562 -2.726562 2.941406 -2.617188 2.890625 -2.515625 C 2.847656 -2.421875 2.785156 -2.328125 2.703125 -2.234375 C 2.628906 -2.140625 2.53125 -2.035156 2.40625 -1.921875 L 2.75 -1.578125 C 2.914062 -1.398438 3.03125 -1.25 3.09375 -1.125 C 3.15625 -1 3.1875 -0.863281 3.1875 -0.71875 C 3.1875 -0.625 3.164062 -0.53125 3.125 -0.4375 C 3.09375 -0.351562 3.046875 -0.273438 2.984375 -0.203125 C 2.921875 -0.140625 2.84375 -0.0859375 2.75 -0.046875 C 2.65625 -0.015625 2.550781 0 2.4375 0 L 0.359375 0 Z M 1.9375 -1.5 L 1.140625 -0.78125 L 1.140625 -0.75 L 2.65625 -0.75 Z M 0.25 -4.8125 L 0.515625 -4.8125 L 0.515625 -4.84375 C 0.429688 -4.9375 0.390625 -5.050781 0.390625 -5.1875 C 0.390625 -5.363281 0.453125 -5.507812 0.578125 -5.625 C 0.703125 -5.75 0.859375 -5.8125 1.046875 -5.8125 C 1.160156 -5.8125 1.273438 -5.785156 1.390625 -5.734375 C 1.503906 -5.679688 1.59375 -5.609375 1.65625 -5.515625 L 1.390625 -5.15625 C 1.285156 -5.257812 1.171875 -5.3125 1.046875 -5.3125 C 0.972656 -5.3125 0.910156 -5.289062 0.859375 -5.25 C 0.804688 -5.21875 0.78125 -5.171875 0.78125 -5.109375 C 0.78125 -4.929688 0.9375 -4.84375 1.25 -4.84375 L 1.703125 -4.84375 L 1.703125 -4.359375 L 0.25 -4.359375 Z M 0.25 -4.8125 "/></g></g></g><g fill="#5271ff" fill-opacity="1"><g transform="translate(18.557548, 22.855981)"><g><path d="M 0.453125 -4.921875 L 1.078125 -4.921875 L 1.078125 0 L 0.453125 0 Z M 0.453125 -4.921875 "/></g></g></g><g fill="#5271ff" fill-opacity="1"><g transform="translate(20.092316, 22.855981)"><g/></g></g><g fill="#5271ff" fill-opacity="1"><g transform="translate(21.660304, 22.855981)"><g><path d="M 3.15625 0 C 2.75 0 2.457031 -0.0820312 2.28125 -0.25 C 2.113281 -0.414062 2.03125 -0.671875 2.03125 -1.015625 L 2.03125 -1.109375 L 2 -1.109375 C 1.925781 -0.859375 1.816406 -0.675781 1.671875 -0.5625 C 1.535156 -0.457031 1.351562 -0.40625 1.125 -0.40625 C 0.820312 -0.40625 0.585938 -0.484375 0.421875 -0.640625 C 0.253906 -0.804688 0.171875 -1.039062 0.171875 -1.34375 C 0.171875 -1.488281 0.191406 -1.625 0.234375 -1.75 C 0.285156 -1.882812 0.351562 -2.003906 0.4375 -2.109375 C 0.53125 -2.222656 0.644531 -2.328125 0.78125 -2.421875 C 0.925781 -2.523438 1.09375 -2.628906 1.28125 -2.734375 L 2 -3.09375 L 2 -3.453125 L 2.59375 -3.453125 L 2.59375 -1.171875 C 2.59375 -1.015625 2.628906 -0.90625 2.703125 -0.84375 C 2.785156 -0.78125 2.914062 -0.75 3.09375 -0.75 L 3.3125 -0.75 L 3.3125 -0.15625 Z M 1.265625 -1.15625 C 1.535156 -1.15625 1.722656 -1.1875 1.828125 -1.25 C 1.941406 -1.320312 2 -1.441406 2 -1.609375 L 2 -2.5 L 1.390625 -2.203125 C 1.148438 -2.078125 0.976562 -1.96875 0.875 -1.875 C 0.769531 -1.78125 0.71875 -1.660156 0.71875 -1.515625 C 0.71875 -1.390625 0.757812 -1.296875 0.84375 -1.234375 C 0.925781 -1.179688 1.066406 -1.15625 1.265625 -1.15625 Z M 2.265625 -4 C 2.160156 -4 2.078125 -4.023438 2.015625 -4.078125 C 1.953125 -4.140625 1.921875 -4.238281 1.921875 -4.375 C 1.921875 -4.507812 1.953125 -4.601562 2.015625 -4.65625 C 2.078125 -4.71875 2.160156 -4.75 2.265625 -4.75 L 2.359375 -4.75 C 2.460938 -4.75 2.546875 -4.71875 2.609375 -4.65625 C 2.671875 -4.601562 2.703125 -4.507812 2.703125 -4.375 C 2.703125 -4.238281 2.671875 -4.140625 2.609375 -4.078125 C 2.546875 -4.023438 2.460938 -4 2.359375 -4 Z M 1.328125 -4 C 1.222656 -4 1.140625 -4.023438 1.078125 -4.078125 C 1.023438 -4.140625 1 -4.238281 1 -4.375 C 1 -4.507812 1.023438 -4.601562 1.078125 -4.65625 C 1.140625 -4.71875 1.222656 -4.75 1.328125 -4.75 L 1.421875 -4.75 C 1.523438 -4.75 1.609375 -4.71875 1.671875 -4.65625 C 1.734375 -4.601562 1.765625 -4.507812 1.765625 -4.375 C 1.765625 -4.238281 1.734375 -4.140625 1.671875 -4.078125 C 1.609375 -4.023438 1.523438 -4 1.421875 -4 Z M 1.328125 -4 "/></g></g></g><g fill="#5271ff" fill-opacity="1"><g transform="translate(24.975669, 22.855981)"><g><path d="M 1.140625 1.796875 C 1.015625 1.609375 0.910156 1.453125 0.828125 1.328125 C 0.753906 1.203125 0.691406 1.09375 0.640625 1 C 0.597656 0.90625 0.566406 0.820312 0.546875 0.75 C 0.535156 0.675781 0.53125 0.601562 0.53125 0.53125 C 0.53125 0.382812 0.554688 0.242188 0.609375 0.109375 C 0.660156 -0.015625 0.722656 -0.125 0.796875 -0.21875 L 0.75 -0.25 C 0.664062 -0.164062 0.554688 -0.101562 0.421875 -0.0625 C 0.296875 -0.0195312 0.101562 0 -0.15625 0 L -0.15625 -0.59375 L 0 -0.75 L 0.1875 -0.75 C 0.375 -0.75 0.519531 -0.78125 0.625 -0.84375 C 0.726562 -0.914062 0.820312 -1.035156 0.90625 -1.203125 L 1.171875 -1.75 L 1.671875 -1.5 L 1.421875 -0.984375 C 1.359375 -0.867188 1.304688 -0.765625 1.265625 -0.671875 C 1.222656 -0.578125 1.1875 -0.492188 1.15625 -0.421875 C 1.132812 -0.347656 1.117188 -0.273438 1.109375 -0.203125 C 1.097656 -0.128906 1.09375 -0.0546875 1.09375 0.015625 C 1.09375 0.0859375 1.101562 0.160156 1.125 0.234375 C 1.144531 0.304688 1.171875 0.382812 1.203125 0.46875 C 1.234375 0.550781 1.28125 0.644531 1.34375 0.75 C 1.40625 0.851562 1.476562 0.972656 1.5625 1.109375 L 2.109375 -0.234375 C 2.179688 -0.429688 2.257812 -0.566406 2.34375 -0.640625 C 2.425781 -0.710938 2.546875 -0.75 2.703125 -0.75 L 3.234375 -0.75 L 3.234375 -0.15625 L 3.078125 0 L 2.5625 0 L 1.859375 1.796875 Z M 1.140625 1.796875 "/></g></g></g><g fill="#5271ff" fill-opacity="1"><g transform="translate(28.211306, 22.855981)"><g><path d="M -0.15625 -0.59375 L 0 -0.75 L 0.328125 -0.75 C 0.546875 -0.75 0.742188 -0.753906 0.921875 -0.765625 C 1.109375 -0.773438 1.285156 -0.796875 1.453125 -0.828125 C 1.628906 -0.859375 1.804688 -0.90625 1.984375 -0.96875 C 2.171875 -1.03125 2.375 -1.117188 2.59375 -1.234375 L 3.046875 -1.453125 L 3.046875 -1.484375 L 2.03125 -1.703125 L 0.8125 -2 L 0.8125 -1.46875 L 0.21875 -1.46875 L 0.21875 -1.96875 C 0.21875 -2.207031 0.273438 -2.382812 0.390625 -2.5 C 0.515625 -2.625 0.679688 -2.6875 0.890625 -2.6875 C 0.941406 -2.6875 1.003906 -2.675781 1.078125 -2.65625 C 1.160156 -2.644531 1.289062 -2.617188 1.46875 -2.578125 L 2.9375 -2.203125 C 3.363281 -2.085938 3.726562 -2.03125 4.03125 -2.03125 L 4.15625 -2.03125 L 4.15625 -1.28125 L 3.640625 -1.28125 L 2.859375 -0.796875 C 2.578125 -0.617188 2.320312 -0.476562 2.09375 -0.375 C 1.875 -0.269531 1.664062 -0.1875 1.46875 -0.125 C 1.28125 -0.0703125 1.09375 -0.0351562 0.90625 -0.015625 C 0.71875 -0.00390625 0.523438 0 0.328125 0 L -0.15625 0 Z M 2.03125 1.375 C 1.925781 1.375 1.84375 1.34375 1.78125 1.28125 C 1.726562 1.226562 1.703125 1.132812 1.703125 1 C 1.703125 0.863281 1.726562 0.765625 1.78125 0.703125 C 1.84375 0.648438 1.925781 0.625 2.03125 0.625 L 2.125 0.625 C 2.226562 0.625 2.3125 0.648438 2.375 0.703125 C 2.4375 0.765625 2.46875 0.863281 2.46875 1 C 2.46875 1.132812 2.4375 1.226562 2.375 1.28125 C 2.3125 1.34375 2.226562 1.375 2.125 1.375 Z M 2.03125 1.375 "/></g></g></g><g fill="#5271ff" fill-opacity="1"><g transform="translate(32.503341, 22.855981)"><g><path d="M 0.453125 -4.921875 L 1.078125 -4.921875 L 1.078125 0 L 0.453125 0 Z M 0.453125 -4.921875 "/></g></g></g><g fill="#5271ff" fill-opacity="1"><g transform="translate(34.03811, 22.855981)"><g><path d="M 0.21875 0.84375 L 0.59375 0.84375 C 1.0625 0.84375 1.425781 0.769531 1.6875 0.625 C 1.945312 0.476562 2.117188 0.269531 2.203125 0 L 1.40625 0 C 1.050781 0 0.773438 -0.09375 0.578125 -0.28125 C 0.378906 -0.476562 0.28125 -0.757812 0.28125 -1.125 C 0.28125 -1.332031 0.3125 -1.53125 0.375 -1.71875 C 0.4375 -1.90625 0.523438 -2.066406 0.640625 -2.203125 C 0.753906 -2.335938 0.890625 -2.441406 1.046875 -2.515625 C 1.203125 -2.597656 1.367188 -2.640625 1.546875 -2.640625 C 1.941406 -2.640625 2.25 -2.472656 2.46875 -2.140625 C 2.6875 -1.804688 2.800781 -1.34375 2.8125 -0.75 L 3.125 -0.75 L 3.125 -0.15625 L 2.96875 0 L 2.734375 0 C 2.617188 0.507812 2.382812 0.898438 2.03125 1.171875 C 1.6875 1.453125 1.21875 1.59375 0.625 1.59375 L 0.21875 1.59375 Z M 0.828125 -1.21875 C 0.828125 -1.050781 0.878906 -0.929688 0.984375 -0.859375 C 1.085938 -0.785156 1.238281 -0.75 1.4375 -0.75 L 2.265625 -0.75 L 2.265625 -0.875 C 2.265625 -1.175781 2.191406 -1.421875 2.046875 -1.609375 C 1.898438 -1.796875 1.71875 -1.890625 1.5 -1.890625 C 1.289062 -1.890625 1.125 -1.828125 1 -1.703125 C 0.882812 -1.578125 0.828125 -1.414062 0.828125 -1.21875 Z M 0.828125 -1.21875 "/></g></g></g><g fill="#5271ff" fill-opacity="1"><g transform="translate(37.160801, 22.855981)"><g><path d="M -0.15625 -0.59375 L 0 -0.75 L 0.234375 -0.75 C 0.429688 -0.75 0.566406 -0.789062 0.640625 -0.875 C 0.710938 -0.957031 0.75 -1.09375 0.75 -1.28125 L 0.75 -4.921875 L 1.375 -4.921875 L 1.375 -1.28125 C 1.375 -0.84375 1.285156 -0.519531 1.109375 -0.3125 C 0.929688 -0.101562 0.640625 0 0.234375 0 L -0.15625 0 Z M -0.15625 -0.59375 "/></g></g></g><g fill="#5271ff" fill-opacity="1"><g transform="translate(39.001196, 22.855981)"><g><path d="M 0.453125 -4.921875 L 1.078125 -4.921875 L 1.078125 0 L 0.453125 0 Z M 0.453125 -4.921875 "/></g></g></g><g fill="#5271ff" fill-opacity="1"><g transform="translate(40.535965, 22.855981)"><g/></g></g><g fill="#5271ff" fill-opacity="1"><g transform="translate(42.103952, 22.855981)"><g><path d="M -0.40625 0.84375 L -0.140625 0.84375 C 0.078125 0.84375 0.257812 0.8125 0.40625 0.75 C 0.5625 0.695312 0.6875 0.617188 0.78125 0.515625 C 0.875 0.410156 0.941406 0.285156 0.984375 0.140625 C 1.023438 -0.00390625 1.046875 -0.171875 1.046875 -0.359375 C 1.046875 -0.472656 1.035156 -0.59375 1.015625 -0.71875 C 1.003906 -0.851562 0.988281 -0.984375 0.96875 -1.109375 L 0.828125 -1.90625 L 1.40625 -2.015625 L 1.5 -1.46875 C 1.570312 -1.03125 1.609375 -0.660156 1.609375 -0.359375 C 1.609375 -0.0859375 1.578125 0.164062 1.515625 0.40625 C 1.453125 0.644531 1.347656 0.851562 1.203125 1.03125 C 1.054688 1.207031 0.875 1.34375 0.65625 1.4375 C 0.4375 1.539062 0.171875 1.59375 -0.140625 1.59375 L -0.40625 1.59375 Z M -0.40625 0.84375 "/></g></g></g><g fill="#5271ff" fill-opacity="1"><g transform="translate(43.964276, 22.855981)"><g><path d="M 0.21875 0.84375 L 0.59375 0.84375 C 1.0625 0.84375 1.425781 0.769531 1.6875 0.625 C 1.945312 0.476562 2.117188 0.269531 2.203125 0 L 1.40625 0 C 1.050781 0 0.773438 -0.09375 0.578125 -0.28125 C 0.378906 -0.476562 0.28125 -0.757812 0.28125 -1.125 C 0.28125 -1.332031 0.3125 -1.53125 0.375 -1.71875 C 0.4375 -1.90625 0.523438 -2.066406 0.640625 -2.203125 C 0.753906 -2.335938 0.890625 -2.441406 1.046875 -2.515625 C 1.203125 -2.597656 1.367188 -2.640625 1.546875 -2.640625 C 1.941406 -2.640625 2.25 -2.472656 2.46875 -2.140625 C 2.6875 -1.804688 2.800781 -1.34375 2.8125 -0.75 L 3.125 -0.75 L 3.125 -0.15625 L 2.96875 0 L 2.734375 0 C 2.617188 0.507812 2.382812 0.898438 2.03125 1.171875 C 1.6875 1.453125 1.21875 1.59375 0.625 1.59375 L 0.21875 1.59375 Z M 0.828125 -1.21875 C 0.828125 -1.050781 0.878906 -0.929688 0.984375 -0.859375 C 1.085938 -0.785156 1.238281 -0.75 1.4375 -0.75 L 2.265625 -0.75 L 2.265625 -0.875 C 2.265625 -1.175781 2.191406 -1.421875 2.046875 -1.609375 C 1.898438 -1.796875 1.71875 -1.890625 1.5 -1.890625 C 1.289062 -1.890625 1.125 -1.828125 1 -1.703125 C 0.882812 -1.578125 0.828125 -1.414062 0.828125 -1.21875 Z M 0.828125 -1.21875 "/></g></g></g><g fill="#5271ff" fill-opacity="1"><g transform="translate(47.086967, 22.855981)"><g><path d="M 4.53125 0 C 4.363281 0 4.21875 -0.015625 4.09375 -0.046875 C 3.96875 -0.078125 3.851562 -0.140625 3.75 -0.234375 C 3.5 -0.078125 3.144531 0 2.6875 0 L -0.15625 0 L -0.15625 -0.59375 L 0 -0.75 L 0.3125 -0.75 L 0.53125 -1.109375 L 0.53125 -4.921875 L 1.15625 -4.921875 L 1.15625 -2.796875 L 1.078125 -2.015625 L 1.109375 -2 C 1.367188 -2.320312 1.640625 -2.546875 1.921875 -2.671875 C 2.203125 -2.804688 2.507812 -2.875 2.84375 -2.875 C 3.3125 -2.875 3.671875 -2.742188 3.921875 -2.484375 C 4.171875 -2.222656 4.296875 -1.867188 4.296875 -1.421875 C 4.296875 -1.171875 4.265625 -0.957031 4.203125 -0.78125 C 4.253906 -0.769531 4.304688 -0.757812 4.359375 -0.75 C 4.410156 -0.75 4.46875 -0.75 4.53125 -0.75 L 4.6875 -0.75 L 4.6875 -0.15625 Z M 2.6875 -0.75 C 3.050781 -0.75 3.316406 -0.796875 3.484375 -0.890625 C 3.660156 -0.984375 3.75 -1.15625 3.75 -1.40625 C 3.75 -1.882812 3.484375 -2.125 2.953125 -2.125 L 2.75 -2.125 C 2.5625 -2.125 2.394531 -2.109375 2.25 -2.078125 C 2.101562 -2.046875 1.96875 -2 1.84375 -1.9375 C 1.71875 -1.875 1.597656 -1.785156 1.484375 -1.671875 C 1.378906 -1.554688 1.265625 -1.410156 1.140625 -1.234375 L 0.859375 -0.796875 L 0.875 -0.75 Z M 2.6875 -0.75 "/></g></g></g><g fill="#5271ff" fill-opacity="1"><g transform="translate(51.784291, 22.855981)"><g><path d="M 0.75 -0.375 C 0.644531 -0.238281 0.519531 -0.140625 0.375 -0.078125 C 0.238281 -0.0234375 0.0625 0 -0.15625 0 L -0.15625 -0.59375 L 0 -0.75 C 0.164062 -0.75 0.285156 -0.785156 0.359375 -0.859375 C 0.441406 -0.929688 0.515625 -1.054688 0.578125 -1.234375 L 0.765625 -1.71875 C 0.878906 -1.988281 1.019531 -2.207031 1.1875 -2.375 C 1.363281 -2.539062 1.601562 -2.625 1.90625 -2.625 C 2.257812 -2.625 2.535156 -2.46875 2.734375 -2.15625 C 2.929688 -1.851562 3.03125 -1.425781 3.03125 -0.875 L 3.03125 -0.609375 L 2.53125 0.125 Z M 1.0625 -1.078125 L 2.453125 -0.6875 L 2.453125 -0.875 C 2.453125 -1.1875 2.390625 -1.429688 2.265625 -1.609375 C 2.148438 -1.785156 1.988281 -1.875 1.78125 -1.875 C 1.625 -1.875 1.5 -1.828125 1.40625 -1.734375 C 1.3125 -1.640625 1.234375 -1.515625 1.171875 -1.359375 Z M 1.0625 -1.078125 "/></g></g></g></svg>