<svg xmlns="http://www.w3.org/2000/svg" xmlns:xlink="http://www.w3.org/1999/xlink" width="50" zoomAndPan="magnify" viewBox="0 0 37.5 37.499999" height="50" preserveAspectRatio="xMidYMid meet" version="1.0"><defs><clipPath id="74be912be0"><path d="M 1.765625 0 L 35.070312 0 L 35.070312 37 L 1.765625 37 Z M 1.765625 0 " clip-rule="nonzero"/></clipPath></defs><path fill="#5271ff" d="M 19.742188 9.871094 C 16.570312 6.707031 11.410156 6.707031 8.238281 9.871094 C 6.703125 11.402344 5.855469 13.441406 5.855469 15.613281 C 5.855469 17.78125 6.703125 19.820312 8.238281 21.351562 C 9.824219 22.933594 11.90625 23.726562 13.992188 23.726562 C 16.074219 23.726562 18.15625 22.933594 19.742188 21.351562 C 21.28125 19.820312 22.125 17.78125 22.125 15.613281 C 22.125 13.441406 21.28125 11.402344 19.742188 9.871094 Z M 19.328125 20.9375 C 16.386719 23.875 11.597656 23.875 8.652344 20.9375 C 7.230469 19.515625 6.445312 17.625 6.445312 15.613281 C 6.445312 13.601562 7.230469 11.707031 8.652344 10.285156 C 10.125 8.816406 12.058594 8.082031 13.992188 8.082031 C 15.925781 8.082031 17.855469 8.816406 19.328125 10.285156 C 20.753906 11.707031 21.539062 13.601562 21.539062 15.613281 C 21.539062 17.625 20.753906 19.515625 19.328125 20.9375 Z M 19.328125 20.9375 " fill-opacity="1" fill-rule="nonzero"/><path fill="#5271ff" d="M 19.542969 14.125 C 19.285156 13.15625 18.769531 12.269531 18.054688 11.554688 C 15.816406 9.316406 12.167969 9.316406 9.925781 11.554688 C 9.398438 12.082031 8.984375 12.691406 8.699219 13.371094 C 8.632812 13.519531 8.703125 13.691406 8.851562 13.753906 C 9.003906 13.820312 9.175781 13.75 9.238281 13.601562 C 9.496094 12.992188 9.867188 12.441406 10.339844 11.96875 C 12.355469 9.960938 15.628906 9.960938 17.640625 11.96875 C 18.28125 12.609375 18.746094 13.410156 18.976562 14.277344 C 19.011719 14.410156 19.132812 14.496094 19.261719 14.496094 C 19.285156 14.496094 19.3125 14.492188 19.335938 14.484375 C 19.492188 14.445312 19.585938 14.28125 19.542969 14.125 Z M 19.542969 14.125 " fill-opacity="1" fill-rule="nonzero"/><g clip-path="url(#74be912be0)"><path fill="#5271ff" d="M 34.449219 32.242188 L 24.125 21.941406 L 26.914062 18.664062 C 27.21875 18.855469 27.582031 18.96875 27.96875 18.96875 C 28.367188 18.96875 28.738281 18.851562 29.050781 18.648438 L 31.21875 21.125 C 30.921875 21.472656 30.742188 21.925781 30.742188 22.414062 C 30.742188 23.515625 31.640625 24.410156 32.742188 24.410156 C 33.84375 24.410156 34.738281 23.515625 34.738281 22.414062 C 34.738281 21.316406 33.84375 20.421875 32.742188 20.421875 C 32.34375 20.421875 31.972656 20.539062 31.660156 20.738281 L 29.492188 18.261719 C 29.789062 17.914062 29.96875 17.464844 29.96875 16.972656 C 29.96875 15.871094 29.070312 14.976562 27.96875 14.976562 C 26.867188 14.976562 25.972656 15.871094 25.972656 16.972656 C 25.972656 17.476562 26.160156 17.933594 26.464844 18.285156 L 23.707031 21.527344 L 23.082031 20.902344 C 24.015625 19.3125 24.511719 17.5 24.511719 15.613281 C 24.511719 14.167969 24.222656 12.769531 23.671875 11.480469 L 34.445312 11.480469 C 34.609375 11.480469 34.738281 11.351562 34.738281 11.1875 C 34.738281 11.027344 34.609375 10.894531 34.445312 10.894531 L 33.035156 10.894531 L 33.035156 3.703125 C 33.035156 3.542969 32.902344 3.410156 32.742188 3.410156 L 30.015625 3.410156 C 29.851562 3.410156 29.722656 3.542969 29.722656 3.703125 L 29.722656 10.894531 L 28.261719 10.894531 L 28.261719 0.300781 C 28.261719 0.140625 28.132812 0.0078125 27.96875 0.0078125 L 25.242188 0.0078125 C 25.078125 0.0078125 24.949219 0.140625 24.949219 0.300781 L 24.949219 10.894531 L 23.488281 10.894531 L 23.488281 3.023438 C 23.488281 2.859375 23.359375 2.730469 23.195312 2.730469 L 20.46875 2.730469 C 20.304688 2.730469 20.175781 2.859375 20.175781 3.023438 L 20.175781 7.117188 C 16.0625 4.132812 10.257812 4.488281 6.550781 8.1875 C 4.566406 10.167969 3.46875 12.804688 3.46875 15.613281 C 3.46875 18.417969 4.566406 21.054688 6.550781 23.035156 C 8.601562 25.082031 11.296875 26.105469 13.992188 26.105469 C 15.824219 26.105469 17.660156 25.632812 19.289062 24.683594 L 20.226562 25.617188 L 13.683594 33.3125 C 13.375 33.121094 13.015625 33.007812 12.628906 33.007812 C 12.347656 33.007812 12.078125 33.066406 11.835938 33.171875 L 8.445312 27.703125 C 8.394531 27.625 8.3125 27.574219 8.21875 27.566406 C 8.125 27.558594 8.035156 27.597656 7.972656 27.667969 L 4.835938 31.28125 C 4.527344 31.082031 4.15625 30.96875 3.765625 30.96875 C 2.660156 30.96875 1.765625 31.863281 1.765625 32.960938 C 1.765625 34.0625 2.660156 34.957031 3.765625 34.957031 C 4.867188 34.957031 5.761719 34.0625 5.761719 32.960938 C 5.761719 32.46875 5.578125 32.015625 5.28125 31.664062 L 8.15625 28.351562 L 11.339844 33.480469 C 10.90625 33.847656 10.628906 34.394531 10.628906 35.003906 C 10.628906 36.105469 11.527344 37 12.628906 37 C 13.730469 37 14.625 36.105469 14.625 35.003906 C 14.625 34.5 14.4375 34.042969 14.128906 33.691406 L 20.644531 26.035156 L 30.660156 36.027344 C 31.179688 36.546875 31.867188 36.808594 32.554688 36.808594 C 33.238281 36.808594 33.925781 36.546875 34.449219 36.027344 C 34.953125 35.523438 35.234375 34.851562 35.234375 34.136719 C 35.234375 33.421875 34.953125 32.75 34.449219 32.242188 Z M 32.742188 21.007812 C 33.519531 21.007812 34.152344 21.640625 34.152344 22.414062 C 34.152344 23.191406 33.519531 23.824219 32.742188 23.824219 C 31.964844 23.824219 31.332031 23.191406 31.332031 22.414062 C 31.332031 21.640625 31.964844 21.007812 32.742188 21.007812 Z M 27.96875 15.566406 C 28.746094 15.566406 29.378906 16.195312 29.378906 16.972656 C 29.378906 17.75 28.746094 18.378906 27.96875 18.378906 C 27.191406 18.378906 26.558594 17.75 26.558594 16.972656 C 26.558594 16.195312 27.191406 15.566406 27.96875 15.566406 Z M 30.308594 3.996094 L 32.449219 3.996094 L 32.449219 10.894531 L 30.308594 10.894531 Z M 25.535156 0.59375 L 27.675781 0.59375 L 27.675781 10.894531 L 25.535156 10.894531 Z M 3.765625 34.371094 C 2.984375 34.371094 2.351562 33.738281 2.351562 32.960938 C 2.351562 32.1875 2.984375 31.554688 3.765625 31.554688 C 4.542969 31.554688 5.175781 32.1875 5.175781 32.960938 C 5.175781 33.738281 4.542969 34.371094 3.765625 34.371094 Z M 12.628906 36.410156 C 11.847656 36.410156 11.214844 35.78125 11.214844 35.003906 C 11.214844 34.226562 11.847656 33.597656 12.628906 33.597656 C 13.40625 33.597656 14.039062 34.226562 14.039062 35.003906 C 14.039062 35.78125 13.40625 36.410156 12.628906 36.410156 Z M 20.761719 3.316406 L 22.902344 3.316406 L 22.902344 10.023438 C 22.488281 9.367188 21.996094 8.75 21.429688 8.1875 C 21.214844 7.972656 20.992188 7.769531 20.761719 7.574219 Z M 6.964844 22.621094 C 5.089844 20.75 4.058594 18.257812 4.058594 15.613281 C 4.058594 12.964844 5.089844 10.472656 6.964844 8.601562 C 8.902344 6.667969 11.449219 5.703125 13.992188 5.703125 C 16.535156 5.703125 19.078125 6.667969 21.015625 8.601562 C 21.820312 9.492188 22.503906 10.398438 22.957031 11.335938 C 23.589844 12.652344 23.925781 14.105469 23.925781 15.613281 C 23.925781 18.257812 22.890625 20.75 21.015625 22.621094 C 17.144531 26.484375 10.839844 26.484375 6.964844 22.621094 Z M 19.804688 24.363281 C 20.378906 23.984375 20.925781 23.542969 21.429688 23.035156 C 21.933594 22.535156 22.378906 21.992188 22.765625 21.414062 L 31.65625 30.285156 L 28.695312 33.238281 Z M 34.035156 35.613281 C 33.21875 36.425781 31.890625 36.425781 31.074219 35.613281 L 29.113281 33.65625 L 32.070312 30.699219 L 34.035156 32.660156 C 34.429688 33.054688 34.644531 33.578125 34.644531 34.136719 C 34.644531 34.691406 34.429688 35.21875 34.035156 35.613281 Z M 34.035156 35.613281 " fill-opacity="1" fill-rule="nonzero"/></g></svg>