<svg xmlns="http://www.w3.org/2000/svg" xmlns:xlink="http://www.w3.org/1999/xlink" width="50" zoomAndPan="magnify" viewBox="0 0 37.5 37.499999" height="50" preserveAspectRatio="xMidYMid meet" version="1.0"><defs><clipPath id="d3df19cd8b"><path d="M 11 0 L 37.007812 0 L 37.007812 18 L 11 18 Z M 11 0 " clip-rule="nonzero"/></clipPath><clipPath id="ca6bc1120a"><path d="M 0 25 L 37.007812 25 L 37.007812 37.007812 L 0 37.007812 Z M 0 25 " clip-rule="nonzero"/></clipPath></defs><path fill="#5271ff" d="M 21.488281 20.898438 L 21.488281 24.472656 L 23.863281 24.472656 C 23.871094 24.414062 23.875 24.351562 23.875 24.292969 C 23.875 24.019531 23.796875 23.753906 23.640625 23.527344 L 20.164062 16.515625 C 19.5 15.519531 18.382812 14.921875 17.183594 14.921875 L 16.15625 14.921875 C 15.75 14.921875 15.339844 14.988281 14.953125 15.117188 C 14.5625 15.246094 14.15625 15.308594 13.753906 15.308594 C 13.347656 15.308594 12.941406 15.246094 12.546875 15.117188 C 12.160156 14.988281 11.753906 14.921875 11.339844 14.921875 L 10.273438 14.921875 C 9.078125 14.921875 7.957031 15.519531 7.292969 16.515625 L 3.8125 23.527344 C 3.660156 23.753906 3.582031 24.019531 3.582031 24.292969 C 3.582031 24.351562 3.585938 24.414062 3.59375 24.472656 L 5.96875 24.472656 L 5.96875 20.898438 C 5.96875 19.910156 6.773438 19.105469 7.757812 19.105469 L 19.695312 19.105469 C 20.683594 19.105469 21.488281 19.910156 21.488281 20.898438 Z M 21.488281 20.898438 " fill-opacity="1" fill-rule="nonzero"/><path fill="#5271ff" d="M 25.664062 29.246094 C 25.664062 29.761719 25.796875 30.242188 26.023438 30.667969 C 26.53125 31.597656 27.515625 32.230469 28.648438 32.230469 C 29.785156 32.230469 30.769531 31.597656 31.277344 30.667969 C 31.503906 30.242188 31.632812 29.761719 31.632812 29.246094 L 31.632812 27.457031 L 25.664062 27.457031 Z M 25.664062 29.246094 " fill-opacity="1" fill-rule="nonzero"/><path fill="#5271ff" d="M 28.648438 34.023438 C 31.617188 34.023438 34.023438 33.222656 34.023438 32.230469 C 34.023438 31.640625 33.179688 31.128906 31.875 30.800781 C 31.300781 32 30.070312 32.828125 28.648438 32.828125 C 27.230469 32.828125 26 32 25.425781 30.800781 C 24.121094 31.128906 23.277344 31.640625 23.277344 32.230469 C 23.277344 33.222656 25.683594 34.023438 28.648438 34.023438 Z M 28.648438 34.023438 " fill-opacity="1" fill-rule="nonzero"/><path fill="#5271ff" d="M 16.710938 10.445312 C 16.710938 10.839844 16.636719 11.222656 16.484375 11.585938 C 16.335938 11.953125 16.117188 12.277344 15.839844 12.554688 C 15.558594 12.835938 15.234375 13.050781 14.871094 13.203125 C 14.503906 13.355469 14.125 13.429688 13.726562 13.429688 C 13.332031 13.429688 12.953125 13.355469 12.585938 13.203125 C 12.21875 13.050781 11.898438 12.835938 11.617188 12.554688 C 11.339844 12.277344 11.121094 11.953125 10.972656 11.585938 C 10.820312 11.222656 10.742188 10.839844 10.742188 10.445312 C 10.742188 10.050781 10.820312 9.667969 10.972656 9.304688 C 11.121094 8.9375 11.339844 8.613281 11.617188 8.335938 C 11.898438 8.054688 12.21875 7.839844 12.585938 7.6875 C 12.953125 7.535156 13.332031 7.460938 13.726562 7.460938 C 14.125 7.460938 14.503906 7.535156 14.871094 7.6875 C 15.234375 7.839844 15.558594 8.054688 15.839844 8.335938 C 16.117188 8.613281 16.335938 8.9375 16.484375 9.304688 C 16.636719 9.667969 16.710938 10.050781 16.710938 10.445312 Z M 16.710938 10.445312 " fill-opacity="1" fill-rule="nonzero"/><g clip-path="url(#d3df19cd8b)"><path fill="#5271ff" d="M 37.007812 16.117188 L 37.007812 1.195312 C 37.007812 0.539062 36.46875 0 35.8125 0 L 13.132812 0 C 12.476562 0 11.9375 0.539062 11.9375 1.195312 L 11.9375 6.671875 C 12.480469 6.410156 13.089844 6.265625 13.726562 6.265625 C 16.03125 6.265625 17.90625 8.140625 17.90625 10.445312 C 17.90625 11.777344 17.28125 12.964844 16.308594 13.726562 L 17.183594 13.726562 C 18.785156 13.726562 20.269531 14.523438 21.160156 15.851562 L 21.230469 15.984375 L 21.886719 17.308594 L 35.8125 17.308594 C 36.46875 17.308594 37.007812 16.773438 37.007812 16.117188 Z M 20.890625 3.582031 L 30.441406 3.582031 C 30.769531 3.582031 31.039062 3.851562 31.039062 4.179688 C 31.039062 4.507812 30.769531 4.773438 30.441406 4.773438 L 20.890625 4.773438 C 20.5625 4.773438 20.292969 4.507812 20.292969 4.179688 C 20.292969 3.851562 20.5625 3.582031 20.890625 3.582031 Z M 20.890625 7.164062 C 21.21875 7.164062 21.488281 7.429688 21.488281 7.757812 C 21.488281 8.085938 21.21875 8.355469 20.890625 8.355469 C 20.5625 8.355469 20.292969 8.085938 20.292969 7.757812 C 20.292969 7.429688 20.5625 7.164062 20.890625 7.164062 Z M 29.246094 11.9375 L 20.890625 11.9375 C 20.5625 11.9375 20.292969 11.667969 20.292969 11.339844 C 20.292969 11.011719 20.5625 10.742188 20.890625 10.742188 L 29.246094 10.742188 C 29.574219 10.742188 29.84375 11.011719 29.84375 11.339844 C 29.84375 11.667969 29.574219 11.9375 29.246094 11.9375 Z M 31.632812 11.9375 C 31.304688 11.9375 31.039062 11.667969 31.039062 11.339844 C 31.039062 11.011719 31.304688 10.742188 31.632812 10.742188 C 31.964844 10.742188 32.230469 11.011719 32.230469 11.339844 C 32.230469 11.667969 31.964844 11.9375 31.632812 11.9375 Z M 33.425781 8.355469 L 23.277344 8.355469 C 22.949219 8.355469 22.679688 8.085938 22.679688 7.757812 C 22.679688 7.429688 22.949219 7.164062 23.277344 7.164062 L 33.425781 7.164062 C 33.753906 7.164062 34.023438 7.429688 34.023438 7.757812 C 34.023438 8.085938 33.753906 8.355469 33.425781 8.355469 Z M 33.425781 8.355469 " fill-opacity="1" fill-rule="nonzero"/></g><path fill="#5271ff" d="M 30.875 22.464844 C 31.027344 22.175781 30.914062 21.816406 30.621094 21.660156 C 30.328125 21.511719 29.96875 21.625 29.8125 21.917969 C 29.789062 21.964844 29.742188 22.019531 29.6875 22.085938 C 29.515625 22.289062 29.246094 22.597656 29.246094 23.171875 C 29.246094 23.742188 29.515625 24.046875 29.6875 24.257812 C 29.820312 24.40625 29.84375 24.441406 29.84375 24.566406 C 29.84375 24.691406 29.820312 24.722656 29.6875 24.878906 C 29.570312 25.015625 29.410156 25.207031 29.320312 25.492188 C 29.21875 25.808594 29.390625 26.144531 29.707031 26.238281 C 29.765625 26.257812 29.824219 26.269531 29.886719 26.269531 C 30.136719 26.269531 30.375 26.109375 30.453125 25.851562 C 30.472656 25.796875 30.511719 25.742188 30.597656 25.648438 C 30.769531 25.445312 31.039062 25.132812 31.039062 24.5625 C 31.039062 23.988281 30.769531 23.683594 30.597656 23.476562 C 30.464844 23.324219 30.441406 23.289062 30.441406 23.164062 C 30.441406 23.039062 30.464844 23.007812 30.597656 22.859375 C 30.6875 22.757812 30.792969 22.632812 30.875 22.460938 Z M 30.875 22.464844 " fill-opacity="1" fill-rule="nonzero"/><path fill="#5271ff" d="M 27.929688 22.394531 C 28.058594 22.097656 27.929688 21.746094 27.625 21.605469 C 27.324219 21.476562 26.96875 21.605469 26.835938 21.910156 C 26.8125 21.960938 26.765625 22.019531 26.703125 22.089844 C 26.53125 22.292969 26.261719 22.605469 26.261719 23.175781 C 26.261719 23.75 26.53125 24.054688 26.703125 24.261719 C 26.835938 24.414062 26.859375 24.449219 26.859375 24.574219 C 26.859375 24.699219 26.835938 24.730469 26.703125 24.882812 C 26.597656 25.007812 26.449219 25.1875 26.351562 25.445312 C 26.238281 25.753906 26.398438 26.09375 26.710938 26.210938 C 26.777344 26.234375 26.847656 26.246094 26.914062 26.246094 C 27.15625 26.246094 27.386719 26.09375 27.472656 25.851562 C 27.492188 25.804688 27.535156 25.75 27.613281 25.660156 C 27.785156 25.457031 28.054688 25.148438 28.054688 24.574219 C 28.054688 24 27.785156 23.695312 27.613281 23.488281 C 27.480469 23.339844 27.457031 23.300781 27.457031 23.175781 C 27.457031 23.050781 27.480469 23.023438 27.613281 22.871094 C 27.714844 22.753906 27.839844 22.609375 27.929688 22.402344 Z M 27.929688 22.394531 " fill-opacity="1" fill-rule="nonzero"/><path fill="#5271ff" d="M 25.070312 25.664062 C 25.070312 25.335938 24.800781 25.070312 24.472656 25.070312 L 21.488281 25.070312 L 21.488281 26.261719 L 24.472656 26.261719 C 24.800781 26.261719 25.070312 25.992188 25.070312 25.664062 Z M 25.070312 25.664062 " fill-opacity="1" fill-rule="nonzero"/><g clip-path="url(#ca6bc1120a)"><path fill="#5271ff" d="M 36.855469 36.804688 C 36.972656 36.679688 37.023438 36.503906 37.007812 36.339844 L 35.8125 25.59375 C 35.777344 25.296875 35.519531 25.070312 35.222656 25.070312 L 32.835938 25.070312 C 32.507812 25.070312 32.238281 25.335938 32.238281 25.664062 C 32.238281 25.992188 32.507812 26.261719 32.835938 26.261719 L 34.691406 26.261719 L 35.742188 35.8125 L 1.265625 35.8125 L 2.316406 26.261719 L 5.960938 26.261719 C 5.960938 26.261719 5.960938 25.074219 5.960938 25.074219 L 1.789062 25.074219 C 1.484375 25.074219 1.234375 25.296875 1.199219 25.59375 L 0.0078125 36.339844 C -0.0117188 36.503906 0.0429688 36.679688 0.15625 36.804688 C 0.269531 36.929688 0.429688 37.007812 0.601562 37.007812 L 36.410156 37.007812 C 36.582031 37.007812 36.742188 36.933594 36.855469 36.804688 Z M 36.855469 36.804688 " fill-opacity="1" fill-rule="nonzero"/></g><path fill="#5271ff" d="M 20.140625 28.65625 C 20.554688 28.65625 20.890625 28.257812 20.890625 27.761719 L 20.890625 20.898438 C 20.890625 20.238281 20.355469 19.703125 19.695312 19.703125 L 7.757812 19.703125 C 7.101562 19.703125 6.566406 20.238281 6.566406 20.898438 L 6.566406 27.761719 C 6.566406 28.257812 6.90625 28.65625 7.316406 28.65625 L 13.132812 28.65625 L 13.132812 30.453125 L 11.339844 30.453125 C 11.011719 30.453125 10.742188 30.722656 10.742188 31.050781 C 10.742188 31.378906 11.011719 31.648438 11.339844 31.648438 L 16.117188 31.648438 C 16.445312 31.648438 16.710938 31.378906 16.710938 31.050781 C 16.710938 30.722656 16.445312 30.453125 16.117188 30.453125 L 14.324219 30.453125 L 14.324219 28.65625 Z M 13.726562 25.230469 C 13.070312 25.230469 12.535156 24.691406 12.535156 24.035156 C 12.535156 23.378906 13.070312 22.84375 13.726562 22.84375 C 14.386719 22.84375 14.921875 23.378906 14.921875 24.035156 C 14.921875 24.691406 14.386719 25.230469 13.726562 25.230469 Z M 13.726562 25.230469 " fill-opacity="1" fill-rule="nonzero"/></svg>