<svg xmlns="http://www.w3.org/2000/svg" xmlns:xlink="http://www.w3.org/1999/xlink" width="50" zoomAndPan="magnify" viewBox="0 0 37.5 37.499999" height="50" preserveAspectRatio="xMidYMid meet" version="1.0"><defs><clipPath id="e85cd42bca"><path d="M 0 0 L 37.007812 0 L 37.007812 37.007812 L 0 37.007812 Z M 0 0 " clip-rule="nonzero"/></clipPath></defs><g clip-path="url(#e85cd42bca)"><path fill="#5271ff" d="M 36.429688 17.925781 L 34.75 17.925781 C 34.460938 9.425781 27.582031 2.542969 19.082031 2.253906 L 19.082031 0.578125 C 19.082031 0.230469 18.851562 0 18.503906 0 C 18.15625 0 17.925781 0.230469 17.925781 0.578125 L 17.925781 2.253906 C 9.425781 2.542969 2.542969 9.425781 2.253906 17.925781 L 0.578125 17.925781 C 0.230469 17.925781 0 18.15625 0 18.503906 C 0 18.851562 0.230469 19.082031 0.578125 19.082031 L 2.253906 19.082031 C 2.542969 27.582031 9.425781 34.460938 17.925781 34.75 L 17.925781 36.429688 C 17.925781 36.773438 18.15625 37.007812 18.503906 37.007812 C 18.851562 37.007812 19.082031 36.773438 19.082031 36.429688 L 19.082031 34.75 C 27.582031 34.460938 34.460938 27.582031 34.75 19.082031 L 36.429688 19.082031 C 36.773438 19.082031 37.007812 18.851562 37.007812 18.503906 C 37.007812 18.15625 36.773438 17.925781 36.429688 17.925781 Z M 19.082031 33.59375 L 19.082031 31.917969 C 19.082031 31.570312 18.851562 31.339844 18.503906 31.339844 C 18.15625 31.339844 17.925781 31.570312 17.925781 31.917969 L 17.925781 33.59375 C 10.0625 33.304688 3.699219 26.945312 3.410156 19.082031 L 5.089844 19.082031 C 5.433594 19.082031 5.667969 18.851562 5.667969 18.503906 C 5.667969 18.15625 5.433594 17.925781 5.089844 17.925781 L 3.410156 17.925781 C 3.699219 10.0625 10.0625 3.699219 17.925781 3.410156 L 17.925781 5.089844 C 17.925781 5.433594 18.15625 5.667969 18.503906 5.667969 C 18.851562 5.667969 19.082031 5.433594 19.082031 5.089844 L 19.082031 3.410156 C 26.945312 3.699219 33.304688 10.0625 33.59375 17.925781 L 31.917969 17.925781 C 31.570312 17.925781 31.339844 18.15625 31.339844 18.503906 C 31.339844 18.851562 31.570312 19.082031 31.917969 19.082031 L 33.59375 19.082031 C 33.304688 26.945312 26.945312 33.304688 19.082031 33.59375 Z M 19.082031 33.59375 " fill-opacity="1" fill-rule="nonzero"/></g><path fill="#5271ff" d="M 14.976562 9.25 C 15.726562 9.25 16.480469 9.597656 17 10.175781 C 15.726562 10.753906 14.976562 12.085938 14.917969 13.414062 C 14.800781 15.089844 16.015625 16.539062 18.445312 16.539062 C 21.046875 16.539062 22.03125 15.265625 22.03125 13.644531 C 22.03125 12.144531 21.164062 10.753906 19.949219 10.175781 C 20.46875 9.597656 21.222656 9.308594 21.972656 9.308594 C 22.261719 9.308594 22.550781 9.019531 22.550781 8.730469 C 22.550781 8.382812 22.261719 8.152344 21.972656 8.152344 C 20.699219 8.152344 19.484375 8.789062 18.734375 9.886719 C 18.5625 9.886719 18.386719 9.886719 18.214844 9.886719 C 17.460938 8.789062 16.25 8.152344 14.976562 8.152344 C 14.628906 8.152344 14.398438 8.382812 14.398438 8.730469 C 14.398438 9.019531 14.6875 9.25 14.976562 9.25 Z M 14.976562 9.25 " fill-opacity="1" fill-rule="nonzero"/><path fill="#5271ff" d="M 26.886719 22.433594 C 27.0625 22.722656 27.40625 22.78125 27.695312 22.609375 C 27.984375 22.433594 28.042969 22.089844 27.871094 21.800781 L 26.597656 19.660156 C 26.484375 19.484375 26.308594 19.371094 26.078125 19.371094 L 24.515625 19.371094 C 24.226562 17.984375 23.535156 16.710938 22.667969 15.726562 C 21.800781 17.171875 20.179688 17.636719 18.503906 17.636719 C 16.769531 17.636719 15.378906 17.230469 14.457031 15.671875 C 13.53125 16.652344 12.835938 17.925781 12.546875 19.371094 L 10.984375 19.371094 C 10.8125 19.371094 10.582031 19.484375 10.523438 19.660156 L 9.195312 21.855469 C 9.019531 22.144531 9.136719 22.492188 9.367188 22.667969 C 9.65625 22.839844 10.003906 22.722656 10.175781 22.492188 L 11.332031 20.585938 L 12.375 20.585938 C 12.375 20.875 12.316406 21.164062 12.316406 21.394531 C 12.316406 22.261719 12.433594 23.128906 12.664062 23.878906 L 10.984375 23.878906 C 10.8125 23.878906 10.582031 23.996094 10.523438 24.171875 L 9.195312 26.367188 C 9.019531 26.65625 9.136719 27.003906 9.367188 27.175781 C 9.65625 27.351562 10.003906 27.234375 10.175781 27.003906 L 11.332031 25.09375 L 13.125 25.09375 C 14.222656 27.40625 16.25 28.96875 18.617188 28.96875 C 20.988281 28.96875 23.011719 27.40625 24.113281 25.09375 L 25.90625 25.09375 L 27.0625 27.003906 C 27.234375 27.292969 27.582031 27.351562 27.871094 27.175781 C 28.160156 27.003906 28.21875 26.65625 28.042969 26.367188 L 26.597656 24.167969 C 26.484375 23.996094 26.308594 23.878906 26.078125 23.878906 L 24.402344 23.878906 C 24.632812 23.070312 24.75 22.261719 24.75 21.394531 C 24.75 21.105469 24.75 20.816406 24.691406 20.585938 L 25.730469 20.585938 Z M 26.886719 22.433594 " fill-opacity="1" fill-rule="nonzero"/></svg>