<svg xmlns="http://www.w3.org/2000/svg" xmlns:xlink="http://www.w3.org/1999/xlink" width="50" zoomAndPan="magnify" viewBox="0 0 37.5 37.499999" height="50" preserveAspectRatio="xMidYMid meet" version="1.0"><defs><clipPath id="fe98f8813e"><path d="M 31 13 L 36.566406 13 L 36.566406 27 L 31 27 Z M 31 13 " clip-rule="nonzero"/></clipPath><clipPath id="f851c8bbc5"><path d="M 0.300781 13 L 6 13 L 6 27 L 0.300781 27 Z M 0.300781 13 " clip-rule="nonzero"/></clipPath></defs><path fill="#5271ff" d="M 30.5625 33.855469 L 20.324219 33.855469 C 20.15625 33.855469 20.011719 33.914062 19.894531 34.03125 C 19.777344 34.148438 19.714844 34.292969 19.714844 34.460938 L 17.289062 34.460938 C 17.289062 34.292969 17.230469 34.148438 17.113281 34.03125 C 16.992188 33.914062 16.851562 33.855469 16.683594 33.855469 L 6.445312 33.855469 C 6.347656 33.855469 6.257812 33.875 6.171875 33.917969 C 6.085938 33.960938 6.015625 34.019531 5.957031 34.097656 C 5.902344 34.171875 5.863281 34.257812 5.847656 34.351562 C 5.828125 34.445312 5.835938 34.539062 5.863281 34.628906 L 6.136719 35.578125 C 6.253906 35.964844 6.472656 36.28125 6.792969 36.523438 C 7.117188 36.765625 7.480469 36.886719 7.886719 36.886719 L 29.121094 36.886719 C 29.527344 36.886719 29.890625 36.765625 30.210938 36.523438 C 30.535156 36.28125 30.753906 35.964844 30.867188 35.578125 L 31.144531 34.628906 C 31.171875 34.539062 31.175781 34.445312 31.160156 34.351562 C 31.140625 34.257812 31.105469 34.171875 31.046875 34.097656 C 30.992188 34.019531 30.917969 33.960938 30.832031 33.917969 C 30.75 33.875 30.65625 33.855469 30.5625 33.855469 Z M 7.886719 35.675781 C 7.75 35.671875 7.628906 35.632812 7.523438 35.550781 C 7.414062 35.472656 7.339844 35.367188 7.300781 35.238281 L 7.253906 35.066406 L 16.078125 35.066406 C 16.078125 35.234375 16.136719 35.378906 16.253906 35.496094 C 16.371094 35.613281 16.515625 35.675781 16.683594 35.675781 Z M 29.703125 35.238281 C 29.664062 35.367188 29.59375 35.472656 29.484375 35.550781 C 29.378906 35.632812 29.257812 35.671875 29.121094 35.675781 L 20.324219 35.675781 C 20.492188 35.675781 20.632812 35.613281 20.753906 35.496094 C 20.871094 35.378906 20.929688 35.234375 20.929688 35.066406 L 29.753906 35.066406 Z M 29.703125 35.238281 " fill-opacity="1" fill-rule="nonzero"/><path fill="#5271ff" d="M 9.402344 24.753906 L 10.617188 24.753906 L 10.617188 25.964844 L 9.402344 25.964844 Z M 9.402344 24.753906 " fill-opacity="1" fill-rule="nonzero"/><path fill="#5271ff" d="M 11.828125 24.753906 L 23.964844 24.753906 L 23.964844 25.964844 L 11.828125 25.964844 Z M 11.828125 24.753906 " fill-opacity="1" fill-rule="nonzero"/><path fill="#5271ff" d="M 9.402344 27.179688 L 10.617188 27.179688 L 10.617188 28.394531 L 9.402344 28.394531 Z M 9.402344 27.179688 " fill-opacity="1" fill-rule="nonzero"/><path fill="#5271ff" d="M 11.828125 27.179688 L 17.898438 27.179688 L 17.898438 28.394531 L 11.828125 28.394531 Z M 11.828125 27.179688 " fill-opacity="1" fill-rule="nonzero"/><path fill="#5271ff" d="M 9.402344 29.605469 L 10.617188 29.605469 L 10.617188 30.820312 L 9.402344 30.820312 Z M 9.402344 29.605469 " fill-opacity="1" fill-rule="nonzero"/><path fill="#5271ff" d="M 11.828125 29.605469 L 14.257812 29.605469 L 14.257812 30.820312 L 11.828125 30.820312 Z M 11.828125 29.605469 " fill-opacity="1" fill-rule="nonzero"/><path fill="#5271ff" d="M 25.175781 24.753906 L 27.605469 24.753906 L 27.605469 25.964844 L 25.175781 25.964844 Z M 25.175781 24.753906 " fill-opacity="1" fill-rule="nonzero"/><path fill="#5271ff" d="M 19.109375 27.179688 L 27.605469 27.179688 L 27.605469 28.394531 L 19.109375 28.394531 Z M 19.109375 27.179688 " fill-opacity="1" fill-rule="nonzero"/><path fill="#5271ff" d="M 15.46875 29.605469 L 27.605469 29.605469 L 27.605469 30.820312 L 15.46875 30.820312 Z M 15.46875 29.605469 " fill-opacity="1" fill-rule="nonzero"/><path fill="#5271ff" d="M 18.503906 20.503906 C 18.824219 20.503906 19.132812 20.445312 19.433594 20.320312 C 19.730469 20.199219 19.992188 20.023438 20.21875 19.792969 C 20.445312 19.566406 20.621094 19.304688 20.746094 19.007812 C 20.867188 18.710938 20.929688 18.402344 20.929688 18.078125 C 20.929688 17.757812 20.867188 17.445312 20.746094 17.148438 C 20.621094 16.851562 20.445312 16.589844 20.21875 16.363281 C 19.992188 16.136719 19.730469 15.960938 19.433594 15.835938 C 19.132812 15.714844 18.824219 15.652344 18.503906 15.652344 C 18.179688 15.652344 17.871094 15.714844 17.574219 15.835938 C 17.277344 15.960938 17.015625 16.136719 16.789062 16.363281 C 16.558594 16.589844 16.382812 16.851562 16.261719 17.148438 C 16.136719 17.445312 16.078125 17.757812 16.078125 18.078125 C 16.078125 18.402344 16.136719 18.710938 16.261719 19.007812 C 16.382812 19.304688 16.558594 19.566406 16.789062 19.792969 C 17.015625 20.023438 17.277344 20.199219 17.574219 20.320312 C 17.871094 20.445312 18.179688 20.503906 18.503906 20.503906 Z M 18.503906 16.863281 C 18.664062 16.863281 18.820312 16.894531 18.96875 16.957031 C 19.117188 17.019531 19.246094 17.105469 19.363281 17.21875 C 19.476562 17.335938 19.5625 17.464844 19.625 17.613281 C 19.6875 17.761719 19.714844 17.917969 19.714844 18.078125 C 19.714844 18.238281 19.6875 18.394531 19.625 18.542969 C 19.5625 18.691406 19.476562 18.824219 19.363281 18.9375 C 19.246094 19.050781 19.117188 19.136719 18.96875 19.199219 C 18.820312 19.261719 18.664062 19.292969 18.503906 19.292969 C 18.34375 19.292969 18.1875 19.261719 18.039062 19.199219 C 17.890625 19.136719 17.757812 19.050781 17.644531 18.9375 C 17.53125 18.824219 17.445312 18.691406 17.382812 18.542969 C 17.320312 18.394531 17.289062 18.238281 17.289062 18.078125 C 17.289062 17.917969 17.320312 17.761719 17.382812 17.613281 C 17.445312 17.464844 17.53125 17.335938 17.644531 17.21875 C 17.757812 17.105469 17.890625 17.019531 18.039062 16.957031 C 18.1875 16.894531 18.34375 16.863281 18.503906 16.863281 Z M 18.503906 16.863281 " fill-opacity="1" fill-rule="nonzero"/><path fill="#5271ff" d="M 8.1875 17.472656 L 13.042969 17.472656 L 13.042969 18.683594 L 8.796875 18.683594 C 8.554688 18.683594 8.320312 18.730469 8.097656 18.824219 C 7.875 18.917969 7.679688 19.046875 7.507812 19.21875 C 7.335938 19.390625 7.207031 19.585938 7.113281 19.808594 C 7.019531 20.03125 6.976562 20.265625 6.976562 20.503906 L 6.976562 31.425781 C 6.976562 31.667969 7.019531 31.902344 7.113281 32.125 C 7.207031 32.347656 7.335938 32.542969 7.507812 32.714844 C 7.679688 32.886719 7.875 33.015625 8.097656 33.109375 C 8.320312 33.203125 8.554688 33.246094 8.796875 33.246094 L 28.210938 33.246094 C 28.453125 33.246094 28.683594 33.203125 28.90625 33.109375 C 29.132812 33.015625 29.328125 32.886719 29.5 32.714844 C 29.667969 32.542969 29.800781 32.347656 29.894531 32.125 C 29.984375 31.902344 30.03125 31.667969 30.03125 31.425781 L 30.03125 20.503906 C 30.03125 20.265625 29.984375 20.03125 29.894531 19.808594 C 29.800781 19.585938 29.667969 19.390625 29.5 19.21875 C 29.328125 19.046875 29.132812 18.917969 28.90625 18.824219 C 28.683594 18.730469 28.453125 18.683594 28.210938 18.683594 L 23.964844 18.683594 L 23.964844 17.472656 L 28.816406 17.472656 C 29.300781 17.472656 29.765625 17.378906 30.210938 17.195312 C 30.65625 17.011719 31.050781 16.746094 31.390625 16.40625 C 31.734375 16.0625 31.996094 15.671875 32.179688 15.222656 C 32.367188 14.777344 32.457031 14.3125 32.457031 13.832031 C 32.457031 13.347656 32.367188 12.882812 32.179688 12.4375 C 31.996094 11.992188 31.734375 11.597656 31.390625 11.257812 C 31.050781 10.914062 30.65625 10.652344 30.210938 10.46875 C 29.765625 10.28125 29.300781 10.191406 28.816406 10.191406 L 28.691406 10.191406 C 29.183594 9.238281 29.425781 8.226562 29.425781 7.15625 C 29.425781 6.753906 29.386719 6.351562 29.316406 5.957031 C 29.242188 5.558594 29.136719 5.171875 28.992188 4.792969 C 28.847656 4.414062 28.671875 4.054688 28.464844 3.707031 C 28.257812 3.363281 28.019531 3.039062 27.75 2.734375 C 27.484375 2.433594 27.191406 2.15625 26.875 1.90625 C 26.554688 1.660156 26.21875 1.441406 25.859375 1.25 C 25.503906 1.0625 25.132812 0.910156 24.746094 0.789062 C 24.363281 0.667969 23.96875 0.582031 23.566406 0.53125 C 23.167969 0.484375 22.765625 0.46875 22.363281 0.492188 C 21.960938 0.519531 21.5625 0.578125 21.167969 0.671875 C 20.777344 0.769531 20.394531 0.898438 20.027344 1.0625 C 19.660156 1.226562 19.308594 1.425781 18.976562 1.652344 C 18.640625 1.882812 18.332031 2.136719 18.046875 2.421875 C 17.757812 2.707031 17.5 3.015625 17.269531 3.347656 C 17.039062 3.679688 16.839844 4.027344 16.675781 4.394531 C 16.507812 4.761719 16.375 5.144531 16.277344 5.535156 C 15.910156 5.1875 15.503906 4.902344 15.054688 4.675781 C 14.601562 4.449219 14.128906 4.289062 13.632812 4.203125 C 13.136719 4.113281 12.640625 4.097656 12.140625 4.15625 C 11.640625 4.214844 11.15625 4.34375 10.695312 4.542969 C 10.234375 4.742188 9.808594 5.003906 9.421875 5.328125 C 9.035156 5.652344 8.703125 6.023438 8.429688 6.445312 C 8.152344 6.867188 7.941406 7.316406 7.796875 7.800781 C 7.652344 8.285156 7.582031 8.777344 7.582031 9.28125 C 7.589844 9.609375 7.671875 9.917969 7.824219 10.207031 C 7.359375 10.253906 6.921875 10.386719 6.507812 10.601562 C 6.09375 10.816406 5.734375 11.101562 5.429688 11.457031 C 5.125 11.8125 4.894531 12.210938 4.742188 12.652344 C 4.59375 13.09375 4.527344 13.546875 4.550781 14.011719 C 4.574219 14.480469 4.683594 14.925781 4.878906 15.351562 C 5.074219 15.773438 5.339844 16.148438 5.679688 16.46875 C 6.019531 16.792969 6.402344 17.039062 6.835938 17.210938 C 7.269531 17.386719 7.722656 17.472656 8.1875 17.472656 Z M 28.816406 20.503906 L 28.816406 31.425781 C 28.816406 31.59375 28.757812 31.738281 28.640625 31.855469 C 28.523438 31.976562 28.378906 32.035156 28.210938 32.035156 L 8.796875 32.035156 C 8.628906 32.035156 8.484375 31.976562 8.367188 31.855469 C 8.246094 31.738281 8.1875 31.59375 8.1875 31.425781 L 8.1875 20.503906 C 8.1875 20.339844 8.246094 20.195312 8.367188 20.078125 C 8.484375 19.957031 8.628906 19.898438 8.796875 19.898438 L 13.574219 19.898438 L 13.90625 19.980469 L 13.691406 20.339844 C 13.621094 20.460938 13.59375 20.589844 13.609375 20.726562 C 13.628906 20.867188 13.683594 20.984375 13.785156 21.082031 L 15.5 22.796875 C 15.597656 22.894531 15.71875 22.953125 15.855469 22.972656 C 15.992188 22.988281 16.121094 22.960938 16.242188 22.890625 L 16.601562 22.675781 L 16.703125 23.078125 C 16.734375 23.214844 16.804688 23.324219 16.917969 23.410156 C 17.027344 23.496094 17.152344 23.539062 17.289062 23.539062 L 19.714844 23.539062 C 19.855469 23.539062 19.980469 23.496094 20.089844 23.410156 C 20.199219 23.324219 20.273438 23.214844 20.304688 23.078125 L 20.40625 22.675781 L 20.765625 22.890625 C 20.882812 22.960938 21.011719 22.988281 21.152344 22.972656 C 21.289062 22.953125 21.40625 22.894531 21.507812 22.796875 L 23.222656 21.082031 C 23.320312 20.984375 23.378906 20.867188 23.394531 20.726562 C 23.414062 20.589844 23.386719 20.460938 23.3125 20.339844 L 23.097656 19.980469 L 23.433594 19.898438 L 28.210938 19.898438 C 28.378906 19.898438 28.523438 19.957031 28.640625 20.078125 C 28.757812 20.195312 28.816406 20.339844 28.816406 20.503906 Z M 15.371094 16.253906 L 14.976562 15.597656 L 16.023438 14.550781 L 16.675781 14.945312 C 16.761719 14.996094 16.847656 15.023438 16.945312 15.03125 C 17.039062 15.035156 17.132812 15.023438 17.222656 14.984375 C 17.3125 14.949219 17.386719 14.894531 17.449219 14.820312 C 17.511719 14.746094 17.554688 14.664062 17.578125 14.570312 L 17.761719 13.832031 L 19.238281 13.832031 L 19.421875 14.570312 C 19.445312 14.664062 19.488281 14.746094 19.550781 14.820312 C 19.613281 14.894531 19.691406 14.949219 19.777344 14.984375 C 19.867188 15.023438 19.960938 15.035156 20.054688 15.03125 C 20.152344 15.023438 20.242188 14.996094 20.324219 14.945312 L 20.976562 14.550781 L 22.023438 15.597656 L 21.632812 16.253906 C 21.582031 16.335938 21.554688 16.425781 21.546875 16.519531 C 21.539062 16.617188 21.554688 16.707031 21.589844 16.796875 C 21.628906 16.886719 21.683594 16.960938 21.753906 17.023438 C 21.828125 17.085938 21.910156 17.128906 22.003906 17.152344 L 22.746094 17.335938 L 22.746094 18.816406 L 22.003906 18.996094 C 21.910156 19.019531 21.828125 19.0625 21.753906 19.125 C 21.683594 19.1875 21.628906 19.265625 21.589844 19.355469 C 21.554688 19.441406 21.539062 19.535156 21.546875 19.628906 C 21.554688 19.726562 21.582031 19.816406 21.632812 19.898438 L 22.023438 20.550781 L 20.976562 21.597656 L 20.324219 21.207031 C 20.242188 21.15625 20.152344 21.128906 20.054688 21.121094 C 19.960938 21.113281 19.867188 21.128906 19.777344 21.164062 C 19.691406 21.203125 19.613281 21.257812 19.550781 21.332031 C 19.488281 21.402344 19.445312 21.484375 19.421875 21.578125 L 19.238281 22.320312 L 17.761719 22.320312 L 17.582031 21.578125 C 17.558594 21.484375 17.515625 21.402344 17.453125 21.332031 C 17.390625 21.257812 17.3125 21.203125 17.226562 21.164062 C 17.136719 21.128906 17.042969 21.113281 16.949219 21.121094 C 16.851562 21.128906 16.761719 21.15625 16.679688 21.207031 L 16.027344 21.597656 L 14.980469 20.550781 L 15.371094 19.898438 C 15.421875 19.816406 15.449219 19.726562 15.457031 19.628906 C 15.464844 19.535156 15.449219 19.441406 15.414062 19.355469 C 15.375 19.265625 15.320312 19.1875 15.25 19.125 C 15.175781 19.0625 15.09375 19.019531 15 18.996094 L 14.257812 18.816406 L 14.257812 17.339844 L 15 17.15625 C 15.09375 17.132812 15.175781 17.089844 15.25 17.027344 C 15.320312 16.964844 15.375 16.890625 15.414062 16.800781 C 15.449219 16.710938 15.464844 16.621094 15.457031 16.523438 C 15.449219 16.425781 15.421875 16.339844 15.371094 16.257812 Z M 8.1875 11.402344 L 8.796875 11.402344 C 8.894531 11.402344 8.988281 11.382812 9.074219 11.335938 C 9.164062 11.289062 9.234375 11.226562 9.292969 11.148438 C 9.347656 11.066406 9.382812 10.976562 9.394531 10.878906 C 9.410156 10.78125 9.398438 10.683594 9.367188 10.59375 C 9.285156 10.386719 9.191406 10.183594 9.078125 9.992188 C 8.933594 9.773438 8.839844 9.539062 8.796875 9.28125 C 8.796875 8.847656 8.867188 8.421875 9.007812 8.011719 C 9.148438 7.601562 9.351562 7.222656 9.617188 6.878906 C 9.882812 6.535156 10.195312 6.242188 10.558594 6.003906 C 10.917969 5.761719 11.308594 5.585938 11.730469 5.476562 C 12.148438 5.363281 12.578125 5.324219 13.011719 5.355469 C 13.441406 5.382812 13.859375 5.484375 14.261719 5.652344 C 14.660156 5.816406 15.023438 6.046875 15.351562 6.332031 C 15.675781 6.621094 15.945312 6.953125 16.164062 7.332031 C 16.230469 7.449219 16.328125 7.535156 16.453125 7.589844 C 16.578125 7.640625 16.707031 7.652344 16.839844 7.617188 C 16.96875 7.585938 17.078125 7.515625 17.164062 7.40625 C 17.25 7.300781 17.292969 7.179688 17.296875 7.042969 C 17.304688 6.613281 17.363281 6.1875 17.46875 5.769531 C 17.578125 5.355469 17.734375 4.953125 17.9375 4.574219 C 18.136719 4.195312 18.382812 3.84375 18.667969 3.519531 C 18.953125 3.199219 19.273438 2.914062 19.625 2.664062 C 19.980469 2.417969 20.355469 2.214844 20.757812 2.058594 C 21.160156 1.902344 21.574219 1.792969 22 1.734375 C 22.425781 1.671875 22.855469 1.664062 23.285156 1.707031 C 23.714844 1.746094 24.132812 1.839844 24.539062 1.980469 C 24.945312 2.121094 25.332031 2.308594 25.695312 2.539062 C 26.058594 2.769531 26.390625 3.042969 26.6875 3.351562 C 26.988281 3.664062 27.246094 4.003906 27.464844 4.375 C 27.683594 4.746094 27.855469 5.136719 27.980469 5.550781 C 28.105469 5.964844 28.179688 6.382812 28.207031 6.8125 C 28.234375 7.246094 28.207031 7.671875 28.132812 8.097656 C 28.058594 8.519531 27.933594 8.929688 27.761719 9.324219 C 27.589844 9.71875 27.371094 10.089844 27.113281 10.433594 C 26.960938 10.632812 26.945312 10.84375 27.054688 11.070312 C 27.167969 11.292969 27.347656 11.402344 27.597656 11.402344 L 28.816406 11.402344 C 29.140625 11.402344 29.449219 11.464844 29.746094 11.589844 C 30.042969 11.710938 30.308594 11.886719 30.535156 12.113281 C 30.761719 12.34375 30.9375 12.605469 31.058594 12.902344 C 31.183594 13.199219 31.246094 13.507812 31.246094 13.832031 C 31.246094 14.152344 31.183594 14.460938 31.058594 14.761719 C 30.9375 15.058594 30.761719 15.320312 30.535156 15.546875 C 30.308594 15.773438 30.042969 15.949219 29.746094 16.074219 C 29.449219 16.195312 29.140625 16.257812 28.816406 16.257812 L 23.433594 16.257812 L 23.097656 16.175781 L 23.3125 15.816406 C 23.386719 15.695312 23.414062 15.566406 23.394531 15.429688 C 23.378906 15.292969 23.320312 15.171875 23.222656 15.074219 L 21.507812 13.359375 C 21.40625 13.261719 21.289062 13.203125 21.152344 13.1875 C 21.011719 13.167969 20.882812 13.195312 20.765625 13.269531 L 20.40625 13.484375 L 20.304688 13.078125 C 20.273438 12.941406 20.199219 12.832031 20.089844 12.746094 C 19.980469 12.660156 19.855469 12.617188 19.714844 12.617188 L 17.289062 12.617188 C 17.152344 12.617188 17.027344 12.660156 16.917969 12.746094 C 16.804688 12.832031 16.734375 12.941406 16.703125 13.078125 L 16.601562 13.484375 L 16.242188 13.269531 C 16.121094 13.195312 15.992188 13.167969 15.855469 13.1875 C 15.71875 13.203125 15.597656 13.261719 15.5 13.359375 L 13.785156 15.074219 C 13.683594 15.171875 13.628906 15.292969 13.609375 15.429688 C 13.59375 15.566406 13.621094 15.695312 13.691406 15.816406 L 13.90625 16.175781 L 13.574219 16.257812 L 8.1875 16.257812 C 7.867188 16.257812 7.558594 16.195312 7.257812 16.074219 C 6.960938 15.949219 6.699219 15.773438 6.472656 15.546875 C 6.246094 15.320312 6.070312 15.058594 5.945312 14.761719 C 5.824219 14.460938 5.761719 14.152344 5.761719 13.832031 C 5.761719 13.507812 5.824219 13.199219 5.945312 12.902344 C 6.070312 12.605469 6.246094 12.34375 6.472656 12.113281 C 6.699219 11.886719 6.960938 11.710938 7.257812 11.589844 C 7.558594 11.464844 7.867188 11.402344 8.1875 11.402344 Z M 8.1875 11.402344 " fill-opacity="1" fill-rule="nonzero"/><path fill="#5271ff" d="M 25.785156 7.15625 L 26.996094 7.15625 C 26.996094 6.878906 26.96875 6.601562 26.914062 6.328125 C 26.859375 6.054688 26.78125 5.789062 26.671875 5.53125 C 26.566406 5.273438 26.433594 5.03125 26.28125 4.796875 C 26.125 4.566406 25.949219 4.351562 25.753906 4.15625 C 25.554688 3.957031 25.339844 3.78125 25.109375 3.628906 C 24.878906 3.472656 24.632812 3.339844 24.375 3.234375 C 24.117188 3.128906 23.851562 3.046875 23.578125 2.992188 C 23.304688 2.9375 23.03125 2.910156 22.75 2.910156 L 22.75 4.125 C 23.152344 4.125 23.539062 4.199219 23.910156 4.355469 C 24.28125 4.507812 24.609375 4.726562 24.894531 5.011719 C 25.179688 5.296875 25.398438 5.625 25.550781 5.996094 C 25.707031 6.367188 25.785156 6.753906 25.785156 7.15625 Z M 25.785156 7.15625 " fill-opacity="1" fill-rule="nonzero"/><path fill="#5271ff" d="M 12.738281 7.765625 L 12.738281 6.550781 C 12.40625 6.550781 12.082031 6.609375 11.769531 6.730469 C 11.457031 6.847656 11.175781 7.019531 10.925781 7.242188 C 10.675781 7.460938 10.472656 7.722656 10.316406 8.019531 C 10.164062 8.316406 10.066406 8.628906 10.027344 8.960938 L 11.234375 9.101562 C 11.253906 8.917969 11.308594 8.746094 11.394531 8.578125 C 11.480469 8.414062 11.59375 8.269531 11.730469 8.148438 C 11.871094 8.023438 12.027344 7.929688 12.199219 7.863281 C 12.375 7.796875 12.554688 7.765625 12.738281 7.765625 Z M 12.738281 7.765625 " fill-opacity="1" fill-rule="nonzero"/><g clip-path="url(#fe98f8813e)"><path fill="#5271ff" d="M 36.097656 13.832031 L 33.671875 13.832031 L 33.671875 15.042969 L 35.492188 15.042969 L 35.492188 25.359375 L 31.246094 25.359375 L 31.246094 26.574219 L 36.097656 26.574219 C 36.265625 26.574219 36.410156 26.515625 36.527344 26.394531 C 36.648438 26.277344 36.707031 26.132812 36.707031 25.964844 L 36.707031 14.4375 C 36.707031 14.269531 36.648438 14.128906 36.527344 14.007812 C 36.410156 13.890625 36.265625 13.832031 36.097656 13.832031 Z M 36.097656 13.832031 " fill-opacity="1" fill-rule="nonzero"/></g><g clip-path="url(#f851c8bbc5)"><path fill="#5271ff" d="M 1.515625 15.042969 L 3.335938 15.042969 L 3.335938 13.832031 L 0.90625 13.832031 C 0.738281 13.832031 0.597656 13.890625 0.476562 14.007812 C 0.359375 14.128906 0.300781 14.269531 0.300781 14.4375 L 0.300781 25.964844 C 0.300781 26.132812 0.359375 26.277344 0.476562 26.394531 C 0.597656 26.515625 0.738281 26.574219 0.90625 26.574219 L 5.761719 26.574219 L 5.761719 25.359375 L 1.515625 25.359375 Z M 1.515625 15.042969 " fill-opacity="1" fill-rule="nonzero"/></g><path fill="#5271ff" d="M 26.390625 23.539062 L 27.605469 23.539062 L 27.605469 21.71875 C 27.605469 21.550781 27.546875 21.410156 27.425781 21.289062 C 27.308594 21.171875 27.164062 21.113281 26.996094 21.113281 L 25.175781 21.113281 L 25.175781 22.324219 L 26.390625 22.324219 Z M 26.390625 23.539062 " fill-opacity="1" fill-rule="nonzero"/><path fill="#5271ff" d="M 11.828125 21.113281 L 10.007812 21.113281 C 9.839844 21.113281 9.699219 21.171875 9.578125 21.289062 C 9.460938 21.410156 9.402344 21.550781 9.402344 21.71875 L 9.402344 23.539062 L 10.617188 23.539062 L 10.617188 22.324219 L 11.828125 22.324219 Z M 11.828125 21.113281 " fill-opacity="1" fill-rule="nonzero"/></svg>