<svg xmlns="http://www.w3.org/2000/svg" xmlns:xlink="http://www.w3.org/1999/xlink" width="40" zoomAndPan="magnify" viewBox="0 0 30 30.000001" height="40" preserveAspectRatio="xMidYMid meet" version="1.0"><defs><clipPath id="6925656531"><path d="M 0.484375 0 L 29.515625 0 L 29.515625 29.03125 L 0.484375 29.03125 Z M 0.484375 0 " clip-rule="nonzero"/></clipPath></defs><g clip-path="url(#6925656531)"><path fill="#ffffff" d="M 0.484375 0 L 29.515625 0 L 29.515625 29.03125 L 0.484375 29.03125 Z M 0.484375 0 " fill-opacity="1" fill-rule="nonzero"/><path fill="#ffffff" d="M 0.484375 0 L 29.515625 0 L 29.515625 29.03125 L 0.484375 29.03125 Z M 0.484375 0 " fill-opacity="1" fill-rule="nonzero"/><path fill="#5271ff" d="M 15 0 C 6.980469 0 0.484375 6.496094 0.484375 14.515625 C 0.484375 22.535156 6.980469 29.03125 15 29.03125 C 23.019531 29.03125 29.515625 22.535156 29.515625 14.515625 C 29.503906 6.496094 23.007812 0 15 0 Z M 23.472656 11.25 C 23.472656 11.25 23.722656 16.804688 19.5 20.246094 C 13.175781 25.386719 6.351562 21.214844 6.351562 21.214844 C 6.351562 21.214844 8.011719 21.238281 9.484375 20.851562 C 10.941406 20.460938 11.996094 19.503906 11.996094 19.503906 C 11.996094 19.503906 10.398438 19.179688 9.570312 18.574219 C 8.742188 17.972656 8.414062 16.816406 8.414062 16.816406 C 8.414062 16.816406 8.96875 16.867188 9.308594 16.855469 C 9.660156 16.839844 10.074219 16.679688 10.074219 16.679688 C 10.074219 16.679688 8.929688 16.539062 7.863281 15.34375 C 7.019531 14.402344 7.082031 12.832031 7.082031 12.832031 C 7.082031 12.832031 7.585938 13.132812 7.847656 13.195312 C 8.113281 13.273438 8.628906 13.273438 8.628906 13.273438 C 8.628906 13.273438 7.621094 12.679688 7.183594 11.136719 C 6.742188 9.601562 7.585938 8.042969 7.585938 8.042969 C 7.585938 8.042969 9.082031 9.851562 11.292969 11.007812 C 13.503906 12.164062 15.589844 12.128906 15.589844 12.128906 C 15.589844 12.128906 15.289062 11.210938 15.816406 9.851562 C 16.34375 8.496094 17.539062 7.515625 19.359375 7.378906 C 21.183594 7.226562 22.351562 8.609375 22.351562 8.609375 C 22.351562 8.609375 22.917969 8.507812 23.558594 8.269531 C 24.199219 8.042969 24.839844 7.742188 24.839844 7.742188 C 24.839844 7.742188 24.613281 8.433594 24.175781 8.972656 C 23.734375 9.515625 23.246094 9.839844 23.246094 9.839844 C 23.246094 9.839844 23.824219 9.804688 24.402344 9.640625 C 24.980469 9.476562 25.292969 9.3125 25.292969 9.3125 C 24.628906 10.417969 23.472656 11.25 23.472656 11.25 Z M 23.472656 11.25 " fill-opacity="1" fill-rule="nonzero"/></g></svg>