<svg xmlns="http://www.w3.org/2000/svg" xmlns:xlink="http://www.w3.org/1999/xlink" width="40" zoomAndPan="magnify" viewBox="0 0 30 30.000001" height="40" preserveAspectRatio="xMidYMid meet" version="1.0"><defs><clipPath id="0a93273e50"><path d="M 3 8 L 28.425781 8 L 28.425781 28 L 3 28 Z M 3 8 " clip-rule="nonzero"/></clipPath><clipPath id="4e62b21f6b"><path d="M 1.574219 1 L 27 1 L 27 21 L 1.574219 21 Z M 1.574219 1 " clip-rule="nonzero"/></clipPath></defs><g clip-path="url(#0a93273e50)"><path fill="#5271ff" d="M 26.324219 9.074219 C 27.152344 10.792969 27.566406 12.605469 27.5625 14.515625 C 27.5625 15.722656 27.390625 16.90625 27.050781 18.066406 C 26.710938 19.226562 26.210938 20.3125 25.558594 21.328125 C 24.902344 22.34375 24.117188 23.246094 23.203125 24.035156 C 22.289062 24.824219 21.277344 25.464844 20.179688 25.964844 C 19.078125 26.460938 17.929688 26.792969 16.730469 26.957031 C 15.535156 27.125 14.339844 27.117188 13.144531 26.9375 C 11.949219 26.757812 10.804688 26.414062 9.710938 25.902344 C 8.613281 25.394531 7.613281 24.738281 6.707031 23.941406 L 7.648438 23 C 7.769531 22.878906 7.808594 22.734375 7.757812 22.570312 C 7.707031 22.402344 7.597656 22.304688 7.429688 22.269531 L 4.367188 21.65625 C 4.296875 21.640625 4.226562 21.644531 4.15625 21.667969 C 4.085938 21.6875 4.027344 21.722656 3.976562 21.773438 C 3.925781 21.824219 3.886719 21.886719 3.867188 21.957031 C 3.847656 22.023438 3.84375 22.09375 3.855469 22.164062 L 4.464844 25.226562 C 4.5 25.398438 4.597656 25.507812 4.765625 25.558594 C 4.929688 25.605469 5.074219 25.570312 5.195312 25.449219 L 6.09375 24.554688 C 7.0625 25.414062 8.128906 26.117188 9.300781 26.667969 C 10.472656 27.21875 11.695312 27.59375 12.976562 27.789062 C 14.253906 27.984375 15.535156 27.996094 16.816406 27.820312 C 18.097656 27.648438 19.328125 27.292969 20.511719 26.765625 C 21.691406 26.234375 22.769531 25.546875 23.753906 24.703125 C 24.734375 23.859375 25.574219 22.894531 26.277344 21.808594 C 26.980469 20.722656 27.515625 19.558594 27.878906 18.316406 C 28.246094 17.078125 28.429688 15.808594 28.425781 14.515625 C 28.433594 12.476562 27.992188 10.535156 27.105469 8.699219 Z M 5.15625 24.265625 L 4.832031 22.632812 L 6.464844 22.960938 Z M 5.15625 24.265625 " fill-opacity="1" fill-rule="nonzero"/></g><g clip-path="url(#4e62b21f6b)"><path fill="#5271ff" d="M 3.675781 19.960938 C 2.847656 18.238281 2.433594 16.425781 2.4375 14.515625 C 2.4375 13.308594 2.609375 12.125 2.949219 10.964844 C 3.292969 9.808594 3.789062 8.71875 4.445312 7.703125 C 5.101562 6.691406 5.886719 5.789062 6.800781 5 C 7.714844 4.210938 8.722656 3.566406 9.824219 3.070312 C 10.925781 2.574219 12.074219 2.242188 13.269531 2.074219 C 14.46875 1.90625 15.664062 1.914062 16.855469 2.09375 C 18.050781 2.273438 19.195312 2.617188 20.292969 3.125 C 21.386719 3.636719 22.390625 4.289062 23.296875 5.085938 L 22.351562 6.03125 C 22.230469 6.152344 22.191406 6.296875 22.242188 6.460938 C 22.292969 6.628906 22.402344 6.726562 22.570312 6.761719 L 25.632812 7.375 C 25.703125 7.390625 25.773438 7.386719 25.84375 7.367188 C 25.914062 7.34375 25.972656 7.308594 26.023438 7.257812 C 26.074219 7.207031 26.113281 7.144531 26.132812 7.078125 C 26.152344 7.007812 26.15625 6.9375 26.144531 6.867188 L 25.535156 3.804688 C 25.5 3.636719 25.402344 3.527344 25.234375 3.476562 C 25.070312 3.425781 24.925781 3.460938 24.804688 3.582031 L 23.910156 4.472656 C 22.941406 3.617188 21.871094 2.910156 20.703125 2.363281 C 19.53125 1.8125 18.304688 1.4375 17.027344 1.242188 C 15.746094 1.046875 14.46875 1.039062 13.1875 1.210938 C 11.902344 1.386719 10.671875 1.738281 9.492188 2.269531 C 8.3125 2.800781 7.230469 3.488281 6.25 4.328125 C 5.269531 5.171875 4.425781 6.136719 3.722656 7.222656 C 3.023438 8.308594 2.488281 9.472656 2.121094 10.714844 C 1.753906 11.953125 1.574219 13.222656 1.574219 14.515625 C 1.566406 16.558594 2.007812 18.496094 2.894531 20.335938 Z M 24.84375 4.769531 L 25.167969 6.398438 L 23.535156 6.070312 Z M 24.84375 4.769531 " fill-opacity="1" fill-rule="nonzero"/></g><path fill="#5271ff" d="M 20.75 22.390625 C 20.769531 22.390625 20.792969 22.390625 20.8125 22.390625 C 21.242188 22.390625 21.632812 22.265625 21.984375 22.023438 C 22.335938 21.78125 22.589844 21.457031 22.742188 21.054688 C 22.894531 20.65625 22.917969 20.246094 22.816406 19.832031 C 22.710938 19.414062 22.5 19.0625 22.179688 18.78125 L 18.269531 15.308594 C 18.429688 14.691406 18.421875 14.070312 18.242188 13.457031 C 18.0625 12.839844 17.734375 12.316406 17.261719 11.878906 C 16.789062 11.445312 16.238281 11.164062 15.609375 11.039062 C 14.980469 10.910156 14.363281 10.957031 13.757812 11.171875 C 13.6875 11.195312 13.628906 11.238281 13.578125 11.292969 C 13.53125 11.347656 13.496094 11.414062 13.480469 11.484375 C 13.464844 11.558594 13.464844 11.628906 13.488281 11.699219 C 13.507812 11.773438 13.542969 11.835938 13.597656 11.886719 L 14.613281 12.902344 L 13.386719 14.128906 L 12.371094 13.113281 C 12.320312 13.058594 12.257812 13.023438 12.1875 13 C 12.113281 12.980469 12.042969 12.980469 11.96875 12.996094 C 11.898438 13.011719 11.832031 13.042969 11.777344 13.09375 C 11.722656 13.144531 11.683594 13.203125 11.65625 13.273438 C 11.441406 13.878906 11.398438 14.496094 11.523438 15.125 C 11.652344 15.753906 11.933594 16.304688 12.367188 16.777344 C 12.800781 17.25 13.324219 17.578125 13.941406 17.757812 C 14.554688 17.9375 15.175781 17.945312 15.796875 17.785156 L 19.265625 21.695312 C 19.660156 22.140625 20.152344 22.375 20.75 22.390625 Z M 15.933594 16.855469 C 15.886719 16.855469 15.835938 16.863281 15.789062 16.878906 C 15.589844 16.953125 15.382812 17 15.167969 17.019531 C 14.957031 17.039062 14.742188 17.035156 14.53125 17.003906 C 14.320312 16.972656 14.113281 16.914062 13.917969 16.832031 C 13.71875 16.75 13.535156 16.644531 13.363281 16.515625 C 13.191406 16.390625 13.039062 16.242188 12.90625 16.074219 C 12.769531 15.910156 12.65625 15.730469 12.566406 15.535156 C 12.476562 15.339844 12.410156 15.140625 12.371094 14.929688 C 12.332031 14.71875 12.316406 14.507812 12.328125 14.292969 L 13.082031 15.046875 C 13.167969 15.128906 13.269531 15.167969 13.386719 15.167969 C 13.507812 15.167969 13.609375 15.128906 13.695312 15.046875 L 15.53125 13.210938 C 15.617188 13.125 15.660156 13.023438 15.660156 12.902344 C 15.660156 12.785156 15.617188 12.679688 15.53125 12.597656 L 14.777344 11.84375 C 14.992188 11.832031 15.203125 11.84375 15.414062 11.886719 C 15.625 11.925781 15.828125 11.992188 16.019531 12.082031 C 16.214844 12.171875 16.394531 12.285156 16.5625 12.417969 C 16.726562 12.554688 16.875 12.707031 17 12.878906 C 17.128906 13.050781 17.234375 13.234375 17.316406 13.433594 C 17.398438 13.628906 17.457031 13.835938 17.488281 14.046875 C 17.519531 14.257812 17.527344 14.46875 17.503906 14.683594 C 17.484375 14.898438 17.4375 15.105469 17.363281 15.304688 C 17.300781 15.488281 17.339844 15.644531 17.484375 15.773438 L 21.605469 19.429688 C 21.730469 19.539062 21.824219 19.667969 21.894531 19.816406 C 21.964844 19.964844 22.003906 20.125 22.007812 20.289062 C 22.011719 20.453125 21.984375 20.613281 21.925781 20.765625 C 21.863281 20.921875 21.773438 21.054688 21.65625 21.171875 C 21.414062 21.417969 21.121094 21.535156 20.773438 21.523438 C 20.429688 21.515625 20.140625 21.378906 19.914062 21.121094 L 16.257812 17 C 16.171875 16.902344 16.066406 16.855469 15.933594 16.855469 Z M 15.933594 16.855469 " fill-opacity="1" fill-rule="nonzero"/><path fill="#5271ff" d="M 21.117188 16.683594 C 21.28125 16.21875 21.394531 15.746094 21.453125 15.257812 C 21.511719 14.769531 21.511719 14.28125 21.460938 13.792969 C 21.40625 13.304688 21.300781 12.828125 21.140625 12.363281 C 20.980469 11.898438 20.769531 11.457031 20.511719 11.042969 C 20.25 10.625 19.949219 10.242188 19.601562 9.894531 C 19.257812 9.546875 18.875 9.238281 18.460938 8.976562 C 18.046875 8.714844 17.605469 8.503906 17.144531 8.339844 C 16.679688 8.175781 16.207031 8.066406 15.71875 8.007812 C 15.230469 7.953125 14.742188 7.953125 14.253906 8.007812 C 13.765625 8.0625 13.289062 8.167969 12.824219 8.332031 C 12.363281 8.492188 11.921875 8.703125 11.507812 8.964844 C 11.089844 9.226562 10.707031 9.53125 10.363281 9.878906 C 10.015625 10.226562 9.710938 10.605469 9.449219 11.023438 C 9.1875 11.4375 8.976562 11.878906 8.816406 12.34375 C 8.652344 12.804688 8.546875 13.28125 8.492188 13.769531 C 8.4375 14.257812 8.4375 14.746094 8.492188 15.234375 C 8.550781 15.722656 8.660156 16.195312 8.824219 16.660156 C 8.984375 17.125 9.199219 17.5625 9.460938 17.976562 C 9.722656 18.390625 10.03125 18.773438 10.378906 19.117188 C 10.726562 19.464844 11.109375 19.769531 11.527344 20.027344 C 11.941406 20.285156 12.382812 20.496094 12.847656 20.65625 C 13.3125 20.816406 13.789062 20.921875 14.277344 20.976562 C 14.765625 21.027344 15.253906 21.027344 15.742188 20.96875 C 16.226562 20.910156 16.703125 20.800781 17.164062 20.632812 L 16.539062 19.929688 C 16.140625 20.042969 15.734375 20.113281 15.320312 20.136719 C 14.902344 20.160156 14.492188 20.140625 14.082031 20.074219 C 13.671875 20.007812 13.273438 19.898438 12.886719 19.746094 C 12.503906 19.589844 12.136719 19.398438 11.792969 19.164062 C 11.453125 18.929688 11.136719 18.660156 10.855469 18.355469 C 10.570312 18.054688 10.324219 17.722656 10.113281 17.363281 C 9.902344 17.007812 9.734375 16.628906 9.605469 16.234375 C 9.476562 15.839844 9.394531 15.4375 9.355469 15.023438 C 9.316406 14.609375 9.324219 14.195312 9.375 13.785156 C 9.429688 13.371094 9.523438 12.96875 9.664062 12.578125 C 9.804688 12.1875 9.988281 11.816406 10.210938 11.46875 C 10.433594 11.117188 10.691406 10.796875 10.984375 10.5 C 11.277344 10.207031 11.601562 9.949219 11.953125 9.726562 C 12.300781 9.503906 12.671875 9.324219 13.0625 9.179688 C 13.453125 9.039062 13.855469 8.945312 14.269531 8.890625 C 14.679688 8.839844 15.09375 8.832031 15.507812 8.871094 C 15.921875 8.910156 16.324219 8.992188 16.71875 9.121094 C 17.113281 9.25 17.492188 9.417969 17.847656 9.628906 C 18.207031 9.839844 18.539062 10.085938 18.839844 10.371094 C 19.144531 10.652344 19.414062 10.96875 19.648438 11.308594 C 19.882812 11.652344 20.074219 12.019531 20.230469 12.402344 C 20.382812 12.789062 20.492188 13.1875 20.558594 13.597656 C 20.625 14.007812 20.644531 14.417969 20.621094 14.835938 C 20.597656 15.25 20.527344 15.65625 20.414062 16.054688 Z M 21.117188 16.683594 " fill-opacity="1" fill-rule="nonzero"/><path fill="#5271ff" d="M 21.046875 20.5625 C 21.128906 20.476562 21.171875 20.375 21.171875 20.253906 C 21.171875 20.136719 21.128906 20.03125 21.042969 19.949219 C 20.960938 19.863281 20.859375 19.820312 20.738281 19.820312 C 20.617188 19.820312 20.515625 19.863281 20.433594 19.949219 C 20.347656 20.03125 20.304688 20.136719 20.304688 20.253906 C 20.304688 20.375 20.347656 20.476562 20.433594 20.5625 C 20.515625 20.644531 20.617188 20.6875 20.738281 20.6875 C 20.859375 20.6875 20.960938 20.644531 21.046875 20.5625 Z M 21.046875 20.5625 " fill-opacity="1" fill-rule="nonzero"/><path fill="#5271ff" d="M 23.257812 16.683594 C 23.425781 16.679688 23.585938 16.648438 23.742188 16.585938 C 23.898438 16.519531 24.035156 16.425781 24.15625 16.308594 C 24.273438 16.1875 24.367188 16.050781 24.433594 15.894531 C 24.496094 15.738281 24.527344 15.578125 24.527344 15.410156 L 24.527344 13.625 C 24.527344 13.457031 24.496094 13.292969 24.433594 13.136719 C 24.367188 12.980469 24.273438 12.84375 24.15625 12.722656 C 24.035156 12.605469 23.898438 12.511719 23.742188 12.449219 C 23.585938 12.382812 23.425781 12.351562 23.257812 12.351562 C 23.050781 12.351562 22.917969 12.257812 22.851562 12.066406 C 22.703125 11.59375 22.515625 11.136719 22.285156 10.699219 C 22.195312 10.515625 22.222656 10.355469 22.367188 10.210938 L 22.375 10.203125 C 22.496094 10.082031 22.585938 9.945312 22.648438 9.789062 C 22.710938 9.632812 22.742188 9.472656 22.742188 9.304688 C 22.742188 9.136719 22.707031 8.972656 22.644531 8.820312 C 22.578125 8.664062 22.488281 8.527344 22.367188 8.410156 L 21.105469 7.148438 C 20.984375 7.03125 20.847656 6.941406 20.691406 6.878906 C 20.535156 6.816406 20.375 6.785156 20.207031 6.785156 C 20.039062 6.785156 19.875 6.816406 19.71875 6.878906 C 19.566406 6.941406 19.425781 7.03125 19.304688 7.148438 C 19.164062 7.292969 19 7.320312 18.816406 7.230469 C 18.378906 7 17.921875 6.808594 17.449219 6.664062 C 17.257812 6.597656 17.164062 6.460938 17.164062 6.261719 C 17.164062 6.089844 17.132812 5.929688 17.070312 5.773438 C 17.003906 5.617188 16.910156 5.480469 16.792969 5.359375 C 16.671875 5.242188 16.535156 5.148438 16.378906 5.085938 C 16.222656 5.019531 16.0625 4.988281 15.894531 4.988281 L 14.105469 4.988281 C 13.9375 4.988281 13.773438 5.019531 13.617188 5.085938 C 13.460938 5.152344 13.320312 5.246094 13.203125 5.367188 C 13.082031 5.488281 12.992188 5.628906 12.925781 5.785156 C 12.863281 5.945312 12.832031 6.109375 12.835938 6.277344 C 12.835938 6.46875 12.75 6.597656 12.566406 6.660156 C 12.089844 6.808594 11.628906 7 11.183594 7.230469 C 11 7.320312 10.835938 7.292969 10.695312 7.144531 C 10.574219 7.027344 10.433594 6.941406 10.277344 6.878906 C 10.121094 6.816406 9.960938 6.785156 9.792969 6.785156 C 9.625 6.785156 9.464844 6.816406 9.308594 6.878906 C 9.152344 6.941406 9.015625 7.027344 8.894531 7.144531 L 7.632812 8.410156 C 7.511719 8.527344 7.421875 8.664062 7.355469 8.820312 C 7.292969 8.972656 7.257812 9.136719 7.257812 9.304688 C 7.257812 9.472656 7.289062 9.632812 7.351562 9.789062 C 7.414062 9.945312 7.503906 10.082031 7.621094 10.203125 L 7.632812 10.210938 C 7.777344 10.355469 7.804688 10.515625 7.714844 10.699219 C 7.484375 11.136719 7.296875 11.59375 7.148438 12.066406 C 7.082031 12.257812 6.949219 12.355469 6.742188 12.351562 C 6.574219 12.351562 6.414062 12.382812 6.257812 12.449219 C 6.101562 12.511719 5.964844 12.605469 5.84375 12.722656 C 5.726562 12.84375 5.632812 12.980469 5.566406 13.136719 C 5.503906 13.292969 5.472656 13.457031 5.472656 13.625 L 5.472656 15.410156 C 5.472656 15.578125 5.503906 15.738281 5.566406 15.894531 C 5.632812 16.050781 5.726562 16.1875 5.84375 16.308594 C 5.964844 16.425781 6.101562 16.519531 6.257812 16.585938 C 6.414062 16.648438 6.574219 16.679688 6.742188 16.683594 C 6.949219 16.679688 7.082031 16.773438 7.148438 16.96875 C 7.296875 17.4375 7.484375 17.894531 7.714844 18.332031 C 7.804688 18.515625 7.777344 18.679688 7.632812 18.820312 L 7.625 18.832031 C 7.503906 18.949219 7.414062 19.085938 7.351562 19.242188 C 7.289062 19.398438 7.257812 19.5625 7.257812 19.726562 C 7.257812 19.894531 7.292969 20.058594 7.355469 20.210938 C 7.421875 20.367188 7.511719 20.503906 7.632812 20.625 L 8.894531 21.886719 C 9.015625 22 9.152344 22.089844 9.308594 22.152344 C 9.464844 22.214844 9.625 22.246094 9.792969 22.246094 C 9.960938 22.246094 10.125 22.214844 10.28125 22.152344 C 10.433594 22.089844 10.574219 22 10.695312 21.886719 C 10.839844 21.738281 11 21.710938 11.183594 21.800781 C 11.621094 22.03125 12.078125 22.222656 12.550781 22.371094 C 12.742188 22.433594 12.835938 22.570312 12.835938 22.773438 C 12.835938 22.941406 12.867188 23.101562 12.929688 23.257812 C 12.996094 23.414062 13.089844 23.550781 13.207031 23.671875 C 13.328125 23.792969 13.464844 23.882812 13.621094 23.949219 C 13.777344 24.011719 13.9375 24.046875 14.105469 24.046875 L 15.894531 24.046875 C 16.0625 24.046875 16.222656 24.011719 16.378906 23.949219 C 16.535156 23.882812 16.671875 23.792969 16.792969 23.671875 C 16.910156 23.550781 17.003906 23.414062 17.070312 23.257812 C 17.132812 23.101562 17.164062 22.941406 17.164062 22.773438 C 17.164062 22.570312 17.257812 22.433594 17.449219 22.367188 C 17.769531 22.265625 18.078125 22.144531 18.382812 22.003906 L 17.78125 21.328125 C 17.585938 21.40625 17.390625 21.480469 17.191406 21.539062 C 16.925781 21.625 16.707031 21.78125 16.542969 22.007812 C 16.378906 22.238281 16.296875 22.492188 16.300781 22.773438 C 16.300781 22.882812 16.257812 22.980469 16.179688 23.058594 C 16.101562 23.140625 16.003906 23.179688 15.894531 23.179688 L 14.105469 23.179688 C 13.996094 23.179688 13.898438 23.140625 13.820312 23.058594 C 13.742188 22.980469 13.699219 22.882812 13.699219 22.773438 C 13.703125 22.492188 13.621094 22.238281 13.457031 22.007812 C 13.292969 21.78125 13.074219 21.625 12.808594 21.539062 C 12.386719 21.410156 11.980469 21.238281 11.585938 21.035156 C 11.402344 20.9375 11.207031 20.886719 11 20.886719 C 10.640625 20.890625 10.332031 21.015625 10.082031 21.273438 C 10 21.347656 9.90625 21.386719 9.792969 21.386719 C 9.683594 21.386719 9.585938 21.347656 9.503906 21.273438 L 8.242188 20.011719 C 8.164062 19.929688 8.125 19.835938 8.125 19.722656 C 8.125 19.609375 8.164062 19.515625 8.242188 19.433594 C 8.246094 19.433594 8.25 19.429688 8.25 19.425781 C 8.449219 19.226562 8.570312 18.992188 8.613281 18.714844 C 8.65625 18.4375 8.609375 18.175781 8.480469 17.929688 C 8.277344 17.535156 8.105469 17.128906 7.976562 16.707031 C 7.890625 16.441406 7.734375 16.222656 7.507812 16.058594 C 7.277344 15.894531 7.023438 15.8125 6.742188 15.816406 C 6.632812 15.816406 6.535156 15.777344 6.457031 15.695312 C 6.378906 15.617188 6.335938 15.519531 6.335938 15.410156 L 6.335938 13.625 C 6.335938 13.511719 6.378906 13.414062 6.457031 13.335938 C 6.535156 13.257812 6.632812 13.21875 6.742188 13.214844 C 7.023438 13.21875 7.277344 13.136719 7.507812 12.972656 C 7.734375 12.808594 7.890625 12.59375 7.976562 12.324219 C 8.105469 11.902344 8.277344 11.496094 8.484375 11.101562 C 8.613281 10.855469 8.65625 10.59375 8.613281 10.316406 C 8.570312 10.042969 8.449219 9.804688 8.253906 9.605469 L 8.242188 9.597656 C 8.164062 9.519531 8.125 9.421875 8.125 9.308594 C 8.125 9.195312 8.164062 9.101562 8.242188 9.019531 L 9.503906 7.757812 C 9.585938 7.679688 9.683594 7.644531 9.792969 7.644531 C 9.90625 7.644531 10 7.679688 10.082031 7.757812 C 10.28125 7.960938 10.515625 8.082031 10.796875 8.125 C 11.074219 8.171875 11.339844 8.125 11.585938 7.996094 C 11.984375 7.789062 12.398438 7.617188 12.824219 7.484375 C 13.089844 7.398438 13.304688 7.246094 13.464844 7.019531 C 13.628906 6.792969 13.707031 6.539062 13.699219 6.261719 C 13.699219 6.148438 13.742188 6.050781 13.820312 5.972656 C 13.898438 5.894531 13.996094 5.855469 14.105469 5.851562 L 15.894531 5.851562 C 16.003906 5.855469 16.101562 5.894531 16.179688 5.972656 C 16.257812 6.050781 16.300781 6.148438 16.300781 6.261719 C 16.296875 6.542969 16.378906 6.796875 16.542969 7.023438 C 16.707031 7.25 16.925781 7.40625 17.191406 7.492188 C 17.613281 7.625 18.019531 7.792969 18.414062 8 C 18.664062 8.128906 18.925781 8.171875 19.207031 8.128906 C 19.484375 8.082031 19.722656 7.960938 19.917969 7.757812 C 20 7.683594 20.09375 7.644531 20.207031 7.644531 C 20.316406 7.644531 20.414062 7.683594 20.496094 7.757812 L 21.757812 9.019531 C 21.835938 9.101562 21.875 9.195312 21.875 9.308594 C 21.875 9.421875 21.835938 9.519531 21.757812 9.597656 C 21.753906 9.601562 21.75 9.601562 21.75 9.605469 C 21.550781 9.804688 21.429688 10.039062 21.386719 10.316406 C 21.34375 10.59375 21.390625 10.855469 21.519531 11.105469 C 21.722656 11.496094 21.894531 11.902344 22.023438 12.324219 C 22.109375 12.59375 22.265625 12.808594 22.492188 12.972656 C 22.722656 13.136719 22.976562 13.21875 23.257812 13.214844 C 23.367188 13.21875 23.464844 13.257812 23.542969 13.335938 C 23.621094 13.414062 23.664062 13.511719 23.664062 13.625 L 23.664062 15.410156 C 23.660156 15.523438 23.621094 15.621094 23.535156 15.703125 C 23.453125 15.78125 23.351562 15.820312 23.238281 15.816406 C 22.960938 15.816406 22.714844 15.894531 22.492188 16.058594 C 22.269531 16.21875 22.113281 16.429688 22.03125 16.691406 C 21.964844 16.894531 21.894531 17.097656 21.8125 17.296875 L 22.488281 17.894531 C 22.632812 17.585938 22.753906 17.269531 22.855469 16.945312 C 22.925781 16.757812 23.058594 16.671875 23.257812 16.683594 Z M 23.257812 16.683594 " fill-opacity="1" fill-rule="nonzero"/></svg>