<svg xmlns="http://www.w3.org/2000/svg" xmlns:xlink="http://www.w3.org/1999/xlink" width="40" zoomAndPan="magnify" viewBox="0 0 30 30.000001" height="40" preserveAspectRatio="xMidYMid meet" version="1.0"><defs><clipPath id="b723113f9b"><path d="M 0.484375 0 L 29.515625 0 L 29.515625 29.03125 L 0.484375 29.03125 Z M 0.484375 0 " clip-rule="nonzero"/></clipPath></defs><g clip-path="url(#b723113f9b)"><path fill="#5271ff" d="M 12.925781 10.367188 L 12.925781 19.699219 C 12.925781 19.839844 12.898438 19.96875 12.847656 20.097656 C 12.792969 20.222656 12.71875 20.335938 12.621094 20.433594 C 12.523438 20.53125 12.414062 20.605469 12.285156 20.660156 C 12.160156 20.710938 12.027344 20.738281 11.890625 20.738281 L 1.519531 20.738281 C 1.382812 20.738281 1.25 20.710938 1.125 20.660156 C 0.996094 20.605469 0.886719 20.53125 0.789062 20.433594 C 0.691406 20.335938 0.617188 20.222656 0.5625 20.097656 C 0.511719 19.96875 0.484375 19.839844 0.484375 19.699219 L 0.484375 10.367188 C 0.484375 9.960938 0.523438 9.554688 0.601562 9.15625 C 0.683594 8.753906 0.800781 8.367188 0.957031 7.988281 C 1.113281 7.609375 1.304688 7.253906 1.53125 6.914062 C 1.757812 6.574219 2.015625 6.257812 2.304688 5.96875 C 2.59375 5.679688 2.910156 5.421875 3.25 5.195312 C 3.589844 4.96875 3.945312 4.777344 4.324219 4.621094 C 4.703125 4.464844 5.089844 4.347656 5.492188 4.265625 C 5.890625 4.1875 6.296875 4.148438 6.703125 4.148438 C 7.113281 4.148438 7.519531 4.1875 7.917969 4.265625 C 8.320312 4.347656 8.707031 4.464844 9.085938 4.621094 C 9.464844 4.777344 9.820312 4.96875 10.160156 5.195312 C 10.5 5.421875 10.816406 5.679688 11.105469 5.96875 C 11.394531 6.257812 11.652344 6.574219 11.878906 6.914062 C 12.105469 7.253906 12.296875 7.609375 12.453125 7.988281 C 12.609375 8.367188 12.726562 8.753906 12.808594 9.15625 C 12.886719 9.554688 12.925781 9.960938 12.925781 10.367188 Z M 15 27.996094 C 15 28.132812 15.027344 28.265625 15.078125 28.390625 C 15.132812 28.519531 15.207031 28.632812 15.304688 28.730469 C 15.402344 28.824219 15.511719 28.902344 15.640625 28.953125 C 15.765625 29.007812 15.898438 29.03125 16.035156 29.03125 L 18.109375 29.03125 C 18.25 29.03125 18.378906 29.007812 18.507812 28.953125 C 18.632812 28.902344 18.746094 28.824219 18.84375 28.730469 C 18.941406 28.632812 19.015625 28.519531 19.070312 28.390625 C 19.121094 28.265625 19.148438 28.132812 19.148438 27.996094 L 19.148438 22.8125 L 15 22.8125 Z M 23.296875 4.148438 L 21.222656 4.148438 L 21.222656 9.332031 C 21.222656 9.46875 21.195312 9.601562 21.140625 9.730469 C 21.089844 9.855469 21.015625 9.96875 20.917969 10.066406 C 20.820312 10.164062 20.707031 10.238281 20.582031 10.289062 C 20.453125 10.34375 20.320312 10.367188 20.183594 10.367188 C 20.046875 10.367188 19.914062 10.34375 19.789062 10.289062 C 19.660156 10.238281 19.546875 10.164062 19.449219 10.066406 C 19.355469 9.96875 19.277344 9.855469 19.226562 9.730469 C 19.171875 9.601562 19.148438 9.46875 19.148438 9.332031 L 19.148438 2.074219 L 21.222656 2.074219 C 21.359375 2.074219 21.492188 2.046875 21.617188 1.996094 C 21.746094 1.941406 21.855469 1.867188 21.953125 1.769531 C 22.050781 1.671875 22.125 1.5625 22.179688 1.433594 C 22.230469 1.304688 22.257812 1.175781 22.257812 1.035156 C 22.257812 0.898438 22.230469 0.765625 22.179688 0.640625 C 22.125 0.511719 22.050781 0.402344 21.953125 0.304688 C 21.855469 0.207031 21.746094 0.132812 21.617188 0.078125 C 21.492188 0.0273438 21.359375 0 21.222656 0 L 18.109375 0 C 17.972656 0 17.839844 0.0273438 17.714844 0.078125 C 17.585938 0.132812 17.476562 0.207031 17.378906 0.304688 C 17.28125 0.402344 17.207031 0.511719 17.152344 0.640625 C 17.101562 0.765625 17.074219 0.898438 17.074219 1.035156 L 17.074219 4.148438 L 12.179688 4.148438 C 13.074219 4.933594 13.769531 5.871094 14.261719 6.953125 C 14.75 8.039062 15 9.175781 15 10.367188 L 15 19.699219 C 15.003906 20.058594 14.941406 20.402344 14.8125 20.738281 L 28.480469 20.738281 C 28.617188 20.738281 28.75 20.710938 28.875 20.660156 C 29.003906 20.605469 29.113281 20.53125 29.210938 20.433594 C 29.308594 20.335938 29.382812 20.222656 29.4375 20.097656 C 29.488281 19.96875 29.515625 19.839844 29.515625 19.699219 L 29.515625 10.367188 C 29.515625 9.960938 29.476562 9.554688 29.398438 9.15625 C 29.316406 8.753906 29.199219 8.367188 29.042969 7.988281 C 28.886719 7.609375 28.695312 7.253906 28.46875 6.914062 C 28.242188 6.574219 27.984375 6.257812 27.695312 5.96875 C 27.40625 5.679688 27.089844 5.421875 26.75 5.195312 C 26.410156 4.96875 26.054688 4.777344 25.675781 4.621094 C 25.296875 4.464844 24.910156 4.347656 24.507812 4.265625 C 24.109375 4.1875 23.703125 4.148438 23.296875 4.148438 Z M 23.296875 4.148438 " fill-opacity="1" fill-rule="nonzero"/></g></svg>