<svg xmlns="http://www.w3.org/2000/svg" xmlns:xlink="http://www.w3.org/1999/xlink" width="40" zoomAndPan="magnify" viewBox="0 0 30 30.000001" height="40" preserveAspectRatio="xMidYMid meet" version="1.0"><defs><clipPath id="c033900c6a"><path d="M 0.484375 0 L 29.515625 0 L 29.515625 29.03125 L 0.484375 29.03125 Z M 0.484375 0 " clip-rule="nonzero"/></clipPath></defs><g clip-path="url(#c033900c6a)"><path fill="#5271ff" d="M 29.0625 14.0625 L 27.746094 14.0625 C 27.519531 7.394531 22.121094 1.996094 15.453125 1.769531 L 15.453125 0.453125 C 15.453125 0.179688 15.273438 0 15 0 C 14.726562 0 14.546875 0.179688 14.546875 0.453125 L 14.546875 1.769531 C 7.878906 1.996094 2.480469 7.394531 2.253906 14.0625 L 0.9375 14.0625 C 0.664062 14.0625 0.484375 14.242188 0.484375 14.515625 C 0.484375 14.789062 0.664062 14.96875 0.9375 14.96875 L 2.253906 14.96875 C 2.480469 21.636719 7.878906 27.035156 14.546875 27.261719 L 14.546875 28.578125 C 14.546875 28.851562 14.726562 29.03125 15 29.03125 C 15.273438 29.03125 15.453125 28.851562 15.453125 28.578125 L 15.453125 27.261719 C 22.121094 27.035156 27.519531 21.636719 27.746094 14.96875 L 29.0625 14.96875 C 29.335938 14.96875 29.515625 14.789062 29.515625 14.515625 C 29.515625 14.242188 29.335938 14.0625 29.0625 14.0625 Z M 15.453125 26.355469 L 15.453125 25.039062 C 15.453125 24.769531 15.273438 24.585938 15 24.585938 C 14.726562 24.585938 14.546875 24.769531 14.546875 25.039062 L 14.546875 26.355469 C 8.378906 26.128906 3.386719 21.140625 3.160156 14.96875 L 4.476562 14.96875 C 4.746094 14.96875 4.929688 14.789062 4.929688 14.515625 C 4.929688 14.242188 4.746094 14.0625 4.476562 14.0625 L 3.160156 14.0625 C 3.386719 7.894531 8.378906 2.902344 14.546875 2.675781 L 14.546875 3.992188 C 14.546875 4.265625 14.726562 4.445312 15 4.445312 C 15.273438 4.445312 15.453125 4.265625 15.453125 3.992188 L 15.453125 2.675781 C 21.621094 2.902344 26.613281 7.894531 26.839844 14.0625 L 25.523438 14.0625 C 25.253906 14.0625 25.070312 14.242188 25.070312 14.515625 C 25.070312 14.789062 25.253906 14.96875 25.523438 14.96875 L 26.839844 14.96875 C 26.613281 21.140625 21.621094 26.128906 15.453125 26.355469 Z M 15.453125 26.355469 " fill-opacity="1" fill-rule="nonzero"/></g><path fill="#5271ff" d="M 12.234375 7.257812 C 12.824219 7.257812 13.414062 7.53125 13.820312 7.984375 C 12.824219 8.4375 12.234375 9.480469 12.1875 10.523438 C 12.097656 11.839844 13.050781 12.972656 14.953125 12.972656 C 16.996094 12.972656 17.765625 11.976562 17.765625 10.707031 C 17.765625 9.527344 17.085938 8.4375 16.132812 7.984375 C 16.542969 7.53125 17.132812 7.304688 17.722656 7.304688 C 17.949219 7.304688 18.175781 7.078125 18.175781 6.851562 C 18.175781 6.578125 17.949219 6.394531 17.722656 6.394531 C 16.722656 6.394531 15.769531 6.894531 15.179688 7.757812 C 15.046875 7.757812 14.910156 7.757812 14.773438 7.757812 C 14.183594 6.894531 13.230469 6.394531 12.234375 6.394531 C 11.960938 6.394531 11.777344 6.578125 11.777344 6.851562 C 11.777344 7.078125 12.007812 7.257812 12.234375 7.257812 Z M 12.234375 7.257812 " fill-opacity="1" fill-rule="nonzero"/><path fill="#5271ff" d="M 21.578125 17.601562 C 21.714844 17.828125 21.984375 17.871094 22.210938 17.738281 C 22.441406 17.601562 22.484375 17.328125 22.347656 17.101562 L 21.351562 15.421875 C 21.261719 15.289062 21.125 15.195312 20.941406 15.195312 L 19.71875 15.195312 C 19.492188 14.109375 18.945312 13.109375 18.265625 12.339844 C 17.585938 13.472656 16.316406 13.835938 15 13.835938 C 13.640625 13.835938 12.550781 13.519531 11.824219 12.292969 C 11.097656 13.066406 10.554688 14.0625 10.328125 15.195312 L 9.101562 15.195312 C 8.964844 15.195312 8.785156 15.289062 8.738281 15.421875 L 7.695312 17.148438 C 7.558594 17.375 7.652344 17.644531 7.832031 17.78125 C 8.058594 17.917969 8.332031 17.828125 8.46875 17.644531 L 9.375 16.148438 L 10.191406 16.148438 C 10.191406 16.375 10.144531 16.601562 10.144531 16.785156 C 10.144531 17.464844 10.238281 18.144531 10.417969 18.734375 L 9.101562 18.734375 C 8.964844 18.734375 8.785156 18.824219 8.738281 18.960938 L 7.695312 20.683594 C 7.558594 20.914062 7.652344 21.183594 7.832031 21.320312 C 8.058594 21.457031 8.332031 21.367188 8.46875 21.183594 L 9.375 19.6875 L 10.78125 19.6875 C 11.644531 21.503906 13.230469 22.726562 15.089844 22.726562 C 16.949219 22.726562 18.539062 21.503906 19.398438 19.6875 L 20.804688 19.6875 L 21.714844 21.183594 C 21.851562 21.410156 22.121094 21.457031 22.347656 21.320312 C 22.574219 21.183594 22.621094 20.914062 22.484375 20.683594 L 21.351562 18.960938 C 21.261719 18.824219 21.125 18.734375 20.941406 18.734375 L 19.628906 18.734375 C 19.808594 18.101562 19.898438 17.464844 19.898438 16.785156 C 19.898438 16.558594 19.898438 16.332031 19.855469 16.148438 L 20.671875 16.148438 Z M 21.578125 17.601562 " fill-opacity="1" fill-rule="nonzero"/></svg>