<svg xmlns="http://www.w3.org/2000/svg" xmlns:xlink="http://www.w3.org/1999/xlink" width="40" zoomAndPan="magnify" viewBox="0 0 30 30.000001" height="40" preserveAspectRatio="xMidYMid meet" version="1.0"><defs><clipPath id="118cd49956"><path d="M 0.484375 10 L 29 10 L 29 19 L 0.484375 19 Z M 0.484375 10 " clip-rule="nonzero"/></clipPath><clipPath id="2749678e3b"><path d="M 0.484375 0.453125 L 29 0.453125 L 29 28.761719 L 0.484375 28.761719 Z M 0.484375 0.453125 " clip-rule="nonzero"/></clipPath><clipPath id="8dd9b38f62"><path d="M 23.609375 19.636719 L 29.507812 19.636719 L 29.507812 25.597656 L 23.609375 25.597656 Z M 23.609375 19.636719 " clip-rule="nonzero"/></clipPath></defs><g clip-path="url(#118cd49956)"><path fill="#5271ff" d="M 1.84375 17.488281 L 27.296875 17.488281 C 27.445312 16.625 27.691406 15.089844 27.691406 14.515625 C 27.691406 13.941406 27.445312 12.410156 27.296875 11.542969 L 1.84375 11.542969 L 1.476562 14.515625 Z M 28.042969 18.378906 L 1.058594 18.378906 L 0.578125 14.515625 L 1.058594 10.652344 L 28.042969 10.652344 L 28.109375 11.019531 C 28.128906 11.125 28.578125 13.632812 28.578125 14.515625 C 28.578125 15.402344 28.128906 17.90625 28.109375 18.011719 L 28.042969 18.378906 " fill-opacity="1" fill-rule="nonzero"/></g><path fill="#5271ff" d="M 11.980469 12.800781 L 10.984375 16.550781 L 10.019531 16.550781 L 9.492188 14.480469 L 8.996094 16.550781 L 7.988281 16.550781 L 6.992188 12.800781 L 8.074219 12.800781 L 8.601562 14.957031 L 9.113281 12.800781 L 10.015625 12.800781 L 10.574219 14.960938 L 11.097656 12.800781 L 11.980469 12.800781 " fill-opacity="1" fill-rule="nonzero"/><path fill="#5271ff" d="M 17.046875 12.800781 L 16.050781 16.550781 L 15.085938 16.550781 L 14.558594 14.480469 L 14.0625 16.550781 L 13.054688 16.550781 L 12.058594 12.800781 L 13.140625 12.800781 L 13.667969 14.957031 L 14.179688 12.800781 L 15.082031 12.800781 L 15.640625 14.960938 L 16.164062 12.800781 L 17.046875 12.800781 " fill-opacity="1" fill-rule="nonzero"/><path fill="#5271ff" d="M 22.113281 12.800781 L 21.117188 16.550781 L 20.152344 16.550781 L 19.625 14.480469 L 19.128906 16.550781 L 18.121094 16.550781 L 17.125 12.800781 L 18.207031 12.800781 L 18.734375 14.957031 L 19.246094 12.800781 L 20.148438 12.800781 L 20.707031 14.960938 L 21.230469 12.800781 L 22.113281 12.800781 " fill-opacity="1" fill-rule="nonzero"/><path fill="#5271ff" d="M 4.886719 21.726562 C 5.46875 21.414062 6.738281 20.804688 8.589844 20.324219 C 8.402344 19.558594 8.25 18.761719 8.140625 17.933594 L 2.988281 17.933594 C 3.394531 19.316406 4.046875 20.597656 4.886719 21.726562 " fill-opacity="1" fill-rule="nonzero"/><path fill="#5271ff" d="M 14.925781 8.449219 L 14.925781 11.097656 L 19.734375 11.097656 C 19.585938 10.027344 19.375 9.03125 19.113281 8.132812 C 17.601562 8.320312 16.203125 8.417969 14.925781 8.449219 " fill-opacity="1" fill-rule="nonzero"/><path fill="#5271ff" d="M 13.84375 8.464844 C 12.339844 8.464844 11.035156 8.378906 9.957031 8.261719 C 9.914062 8.257812 9.867188 8.253906 9.824219 8.246094 C 9.574219 9.117188 9.375 10.074219 9.234375 11.097656 L 14.042969 11.097656 L 14.042969 8.464844 C 13.976562 8.464844 13.910156 8.464844 13.84375 8.464844 " fill-opacity="1" fill-rule="nonzero"/><path fill="#5271ff" d="M 4.929688 7.253906 C 4.066406 8.394531 3.402344 9.695312 2.988281 11.097656 L 8.140625 11.097656 C 8.28125 10.050781 8.484375 9.046875 8.75 8.109375 C 6.792969 7.824219 5.492188 7.441406 4.929688 7.253906 " fill-opacity="1" fill-rule="nonzero"/><path fill="#5271ff" d="M 9.636719 20.078125 C 9.792969 20.046875 9.953125 20.015625 10.113281 19.984375 C 11.394531 19.753906 12.710938 19.632812 14.042969 19.628906 L 14.042969 17.933594 L 9.238281 17.933594 C 9.339844 18.6875 9.472656 19.40625 9.636719 20.078125 " fill-opacity="1" fill-rule="nonzero"/><path fill="#5271ff" d="M 9.714844 23.519531 C 9.371094 22.800781 9.074219 22.015625 8.824219 21.179688 C 7.203125 21.601562 6.046875 22.125 5.457031 22.429688 C 7.050781 24.257812 9.179688 25.601562 11.601562 26.210938 C 10.898438 25.554688 10.261719 24.652344 9.714844 23.519531 " fill-opacity="1" fill-rule="nonzero"/><path fill="#5271ff" d="M 19.253906 23.519531 C 18.695312 24.675781 18.039062 25.597656 17.316406 26.257812 C 19.792969 25.675781 21.976562 24.324219 23.605469 22.476562 C 22.394531 21.980469 21.222656 21.601562 20.105469 21.308594 C 19.867188 22.101562 19.582031 22.839844 19.253906 23.519531 " fill-opacity="1" fill-rule="nonzero"/><path fill="#5271ff" d="M 9.867188 20.9375 C 10.820312 24.160156 12.433594 26.210938 14.042969 26.53125 L 14.042969 20.519531 C 12.613281 20.523438 11.359375 20.660156 10.316406 20.847656 C 10.164062 20.875 10.015625 20.90625 9.867188 20.9375 " fill-opacity="1" fill-rule="nonzero"/><path fill="#5271ff" d="M 14.925781 20.539062 L 14.925781 26.53125 C 16.515625 26.214844 18.109375 24.214844 19.066406 21.0625 C 17.578125 20.742188 16.191406 20.585938 14.925781 20.539062 " fill-opacity="1" fill-rule="nonzero"/><path fill="#5271ff" d="M 14.925781 2.5 L 14.925781 7.566406 C 16.121094 7.53125 17.429688 7.445312 18.835938 7.273438 C 17.867188 4.523438 16.394531 2.792969 14.925781 2.5 " fill-opacity="1" fill-rule="nonzero"/><path fill="#5271ff" d="M 9.714844 5.515625 C 10.261719 4.382812 10.898438 3.476562 11.601562 2.820312 C 9.21875 3.421875 7.117188 4.734375 5.535156 6.515625 C 6.191406 6.714844 7.375 7.019531 9.011719 7.253906 C 9.21875 6.636719 9.453125 6.054688 9.714844 5.515625 " fill-opacity="1" fill-rule="nonzero"/><path fill="#5271ff" d="M 10.09375 7.386719 C 11.179688 7.503906 12.503906 7.585938 14.042969 7.578125 L 14.042969 2.5 C 12.554688 2.796875 11.0625 4.570312 10.09375 7.386719 " fill-opacity="1" fill-rule="nonzero"/><path fill="#5271ff" d="M 14.925781 19.644531 C 15.421875 19.664062 15.921875 19.695312 16.417969 19.746094 C 17.375 19.839844 18.335938 19.996094 19.300781 20.203125 C 19.480469 19.496094 19.625 18.738281 19.734375 17.933594 L 14.925781 17.933594 L 14.925781 19.644531 " fill-opacity="1" fill-rule="nonzero"/><path fill="#5271ff" d="M 20.1875 7.988281 C 20.46875 8.960938 20.683594 10.007812 20.828125 11.097656 L 26.117188 11.097656 C 25.699219 9.683594 25.027344 8.375 24.15625 7.226562 C 22.765625 7.550781 21.441406 7.800781 20.1875 7.988281 " fill-opacity="1" fill-rule="nonzero"/><path fill="#5271ff" d="M 19.253906 5.515625 C 19.496094 6.019531 19.71875 6.5625 19.914062 7.132812 C 21.058594 6.964844 22.265625 6.746094 23.523438 6.464844 C 21.90625 4.660156 19.753906 3.347656 17.316406 2.773438 C 18.039062 3.433594 18.695312 4.355469 19.253906 5.515625 " fill-opacity="1" fill-rule="nonzero"/><path fill="#5271ff" d="M 20.347656 20.457031 C 21.398438 20.730469 22.457031 21.074219 23.507812 21.484375 L 22.367188 18.414062 L 25.496094 19.578125 C 25.742188 19.050781 25.949219 18.5 26.117188 17.933594 L 20.828125 17.933594 C 20.710938 18.808594 20.550781 19.652344 20.347656 20.457031 " fill-opacity="1" fill-rule="nonzero"/><g clip-path="url(#2749678e3b)"><path fill="#5271ff" d="M 14.554688 0.453125 C 6.796875 0.453125 0.492188 6.761719 0.492188 14.515625 C 0.492188 22.269531 6.796875 28.578125 14.554688 28.578125 C 18.472656 28.578125 22.023438 26.964844 24.578125 24.367188 L 24.164062 23.253906 C 21.785156 25.867188 18.355469 27.511719 14.554688 27.511719 C 8.570312 27.511719 3.523438 23.445312 2.019531 17.933594 C 1.71875 16.84375 1.558594 15.699219 1.558594 14.515625 C 1.558594 13.332031 1.71875 12.1875 2.019531 11.097656 C 3.523438 5.585938 8.570312 1.523438 14.554688 1.523438 C 20.535156 1.523438 25.582031 5.585938 27.085938 11.097656 C 27.386719 12.1875 27.546875 13.332031 27.546875 14.515625 C 27.546875 15.699219 27.386719 16.84375 27.085938 17.933594 C 26.902344 18.613281 26.664062 19.273438 26.375 19.902344 L 27.378906 20.277344 C 28.171875 18.519531 28.617188 16.566406 28.617188 14.515625 C 28.617188 6.761719 22.308594 0.453125 14.554688 0.453125 " fill-opacity="1" fill-rule="nonzero"/></g><g clip-path="url(#8dd9b38f62)"><path fill="#5271ff" d="M 29.507812 24.832031 L 27.332031 22.652344 L 29.042969 21.683594 L 23.625 19.671875 L 25.636719 25.089844 L 26.605469 23.378906 L 28.785156 25.558594 L 29.507812 24.832031 " fill-opacity="1" fill-rule="nonzero"/></g></svg>