<svg xmlns="http://www.w3.org/2000/svg" xmlns:xlink="http://www.w3.org/1999/xlink" width="40" zoomAndPan="magnify" viewBox="0 0 30 30.000001" height="40" preserveAspectRatio="xMidYMid meet" version="1.0"><defs><clipPath id="c21ad3f8e3"><path d="M 0.484375 0 L 29.515625 0 L 29.515625 29.03125 L 0.484375 29.03125 Z M 0.484375 0 " clip-rule="nonzero"/></clipPath></defs><g clip-path="url(#c21ad3f8e3)"><path fill="#5271ff" d="M 15 0 C 6.980469 0 0.484375 6.496094 0.484375 14.515625 C 0.484375 22.535156 6.980469 29.03125 15 29.03125 C 23.019531 29.03125 29.515625 22.535156 29.515625 14.515625 C 29.503906 6.496094 23.007812 0 15 0 Z M 22.816406 8.910156 L 19.988281 22.171875 C 19.851562 22.835938 19.070312 23.125 18.53125 22.722656 L 11.820312 17.722656 L 19.234375 11.023438 C 19.234375 11.023438 19.738281 10.609375 19.601562 10.480469 C 19.449219 10.332031 18.894531 10.65625 18.621094 10.847656 C 18.332031 11.058594 9.53125 16.613281 9.53125 16.613281 L 5.070312 15.234375 C 4.570312 15.082031 4.570312 14.390625 5.296875 14.089844 L 21.6875 7.78125 C 22.402344 7.429688 22.96875 8.230469 22.816406 8.910156 Z M 22.816406 8.910156 " fill-opacity="1" fill-rule="nonzero"/></g></svg>