<svg xmlns="http://www.w3.org/2000/svg" xmlns:xlink="http://www.w3.org/1999/xlink" width="40" zoomAndPan="magnify" viewBox="0 0 30 30.000001" height="40" preserveAspectRatio="xMidYMid meet" version="1.0"><defs><clipPath id="de51f51d9e"><path d="M 0.484375 3 L 16 3 L 16 25 L 0.484375 25 Z M 0.484375 3 " clip-rule="nonzero"/></clipPath><clipPath id="8da7528cf2"><path d="M 25 13 L 29 13 L 29 29.03125 L 25 29.03125 Z M 25 13 " clip-rule="nonzero"/></clipPath><clipPath id="3401abde62"><path d="M 27 2 L 29.515625 2 L 29.515625 14 L 27 14 Z M 27 2 " clip-rule="nonzero"/></clipPath></defs><path fill="#5271ff" d="M 13.097656 15.738281 C 13.097656 13.996094 11.679688 12.574219 9.933594 12.574219 C 8.191406 12.574219 6.773438 13.996094 6.773438 15.738281 C 6.773438 17.484375 8.191406 18.902344 9.933594 18.902344 C 11.679688 18.902344 13.097656 17.484375 13.097656 15.738281 Z M 7.234375 15.738281 C 7.234375 14.25 8.445312 13.035156 9.933594 13.035156 C 11.425781 13.035156 12.636719 14.25 12.636719 15.738281 C 12.636719 17.230469 11.425781 18.441406 9.933594 18.441406 C 8.445312 18.441406 7.234375 17.230469 7.234375 15.738281 Z M 7.234375 15.738281 " fill-opacity="1" fill-rule="nonzero"/><path fill="#5271ff" d="M 10.742188 17.785156 C 10.78125 17.789062 10.816406 17.792969 10.855469 17.792969 C 10.96875 17.792969 11.078125 17.765625 11.175781 17.710938 C 11.929688 17.308594 12.324219 16.625 12.316406 15.738281 C 12.316406 15.394531 12.070312 15.113281 11.742188 15.0625 C 11.703125 15.054688 11.664062 15.050781 11.621094 15.050781 C 11.238281 15.054688 10.933594 15.367188 10.933594 15.75 C 10.9375 16.117188 10.816406 16.339844 10.527344 16.492188 C 10.363281 16.578125 10.246094 16.722656 10.191406 16.898438 C 10.136719 17.078125 10.15625 17.265625 10.242188 17.425781 C 10.34375 17.617188 10.523438 17.75 10.742188 17.785156 Z M 10.742188 17.785156 " fill-opacity="1" fill-rule="nonzero"/><g clip-path="url(#de51f51d9e)"><path fill="#5271ff" d="M 14.03125 20.859375 L 14.03125 4 C 14.03125 3.871094 13.925781 3.769531 13.800781 3.769531 L 3.289062 3.769531 C 3.285156 3.769531 3.28125 3.773438 3.273438 3.773438 C 3.253906 3.773438 3.234375 3.777344 3.214844 3.785156 C 3.207031 3.789062 3.199219 3.789062 3.191406 3.792969 C 3.171875 3.804688 3.152344 3.816406 3.136719 3.832031 C 3.132812 3.835938 3.128906 3.835938 3.125 3.839844 L 0.546875 6.523438 C 0.53125 6.542969 0.515625 6.5625 0.507812 6.585938 C 0.503906 6.59375 0.5 6.597656 0.5 6.605469 C 0.492188 6.625 0.488281 6.648438 0.488281 6.667969 C 0.488281 6.671875 0.484375 6.675781 0.484375 6.683594 L 0.484375 24.195312 C 0.484375 24.324219 0.585938 24.425781 0.714844 24.425781 L 13.800781 24.425781 C 13.925781 24.425781 14.03125 24.324219 14.03125 24.195312 L 14.03125 23.730469 L 14.117188 23.867188 C 14.273438 24.113281 14.535156 24.253906 14.800781 24.253906 C 14.933594 24.253906 15.066406 24.21875 15.1875 24.140625 C 15.402344 24.007812 15.53125 23.765625 15.53125 23.5 C 15.53125 23.34375 15.488281 23.191406 15.40625 23.058594 Z M 7.429688 18.375 C 7.210938 18.164062 7.015625 17.925781 6.851562 17.664062 C 6.628906 17.304688 6.46875 16.921875 6.382812 16.515625 C 6.25 15.902344 6.277344 15.257812 6.464844 14.660156 C 6.699219 13.90625 7.15625 13.265625 7.792969 12.804688 L 7.808594 12.789062 C 7.875 12.746094 7.941406 12.699219 8.007812 12.660156 C 9.707031 11.597656 11.953125 12.113281 13.015625 13.8125 C 13.378906 14.390625 13.570312 15.058594 13.570312 15.738281 C 13.570312 16.820312 13.09375 17.839844 12.265625 18.527344 C 12.140625 18.632812 12.003906 18.730469 11.863281 18.820312 C 11.710938 18.914062 11.5625 18.992188 11.417969 19.058594 C 10.089844 19.652344 8.488281 19.378906 7.429688 18.375 Z M 12.105469 19.210938 C 12.191406 19.160156 12.273438 19.101562 12.351562 19.042969 L 13.277344 20.523438 L 12.769531 20.839844 L 11.84375 19.363281 C 11.929688 19.316406 12.019531 19.265625 12.105469 19.210938 Z M 13.570312 20.121094 L 12.707031 18.742188 C 13.0625 18.417969 13.351562 18.039062 13.570312 17.617188 Z M 3.085938 4.546875 L 3.175781 6.578125 L 1.230469 6.476562 Z M 0.945312 23.964844 L 0.945312 6.925781 L 3.40625 7.050781 C 3.410156 7.054688 3.414062 7.054688 3.417969 7.054688 C 3.476562 7.054688 3.535156 7.027344 3.578125 6.984375 C 3.625 6.941406 3.648438 6.875 3.648438 6.8125 L 3.53125 4.230469 L 13.570312 4.230469 L 13.570312 13.855469 C 13.519531 13.757812 13.464844 13.660156 13.40625 13.570312 C 12.210938 11.65625 9.679688 11.070312 7.765625 12.265625 C 7.707031 12.304688 7.648438 12.34375 7.589844 12.386719 L 2.785156 12.386719 C 2.660156 12.386719 2.554688 12.488281 2.554688 12.613281 C 2.554688 12.742188 2.660156 12.84375 2.785156 12.84375 L 7.035156 12.84375 C 6.609375 13.273438 6.285156 13.785156 6.082031 14.363281 L 2.785156 14.363281 C 2.660156 14.363281 2.554688 14.464844 2.554688 14.59375 C 2.554688 14.71875 2.660156 14.824219 2.785156 14.824219 L 5.945312 14.824219 C 5.828125 15.316406 5.808594 15.832031 5.882812 16.335938 L 2.785156 16.335938 C 2.660156 16.335938 2.554688 16.441406 2.554688 16.566406 C 2.554688 16.695312 2.660156 16.796875 2.785156 16.796875 L 5.980469 16.796875 C 6.082031 17.183594 6.242188 17.558594 6.460938 17.910156 C 6.546875 18.050781 6.644531 18.183594 6.746094 18.3125 L 2.785156 18.3125 C 2.660156 18.3125 2.554688 18.414062 2.554688 18.542969 C 2.554688 18.667969 2.660156 18.773438 2.785156 18.773438 L 7.1875 18.773438 C 7.957031 19.46875 8.933594 19.839844 9.929688 19.839844 C 10.429688 19.839844 10.933594 19.738281 11.417969 19.550781 L 13.570312 22.988281 L 13.570312 23.964844 Z M 0.945312 23.964844 " fill-opacity="1" fill-rule="nonzero"/></g><path fill="#5271ff" d="M 8.328125 6.496094 L 12.695312 6.496094 C 12.824219 6.496094 12.925781 6.390625 12.925781 6.265625 C 12.925781 6.136719 12.824219 6.035156 12.695312 6.035156 L 8.328125 6.035156 C 8.199219 6.035156 8.097656 6.136719 8.097656 6.265625 C 8.097656 6.390625 8.199219 6.496094 8.328125 6.496094 Z M 8.328125 6.496094 " fill-opacity="1" fill-rule="nonzero"/><path fill="#5271ff" d="M 2.785156 8.894531 L 12.003906 8.894531 C 12.132812 8.894531 12.234375 8.792969 12.234375 8.664062 C 12.234375 8.539062 12.132812 8.433594 12.003906 8.433594 L 2.785156 8.433594 C 2.660156 8.433594 2.554688 8.539062 2.554688 8.664062 C 2.554688 8.792969 2.660156 8.894531 2.785156 8.894531 Z M 2.785156 8.894531 " fill-opacity="1" fill-rule="nonzero"/><path fill="#5271ff" d="M 2.785156 10.871094 L 12.003906 10.871094 C 12.132812 10.871094 12.234375 10.769531 12.234375 10.640625 C 12.234375 10.511719 12.132812 10.410156 12.003906 10.410156 L 2.785156 10.410156 C 2.660156 10.410156 2.554688 10.511719 2.554688 10.640625 C 2.554688 10.769531 2.660156 10.871094 2.785156 10.871094 Z M 2.785156 10.871094 " fill-opacity="1" fill-rule="nonzero"/><path fill="#5271ff" d="M 23.132812 15.175781 L 17.476562 15.175781 C 16.75 15.175781 16.160156 15.765625 16.160156 16.492188 L 16.160156 27.546875 C 16.160156 28.273438 16.75 28.863281 17.476562 28.863281 L 23.132812 28.863281 C 23.855469 28.863281 24.445312 28.273438 24.445312 27.546875 L 24.445312 16.492188 C 24.445312 15.765625 23.855469 15.175781 23.132812 15.175781 Z M 23.984375 27.546875 C 23.984375 28.019531 23.601562 28.402344 23.132812 28.402344 L 17.476562 28.402344 C 17.003906 28.402344 16.621094 28.019531 16.621094 27.546875 L 16.621094 16.492188 C 16.621094 16.019531 17.003906 15.636719 17.476562 15.636719 L 23.132812 15.636719 C 23.601562 15.636719 23.984375 16.019531 23.984375 16.492188 Z M 23.984375 27.546875 " fill-opacity="1" fill-rule="nonzero"/><path fill="#5271ff" d="M 23.066406 16.597656 L 17.542969 16.597656 C 17.414062 16.597656 17.3125 16.703125 17.3125 16.828125 L 17.3125 18.535156 C 17.3125 18.664062 17.414062 18.765625 17.542969 18.765625 L 23.066406 18.765625 C 23.191406 18.765625 23.296875 18.664062 23.296875 18.535156 L 23.296875 16.828125 C 23.296875 16.703125 23.191406 16.597656 23.066406 16.597656 Z M 22.835938 18.304688 L 17.773438 18.304688 L 17.773438 17.058594 L 22.835938 17.058594 Z M 22.835938 18.304688 " fill-opacity="1" fill-rule="nonzero"/><path fill="#5271ff" d="M 20.300781 19.710938 C 19.835938 19.710938 19.457031 20.089844 19.457031 20.554688 C 19.457031 21.019531 19.835938 21.394531 20.300781 21.394531 C 20.769531 21.394531 21.148438 21.019531 21.148438 20.554688 C 21.148438 20.089844 20.769531 19.710938 20.300781 19.710938 Z M 20.300781 20.933594 C 20.089844 20.933594 19.917969 20.761719 19.917969 20.554688 C 19.917969 20.339844 20.089844 20.171875 20.300781 20.171875 C 20.515625 20.171875 20.6875 20.34375 20.6875 20.554688 C 20.6875 20.765625 20.515625 20.933594 20.300781 20.933594 Z M 20.300781 20.933594 " fill-opacity="1" fill-rule="nonzero"/><path fill="#5271ff" d="M 20.300781 21.835938 C 19.835938 21.835938 19.457031 22.214844 19.457031 22.679688 C 19.457031 23.144531 19.835938 23.523438 20.300781 23.523438 C 20.769531 23.523438 21.148438 23.144531 21.148438 22.679688 C 21.148438 22.214844 20.769531 21.835938 20.300781 21.835938 Z M 20.300781 23.0625 C 20.089844 23.0625 19.917969 22.890625 19.917969 22.679688 C 19.917969 22.46875 20.089844 22.296875 20.300781 22.296875 C 20.515625 22.296875 20.6875 22.46875 20.6875 22.679688 C 20.6875 22.890625 20.515625 23.0625 20.300781 23.0625 Z M 20.300781 23.0625 " fill-opacity="1" fill-rule="nonzero"/><path fill="#5271ff" d="M 20.300781 23.964844 C 19.835938 23.964844 19.457031 24.34375 19.457031 24.808594 C 19.457031 25.273438 19.835938 25.652344 20.300781 25.652344 C 20.769531 25.652344 21.148438 25.273438 21.148438 24.808594 C 21.148438 24.34375 20.769531 23.964844 20.300781 23.964844 Z M 20.300781 25.191406 C 20.089844 25.191406 19.917969 25.019531 19.917969 24.808594 C 19.917969 24.597656 20.089844 24.425781 20.300781 24.425781 C 20.515625 24.425781 20.6875 24.597656 20.6875 24.808594 C 20.6875 25.019531 20.515625 25.191406 20.300781 25.191406 Z M 20.300781 25.191406 " fill-opacity="1" fill-rule="nonzero"/><path fill="#5271ff" d="M 20.300781 26.09375 C 19.835938 26.09375 19.457031 26.46875 19.457031 26.933594 C 19.457031 27.402344 19.835938 27.777344 20.300781 27.777344 C 20.769531 27.777344 21.148438 27.402344 21.148438 26.933594 C 21.148438 26.46875 20.769531 26.09375 20.300781 26.09375 Z M 20.300781 27.316406 C 20.089844 27.316406 19.917969 27.144531 19.917969 26.933594 C 19.917969 26.726562 20.089844 26.554688 20.300781 26.554688 C 20.515625 26.554688 20.6875 26.726562 20.6875 26.933594 C 20.6875 27.144531 20.515625 27.316406 20.300781 27.316406 Z M 20.300781 27.316406 " fill-opacity="1" fill-rule="nonzero"/><path fill="#5271ff" d="M 18.15625 19.710938 C 17.6875 19.710938 17.3125 20.089844 17.3125 20.554688 C 17.3125 21.019531 17.6875 21.394531 18.15625 21.394531 C 18.621094 21.394531 18.996094 21.019531 18.996094 20.554688 C 18.996094 20.089844 18.621094 19.710938 18.15625 19.710938 Z M 18.15625 20.933594 C 17.941406 20.933594 17.773438 20.761719 17.773438 20.554688 C 17.773438 20.339844 17.945312 20.171875 18.15625 20.171875 C 18.363281 20.171875 18.535156 20.34375 18.535156 20.554688 C 18.535156 20.765625 18.363281 20.933594 18.15625 20.933594 Z M 18.15625 20.933594 " fill-opacity="1" fill-rule="nonzero"/><path fill="#5271ff" d="M 18.15625 21.835938 C 17.6875 21.835938 17.3125 22.214844 17.3125 22.679688 C 17.3125 23.144531 17.6875 23.523438 18.15625 23.523438 C 18.621094 23.523438 18.996094 23.144531 18.996094 22.679688 C 18.996094 22.214844 18.621094 21.835938 18.15625 21.835938 Z M 18.15625 23.0625 C 17.941406 23.0625 17.773438 22.890625 17.773438 22.679688 C 17.773438 22.46875 17.945312 22.296875 18.15625 22.296875 C 18.363281 22.296875 18.535156 22.46875 18.535156 22.679688 C 18.535156 22.890625 18.363281 23.0625 18.15625 23.0625 Z M 18.15625 23.0625 " fill-opacity="1" fill-rule="nonzero"/><path fill="#5271ff" d="M 18.15625 23.964844 C 17.6875 23.964844 17.3125 24.34375 17.3125 24.808594 C 17.3125 25.273438 17.6875 25.652344 18.15625 25.652344 C 18.621094 25.652344 18.996094 25.273438 18.996094 24.808594 C 18.996094 24.34375 18.621094 23.964844 18.15625 23.964844 Z M 18.15625 25.191406 C 17.941406 25.191406 17.773438 25.019531 17.773438 24.808594 C 17.773438 24.597656 17.945312 24.425781 18.15625 24.425781 C 18.363281 24.425781 18.535156 24.597656 18.535156 24.808594 C 18.535156 25.019531 18.363281 25.191406 18.15625 25.191406 Z M 18.15625 25.191406 " fill-opacity="1" fill-rule="nonzero"/><path fill="#5271ff" d="M 18.15625 26.09375 C 17.6875 26.09375 17.3125 26.46875 17.3125 26.933594 C 17.3125 27.402344 17.6875 27.777344 18.15625 27.777344 C 18.621094 27.777344 18.996094 27.402344 18.996094 26.933594 C 18.996094 26.46875 18.621094 26.09375 18.15625 26.09375 Z M 18.15625 27.316406 C 17.941406 27.316406 17.773438 27.144531 17.773438 26.933594 C 17.773438 26.726562 17.945312 26.554688 18.15625 26.554688 C 18.363281 26.554688 18.535156 26.726562 18.535156 26.933594 C 18.535156 27.144531 18.363281 27.316406 18.15625 27.316406 Z M 18.15625 27.316406 " fill-opacity="1" fill-rule="nonzero"/><path fill="#5271ff" d="M 22.453125 19.710938 C 21.988281 19.710938 21.609375 20.089844 21.609375 20.554688 C 21.609375 21.019531 21.988281 21.394531 22.453125 21.394531 C 22.917969 21.394531 23.296875 21.019531 23.296875 20.554688 C 23.296875 20.089844 22.917969 19.710938 22.453125 19.710938 Z M 22.453125 20.933594 C 22.242188 20.933594 22.070312 20.761719 22.070312 20.554688 C 22.070312 20.339844 22.242188 20.171875 22.453125 20.171875 C 22.664062 20.171875 22.835938 20.34375 22.835938 20.554688 C 22.835938 20.765625 22.664062 20.933594 22.453125 20.933594 Z M 22.453125 20.933594 " fill-opacity="1" fill-rule="nonzero"/><path fill="#5271ff" d="M 22.453125 21.835938 C 21.988281 21.835938 21.609375 22.214844 21.609375 22.679688 C 21.609375 23.144531 21.988281 23.523438 22.453125 23.523438 C 22.917969 23.523438 23.296875 23.144531 23.296875 22.679688 C 23.296875 22.214844 22.917969 21.835938 22.453125 21.835938 Z M 22.453125 23.0625 C 22.242188 23.0625 22.070312 22.890625 22.070312 22.679688 C 22.070312 22.46875 22.242188 22.296875 22.453125 22.296875 C 22.664062 22.296875 22.835938 22.46875 22.835938 22.679688 C 22.835938 22.890625 22.664062 23.0625 22.453125 23.0625 Z M 22.453125 23.0625 " fill-opacity="1" fill-rule="nonzero"/><path fill="#5271ff" d="M 22.453125 23.964844 C 21.988281 23.964844 21.609375 24.34375 21.609375 24.808594 C 21.609375 25.273438 21.988281 25.652344 22.453125 25.652344 C 22.917969 25.652344 23.296875 25.273438 23.296875 24.808594 C 23.296875 24.34375 22.917969 23.964844 22.453125 23.964844 Z M 22.453125 25.191406 C 22.242188 25.191406 22.070312 25.019531 22.070312 24.808594 C 22.070312 24.597656 22.242188 24.425781 22.453125 24.425781 C 22.664062 24.425781 22.835938 24.597656 22.835938 24.808594 C 22.835938 25.019531 22.664062 25.191406 22.453125 25.191406 Z M 22.453125 25.191406 " fill-opacity="1" fill-rule="nonzero"/><path fill="#5271ff" d="M 22.453125 26.09375 C 21.988281 26.09375 21.609375 26.46875 21.609375 26.933594 C 21.609375 27.402344 21.988281 27.777344 22.453125 27.777344 C 22.917969 27.777344 23.296875 27.402344 23.296875 26.933594 C 23.296875 26.46875 22.917969 26.09375 22.453125 26.09375 Z M 22.453125 27.316406 C 22.242188 27.316406 22.070312 27.144531 22.070312 26.933594 C 22.070312 26.726562 22.242188 26.554688 22.453125 26.554688 C 22.664062 26.554688 22.835938 26.726562 22.835938 26.933594 C 22.835938 27.144531 22.664062 27.316406 22.453125 27.316406 Z M 22.453125 27.316406 " fill-opacity="1" fill-rule="nonzero"/><g clip-path="url(#8da7528cf2)"><path fill="#5271ff" d="M 28.359375 23.367188 C 28.230469 23.367188 28.128906 23.472656 28.128906 23.597656 L 28.128906 26.800781 C 28.128906 27.015625 27.972656 27.191406 27.769531 27.226562 L 27.769531 16.574219 C 27.769531 16.558594 27.765625 16.546875 27.761719 16.535156 C 27.757812 16.519531 27.761719 16.507812 27.753906 16.492188 L 27.339844 15.386719 C 27.265625 15.1875 27.109375 15.039062 26.917969 14.972656 L 26.917969 14.214844 C 26.917969 14.089844 26.8125 13.984375 26.6875 13.984375 C 26.558594 13.984375 26.457031 14.089844 26.457031 14.214844 L 26.457031 14.972656 C 26.265625 15.039062 26.109375 15.1875 26.035156 15.386719 L 25.617188 16.492188 C 25.609375 16.503906 25.613281 16.519531 25.609375 16.53125 C 25.605469 16.546875 25.601562 16.558594 25.601562 16.574219 L 25.601562 27.464844 C 25.601562 27.589844 25.703125 27.695312 25.832031 27.695312 L 25.96875 27.695312 L 25.96875 28.304688 C 25.96875 28.5 26.046875 28.679688 26.179688 28.808594 C 26.3125 28.945312 26.492188 29.019531 26.6875 29.019531 C 27.082031 29.019531 27.402344 28.699219 27.402344 28.304688 L 27.402344 27.695312 L 27.695312 27.695312 C 28.1875 27.695312 28.589844 27.292969 28.589844 26.800781 L 28.589844 23.597656 C 28.589844 23.472656 28.488281 23.367188 28.359375 23.367188 Z M 27.308594 17.722656 L 27.308594 21.410156 L 26.0625 21.410156 L 26.0625 17.722656 Z M 27.308594 21.871094 L 27.308594 26.371094 L 26.0625 26.371094 L 26.0625 21.871094 Z M 26.464844 15.546875 C 26.519531 15.40625 26.648438 15.394531 26.6875 15.394531 C 26.726562 15.394531 26.855469 15.40625 26.910156 15.546875 L 27.207031 16.34375 L 26.164062 16.34375 Z M 26.941406 28.304688 C 26.941406 28.445312 26.828125 28.558594 26.6875 28.558594 C 26.617188 28.558594 26.554688 28.535156 26.503906 28.480469 C 26.457031 28.4375 26.429688 28.371094 26.429688 28.304688 L 26.429688 27.691406 L 26.941406 27.691406 Z M 26.941406 28.304688 " fill-opacity="1" fill-rule="nonzero"/></g><path fill="#5271ff" d="M 16.851562 7.390625 C 16.722656 7.390625 16.621094 7.492188 16.621094 7.621094 L 16.621094 13.5 C 16.621094 13.628906 16.722656 13.730469 16.851562 13.730469 L 18.417969 13.730469 C 18.542969 13.730469 18.648438 13.628906 18.648438 13.5 L 18.648438 7.621094 C 18.648438 7.492188 18.542969 7.390625 18.417969 7.390625 Z M 18.1875 13.269531 L 17.082031 13.269531 L 17.082031 7.851562 L 18.1875 7.851562 Z M 18.1875 13.269531 " fill-opacity="1" fill-rule="nonzero"/><path fill="#5271ff" d="M 19.566406 5.15625 C 19.441406 5.15625 19.335938 5.257812 19.335938 5.386719 L 19.335938 13.5 C 19.335938 13.628906 19.441406 13.730469 19.566406 13.730469 L 21.132812 13.730469 C 21.261719 13.730469 21.363281 13.628906 21.363281 13.5 L 21.363281 5.386719 C 21.363281 5.257812 21.261719 5.15625 21.132812 5.15625 Z M 20.902344 13.269531 L 19.796875 13.269531 L 19.796875 5.613281 L 20.902344 5.613281 Z M 20.902344 13.269531 " fill-opacity="1" fill-rule="nonzero"/><path fill="#5271ff" d="M 22.285156 8.808594 C 22.160156 8.808594 22.054688 8.910156 22.054688 9.039062 L 22.054688 13.5 C 22.054688 13.628906 22.160156 13.730469 22.285156 13.730469 L 23.851562 13.730469 C 23.976562 13.730469 24.082031 13.628906 24.082031 13.5 L 24.082031 9.039062 C 24.082031 8.910156 23.976562 8.808594 23.851562 8.808594 Z M 23.621094 13.269531 L 22.515625 13.269531 L 22.515625 9.269531 L 23.621094 9.269531 Z M 23.621094 13.269531 " fill-opacity="1" fill-rule="nonzero"/><path fill="#5271ff" d="M 26.800781 13.5 L 26.800781 3.671875 C 26.800781 3.542969 26.695312 3.441406 26.570312 3.441406 L 25.003906 3.441406 C 24.875 3.441406 24.773438 3.542969 24.773438 3.671875 L 24.773438 13.5 C 24.773438 13.628906 24.875 13.730469 25.003906 13.730469 L 26.570312 13.730469 C 26.695312 13.730469 26.800781 13.628906 26.800781 13.5 Z M 26.339844 13.269531 L 25.234375 13.269531 L 25.234375 3.902344 L 26.339844 3.902344 Z M 26.339844 13.269531 " fill-opacity="1" fill-rule="nonzero"/><g clip-path="url(#3401abde62)"><path fill="#5271ff" d="M 29.285156 2.023438 L 27.71875 2.023438 C 27.589844 2.023438 27.488281 2.125 27.488281 2.253906 L 27.488281 13.5 C 27.488281 13.628906 27.589844 13.730469 27.71875 13.730469 L 29.285156 13.730469 C 29.414062 13.730469 29.515625 13.628906 29.515625 13.5 L 29.515625 2.253906 C 29.515625 2.125 29.414062 2.023438 29.285156 2.023438 Z M 29.054688 13.269531 L 27.949219 13.269531 L 27.949219 2.484375 L 29.054688 2.484375 Z M 29.054688 13.269531 " fill-opacity="1" fill-rule="nonzero"/></g><path fill="#5271ff" d="M 21.507812 2.621094 C 21.628906 2.65625 21.726562 2.738281 21.78125 2.847656 C 21.9375 3.160156 22.25 3.351562 22.597656 3.351562 C 22.75 3.351562 22.890625 3.316406 23.019531 3.25 L 26.546875 1.417969 L 26.882812 2.023438 C 26.921875 2.09375 26.992188 2.136719 27.074219 2.140625 C 27.078125 2.140625 27.078125 2.140625 27.082031 2.140625 C 27.160156 2.140625 27.230469 2.101562 27.273438 2.039062 L 28.40625 0.359375 C 28.453125 0.289062 28.457031 0.195312 28.414062 0.117188 C 28.375 0.0429688 28.292969 0 28.207031 0 L 26.183594 0.078125 C 26.101562 0.0820312 26.03125 0.125 25.992188 0.195312 C 25.953125 0.265625 25.953125 0.351562 25.992188 0.421875 L 26.320312 1.015625 L 22.808594 2.84375 C 22.746094 2.875 22.675781 2.890625 22.597656 2.890625 C 22.425781 2.890625 22.273438 2.796875 22.195312 2.640625 C 22.078125 2.417969 21.882812 2.253906 21.640625 2.179688 C 21.398438 2.105469 21.148438 2.136719 20.929688 2.257812 L 15.34375 5.394531 C 15.234375 5.457031 15.195312 5.597656 15.257812 5.707031 C 15.296875 5.78125 15.375 5.824219 15.457031 5.824219 C 15.496094 5.824219 15.535156 5.816406 15.570312 5.796875 L 21.15625 2.660156 C 21.261719 2.597656 21.386719 2.585938 21.507812 2.621094 Z M 21.507812 2.621094 " fill-opacity="1" fill-rule="nonzero"/></svg>