<svg xmlns="http://www.w3.org/2000/svg" xmlns:xlink="http://www.w3.org/1999/xlink" width="40" zoomAndPan="magnify" viewBox="0 0 30 30.000001" height="40" preserveAspectRatio="xMidYMid meet" version="1.0"><defs><clipPath id="707001f031"><path d="M 0.484375 0 L 29.515625 0 L 29.515625 29 L 0.484375 29 Z M 0.484375 0 " clip-rule="nonzero"/></clipPath></defs><g clip-path="url(#707001f031)"><path fill="#5271ff" d="M 29.28125 0.09375 L 0.71875 0.09375 C 0.441406 0.09375 0.257812 0.28125 0.257812 0.554688 L 0.257812 21.933594 C 0.257812 22.210938 0.441406 22.394531 0.71875 22.394531 L 12.558594 22.394531 L 12.558594 25.621094 L 7.304688 25.621094 C 7.027344 25.621094 6.84375 25.804688 6.84375 26.082031 L 6.84375 28.476562 C 6.84375 28.753906 7.027344 28.9375 7.304688 28.9375 L 22.695312 28.9375 C 22.96875 28.9375 23.152344 28.753906 23.152344 28.476562 L 23.152344 26.082031 C 23.152344 25.804688 22.96875 25.621094 22.695312 25.621094 L 17.441406 25.621094 L 17.441406 22.394531 L 29.28125 22.394531 C 29.558594 22.394531 29.742188 22.210938 29.742188 21.933594 L 29.742188 0.554688 C 29.742188 0.324219 29.558594 0.09375 29.28125 0.09375 Z M 22.234375 28.015625 L 7.765625 28.015625 L 7.765625 26.539062 C 15.277344 26.539062 14.722656 26.539062 22.234375 26.539062 Z M 16.519531 25.621094 L 13.480469 25.621094 L 13.480469 22.394531 L 16.519531 22.394531 Z M 28.820312 21.472656 C 25.597656 21.472656 4.402344 21.472656 1.179688 21.472656 L 1.179688 1.015625 L 28.820312 1.015625 Z M 28.820312 21.472656 " fill-opacity="1" fill-rule="nonzero"/></g><path fill="#5271ff" d="M 3.207031 18.433594 L 26.746094 18.433594 C 27.023438 18.433594 27.207031 18.246094 27.207031 17.972656 L 27.207031 3.089844 C 27.207031 2.8125 27.023438 2.628906 26.746094 2.628906 L 3.207031 2.628906 C 2.929688 2.628906 2.746094 2.8125 2.746094 3.089844 L 2.746094 17.972656 C 2.746094 18.203125 2.976562 18.433594 3.207031 18.433594 Z M 3.664062 3.550781 L 26.285156 3.550781 L 26.285156 17.511719 L 3.664062 17.511719 Z M 3.664062 3.550781 " fill-opacity="1" fill-rule="nonzero"/><path fill="#5271ff" d="M 12.558594 8.480469 C 12.742188 8.617188 13.066406 8.574219 13.203125 8.386719 L 14.214844 7.050781 C 14.355469 6.867188 14.355469 6.683594 14.214844 6.5 L 13.203125 5.164062 C 13.066406 4.980469 12.742188 4.933594 12.558594 5.070312 C 12.375 5.210938 12.328125 5.53125 12.464844 5.714844 L 13.25 6.777344 L 12.464844 7.835938 C 12.328125 8.066406 12.375 8.34375 12.558594 8.480469 Z M 12.558594 8.480469 " fill-opacity="1" fill-rule="nonzero"/><path fill="#5271ff" d="M 7.488281 8.386719 C 7.628906 8.574219 7.949219 8.617188 8.136719 8.480469 C 8.320312 8.34375 8.363281 8.019531 8.226562 7.835938 L 7.445312 6.777344 L 8.226562 5.714844 C 8.363281 5.53125 8.320312 5.210938 8.136719 5.070312 C 7.949219 4.933594 7.628906 4.980469 7.488281 5.164062 L 6.476562 6.546875 C 6.339844 6.730469 6.339844 6.914062 6.476562 7.097656 Z M 7.488281 8.386719 " fill-opacity="1" fill-rule="nonzero"/><path fill="#5271ff" d="M 9.609375 8.433594 L 11.773438 5.808594 C 11.957031 5.625 11.914062 5.300781 11.726562 5.164062 C 11.542969 4.980469 11.222656 5.023438 11.082031 5.210938 L 8.917969 7.835938 C 8.734375 8.019531 8.78125 8.34375 8.964844 8.480469 C 9.148438 8.617188 9.472656 8.617188 9.609375 8.433594 Z M 9.609375 8.433594 " fill-opacity="1" fill-rule="nonzero"/><path fill="#5271ff" d="M 14.585938 15.070312 L 6.429688 15.070312 C 6.152344 15.070312 5.96875 15.253906 5.96875 15.53125 C 5.96875 15.804688 6.152344 15.992188 6.429688 15.992188 L 14.585938 15.992188 C 14.859375 15.992188 15.046875 15.804688 15.046875 15.53125 C 15.046875 15.253906 14.859375 15.070312 14.585938 15.070312 Z M 14.585938 15.070312 " fill-opacity="1" fill-rule="nonzero"/><path fill="#5271ff" d="M 6.429688 10.832031 L 15.691406 10.832031 C 15.96875 10.832031 16.152344 10.644531 16.152344 10.371094 C 16.152344 10.09375 15.96875 9.910156 15.691406 9.910156 L 6.429688 9.910156 C 6.152344 9.910156 5.96875 10.09375 5.96875 10.371094 C 5.96875 10.644531 6.152344 10.832031 6.429688 10.832031 Z M 6.429688 10.832031 " fill-opacity="1" fill-rule="nonzero"/><path fill="#5271ff" d="M 23.570312 9.910156 L 17.855469 9.910156 C 17.578125 9.910156 17.394531 10.09375 17.394531 10.371094 C 17.394531 10.644531 17.578125 10.832031 17.855469 10.832031 L 23.570312 10.832031 C 23.84375 10.832031 24.03125 10.644531 24.03125 10.371094 C 24.03125 10.09375 23.84375 9.910156 23.570312 9.910156 Z M 23.570312 9.910156 " fill-opacity="1" fill-rule="nonzero"/><path fill="#5271ff" d="M 22.601562 15.070312 L 16.75 15.070312 C 16.472656 15.070312 16.289062 15.253906 16.289062 15.53125 C 16.289062 15.804688 16.472656 15.992188 16.75 15.992188 L 22.601562 15.992188 C 22.878906 15.992188 23.0625 15.804688 23.0625 15.53125 C 23.0625 15.253906 22.832031 15.070312 22.601562 15.070312 Z M 22.601562 15.070312 " fill-opacity="1" fill-rule="nonzero"/><path fill="#5271ff" d="M 6.429688 13.410156 L 12.695312 13.410156 C 12.972656 13.410156 13.15625 13.226562 13.15625 12.949219 C 13.15625 12.671875 12.972656 12.488281 12.695312 12.488281 L 6.429688 12.488281 C 6.152344 12.488281 5.96875 12.671875 5.96875 12.949219 C 5.96875 13.226562 6.152344 13.410156 6.429688 13.410156 Z M 6.429688 13.410156 " fill-opacity="1" fill-rule="nonzero"/><path fill="#5271ff" d="M 14.402344 12.949219 C 14.402344 13.226562 14.585938 13.410156 14.859375 13.410156 L 21.21875 13.410156 C 21.496094 13.410156 21.679688 13.226562 21.679688 12.949219 C 21.679688 12.671875 21.496094 12.488281 21.21875 12.488281 L 14.859375 12.488281 C 14.585938 12.488281 14.402344 12.71875 14.402344 12.949219 Z M 14.402344 12.949219 " fill-opacity="1" fill-rule="nonzero"/></svg>