<svg xmlns="http://www.w3.org/2000/svg" xmlns:xlink="http://www.w3.org/1999/xlink" width="40" zoomAndPan="magnify" viewBox="0 0 30 30.000001" height="40" preserveAspectRatio="xMidYMid meet" version="1.0"><defs><clipPath id="cd6ec51440"><path d="M 0.484375 0.507812 L 29 0.507812 L 29 28.816406 L 0.484375 28.816406 Z M 0.484375 0.507812 " clip-rule="nonzero"/></clipPath></defs><g clip-path="url(#cd6ec51440)"><path fill="#5271ff" d="M 26.523438 2.019531 C 26.210938 1.546875 25.800781 1.175781 25.304688 0.910156 C 24.804688 0.640625 24.269531 0.507812 23.703125 0.507812 L 5.894531 0.507812 C 5.328125 0.507812 4.796875 0.644531 4.296875 0.910156 C 3.796875 1.179688 3.390625 1.546875 3.074219 2.019531 C 2.613281 2.707031 1.996094 3.644531 1.363281 4.585938 C 1.238281 4.777344 1.128906 4.980469 1.042969 5.195312 C 0.957031 5.40625 0.894531 5.625 0.851562 5.851562 C 0.808594 6.078125 0.789062 6.304688 0.796875 6.535156 C 0.800781 6.761719 0.828125 6.992188 0.878906 7.214844 C 0.925781 7.4375 1 7.65625 1.09375 7.863281 C 1.1875 8.074219 1.304688 8.269531 1.4375 8.457031 C 1.570312 8.644531 1.722656 8.8125 1.894531 8.96875 C 2.0625 9.125 2.246094 9.261719 2.441406 9.378906 L 2.441406 11.78125 C 2.457031 12.347656 2.609375 12.875 2.90625 13.363281 C 3.199219 13.851562 3.59375 14.230469 4.089844 14.511719 L 4.089844 24.40625 C 4.089844 24.675781 4.117188 24.941406 4.167969 25.207031 C 4.222656 25.472656 4.300781 25.730469 4.402344 25.980469 C 4.507812 26.230469 4.636719 26.46875 4.785156 26.691406 C 4.933594 26.917969 5.105469 27.125 5.296875 27.316406 C 5.488281 27.507812 5.695312 27.675781 5.921875 27.828125 C 6.148438 27.976562 6.382812 28.101562 6.632812 28.207031 C 6.882812 28.308594 7.140625 28.386719 7.40625 28.441406 C 7.671875 28.492188 7.9375 28.519531 8.210938 28.519531 L 21.390625 28.519531 C 21.660156 28.519531 21.929688 28.492188 22.195312 28.441406 C 22.460938 28.386719 22.71875 28.308594 22.96875 28.207031 C 23.21875 28.101562 23.453125 27.976562 23.679688 27.824219 C 23.90625 27.675781 24.113281 27.503906 24.304688 27.3125 C 24.496094 27.121094 24.667969 26.914062 24.816406 26.6875 C 24.964844 26.464844 25.09375 26.226562 25.195312 25.976562 C 25.300781 25.726562 25.378906 25.46875 25.429688 25.203125 C 25.484375 24.9375 25.511719 24.671875 25.511719 24.398438 L 25.511719 14.640625 C 26.070312 14.382812 26.523438 13.996094 26.863281 13.476562 C 27.207031 12.960938 27.386719 12.394531 27.40625 11.777344 L 27.40625 9.304688 C 27.40625 9.277344 27.398438 9.253906 27.390625 9.230469 C 27.746094 8.972656 28.042969 8.660156 28.277344 8.285156 C 28.515625 7.914062 28.671875 7.511719 28.75 7.078125 C 28.828125 6.648438 28.824219 6.214844 28.734375 5.785156 C 28.648438 5.351562 28.480469 4.953125 28.238281 4.589844 C 27.605469 3.644531 26.988281 2.707031 26.523438 2.019531 Z M 4.089844 11.777344 L 4.089844 9.859375 C 4.121094 9.859375 8.269531 9.859375 8.269531 9.859375 L 8.269531 11.777344 C 8.238281 12.023438 8.160156 12.253906 8.039062 12.46875 C 7.917969 12.6875 7.757812 12.871094 7.5625 13.027344 C 7.367188 13.179688 7.148438 13.292969 6.910156 13.359375 C 6.671875 13.429688 6.429688 13.449219 6.179688 13.421875 C 5.933594 13.449219 5.691406 13.429688 5.453125 13.359375 C 5.210938 13.292969 4.996094 13.179688 4.800781 13.027344 C 4.601562 12.875 4.445312 12.6875 4.320312 12.472656 C 4.199219 12.253906 4.121094 12.023438 4.089844 11.777344 Z M 17.273438 26.871094 L 12.328125 26.871094 L 12.328125 19.457031 C 12.328125 19.230469 12.40625 19.035156 12.570312 18.875 C 12.730469 18.710938 12.925781 18.632812 13.152344 18.632812 L 16.449219 18.632812 C 16.675781 18.632812 16.871094 18.710938 17.03125 18.875 C 17.191406 19.035156 17.273438 19.230469 17.273438 19.457031 Z M 23.863281 24.398438 C 23.863281 24.726562 23.800781 25.042969 23.675781 25.347656 C 23.550781 25.648438 23.371094 25.917969 23.136719 26.148438 C 22.90625 26.378906 22.640625 26.558594 22.335938 26.683594 C 22.035156 26.808594 21.71875 26.871094 21.390625 26.871094 L 18.917969 26.871094 L 18.917969 19.457031 C 18.921875 19.128906 18.859375 18.8125 18.730469 18.511719 C 18.605469 18.207031 18.429688 17.941406 18.195312 17.707031 C 17.964844 17.476562 17.695312 17.296875 17.394531 17.171875 C 17.089844 17.046875 16.777344 16.984375 16.449219 16.984375 L 13.152344 16.984375 C 12.824219 16.984375 12.507812 17.046875 12.207031 17.171875 C 11.902344 17.296875 11.636719 17.476562 11.402344 17.707031 C 11.171875 17.941406 10.992188 18.207031 10.867188 18.511719 C 10.742188 18.8125 10.679688 19.128906 10.679688 19.457031 L 10.679688 26.871094 L 8.210938 26.871094 C 7.882812 26.871094 7.566406 26.808594 7.261719 26.683594 C 6.960938 26.558594 6.691406 26.378906 6.460938 26.148438 C 6.230469 25.917969 6.050781 25.648438 5.925781 25.347656 C 5.800781 25.042969 5.738281 24.726562 5.738281 24.398438 L 5.738281 15.050781 C 5.882812 15.0625 6.03125 15.070312 6.179688 15.070312 C 6.730469 15.082031 7.261719 14.976562 7.769531 14.761719 C 8.277344 14.546875 8.71875 14.238281 9.097656 13.835938 C 9.285156 14.03125 9.492188 14.207031 9.71875 14.359375 C 9.941406 14.511719 10.179688 14.644531 10.429688 14.75 C 10.679688 14.855469 10.9375 14.9375 11.203125 14.992188 C 11.472656 15.042969 11.742188 15.070312 12.011719 15.070312 C 12.285156 15.070312 12.554688 15.042969 12.820312 14.992188 C 13.085938 14.9375 13.34375 14.855469 13.59375 14.75 C 13.847656 14.644531 14.082031 14.511719 14.308594 14.359375 C 14.53125 14.207031 14.738281 14.03125 14.925781 13.835938 C 15.117188 14.03125 15.324219 14.207031 15.546875 14.359375 C 15.769531 14.511719 16.007812 14.644531 16.257812 14.75 C 16.507812 14.855469 16.765625 14.9375 17.035156 14.992188 C 17.300781 15.046875 17.570312 15.074219 17.839844 15.074219 C 18.113281 15.074219 18.382812 15.046875 18.648438 14.992188 C 18.914062 14.9375 19.175781 14.855469 19.425781 14.75 C 19.675781 14.644531 19.910156 14.511719 20.136719 14.359375 C 20.359375 14.207031 20.566406 14.03125 20.753906 13.835938 C 21.132812 14.238281 21.574219 14.546875 22.082031 14.761719 C 22.589844 14.976562 23.121094 15.078125 23.671875 15.070312 C 23.738281 15.070312 23.800781 15.070312 23.871094 15.070312 Z M 9.917969 11.777344 L 9.917969 9.863281 L 14.101562 9.863281 L 14.101562 11.777344 C 14.066406 12.023438 13.992188 12.253906 13.867188 12.472656 C 13.746094 12.6875 13.585938 12.875 13.390625 13.027344 C 13.195312 13.183594 12.976562 13.292969 12.738281 13.363281 C 12.5 13.429688 12.257812 13.453125 12.007812 13.425781 C 11.761719 13.453125 11.519531 13.429688 11.277344 13.363281 C 11.039062 13.292969 10.820312 13.183594 10.625 13.027344 C 10.429688 12.875 10.273438 12.6875 10.148438 12.472656 C 10.027344 12.253906 9.949219 12.023438 9.917969 11.777344 Z M 15.746094 11.777344 L 15.746094 9.863281 L 19.929688 9.863281 L 19.929688 11.777344 C 19.894531 12.023438 19.820312 12.253906 19.695312 12.472656 C 19.574219 12.6875 19.414062 12.871094 19.21875 13.027344 C 19.023438 13.179688 18.808594 13.292969 18.570312 13.359375 C 18.328125 13.429688 18.085938 13.449219 17.839844 13.425781 C 17.589844 13.453125 17.347656 13.429688 17.109375 13.363281 C 16.871094 13.292969 16.652344 13.183594 16.457031 13.027344 C 16.261719 12.875 16.101562 12.6875 15.980469 12.472656 C 15.855469 12.253906 15.777344 12.023438 15.746094 11.777344 Z M 25.757812 11.777344 C 25.726562 12.023438 25.648438 12.253906 25.527344 12.472656 C 25.402344 12.6875 25.242188 12.875 25.046875 13.027344 C 24.851562 13.183594 24.636719 13.292969 24.398438 13.363281 C 24.15625 13.429688 23.914062 13.453125 23.667969 13.425781 C 23.417969 13.453125 23.175781 13.429688 22.9375 13.363281 C 22.699219 13.292969 22.480469 13.183594 22.285156 13.027344 C 22.089844 12.875 21.929688 12.6875 21.808594 12.472656 C 21.683594 12.253906 21.605469 12.023438 21.574219 11.777344 L 21.574219 9.863281 C 21.574219 9.863281 25.644531 9.855469 25.757812 9.84375 Z M 26.953125 7.292969 C 26.800781 7.578125 26.585938 7.800781 26.308594 7.964844 C 26.035156 8.132812 25.734375 8.214844 25.414062 8.214844 L 4.1875 8.214844 C 3.863281 8.214844 3.566406 8.132812 3.289062 7.96875 C 3.011719 7.800781 2.800781 7.578125 2.648438 7.292969 C 2.496094 7.007812 2.425781 6.707031 2.445312 6.386719 C 2.460938 6.0625 2.554688 5.769531 2.734375 5.503906 L 4.445312 2.933594 C 4.792969 2.414062 5.273438 2.15625 5.894531 2.15625 L 23.703125 2.15625 C 24.324219 2.15625 24.808594 2.414062 25.15625 2.933594 L 26.863281 5.503906 C 27.042969 5.769531 27.140625 6.0625 27.15625 6.386719 C 27.171875 6.707031 27.105469 7.011719 26.953125 7.292969 Z M 26.953125 7.292969 " fill-opacity="1" fill-rule="evenodd"/></g></svg>