<svg xmlns="http://www.w3.org/2000/svg" xmlns:xlink="http://www.w3.org/1999/xlink" width="40" zoomAndPan="magnify" viewBox="0 0 30 30.000001" height="40" preserveAspectRatio="xMidYMid meet" version="1.0"><defs><clipPath id="12982b7b33"><path d="M 0.484375 0 L 29.515625 0 L 29.515625 29 L 0.484375 29 Z M 0.484375 0 " clip-rule="nonzero"/></clipPath></defs><g clip-path="url(#12982b7b33)"><path fill="#5271ff" d="M 13.085938 0.839844 C 6.539062 1.566406 1.203125 6.847656 0.414062 13.386719 C 0.308594 14.210938 0.277344 15.035156 0.320312 15.863281 C 0.359375 16.691406 0.46875 17.511719 0.648438 18.320312 C 0.828125 19.128906 1.074219 19.917969 1.390625 20.683594 C 1.707031 21.453125 2.085938 22.183594 2.527344 22.886719 C 2.96875 23.589844 3.46875 24.25 4.023438 24.863281 C 4.578125 25.480469 5.179688 26.042969 5.832031 26.558594 C 6.484375 27.070312 7.175781 27.523438 7.90625 27.917969 C 8.636719 28.308594 9.394531 28.640625 10.179688 28.902344 C 10.902344 29.019531 11.132812 28.570312 11.132812 28.179688 L 11.132812 25.738281 C 7.132812 26.609375 6.28125 23.804688 6.28125 23.804688 C 5.617188 22.128906 4.679688 21.683594 4.679688 21.683594 C 3.363281 20.789062 4.78125 20.816406 4.78125 20.816406 C 6.222656 20.917969 6.988281 22.304688 6.988281 22.304688 C 8.246094 24.5 10.367188 23.847656 11.191406 23.503906 C 11.320312 22.5625 11.703125 21.929688 12.101562 21.566406 C 8.890625 21.207031 5.53125 19.964844 5.53125 14.464844 C 5.53125 12.859375 6.078125 11.578125 7.015625 10.550781 C 6.875 10.191406 6.367188 8.6875 7.160156 6.738281 C 7.160156 6.738281 8.375 6.347656 11.132812 8.210938 C 13.539062 7.5625 15.945312 7.5625 18.351562 8.210938 C 21.113281 6.347656 22.324219 6.738281 22.324219 6.738281 C 23.117188 8.6875 22.609375 10.191406 22.46875 10.550781 C 23.40625 11.574219 23.953125 12.859375 23.953125 14.464844 C 23.953125 19.980469 20.574219 21.191406 17.355469 21.554688 C 17.875 22 18.351562 22.882812 18.351562 24.222656 L 18.351562 28.179688 C 18.351562 28.570312 18.582031 29.03125 19.320312 28.902344 C 20.160156 28.621094 20.964844 28.265625 21.738281 27.835938 C 22.515625 27.40625 23.242188 26.910156 23.925781 26.347656 C 24.609375 25.785156 25.234375 25.164062 25.804688 24.484375 C 26.371094 23.804688 26.875 23.082031 27.308594 22.308594 C 27.746094 21.539062 28.105469 20.734375 28.394531 19.898438 C 28.683594 19.0625 28.890625 18.203125 29.023438 17.328125 C 29.152344 16.453125 29.203125 15.574219 29.171875 14.6875 C 29.140625 13.804688 29.027344 12.929688 28.835938 12.066406 C 28.644531 11.199219 28.375 10.363281 28.03125 9.546875 C 27.683594 8.730469 27.265625 7.957031 26.777344 7.21875 C 26.289062 6.480469 25.734375 5.792969 25.121094 5.15625 C 24.503906 4.519531 23.835938 3.941406 23.117188 3.429688 C 22.394531 2.914062 21.632812 2.472656 20.832031 2.097656 C 20.027344 1.722656 19.199219 1.425781 18.34375 1.203125 C 17.484375 0.984375 16.613281 0.84375 15.730469 0.78125 C 14.847656 0.71875 13.96875 0.738281 13.085938 0.839844 Z M 13.085938 0.839844 " fill-opacity="1" fill-rule="nonzero"/></g></svg>