<svg xmlns="http://www.w3.org/2000/svg" xmlns:xlink="http://www.w3.org/1999/xlink" width="40" zoomAndPan="magnify" viewBox="0 0 30 30.000001" height="40" preserveAspectRatio="xMidYMid meet" version="1.0"><defs><clipPath id="949d87c1b6"><path d="M 0.484375 3.265625 L 29.515625 3.265625 L 29.515625 8.347656 L 0.484375 8.347656 Z M 0.484375 3.265625 " clip-rule="nonzero"/></clipPath><clipPath id="eea0ce0ef6"><path d="M 3.023438 3.265625 L 26.976562 3.265625 C 28.378906 3.265625 29.515625 4.402344 29.515625 5.804688 C 29.515625 7.210938 28.378906 8.347656 26.976562 8.347656 L 3.023438 8.347656 C 1.621094 8.347656 0.484375 7.210938 0.484375 5.804688 C 0.484375 4.402344 1.621094 3.265625 3.023438 3.265625 Z M 3.023438 3.265625 " clip-rule="nonzero"/></clipPath><clipPath id="a9c39f556c"><path d="M 0.484375 11.976562 L 29.515625 11.976562 L 29.515625 17.054688 L 0.484375 17.054688 Z M 0.484375 11.976562 " clip-rule="nonzero"/></clipPath><clipPath id="cc61e164af"><path d="M 3.023438 11.976562 L 26.976562 11.976562 C 28.378906 11.976562 29.515625 13.113281 29.515625 14.515625 C 29.515625 15.917969 28.378906 17.054688 26.976562 17.054688 L 3.023438 17.054688 C 1.621094 17.054688 0.484375 15.917969 0.484375 14.515625 C 0.484375 13.113281 1.621094 11.976562 3.023438 11.976562 Z M 3.023438 11.976562 " clip-rule="nonzero"/></clipPath><clipPath id="8109e6f012"><path d="M 0.484375 20.683594 L 29.515625 20.683594 L 29.515625 25.765625 L 0.484375 25.765625 Z M 0.484375 20.683594 " clip-rule="nonzero"/></clipPath><clipPath id="677bc84196"><path d="M 3.023438 20.683594 L 26.976562 20.683594 C 28.378906 20.683594 29.515625 21.824219 29.515625 23.226562 C 29.515625 24.628906 28.378906 25.765625 26.976562 25.765625 L 3.023438 25.765625 C 1.621094 25.765625 0.484375 24.628906 0.484375 23.226562 C 0.484375 21.824219 1.621094 20.683594 3.023438 20.683594 Z M 3.023438 20.683594 " clip-rule="nonzero"/></clipPath></defs><g clip-path="url(#949d87c1b6)"><g clip-path="url(#eea0ce0ef6)"><path fill="#5271ff" d="M 0.484375 3.265625 L 29.515625 3.265625 L 29.515625 8.347656 L 0.484375 8.347656 Z M 0.484375 3.265625 " fill-opacity="1" fill-rule="nonzero"/></g></g><g clip-path="url(#a9c39f556c)"><g clip-path="url(#cc61e164af)"><path fill="#5271ff" d="M 0.484375 11.976562 L 29.515625 11.976562 L 29.515625 17.054688 L 0.484375 17.054688 Z M 0.484375 11.976562 " fill-opacity="1" fill-rule="nonzero"/></g></g><g clip-path="url(#8109e6f012)"><g clip-path="url(#677bc84196)"><path fill="#5271ff" d="M 0.484375 20.683594 L 29.515625 20.683594 L 29.515625 25.765625 L 0.484375 25.765625 Z M 0.484375 20.683594 " fill-opacity="1" fill-rule="nonzero"/></g></g></svg>