<svg xmlns="http://www.w3.org/2000/svg" xmlns:xlink="http://www.w3.org/1999/xlink" width="40" zoomAndPan="magnify" viewBox="0 0 30 30.000001" height="40" preserveAspectRatio="xMidYMid meet" version="1.0"><defs><clipPath id="cd4ab7144a"><path d="M 15 0 L 29.515625 0 L 29.515625 15 L 15 15 Z M 15 0 " clip-rule="nonzero"/></clipPath><clipPath id="c3afe9547b"><path d="M 0.484375 1 L 29 1 L 29 29.03125 L 0.484375 29.03125 Z M 0.484375 1 " clip-rule="nonzero"/></clipPath></defs><path fill="#5271ff" d="M 15.453125 4.921875 C 15.453125 4.796875 15.496094 4.691406 15.582031 4.605469 C 15.671875 4.519531 15.773438 4.476562 15.898438 4.476562 C 16.507812 4.476562 17.117188 4.535156 17.714844 4.65625 C 18.316406 4.777344 18.898438 4.953125 19.460938 5.1875 C 20.027344 5.421875 20.5625 5.707031 21.070312 6.046875 C 21.578125 6.386719 22.050781 6.773438 22.484375 7.207031 C 22.914062 7.640625 23.300781 8.109375 23.640625 8.617188 C 23.980469 9.125 24.269531 9.664062 24.503906 10.226562 C 24.738281 10.792969 24.914062 11.375 25.035156 11.976562 C 25.152344 12.574219 25.214844 13.179688 25.214844 13.792969 C 25.214844 13.914062 25.171875 14.019531 25.082031 14.105469 C 24.996094 14.191406 24.890625 14.238281 24.769531 14.238281 C 24.644531 14.238281 24.542969 14.191406 24.453125 14.105469 C 24.367188 14.019531 24.324219 13.914062 24.324219 13.792969 C 24.324219 13.238281 24.269531 12.691406 24.160156 12.148438 C 24.050781 11.605469 23.890625 11.078125 23.679688 10.570312 C 23.46875 10.058594 23.207031 9.574219 22.902344 9.113281 C 22.59375 8.652344 22.246094 8.226562 21.851562 7.835938 C 21.460938 7.445312 21.035156 7.097656 20.578125 6.789062 C 20.117188 6.480469 19.632812 6.222656 19.121094 6.011719 C 18.609375 5.796875 18.082031 5.636719 17.542969 5.53125 C 17 5.421875 16.453125 5.367188 15.898438 5.367188 C 15.773438 5.367188 15.671875 5.324219 15.582031 5.234375 C 15.496094 5.148438 15.453125 5.042969 15.453125 4.921875 Z M 15.453125 4.921875 " fill-opacity="1" fill-rule="nonzero"/><g clip-path="url(#cd4ab7144a)"><path fill="#5271ff" d="M 29.703125 13.792969 C 29.703125 13.914062 29.660156 14.019531 29.574219 14.105469 C 29.488281 14.191406 29.382812 14.238281 29.257812 14.238281 C 29.136719 14.238281 29.03125 14.191406 28.945312 14.105469 C 28.855469 14.019531 28.8125 13.914062 28.8125 13.792969 C 28.8125 12.945312 28.730469 12.105469 28.5625 11.273438 C 28.398438 10.441406 28.152344 9.632812 27.828125 8.851562 C 27.503906 8.066406 27.105469 7.320312 26.632812 6.617188 C 26.164062 5.914062 25.628906 5.261719 25.027344 4.660156 C 24.429688 4.058594 23.777344 3.523438 23.070312 3.054688 C 22.367188 2.582031 21.621094 2.183594 20.839844 1.859375 C 20.054688 1.535156 19.25 1.289062 18.417969 1.121094 C 17.585938 0.957031 16.746094 0.871094 15.898438 0.871094 C 15.773438 0.871094 15.671875 0.828125 15.582031 0.742188 C 15.496094 0.652344 15.453125 0.550781 15.453125 0.425781 C 15.453125 0.304688 15.496094 0.199219 15.582031 0.113281 C 15.671875 0.0234375 15.773438 -0.0195312 15.898438 -0.0195312 C 16.804688 -0.0195312 17.703125 0.0703125 18.589844 0.25 C 19.480469 0.425781 20.34375 0.691406 21.179688 1.039062 C 22.015625 1.386719 22.8125 1.8125 23.566406 2.316406 C 24.320312 2.820312 25.015625 3.390625 25.65625 4.03125 C 26.296875 4.671875 26.871094 5.371094 27.375 6.125 C 27.875 6.878906 28.300781 7.671875 28.648438 8.511719 C 28.996094 9.347656 29.257812 10.210938 29.4375 11.097656 C 29.613281 11.988281 29.703125 12.886719 29.703125 13.792969 Z M 29.703125 13.792969 " fill-opacity="1" fill-rule="nonzero"/></g><path fill="#5271ff" d="M 15.453125 9.410156 C 15.453125 9.289062 15.496094 9.183594 15.582031 9.097656 C 15.671875 9.007812 15.773438 8.964844 15.898438 8.964844 C 16.214844 8.964844 16.527344 9 16.835938 9.0625 C 17.148438 9.125 17.449219 9.214844 17.738281 9.339844 C 18.03125 9.460938 18.308594 9.609375 18.570312 9.785156 C 18.832031 9.960938 19.074219 10.160156 19.296875 10.386719 C 19.523438 10.609375 19.722656 10.851562 19.894531 11.117188 C 20.070312 11.378906 20.21875 11.65625 20.339844 11.949219 C 20.460938 12.242188 20.550781 12.542969 20.613281 12.851562 C 20.675781 13.164062 20.707031 13.476562 20.707031 13.792969 C 20.707031 13.914062 20.664062 14.019531 20.578125 14.109375 C 20.488281 14.195312 20.382812 14.238281 20.261719 14.238281 C 20.140625 14.230469 20.039062 14.183594 19.953125 14.097656 C 19.867188 14.015625 19.820312 13.910156 19.816406 13.792969 C 19.816406 13.535156 19.789062 13.277344 19.738281 13.023438 C 19.6875 12.769531 19.613281 12.523438 19.515625 12.285156 C 19.417969 12.046875 19.296875 11.820312 19.152344 11.605469 C 19.007812 11.390625 18.847656 11.191406 18.664062 11.011719 C 18.480469 10.828125 18.28125 10.664062 18.066406 10.519531 C 17.855469 10.378906 17.628906 10.253906 17.390625 10.15625 C 17.148438 10.058594 16.90625 9.984375 16.652344 9.933594 C 16.398438 9.882812 16.140625 9.855469 15.882812 9.855469 C 15.765625 9.851562 15.660156 9.808594 15.578125 9.71875 C 15.496094 9.632812 15.453125 9.53125 15.453125 9.410156 Z M 15.453125 9.410156 " fill-opacity="1" fill-rule="nonzero"/><g clip-path="url(#c3afe9547b)"><path fill="#5271ff" d="M 28.179688 23.300781 L 28.179688 24.164062 C 28.175781 24.863281 27.925781 25.464844 27.429688 25.957031 L 25.101562 28.269531 C 24.613281 28.753906 24.023438 29 23.332031 29.003906 L 23.230469 29.003906 C 22.488281 28.972656 21.75 28.90625 21.015625 28.804688 C 20.28125 28.707031 19.554688 28.570312 18.832031 28.402344 C 18.109375 28.234375 17.398438 28.035156 16.695312 27.800781 C 15.992188 27.566406 15.300781 27.300781 14.621094 27 C 13.945312 26.703125 13.28125 26.375 12.632812 26.011719 C 11.984375 25.652344 11.355469 25.265625 10.742188 24.847656 C 10.132812 24.425781 9.539062 23.980469 8.96875 23.507812 C 8.398438 23.035156 7.851562 22.535156 7.328125 22.011719 C 6.804688 21.488281 6.304688 20.941406 5.832031 20.371094 C 5.359375 19.800781 4.914062 19.207031 4.496094 18.597656 C 4.078125 17.984375 3.6875 17.355469 3.328125 16.707031 C 2.96875 16.058594 2.640625 15.394531 2.339844 14.71875 C 2.042969 14.039062 1.777344 13.347656 1.542969 12.644531 C 1.308594 11.941406 1.109375 11.226562 0.941406 10.507812 C 0.773438 9.785156 0.636719 9.054688 0.539062 8.320312 C 0.4375 7.585938 0.371094 6.851562 0.339844 6.109375 C 0.300781 5.371094 0.542969 4.738281 1.070312 4.214844 L 3.378906 1.910156 C 3.875 1.414062 4.476562 1.164062 5.175781 1.160156 L 6.023438 1.160156 C 6.550781 1.160156 7.027344 1.3125 7.460938 1.609375 C 7.894531 1.90625 8.203125 2.304688 8.390625 2.792969 L 10.4375 8.230469 C 10.605469 8.683594 10.640625 9.144531 10.546875 9.617188 C 10.449219 10.089844 10.238281 10.503906 9.90625 10.855469 L 9.058594 11.75 C 8.792969 12.03125 8.644531 12.363281 8.617188 12.746094 C 8.585938 13.132812 8.683594 13.484375 8.902344 13.800781 C 10.710938 16.425781 12.917969 18.648438 15.535156 20.46875 C 15.851562 20.675781 16.199219 20.761719 16.574219 20.726562 C 16.953125 20.691406 17.277344 20.546875 17.550781 20.285156 L 18.460938 19.421875 C 18.8125 19.09375 19.222656 18.878906 19.695312 18.785156 C 20.167969 18.6875 20.632812 18.726562 21.085938 18.890625 L 26.519531 20.9375 C 27.015625 21.121094 27.414062 21.429688 27.71875 21.863281 C 28.023438 22.292969 28.175781 22.773438 28.179688 23.300781 Z M 28.179688 23.300781 " fill-opacity="1" fill-rule="nonzero"/></g></svg>