<svg xmlns="http://www.w3.org/2000/svg" xmlns:xlink="http://www.w3.org/1999/xlink" width="40" zoomAndPan="magnify" viewBox="0 0 30 30.000001" height="40" preserveAspectRatio="xMidYMid meet" version="1.0"><defs><clipPath id="f8087e5bc0"><path d="M 0.484375 0 L 15 0 L 15 14 L 0.484375 14 Z M 0.484375 0 " clip-rule="nonzero"/></clipPath><clipPath id="c02c4614c5"><path d="M 15 1 L 29.515625 1 L 29.515625 4 L 15 4 Z M 15 1 " clip-rule="nonzero"/></clipPath><clipPath id="d08bc4ed4d"><path d="M 15 6 L 29.515625 6 L 29.515625 8 L 15 8 Z M 15 6 " clip-rule="nonzero"/></clipPath><clipPath id="ecd052a55d"><path d="M 15 10 L 29.515625 10 L 29.515625 12 L 15 12 Z M 15 10 " clip-rule="nonzero"/></clipPath><clipPath id="4d341b60cb"><path d="M 15 15 L 29.515625 15 L 29.515625 29.03125 L 15 29.03125 Z M 15 15 " clip-rule="nonzero"/></clipPath><clipPath id="b211e42c73"><path d="M 0.484375 25 L 15 25 L 15 28 L 0.484375 28 Z M 0.484375 25 " clip-rule="nonzero"/></clipPath><clipPath id="a10dc7594b"><path d="M 0.484375 21 L 15 21 L 15 23 L 0.484375 23 Z M 0.484375 21 " clip-rule="nonzero"/></clipPath><clipPath id="03b956dade"><path d="M 0.484375 17 L 15 17 L 15 19 L 0.484375 19 Z M 0.484375 17 " clip-rule="nonzero"/></clipPath></defs><g clip-path="url(#f8087e5bc0)"><path fill="#5271ff" d="M 1.222656 13.5625 L 13.308594 13.5625 C 13.714844 13.5625 14.046875 13.230469 14.046875 12.824219 L 14.046875 0.738281 C 14.046875 0.328125 13.714844 0 13.308594 0 L 1.222656 0 C 0.8125 0 0.484375 0.328125 0.484375 0.738281 L 0.484375 12.824219 C 0.484375 13.230469 0.8125 13.5625 1.222656 13.5625 Z M 1.960938 1.476562 L 12.570312 1.476562 L 12.570312 12.085938 L 1.960938 12.085938 Z M 1.960938 1.476562 " fill-opacity="1" fill-rule="nonzero"/></g><g clip-path="url(#c02c4614c5)"><path fill="#5271ff" d="M 16.617188 3.050781 L 28.777344 3.050781 C 29.1875 3.050781 29.515625 2.722656 29.515625 2.3125 C 29.515625 1.90625 29.1875 1.574219 28.777344 1.574219 L 16.617188 1.574219 C 16.210938 1.574219 15.878906 1.90625 15.878906 2.3125 C 15.878906 2.722656 16.210938 3.050781 16.617188 3.050781 Z M 16.617188 3.050781 " fill-opacity="1" fill-rule="nonzero"/></g><g clip-path="url(#d08bc4ed4d)"><path fill="#5271ff" d="M 28.777344 6.042969 L 16.617188 6.042969 C 16.210938 6.042969 15.878906 6.371094 15.878906 6.78125 C 15.878906 7.1875 16.210938 7.519531 16.617188 7.519531 L 28.777344 7.519531 C 29.1875 7.519531 29.515625 7.1875 29.515625 6.78125 C 29.515625 6.371094 29.1875 6.042969 28.777344 6.042969 Z M 28.777344 6.042969 " fill-opacity="1" fill-rule="nonzero"/></g><g clip-path="url(#ecd052a55d)"><path fill="#5271ff" d="M 28.777344 10.511719 L 16.617188 10.511719 C 16.210938 10.511719 15.878906 10.839844 15.878906 11.25 C 15.878906 11.65625 16.210938 11.988281 16.617188 11.988281 L 28.777344 11.988281 C 29.1875 11.988281 29.515625 11.65625 29.515625 11.25 C 29.515625 10.839844 29.1875 10.511719 28.777344 10.511719 Z M 28.777344 10.511719 " fill-opacity="1" fill-rule="nonzero"/></g><g clip-path="url(#4d341b60cb)"><path fill="#5271ff" d="M 28.777344 15.472656 L 16.691406 15.472656 C 16.285156 15.472656 15.953125 15.800781 15.953125 16.207031 L 15.953125 28.292969 C 15.953125 28.703125 16.285156 29.03125 16.691406 29.03125 L 28.777344 29.03125 C 29.1875 29.03125 29.515625 28.703125 29.515625 28.292969 L 29.515625 16.207031 C 29.515625 15.800781 29.1875 15.472656 28.777344 15.472656 Z M 28.039062 27.554688 L 17.429688 27.554688 L 17.429688 16.945312 L 28.039062 16.945312 Z M 28.039062 27.554688 " fill-opacity="1" fill-rule="nonzero"/></g><g clip-path="url(#b211e42c73)"><path fill="#5271ff" d="M 13.382812 25.980469 L 1.222656 25.980469 C 0.8125 25.980469 0.484375 26.3125 0.484375 26.71875 C 0.484375 27.128906 0.8125 27.457031 1.222656 27.457031 L 13.382812 27.457031 C 13.789062 27.457031 14.121094 27.128906 14.121094 26.71875 C 14.121094 26.3125 13.789062 25.980469 13.382812 25.980469 Z M 13.382812 25.980469 " fill-opacity="1" fill-rule="nonzero"/></g><g clip-path="url(#a10dc7594b)"><path fill="#5271ff" d="M 13.382812 21.511719 L 1.222656 21.511719 C 0.8125 21.511719 0.484375 21.84375 0.484375 22.25 C 0.484375 22.660156 0.8125 22.988281 1.222656 22.988281 L 13.382812 22.988281 C 13.789062 22.988281 14.121094 22.660156 14.121094 22.25 C 14.121094 21.84375 13.789062 21.511719 13.382812 21.511719 Z M 13.382812 21.511719 " fill-opacity="1" fill-rule="nonzero"/></g><g clip-path="url(#03b956dade)"><path fill="#5271ff" d="M 13.382812 17.046875 L 1.222656 17.046875 C 0.8125 17.046875 0.484375 17.375 0.484375 17.785156 C 0.484375 18.191406 0.8125 18.523438 1.222656 18.523438 L 13.382812 18.523438 C 13.789062 18.523438 14.121094 18.191406 14.121094 17.785156 C 14.121094 17.375 13.789062 17.046875 13.382812 17.046875 Z M 13.382812 17.046875 " fill-opacity="1" fill-rule="nonzero"/></g></svg>