<svg xmlns="http://www.w3.org/2000/svg" xmlns:xlink="http://www.w3.org/1999/xlink" width="100" zoomAndPan="magnify" viewBox="0 0 75 74.999997" height="100" preserveAspectRatio="xMidYMid meet" version="1.0"><path fill="#f6f8ff" d="M 53.09375 8.777344 C 53.445312 9.132812 53.746094 9.417969 53.765625 9.417969 C 53.78125 9.417969 53.511719 9.132812 53.160156 8.777344 C 52.808594 8.425781 52.507812 8.136719 52.488281 8.136719 C 52.46875 8.136719 52.742188 8.425781 53.09375 8.777344 M 56.871094 17.496094 C 56.871094 17.707031 56.882812 17.867188 56.898438 17.851562 C 56.953125 17.792969 56.980469 17.113281 56.929688 17.113281 C 56.898438 17.113281 56.871094 17.285156 56.871094 17.496094 M 50.425781 22.851562 C 50.425781 25.765625 50.433594 26.957031 50.441406 25.5 C 50.453125 24.042969 50.453125 21.660156 50.441406 20.203125 C 50.433594 18.746094 50.425781 19.9375 50.425781 22.851562 M 17.339844 22.480469 C 17.339844 22.703125 17.351562 22.785156 17.367188 22.664062 C 17.382812 22.542969 17.382812 22.363281 17.367188 22.261719 C 17.351562 22.160156 17.339844 22.257812 17.339844 22.480469 M 58.863281 32.503906 C 59.085938 32.726562 59.28125 32.910156 59.296875 32.910156 C 59.316406 32.910156 59.152344 32.726562 58.929688 32.503906 C 58.710938 32.28125 58.515625 32.101562 58.496094 32.101562 C 58.476562 32.101562 58.644531 32.28125 58.863281 32.503906 M 8.136719 33.347656 C 7.859375 33.628906 7.648438 33.855469 7.667969 33.855469 C 7.6875 33.855469 7.929688 33.628906 8.207031 33.347656 C 8.480469 33.070312 8.691406 32.84375 8.675781 32.84375 C 8.65625 32.84375 8.414062 33.070312 8.136719 33.347656 M 6.066406 37.734375 C 6.070312 38.03125 6.082031 38.144531 6.09375 37.988281 C 6.109375 37.828125 6.109375 37.585938 6.09375 37.449219 C 6.078125 37.308594 6.066406 37.4375 6.066406 37.734375 M 66.726562 37.679688 C 66.726562 37.851562 66.746094 37.976562 66.765625 37.957031 C 66.828125 37.890625 66.84375 37.363281 66.785156 37.363281 C 66.753906 37.363281 66.726562 37.507812 66.726562 37.679688 M 58.828125 42.882812 L 58.457031 43.269531 L 58.847656 42.902344 C 59.207031 42.558594 59.265625 42.496094 59.214844 42.496094 C 59.207031 42.496094 59.03125 42.667969 58.828125 42.882812 M 50.425781 52.484375 C 50.425781 55.398438 50.433594 56.589844 50.441406 55.132812 C 50.453125 53.675781 50.453125 51.292969 50.441406 49.835938 C 50.433594 48.378906 50.425781 49.570312 50.425781 52.484375 M 56.871094 57.851562 C 56.871094 58.066406 56.894531 58.222656 56.917969 58.199219 C 56.96875 58.148438 56.953125 57.539062 56.902344 57.488281 C 56.886719 57.472656 56.871094 57.632812 56.871094 57.851562 M 53.089844 66.574219 L 52.453125 67.234375 L 53.109375 66.59375 C 53.472656 66.242188 53.765625 65.945312 53.765625 65.933594 C 53.765625 65.886719 53.6875 65.964844 53.089844 66.574219 M 31.878906 70.421875 C 32.039062 70.4375 32.296875 70.4375 32.453125 70.421875 C 32.613281 70.40625 32.484375 70.394531 32.167969 70.394531 C 31.851562 70.394531 31.722656 70.40625 31.878906 70.421875 " fill-opacity="1" fill-rule="evenodd"/><path fill="#f6f8ff" d="M 30.945312 4.5625 C 28.984375 4.738281 27.371094 5.71875 26.378906 7.328125 C 25.613281 8.578125 25.496094 8.648438 24.101562 8.695312 C 23.273438 8.722656 22.976562 8.765625 22.480469 8.910156 C 21.242188 9.273438 20.046875 10.046875 19.292969 10.972656 C 18.785156 11.59375 18.308594 12.574219 18.125 13.367188 C 17.9375 14.175781 17.96875 14.949219 18.226562 15.898438 C 18.734375 17.769531 18.753906 17.875 18.671875 18.179688 C 18.492188 18.84375 17.734375 19.265625 16.886719 19.179688 C 16.660156 19.15625 16.171875 19.167969 15.800781 19.207031 C 14.023438 19.394531 12.304688 20.421875 11.351562 21.863281 C 10.882812 22.574219 10.652344 23.171875 10.488281 24.09375 C 10.34375 24.921875 10.203125 25.296875 9.886719 25.695312 C 9.699219 25.929688 9.679688 25.996094 9.71875 26.246094 C 9.851562 27.117188 10.398438 28.144531 11.160156 28.9375 C 12.144531 29.96875 12.949219 30.328125 14.785156 30.550781 C 15.425781 30.625 15.859375 30.78125 16.046875 30.996094 C 16.113281 31.066406 16.257812 31.398438 16.375 31.730469 C 17.105469 33.796875 18.371094 35.070312 20.191406 35.566406 C 20.707031 35.707031 21.1875 35.722656 22.550781 35.648438 C 23.726562 35.585938 23.863281 35.613281 24.179688 35.957031 C 24.929688 36.785156 24.601562 38.175781 23.589844 38.445312 C 22.484375 38.742188 20.949219 38.726562 19.644531 38.40625 C 17.328125 37.832031 15.121094 36.078125 14.027344 33.945312 L 13.710938 33.324219 L 13.40625 33.28125 C 13 33.21875 11.953125 32.882812 11.394531 32.632812 C 10.554688 32.253906 9.679688 31.667969 8.964844 30.996094 C 8.769531 30.8125 8.609375 30.691406 8.609375 30.730469 C 8.609375 30.765625 8.671875 30.972656 8.742188 31.183594 C 8.933594 31.734375 8.980469 32.171875 8.878906 32.476562 C 8.824219 32.640625 8.554688 32.976562 8.109375 33.445312 C 7.730469 33.835938 7.296875 34.328125 7.140625 34.535156 C 5.996094 36.054688 5.785156 38.304688 6.609375 40.09375 C 7.253906 41.488281 8.1875 42.382812 9.769531 43.121094 C 10.574219 43.496094 10.871094 43.71875 11.054688 44.074219 C 11.28125 44.515625 11.246094 44.800781 10.878906 45.601562 C 10.3125 46.828125 10.164062 47.324219 10.117188 48.144531 C 9.949219 51.085938 12.226562 53.835938 15.21875 54.304688 C 15.90625 54.410156 16.410156 54.828125 16.566406 55.421875 C 16.648438 55.726562 16.601562 55.96875 16.34375 56.546875 C 15.914062 57.523438 15.746094 58.933594 15.925781 60.089844 C 16.394531 63.160156 18.679688 65.554688 21.875 66.332031 C 22.5625 66.496094 23.742188 66.535156 25.082031 66.429688 C 26.160156 66.347656 26.1875 66.367188 27.085938 67.636719 C 27.882812 68.769531 28.824219 69.535156 29.957031 69.96875 C 30.839844 70.308594 31.332031 70.386719 32.371094 70.351562 C 33.4375 70.316406 33.855469 70.21875 34.707031 69.800781 C 36.132812 69.097656 37.070312 68.066406 37.621094 66.574219 L 37.804688 66.085938 L 37.824219 58.789062 L 37.839844 51.488281 L 37.191406 51.40625 C 36.832031 51.363281 36.050781 51.195312 35.453125 51.03125 C 34.078125 50.664062 33.359375 50.527344 32.765625 50.527344 C 32.195312 50.527344 31.214844 50.738281 30.605469 50.992188 C 29.265625 51.558594 28.050781 52.8125 27.472656 54.230469 C 27.378906 54.46875 27.308594 54.667969 27.320312 54.679688 C 27.332031 54.691406 27.609375 54.761719 27.9375 54.839844 C 29.601562 55.234375 30.832031 56.09375 31.597656 57.402344 C 31.984375 58.0625 32.191406 58.703125 32.128906 59.066406 C 31.90625 60.410156 30.289062 60.863281 29.550781 59.792969 C 29.425781 59.617188 29.167969 59.226562 28.976562 58.929688 C 28.734375 58.558594 28.519531 58.320312 28.292969 58.171875 C 27.0625 57.347656 25.390625 57.804688 24.730469 59.144531 L 24.519531 59.578125 L 24.574219 60.503906 C 24.605469 61.011719 24.628906 61.539062 24.625 61.679688 C 24.613281 62.46875 23.578125 63.199219 22.824219 62.949219 C 22.429688 62.820312 22.203125 62.578125 21.988281 62.050781 C 21.699219 61.359375 21.613281 60.828125 21.65625 60.058594 C 21.738281 58.644531 22.433594 57.261719 23.578125 56.246094 C 23.765625 56.078125 24.011719 55.890625 24.121094 55.824219 C 24.300781 55.71875 24.332031 55.644531 24.441406 55.089844 C 25.246094 50.890625 28.429688 48.003906 32.503906 47.785156 C 33.484375 47.730469 34.125 47.816406 35.675781 48.203125 C 36.984375 48.527344 37.875 48.6875 37.949219 48.613281 C 38.019531 48.542969 38.070312 33.085938 38 33.128906 C 37.964844 33.152344 37.589844 33.402344 37.164062 33.6875 C 35.796875 34.597656 34.460938 35.160156 33.144531 35.378906 C 32.175781 35.535156 30.503906 35.476562 29.535156 35.25 C 26.253906 34.480469 23.601562 32.175781 22.585938 29.210938 L 22.34375 28.507812 L 21.871094 28.359375 C 20.90625 28.050781 20.09375 27.566406 19.324219 26.84375 C 18.117188 25.707031 17.480469 24.421875 17.351562 22.851562 C 17.292969 22.152344 17.375 21.796875 17.675781 21.457031 C 18.117188 20.953125 18.953125 20.804688 19.550781 21.121094 C 19.992188 21.351562 20.105469 21.570312 20.304688 22.59375 C 20.507812 23.632812 20.640625 23.980469 20.992188 24.40625 C 21.765625 25.335938 22.921875 25.777344 24.179688 25.617188 C 24.953125 25.519531 25.503906 25.261719 26.058594 24.734375 C 26.742188 24.082031 26.9375 23.636719 27.171875 22.195312 C 27.21875 21.921875 27.316406 21.613281 27.398438 21.492188 C 27.835938 20.847656 29.015625 20.773438 29.625 21.355469 C 29.96875 21.679688 30.03125 21.878906 30.023438 22.617188 C 30.015625 23.046875 29.964844 23.488281 29.875 23.832031 C 29.402344 25.691406 27.84375 27.417969 25.859375 28.28125 C 25.574219 28.40625 25.328125 28.523438 25.308594 28.542969 C 25.289062 28.558594 25.378906 28.785156 25.507812 29.039062 C 26.207031 30.425781 27.585938 31.632812 29.144531 32.21875 C 30.113281 32.582031 30.59375 32.664062 31.695312 32.667969 C 32.875 32.667969 33.542969 32.527344 34.515625 32.066406 C 36.273438 31.234375 37.507812 29.730469 37.875 27.980469 C 37.949219 27.628906 37.96875 25.875 37.980469 18.902344 C 37.996094 10.285156 37.996094 10.261719 37.851562 9.675781 C 37.339844 7.59375 36.175781 6.019531 34.550781 5.207031 C 33.957031 4.914062 33.074219 4.648438 32.496094 4.59375 C 31.632812 4.511719 31.515625 4.511719 30.945312 4.5625 M 43.175781 5.003906 C 42.53125 5.140625 42.039062 5.410156 41.566406 5.882812 C 40.324219 7.117188 40.296875 9.136719 41.503906 10.367188 C 42.191406 11.070312 42.746094 11.296875 43.976562 11.386719 C 45.417969 11.488281 46.40625 11.800781 47.460938 12.488281 C 48.84375 13.390625 49.785156 14.730469 50.273438 16.492188 C 50.414062 17 50.417969 17.160156 50.464844 23.191406 C 50.511719 29.808594 50.5 29.589844 50.867188 31.03125 C 51.4375 33.257812 52.601562 35.304688 54.238281 36.949219 C 54.609375 37.324219 54.914062 37.644531 54.914062 37.667969 C 54.914062 37.691406 54.617188 38.007812 54.25 38.375 C 52.605469 40.03125 51.4375 42.082031 50.867188 44.304688 C 50.5 45.75 50.511719 45.527344 50.464844 52.148438 C 50.417969 58.3125 50.417969 58.324219 50.261719 58.890625 C 49.851562 60.390625 49.078125 61.597656 47.949219 62.503906 C 46.863281 63.371094 45.613281 63.828125 44 63.949219 C 42.734375 64.046875 42.191406 64.265625 41.503906 64.96875 C 40.296875 66.203125 40.324219 68.21875 41.566406 69.453125 C 42.054688 69.941406 42.53125 70.195312 43.238281 70.34375 C 43.671875 70.4375 43.882812 70.441406 44.726562 70.375 C 48.054688 70.121094 50.894531 68.808594 53.164062 66.476562 C 54.84375 64.753906 55.867188 62.960938 56.460938 60.710938 C 56.890625 59.089844 56.886719 59.109375 56.9375 52.417969 L 56.980469 46.308594 L 57.164062 45.714844 C 57.6875 44.023438 58.75 42.660156 60.21875 41.796875 C 61.121094 41.269531 61.929688 41.035156 63.285156 40.914062 C 63.859375 40.859375 64.464844 40.769531 64.632812 40.710938 C 65.589844 40.363281 66.429688 39.417969 66.65625 38.4375 C 66.742188 38.058594 66.742188 37.28125 66.65625 36.898438 C 66.429688 35.917969 65.582031 34.96875 64.632812 34.628906 C 64.464844 34.570312 63.867188 34.480469 63.304688 34.425781 C 62.171875 34.320312 61.722656 34.226562 61.019531 33.933594 C 59.207031 33.183594 57.824219 31.679688 57.222656 29.804688 C 56.949219 28.957031 56.941406 28.71875 56.9375 23.398438 C 56.9375 17.769531 56.894531 16.667969 56.636719 15.390625 C 55.820312 11.355469 53.171875 7.960938 49.449219 6.1875 C 48.066406 5.53125 46.5 5.109375 44.890625 4.96875 C 43.886719 4.882812 43.714844 4.882812 43.175781 5.003906 " fill-opacity="1" fill-rule="evenodd"/></svg>