<svg xmlns="http://www.w3.org/2000/svg" xmlns:xlink="http://www.w3.org/1999/xlink" width="188" zoomAndPan="magnify" viewBox="0 0 141 37.5" height="50" preserveAspectRatio="xMidYMid meet" version="1.0"><defs><g/></defs><path fill="#5271ff" d="M 133.089844 4.320312 C 133.261719 4.492188 133.410156 4.636719 133.421875 4.636719 C 133.429688 4.636719 133.296875 4.492188 133.121094 4.320312 C 132.949219 4.144531 132.800781 4.003906 132.792969 4.003906 C 132.78125 4.003906 132.917969 4.144531 133.089844 4.320312 M 134.949219 8.609375 C 134.949219 8.714844 134.957031 8.792969 134.960938 8.785156 C 134.988281 8.753906 135.003906 8.421875 134.976562 8.421875 C 134.960938 8.421875 134.949219 8.507812 134.949219 8.609375 M 131.777344 11.246094 C 131.777344 12.679688 131.78125 13.265625 131.785156 12.546875 C 131.789062 11.832031 131.789062 10.65625 131.785156 9.941406 C 131.78125 9.222656 131.777344 9.808594 131.777344 11.246094 M 115.496094 11.0625 C 115.496094 11.171875 115.503906 11.210938 115.511719 11.152344 C 115.519531 11.09375 115.519531 11.003906 115.511719 10.953125 C 115.503906 10.902344 115.496094 10.953125 115.496094 11.0625 M 135.929688 15.992188 C 136.039062 16.101562 136.132812 16.191406 136.144531 16.191406 C 136.152344 16.191406 136.070312 16.101562 135.960938 15.992188 C 135.855469 15.882812 135.757812 15.792969 135.75 15.792969 C 135.738281 15.792969 135.820312 15.882812 135.929688 15.992188 M 110.96875 16.410156 C 110.832031 16.546875 110.730469 16.65625 110.738281 16.65625 C 110.75 16.65625 110.867188 16.546875 111.003906 16.410156 C 111.140625 16.273438 111.242188 16.160156 111.234375 16.160156 C 111.226562 16.160156 111.105469 16.273438 110.96875 16.410156 M 109.953125 18.566406 C 109.953125 18.714844 109.957031 18.769531 109.964844 18.691406 C 109.972656 18.613281 109.972656 18.492188 109.964844 18.425781 C 109.957031 18.359375 109.953125 18.421875 109.953125 18.566406 M 139.796875 18.539062 C 139.796875 18.625 139.808594 18.6875 139.816406 18.675781 C 139.847656 18.644531 139.855469 18.386719 139.828125 18.386719 C 139.8125 18.386719 139.796875 18.453125 139.796875 18.539062 M 135.910156 21.101562 L 135.730469 21.292969 L 135.921875 21.109375 C 136.097656 20.941406 136.128906 20.910156 136.101562 20.910156 C 136.097656 20.910156 136.011719 20.996094 135.910156 21.101562 M 131.777344 25.824219 C 131.777344 27.257812 131.78125 27.84375 131.785156 27.128906 C 131.789062 26.410156 131.789062 25.238281 131.785156 24.519531 C 131.78125 23.804688 131.777344 24.390625 131.777344 25.824219 M 134.949219 28.464844 C 134.949219 28.570312 134.960938 28.648438 134.972656 28.636719 C 134.996094 28.613281 134.988281 28.3125 134.964844 28.285156 C 134.957031 28.277344 134.949219 28.359375 134.949219 28.464844 M 133.089844 32.757812 L 132.773438 33.082031 L 133.097656 32.765625 C 133.277344 32.59375 133.421875 32.449219 133.421875 32.441406 C 133.421875 32.417969 133.382812 32.457031 133.089844 32.757812 M 122.652344 34.652344 C 122.730469 34.65625 122.855469 34.65625 122.933594 34.652344 C 123.011719 34.644531 122.949219 34.636719 122.792969 34.636719 C 122.636719 34.636719 122.574219 34.644531 122.652344 34.652344 " fill-opacity="1" fill-rule="evenodd"/><path fill="#5271ff" d="M 122.191406 2.246094 C 121.226562 2.332031 120.433594 2.8125 119.945312 3.605469 C 119.566406 4.21875 119.511719 4.253906 118.824219 4.277344 C 118.417969 4.292969 118.273438 4.3125 118.027344 4.382812 C 117.417969 4.5625 116.832031 4.945312 116.457031 5.398438 C 116.210938 5.707031 115.972656 6.1875 115.882812 6.578125 C 115.792969 6.976562 115.808594 7.355469 115.933594 7.824219 C 116.183594 8.742188 116.195312 8.792969 116.152344 8.945312 C 116.066406 9.273438 115.691406 9.480469 115.277344 9.4375 C 115.164062 9.425781 114.921875 9.429688 114.742188 9.449219 C 113.867188 9.542969 113.019531 10.046875 112.550781 10.757812 C 112.320312 11.109375 112.207031 11.402344 112.128906 11.855469 C 112.054688 12.261719 111.984375 12.445312 111.832031 12.644531 C 111.738281 12.757812 111.730469 12.789062 111.746094 12.914062 C 111.8125 13.34375 112.082031 13.847656 112.457031 14.238281 C 112.941406 14.746094 113.335938 14.921875 114.242188 15.03125 C 114.554688 15.070312 114.769531 15.144531 114.863281 15.25 C 114.894531 15.285156 114.964844 15.449219 115.023438 15.613281 C 115.382812 16.628906 116.003906 17.253906 116.902344 17.5 C 117.152344 17.570312 117.390625 17.578125 118.0625 17.542969 C 118.640625 17.511719 118.707031 17.523438 118.863281 17.691406 C 119.230469 18.097656 119.070312 18.785156 118.574219 18.917969 C 118.03125 19.0625 117.273438 19.054688 116.632812 18.898438 C 115.492188 18.613281 114.40625 17.753906 113.867188 16.703125 L 113.710938 16.398438 L 113.5625 16.375 C 113.363281 16.347656 112.847656 16.179688 112.574219 16.058594 C 112.160156 15.871094 111.730469 15.582031 111.375 15.25 C 111.28125 15.160156 111.203125 15.101562 111.203125 15.121094 C 111.203125 15.136719 111.230469 15.238281 111.269531 15.34375 C 111.359375 15.613281 111.382812 15.832031 111.335938 15.980469 C 111.308594 16.0625 111.175781 16.226562 110.957031 16.457031 C 110.769531 16.648438 110.554688 16.890625 110.480469 16.992188 C 109.917969 17.742188 109.8125 18.847656 110.21875 19.726562 C 110.535156 20.414062 110.996094 20.855469 111.773438 21.21875 C 112.167969 21.402344 112.316406 21.511719 112.40625 21.6875 C 112.515625 21.902344 112.5 22.042969 112.320312 22.4375 C 112.039062 23.042969 111.96875 23.285156 111.945312 23.6875 C 111.863281 25.136719 112.980469 26.488281 114.453125 26.71875 C 114.792969 26.773438 115.039062 26.976562 115.117188 27.269531 C 115.15625 27.421875 115.132812 27.539062 115.007812 27.824219 C 114.796875 28.304688 114.714844 28.996094 114.800781 29.566406 C 115.03125 31.078125 116.15625 32.257812 117.730469 32.636719 C 118.066406 32.71875 118.648438 32.738281 119.308594 32.6875 C 119.835938 32.648438 119.851562 32.65625 120.292969 33.28125 C 120.683594 33.835938 121.148438 34.214844 121.707031 34.429688 C 122.140625 34.597656 122.382812 34.632812 122.894531 34.617188 C 123.417969 34.597656 123.625 34.550781 124.042969 34.34375 C 124.746094 34 125.207031 33.492188 125.476562 32.757812 L 125.566406 32.515625 L 125.574219 28.925781 L 125.585938 25.335938 L 125.265625 25.292969 C 125.089844 25.273438 124.703125 25.191406 124.410156 25.109375 C 123.734375 24.929688 123.378906 24.863281 123.089844 24.863281 C 122.808594 24.863281 122.324219 24.964844 122.027344 25.089844 C 121.363281 25.367188 120.769531 25.984375 120.484375 26.683594 C 120.4375 26.800781 120.402344 26.898438 120.410156 26.90625 C 120.414062 26.910156 120.550781 26.945312 120.710938 26.984375 C 121.53125 27.179688 122.136719 27.601562 122.511719 28.242188 C 122.703125 28.570312 122.804688 28.882812 122.773438 29.0625 C 122.664062 29.722656 121.871094 29.949219 121.503906 29.421875 C 121.445312 29.332031 121.320312 29.144531 121.222656 28.996094 C 121.105469 28.8125 121 28.695312 120.886719 28.621094 C 120.28125 28.21875 119.460938 28.441406 119.136719 29.101562 L 119.03125 29.3125 L 119.058594 29.769531 C 119.074219 30.019531 119.085938 30.28125 119.082031 30.347656 C 119.074219 30.738281 118.566406 31.097656 118.195312 30.972656 C 118.003906 30.910156 117.890625 30.789062 117.785156 30.53125 C 117.644531 30.191406 117.601562 29.929688 117.621094 29.550781 C 117.664062 28.855469 118.003906 28.175781 118.566406 27.675781 C 118.660156 27.59375 118.78125 27.5 118.835938 27.46875 C 118.921875 27.414062 118.9375 27.378906 118.992188 27.105469 C 119.386719 25.039062 120.953125 23.621094 122.960938 23.511719 C 123.441406 23.484375 123.757812 23.527344 124.519531 23.71875 C 125.164062 23.878906 125.601562 23.957031 125.640625 23.921875 C 125.671875 23.886719 125.695312 16.28125 125.664062 16.300781 C 125.648438 16.3125 125.460938 16.433594 125.25 16.574219 C 124.582031 17.023438 123.921875 17.300781 123.273438 17.40625 C 122.796875 17.484375 121.976562 17.457031 121.496094 17.34375 C 119.882812 16.964844 118.578125 15.832031 118.078125 14.371094 L 117.960938 14.027344 L 117.726562 13.953125 C 117.253906 13.800781 116.851562 13.5625 116.472656 13.207031 C 115.878906 12.648438 115.566406 12.015625 115.503906 11.242188 C 115.476562 10.898438 115.515625 10.726562 115.664062 10.558594 C 115.878906 10.308594 116.289062 10.234375 116.585938 10.390625 C 116.804688 10.507812 116.859375 10.613281 116.957031 11.117188 C 117.058594 11.628906 117.121094 11.796875 117.296875 12.007812 C 117.675781 12.464844 118.246094 12.683594 118.863281 12.605469 C 119.242188 12.558594 119.515625 12.429688 119.789062 12.171875 C 120.125 11.851562 120.222656 11.632812 120.335938 10.921875 C 120.359375 10.785156 120.40625 10.632812 120.445312 10.574219 C 120.660156 10.257812 121.242188 10.222656 121.542969 10.507812 C 121.710938 10.667969 121.742188 10.765625 121.738281 11.128906 C 121.734375 11.339844 121.710938 11.554688 121.667969 11.726562 C 121.433594 12.640625 120.667969 13.492188 119.691406 13.917969 C 119.550781 13.976562 119.429688 14.035156 119.417969 14.042969 C 119.410156 14.054688 119.453125 14.164062 119.515625 14.289062 C 119.859375 14.972656 120.539062 15.5625 121.304688 15.851562 C 121.785156 16.03125 122.019531 16.074219 122.5625 16.074219 C 123.140625 16.074219 123.472656 16.003906 123.949219 15.777344 C 124.8125 15.367188 125.421875 14.628906 125.601562 13.769531 C 125.636719 13.59375 125.648438 12.730469 125.652344 9.300781 C 125.660156 5.0625 125.660156 5.050781 125.589844 4.761719 C 125.339844 3.734375 124.765625 2.960938 123.964844 2.5625 C 123.675781 2.417969 123.238281 2.289062 122.953125 2.261719 C 122.53125 2.222656 122.472656 2.21875 122.191406 2.246094 M 128.210938 2.460938 C 127.894531 2.53125 127.652344 2.660156 127.417969 2.894531 C 126.808594 3.503906 126.792969 4.496094 127.386719 5.101562 C 127.726562 5.445312 128 5.558594 128.601562 5.601562 C 129.3125 5.652344 129.800781 5.808594 130.320312 6.144531 C 131 6.589844 131.460938 7.246094 131.703125 8.117188 C 131.773438 8.367188 131.773438 8.441406 131.796875 11.410156 C 131.820312 14.667969 131.8125 14.558594 131.996094 15.269531 C 132.273438 16.363281 132.847656 17.371094 133.652344 18.179688 C 133.835938 18.363281 133.988281 18.523438 133.988281 18.535156 C 133.988281 18.546875 133.839844 18.703125 133.660156 18.882812 C 132.851562 19.695312 132.273438 20.707031 131.996094 21.800781 C 131.8125 22.511719 131.820312 22.402344 131.796875 25.660156 C 131.773438 28.691406 131.773438 28.699219 131.699219 28.976562 C 131.496094 29.714844 131.113281 30.308594 130.558594 30.753906 C 130.023438 31.183594 129.410156 31.40625 128.613281 31.464844 C 127.992188 31.511719 127.726562 31.621094 127.386719 31.96875 C 126.792969 32.574219 126.808594 33.566406 127.417969 34.175781 C 127.660156 34.414062 127.890625 34.539062 128.242188 34.613281 C 128.453125 34.65625 128.558594 34.660156 128.972656 34.628906 C 130.613281 34.503906 132.007812 33.855469 133.125 32.710938 C 133.949219 31.863281 134.457031 30.980469 134.746094 29.871094 C 134.957031 29.074219 134.957031 29.085938 134.980469 25.792969 L 135.003906 22.785156 L 135.09375 22.492188 C 135.351562 21.660156 135.875 20.988281 136.597656 20.566406 C 137.039062 20.304688 137.4375 20.191406 138.105469 20.132812 C 138.386719 20.105469 138.6875 20.058594 138.769531 20.03125 C 139.238281 19.859375 139.652344 19.394531 139.761719 18.914062 C 139.808594 18.726562 139.808594 18.34375 139.761719 18.15625 C 139.652344 17.671875 139.234375 17.207031 138.769531 17.039062 C 138.6875 17.011719 138.390625 16.964844 138.113281 16.941406 C 137.558594 16.886719 137.335938 16.839844 136.992188 16.695312 C 136.097656 16.328125 135.417969 15.585938 135.121094 14.664062 C 134.988281 14.25 134.984375 14.132812 134.980469 11.511719 C 134.980469 8.742188 134.960938 8.203125 134.832031 7.574219 C 134.429688 5.585938 133.128906 3.917969 131.296875 3.042969 C 130.617188 2.722656 129.847656 2.515625 129.054688 2.445312 C 128.558594 2.402344 128.476562 2.402344 128.210938 2.460938 " fill-opacity="1" fill-rule="evenodd"/><g fill="#5271ff" fill-opacity="1"><g transform="translate(0.950698, 19.307775)"><g><path d="M 1.203125 0 L 0.609375 -3.296875 L 6.625 -3.296875 C 7.257812 -3.296875 7.707031 -3.359375 7.96875 -3.484375 C 8.226562 -3.609375 8.398438 -3.75 8.484375 -3.90625 L 9.359375 -1.09375 C 9.316406 -0.820312 9.140625 -0.601562 8.828125 -0.4375 C 8.515625 -0.28125 8.15625 -0.164062 7.75 -0.09375 C 7.34375 -0.03125 6.96875 0 6.625 0 Z M 3.78125 -7.515625 L 6.359375 -10.84375 L 10.046875 -4.203125 C 10.203125 -3.929688 10.359375 -3.734375 10.515625 -3.609375 C 10.671875 -3.484375 10.84375 -3.398438 11.03125 -3.359375 C 11.226562 -3.316406 11.46875 -3.296875 11.75 -3.296875 L 11.96875 -3.296875 L 11.96875 0 L 11.75 0 C 11.289062 0 10.863281 -0.0195312 10.46875 -0.0625 C 10.082031 -0.113281 9.707031 -0.21875 9.34375 -0.375 C 8.988281 -0.539062 8.632812 -0.785156 8.28125 -1.109375 C 7.9375 -1.429688 7.582031 -1.875 7.21875 -2.4375 Z M 3.78125 -7.515625 "/></g></g></g><g fill="#5271ff" fill-opacity="1"><g transform="translate(12.902022, 19.307775)"><g><path d="M 0 0 L 0 -3.296875 L 2.921875 -3.296875 C 2.972656 -3.535156 3.019531 -3.859375 3.0625 -4.265625 C 3.101562 -4.671875 3.132812 -5.078125 3.15625 -5.484375 C 3.1875 -5.898438 3.195312 -6.25 3.1875 -6.53125 L 7.140625 -7.90625 C 6.878906 -6.882812 6.625 -5.929688 6.375 -5.046875 C 6.132812 -4.160156 5.847656 -3.304688 5.515625 -2.484375 C 5.191406 -1.671875 4.773438 -0.84375 4.265625 0 Z M 8.609375 0 C 7.640625 0 6.820312 -0.09375 6.15625 -0.28125 C 5.488281 -0.46875 4.929688 -0.691406 4.484375 -0.953125 C 4.035156 -1.210938 3.65625 -1.453125 3.34375 -1.671875 L 5.125 -3.75 C 5.3125 -3.65625 5.539062 -3.570312 5.8125 -3.5 C 6.082031 -3.4375 6.375 -3.382812 6.6875 -3.34375 C 7.007812 -3.3125 7.347656 -3.296875 7.703125 -3.296875 L 8.609375 -3.296875 Z M 0 -3.296875 L 0.203125 -3.296875 L 0.203125 0 L 0 0 C -0.414062 0 -0.625 -0.546875 -0.625 -1.640625 C -0.625 -2.742188 -0.414062 -3.296875 0 -3.296875 Z M 2.40625 5.640625 L 0.203125 3.40625 L 2.28125 1.171875 L 4.484375 3.40625 Z M 6.109375 5.640625 L 3.90625 3.40625 L 6 1.171875 L 8.203125 3.40625 Z M 6.109375 5.640625 "/></g></g></g><g fill="#5271ff" fill-opacity="1"><g transform="translate(21.498588, 19.307775)"><g><path d="M 14.140625 0 C 13.179688 0 12.367188 -0.09375 11.703125 -0.28125 C 11.035156 -0.46875 10.476562 -0.691406 10.03125 -0.953125 C 9.582031 -1.210938 9.195312 -1.453125 8.875 -1.671875 L 10.75 -3.6875 C 11 -3.582031 11.34375 -3.488281 11.78125 -3.40625 C 12.21875 -3.332031 12.703125 -3.296875 13.234375 -3.296875 L 15.828125 -3.296875 C 15.660156 -3.921875 15.414062 -4.53125 15.09375 -5.125 C 14.78125 -5.71875 14.421875 -6.273438 14.015625 -6.796875 L 17.046875 -9.859375 C 17.359375 -9.273438 17.644531 -8.644531 17.90625 -7.96875 C 18.175781 -7.289062 18.367188 -6.554688 18.484375 -5.765625 C 18.609375 -4.972656 18.617188 -4.097656 18.515625 -3.140625 C 18.421875 -2.191406 18.175781 -1.144531 17.78125 0 Z M 0 0 L 0 -3.296875 L 2.015625 -3.296875 C 2.054688 -3.585938 2.085938 -3.882812 2.109375 -4.1875 C 2.128906 -4.5 2.140625 -4.828125 2.140625 -5.171875 C 2.140625 -5.523438 2.117188 -5.90625 2.078125 -6.3125 L 6.046875 -7.6875 C 5.847656 -6.707031 5.65625 -5.875 5.46875 -5.1875 C 5.289062 -4.5 5.09375 -3.890625 4.875 -3.359375 C 4.65625 -2.828125 4.394531 -2.300781 4.09375 -1.78125 C 3.800781 -1.257812 3.429688 -0.664062 2.984375 0 Z M 6.5 0 C 5.457031 0 4.570312 -0.09375 3.84375 -0.28125 C 3.113281 -0.46875 2.535156 -0.679688 2.109375 -0.921875 C 1.679688 -1.171875 1.382812 -1.375 1.21875 -1.53125 L 2.453125 -3.984375 C 2.804688 -3.765625 3.238281 -3.59375 3.75 -3.46875 C 4.269531 -3.351562 4.835938 -3.296875 5.453125 -3.296875 L 8 -3.296875 C 8.039062 -3.503906 8.070312 -3.765625 8.09375 -4.078125 C 8.113281 -4.390625 8.125 -4.738281 8.125 -5.125 C 8.125 -5.507812 8.101562 -5.90625 8.0625 -6.3125 L 12.0625 -7.6875 C 11.851562 -6.707031 11.65625 -5.875 11.46875 -5.1875 C 11.289062 -4.5 11.085938 -3.890625 10.859375 -3.359375 C 10.640625 -2.828125 10.378906 -2.300781 10.078125 -1.78125 C 9.773438 -1.257812 9.410156 -0.664062 8.984375 0 Z M 0 -3.296875 L 0.203125 -3.296875 L 0.203125 0 L 0 0 C -0.414062 0 -0.625 -0.546875 -0.625 -1.640625 C -0.625 -2.742188 -0.414062 -3.296875 0 -3.296875 Z M 0 -3.296875 "/></g></g></g><g fill="#5271ff" fill-opacity="1"><g transform="translate(41.312635, 19.307775)"><g/></g></g><g fill="#5271ff" fill-opacity="1"><g transform="translate(48.00118, 19.307775)"><g><path d="M 5.609375 -0.3125 C 4.585938 -0.3125 3.679688 -0.457031 2.890625 -0.75 C 2.109375 -1.050781 1.5 -1.476562 1.0625 -2.03125 C 0.625 -2.59375 0.40625 -3.265625 0.40625 -4.046875 C 0.40625 -4.773438 0.59375 -5.429688 0.96875 -6.015625 C 1.351562 -6.609375 1.890625 -7.144531 2.578125 -7.625 C 3.273438 -8.113281 4.097656 -8.566406 5.046875 -8.984375 C 5.992188 -9.410156 7.019531 -9.828125 8.125 -10.234375 L 8.625 -6.921875 C 7.6875 -6.703125 6.90625 -6.46875 6.28125 -6.21875 C 5.65625 -5.976562 5.160156 -5.734375 4.796875 -5.484375 C 4.441406 -5.242188 4.179688 -5.015625 4.015625 -4.796875 C 3.859375 -4.578125 3.78125 -4.390625 3.78125 -4.234375 C 3.78125 -4.054688 3.894531 -3.90625 4.125 -3.78125 C 4.363281 -3.664062 4.816406 -3.609375 5.484375 -3.609375 C 5.617188 -3.609375 5.816406 -3.613281 6.078125 -3.625 C 6.347656 -3.644531 6.65625 -3.675781 7 -3.71875 C 7.351562 -3.769531 7.726562 -3.84375 8.125 -3.9375 L 8.890625 -1.171875 C 8.335938 -0.910156 7.8125 -0.703125 7.3125 -0.546875 C 6.8125 -0.390625 6.242188 -0.3125 5.609375 -0.3125 Z M 10.71875 0 C 9.820312 0 9.101562 -0.117188 8.5625 -0.359375 C 8.03125 -0.609375 7.628906 -0.925781 7.359375 -1.3125 C 7.085938 -1.695312 6.90625 -2.113281 6.8125 -2.5625 C 6.71875 -3.007812 6.671875 -3.425781 6.671875 -3.8125 L 6.671875 -11.203125 L 10.046875 -11.203125 L 10.046875 -4.765625 C 10.046875 -4.210938 10.1875 -3.828125 10.46875 -3.609375 C 10.757812 -3.398438 11.226562 -3.296875 11.875 -3.296875 L 12.5625 -3.296875 L 12.5625 0 Z M 10.71875 0 "/></g></g></g><g fill="#5271ff" fill-opacity="1"><g transform="translate(60.560553, 19.307775)"><g><path d="M 4.78125 -3.296875 L 7.296875 -3.296875 L 7.296875 0 L 4.78125 0 Z M 0 0 L 0 -3.296875 L 2.03125 -3.296875 L 2.03125 -15.53125 L 5.40625 -15.53125 L 5.40625 0 Z M 0 -3.296875 L 0.203125 -3.296875 L 0.203125 0 L 0 0 C -0.414062 0 -0.625 -0.546875 -0.625 -1.640625 C -0.625 -2.742188 -0.414062 -3.296875 0 -3.296875 Z M 0 -3.296875 "/></g></g></g><g fill="#5271ff" fill-opacity="1"><g transform="translate(67.857159, 19.307775)"><g><path d="M 0 0 L 0 -3.296875 L 2.03125 -3.296875 L 2.03125 -15.53125 L 5.40625 -15.53125 L 5.40625 0 Z M 0 -3.296875 L 0.203125 -3.296875 L 0.203125 0 L 0 0 C -0.414062 0 -0.625 -0.546875 -0.625 -1.640625 C -0.625 -2.742188 -0.414062 -3.296875 0 -3.296875 Z M 0 -3.296875 "/></g></g></g><g fill="#5271ff" fill-opacity="1"><g transform="translate(74.713442, 19.307775)"><g><path d="M 1.203125 0 L 0.609375 -3.296875 L 6.625 -3.296875 C 7.257812 -3.296875 7.707031 -3.359375 7.96875 -3.484375 C 8.226562 -3.609375 8.398438 -3.75 8.484375 -3.90625 L 9.359375 -1.09375 C 9.316406 -0.820312 9.140625 -0.601562 8.828125 -0.4375 C 8.515625 -0.28125 8.15625 -0.164062 7.75 -0.09375 C 7.34375 -0.03125 6.96875 0 6.625 0 Z M 3.78125 -7.515625 L 6.359375 -10.84375 L 10.046875 -4.203125 C 10.203125 -3.929688 10.359375 -3.734375 10.515625 -3.609375 C 10.671875 -3.484375 10.84375 -3.398438 11.03125 -3.359375 C 11.226562 -3.316406 11.46875 -3.296875 11.75 -3.296875 L 11.96875 -3.296875 L 11.96875 0 L 11.75 0 C 11.289062 0 10.863281 -0.0195312 10.46875 -0.0625 C 10.082031 -0.113281 9.707031 -0.21875 9.34375 -0.375 C 8.988281 -0.539062 8.632812 -0.785156 8.28125 -1.109375 C 7.9375 -1.429688 7.582031 -1.875 7.21875 -2.4375 Z M 3.78125 -7.515625 "/></g></g></g><g fill="#5271ff" fill-opacity="1"><g transform="translate(86.664766, 19.307775)"><g><path d="M 0 0 L 0 -3.296875 L 2.921875 -3.296875 C 2.972656 -3.535156 3.019531 -3.859375 3.0625 -4.265625 C 3.101562 -4.671875 3.132812 -5.078125 3.15625 -5.484375 C 3.1875 -5.898438 3.195312 -6.25 3.1875 -6.53125 L 7.140625 -7.90625 C 6.878906 -6.882812 6.625 -5.929688 6.375 -5.046875 C 6.132812 -4.160156 5.847656 -3.304688 5.515625 -2.484375 C 5.191406 -1.671875 4.773438 -0.84375 4.265625 0 Z M 8.609375 0 C 7.640625 0 6.820312 -0.09375 6.15625 -0.28125 C 5.488281 -0.46875 4.929688 -0.691406 4.484375 -0.953125 C 4.035156 -1.210938 3.65625 -1.453125 3.34375 -1.671875 L 5.125 -3.75 C 5.3125 -3.65625 5.539062 -3.570312 5.8125 -3.5 C 6.082031 -3.4375 6.375 -3.382812 6.6875 -3.34375 C 7.007812 -3.3125 7.347656 -3.296875 7.703125 -3.296875 L 8.609375 -3.296875 Z M 0 -3.296875 L 0.203125 -3.296875 L 0.203125 0 L 0 0 C -0.414062 0 -0.625 -0.546875 -0.625 -1.640625 C -0.625 -2.742188 -0.414062 -3.296875 0 -3.296875 Z M 4.21875 5.640625 L 1.984375 3.40625 L 4.109375 1.171875 L 6.3125 3.40625 Z M 4.21875 5.640625 "/></g></g></g><g fill="#5271ff" fill-opacity="1"><g transform="translate(95.261332, 19.307775)"><g><path d="M 0 0 L 0 -3.296875 L 2.09375 -3.296875 C 2 -3.492188 1.898438 -3.765625 1.796875 -4.109375 C 1.703125 -4.460938 1.65625 -4.867188 1.65625 -5.328125 C 1.65625 -6.273438 1.875 -7.085938 2.3125 -7.765625 C 2.757812 -8.453125 3.378906 -8.972656 4.171875 -9.328125 C 4.972656 -9.679688 5.910156 -9.859375 6.984375 -9.859375 C 7.640625 -9.859375 8.28125 -9.785156 8.90625 -9.640625 C 9.539062 -9.492188 10.101562 -9.296875 10.59375 -9.046875 L 9.25 -6.125 C 8.863281 -6.28125 8.484375 -6.394531 8.109375 -6.46875 C 7.734375 -6.550781 7.359375 -6.59375 6.984375 -6.59375 C 6.296875 -6.59375 5.796875 -6.429688 5.484375 -6.109375 C 5.179688 -5.785156 5.03125 -5.394531 5.03125 -4.9375 C 5.03125 -4.65625 5.117188 -4.382812 5.296875 -4.125 C 5.472656 -3.875 5.753906 -3.671875 6.140625 -3.515625 C 6.535156 -3.367188 7.054688 -3.296875 7.703125 -3.296875 L 10.65625 -3.296875 L 10.65625 0 Z M 0 -3.296875 L 0.203125 -3.296875 L 0.203125 0 L 0 0 C -0.414062 0 -0.625 -0.546875 -0.625 -1.640625 C -0.625 -2.742188 -0.414062 -3.296875 0 -3.296875 Z M 0 -3.296875 "/></g></g></g><g fill="#5271ff" fill-opacity="1"><g transform="translate(0.950698, 33.624465)"><g><path d="M 0.859375 0 L 0.859375 -6.96875 L 2.5625 -6.96875 L 2.5625 0 Z M 1.65625 -2.671875 L 1.65625 -4.09375 L 5.28125 -4.09375 L 5.28125 -2.671875 Z M 1.65625 -5.46875 L 1.65625 -6.96875 L 5.6875 -6.96875 L 5.6875 -5.46875 Z M 1.65625 -5.46875 "/></g></g></g><g fill="#5271ff" fill-opacity="1"><g transform="translate(7.101779, 33.624465)"><g><path d="M 0.703125 0 L 0.703125 -5.28125 L 2.234375 -5.28125 L 2.296875 -3.5625 L 2 -3.90625 C 2.082031 -4.175781 2.210938 -4.425781 2.390625 -4.65625 C 2.578125 -4.882812 2.789062 -5.0625 3.03125 -5.1875 C 3.28125 -5.320312 3.546875 -5.390625 3.828125 -5.390625 C 3.941406 -5.390625 4.050781 -5.378906 4.15625 -5.359375 C 4.257812 -5.347656 4.347656 -5.328125 4.421875 -5.296875 L 4 -3.53125 C 3.925781 -3.570312 3.828125 -3.609375 3.703125 -3.640625 C 3.578125 -3.671875 3.453125 -3.6875 3.328125 -3.6875 C 3.179688 -3.6875 3.046875 -3.660156 2.921875 -3.609375 C 2.796875 -3.554688 2.6875 -3.484375 2.59375 -3.390625 C 2.507812 -3.296875 2.441406 -3.1875 2.390625 -3.0625 C 2.335938 -2.9375 2.3125 -2.796875 2.3125 -2.640625 L 2.3125 0 Z M 0.703125 0 "/></g></g></g><g fill="#5271ff" fill-opacity="1"><g transform="translate(11.640446, 33.624465)"><g><path d="M 3.1875 0.09375 C 2.644531 0.09375 2.15625 -0.0195312 1.71875 -0.25 C 1.289062 -0.488281 0.953125 -0.8125 0.703125 -1.21875 C 0.460938 -1.632812 0.34375 -2.109375 0.34375 -2.640625 C 0.34375 -3.171875 0.460938 -3.644531 0.703125 -4.0625 C 0.953125 -4.476562 1.289062 -4.800781 1.71875 -5.03125 C 2.15625 -5.269531 2.644531 -5.390625 3.1875 -5.390625 C 3.738281 -5.390625 4.226562 -5.269531 4.65625 -5.03125 C 5.082031 -4.800781 5.414062 -4.476562 5.65625 -4.0625 C 5.90625 -3.644531 6.03125 -3.171875 6.03125 -2.640625 C 6.03125 -2.109375 5.90625 -1.632812 5.65625 -1.21875 C 5.414062 -0.8125 5.082031 -0.488281 4.65625 -0.25 C 4.226562 -0.0195312 3.738281 0.09375 3.1875 0.09375 Z M 3.1875 -1.28125 C 3.425781 -1.28125 3.632812 -1.335938 3.8125 -1.453125 C 4 -1.566406 4.144531 -1.726562 4.25 -1.9375 C 4.351562 -2.144531 4.40625 -2.378906 4.40625 -2.640625 C 4.40625 -2.910156 4.351562 -3.148438 4.25 -3.359375 C 4.144531 -3.566406 4 -3.726562 3.8125 -3.84375 C 3.632812 -3.957031 3.425781 -4.015625 3.1875 -4.015625 C 2.957031 -4.015625 2.75 -3.953125 2.5625 -3.828125 C 2.375 -3.710938 2.222656 -3.550781 2.109375 -3.34375 C 2.003906 -3.144531 1.953125 -2.910156 1.953125 -2.640625 C 1.953125 -2.378906 2.003906 -2.144531 2.109375 -1.9375 C 2.222656 -1.726562 2.375 -1.566406 2.5625 -1.453125 C 2.75 -1.335938 2.957031 -1.28125 3.1875 -1.28125 Z M 3.1875 -1.28125 "/></g></g></g><g fill="#5271ff" fill-opacity="1"><g transform="translate(18.0105, 33.624465)"><g><path d="M 0.703125 0 L 0.703125 -5.28125 L 2.234375 -5.28125 L 2.296875 -4.203125 L 1.953125 -4.09375 C 2.023438 -4.332031 2.15625 -4.546875 2.34375 -4.734375 C 2.539062 -4.929688 2.769531 -5.085938 3.03125 -5.203125 C 3.300781 -5.328125 3.582031 -5.390625 3.875 -5.390625 C 4.269531 -5.390625 4.601562 -5.304688 4.875 -5.140625 C 5.144531 -4.984375 5.347656 -4.742188 5.484375 -4.421875 C 5.617188 -4.097656 5.6875 -3.703125 5.6875 -3.234375 L 5.6875 0 L 4.09375 0 L 4.09375 -3.109375 C 4.09375 -3.328125 4.0625 -3.503906 4 -3.640625 C 3.9375 -3.785156 3.84375 -3.890625 3.71875 -3.953125 C 3.601562 -4.015625 3.457031 -4.046875 3.28125 -4.046875 C 3.144531 -4.046875 3.015625 -4.019531 2.890625 -3.96875 C 2.773438 -3.925781 2.671875 -3.863281 2.578125 -3.78125 C 2.492188 -3.695312 2.425781 -3.601562 2.375 -3.5 C 2.332031 -3.394531 2.3125 -3.273438 2.3125 -3.140625 L 2.3125 0 L 1.5 0 C 1.332031 0 1.179688 0 1.046875 0 C 0.910156 0 0.796875 0 0.703125 0 Z M 0.703125 0 "/></g></g></g><g fill="#5271ff" fill-opacity="1"><g transform="translate(24.34074, 33.624465)"><g><path d="M 1.140625 0 L 1.140625 -6.625 L 2.75 -6.625 L 2.75 0 Z M 0.203125 -3.875 L 0.203125 -5.28125 L 3.765625 -5.28125 L 3.765625 -3.875 Z M 0.203125 -3.875 "/></g></g></g><g fill="#5271ff" fill-opacity="1"><g transform="translate(28.312073, 33.624465)"><g><path d="M 0.515625 -2.125 L 0.515625 -3.59375 L 3.9375 -3.59375 L 3.9375 -2.125 Z M 0.515625 -2.125 "/></g></g></g><g fill="#5271ff" fill-opacity="1"><g transform="translate(32.751209, 33.624465)"><g><path d="M 0.859375 0 L 0.859375 -6.96875 L 5.71875 -6.96875 L 5.71875 -5.515625 L 2.53125 -5.515625 L 2.53125 -1.453125 L 5.828125 -1.453125 L 5.828125 0 Z M 1.671875 -2.84375 L 1.671875 -4.234375 L 5.28125 -4.234375 L 5.28125 -2.84375 Z M 1.671875 -2.84375 "/></g></g></g><g fill="#5271ff" fill-opacity="1"><g transform="translate(39.171034, 33.624465)"><g><path d="M 0.703125 0 L 0.703125 -5.28125 L 2.234375 -5.28125 L 2.296875 -4.203125 L 1.953125 -4.09375 C 2.023438 -4.332031 2.15625 -4.546875 2.34375 -4.734375 C 2.539062 -4.929688 2.769531 -5.085938 3.03125 -5.203125 C 3.300781 -5.328125 3.582031 -5.390625 3.875 -5.390625 C 4.269531 -5.390625 4.601562 -5.304688 4.875 -5.140625 C 5.144531 -4.984375 5.347656 -4.742188 5.484375 -4.421875 C 5.617188 -4.097656 5.6875 -3.703125 5.6875 -3.234375 L 5.6875 0 L 4.09375 0 L 4.09375 -3.109375 C 4.09375 -3.328125 4.0625 -3.503906 4 -3.640625 C 3.9375 -3.785156 3.84375 -3.890625 3.71875 -3.953125 C 3.601562 -4.015625 3.457031 -4.046875 3.28125 -4.046875 C 3.144531 -4.046875 3.015625 -4.019531 2.890625 -3.96875 C 2.773438 -3.925781 2.671875 -3.863281 2.578125 -3.78125 C 2.492188 -3.695312 2.425781 -3.601562 2.375 -3.5 C 2.332031 -3.394531 2.3125 -3.273438 2.3125 -3.140625 L 2.3125 0 L 1.5 0 C 1.332031 0 1.179688 0 1.046875 0 C 0.910156 0 0.796875 0 0.703125 0 Z M 0.703125 0 "/></g></g></g><g fill="#5271ff" fill-opacity="1"><g transform="translate(45.501274, 33.624465)"><g><path d="M 2.71875 0.09375 C 2.269531 0.09375 1.863281 -0.0195312 1.5 -0.25 C 1.132812 -0.476562 0.847656 -0.800781 0.640625 -1.21875 C 0.441406 -1.632812 0.34375 -2.109375 0.34375 -2.640625 C 0.34375 -3.171875 0.441406 -3.640625 0.640625 -4.046875 C 0.847656 -4.460938 1.132812 -4.789062 1.5 -5.03125 C 1.863281 -5.269531 2.273438 -5.390625 2.734375 -5.390625 C 2.960938 -5.390625 3.1875 -5.351562 3.40625 -5.28125 C 3.632812 -5.207031 3.835938 -5.109375 4.015625 -4.984375 C 4.191406 -4.859375 4.335938 -4.710938 4.453125 -4.546875 C 4.566406 -4.390625 4.632812 -4.222656 4.65625 -4.046875 L 4.265625 -3.96875 L 4.265625 -7.359375 L 5.875 -7.359375 L 5.875 0 L 4.375 0 L 4.296875 -1.1875 L 4.609375 -1.140625 C 4.597656 -0.972656 4.535156 -0.816406 4.421875 -0.671875 C 4.316406 -0.523438 4.175781 -0.390625 4 -0.265625 C 3.832031 -0.148438 3.632812 -0.0625 3.40625 0 C 3.1875 0.0625 2.957031 0.09375 2.71875 0.09375 Z M 3.109375 -1.21875 C 3.359375 -1.21875 3.570312 -1.273438 3.75 -1.390625 C 3.925781 -1.515625 4.0625 -1.679688 4.15625 -1.890625 C 4.257812 -2.097656 4.3125 -2.347656 4.3125 -2.640625 C 4.3125 -2.929688 4.257812 -3.179688 4.15625 -3.390625 C 4.0625 -3.609375 3.925781 -3.773438 3.75 -3.890625 C 3.570312 -4.003906 3.359375 -4.0625 3.109375 -4.0625 C 2.867188 -4.0625 2.660156 -4.003906 2.484375 -3.890625 C 2.316406 -3.773438 2.179688 -3.609375 2.078125 -3.390625 C 1.984375 -3.179688 1.9375 -2.929688 1.9375 -2.640625 C 1.9375 -2.347656 1.984375 -2.097656 2.078125 -1.890625 C 2.179688 -1.679688 2.316406 -1.515625 2.484375 -1.390625 C 2.660156 -1.273438 2.867188 -1.21875 3.109375 -1.21875 Z M 3.109375 -1.21875 "/></g></g></g><g fill="#5271ff" fill-opacity="1"><g transform="translate(52.010672, 33.624465)"><g/></g></g><g fill="#5271ff" fill-opacity="1"><g transform="translate(55.185743, 33.624465)"><g><path d="M 0.859375 0 L 0.859375 -6.96875 L 3.796875 -6.96875 C 4.304688 -6.96875 4.773438 -6.878906 5.203125 -6.703125 C 5.628906 -6.535156 5.992188 -6.296875 6.296875 -5.984375 C 6.609375 -5.679688 6.84375 -5.316406 7 -4.890625 C 7.164062 -4.460938 7.25 -3.992188 7.25 -3.484375 C 7.25 -2.960938 7.164062 -2.488281 7 -2.0625 C 6.84375 -1.644531 6.609375 -1.28125 6.296875 -0.96875 C 5.992188 -0.65625 5.628906 -0.414062 5.203125 -0.25 C 4.785156 -0.0820312 4.316406 0 3.796875 0 Z M 2.5625 -1.171875 L 2.34375 -1.5 L 3.75 -1.5 C 4.019531 -1.5 4.265625 -1.546875 4.484375 -1.640625 C 4.703125 -1.734375 4.890625 -1.867188 5.046875 -2.046875 C 5.203125 -2.222656 5.320312 -2.429688 5.40625 -2.671875 C 5.488281 -2.910156 5.53125 -3.179688 5.53125 -3.484375 C 5.53125 -3.785156 5.488281 -4.054688 5.40625 -4.296875 C 5.320312 -4.535156 5.203125 -4.742188 5.046875 -4.921875 C 4.890625 -5.097656 4.703125 -5.234375 4.484375 -5.328125 C 4.265625 -5.421875 4.019531 -5.46875 3.75 -5.46875 L 2.3125 -5.46875 L 2.5625 -5.765625 Z M 2.5625 -1.171875 "/></g></g></g><g fill="#5271ff" fill-opacity="1"><g transform="translate(62.869622, 33.624465)"><g><path d="M 3.21875 0.09375 C 2.632812 0.09375 2.125 -0.0195312 1.6875 -0.25 C 1.257812 -0.476562 0.925781 -0.796875 0.6875 -1.203125 C 0.457031 -1.617188 0.34375 -2.085938 0.34375 -2.609375 C 0.34375 -3.015625 0.40625 -3.390625 0.53125 -3.734375 C 0.664062 -4.078125 0.851562 -4.367188 1.09375 -4.609375 C 1.34375 -4.859375 1.628906 -5.050781 1.953125 -5.1875 C 2.285156 -5.320312 2.644531 -5.390625 3.03125 -5.390625 C 3.40625 -5.390625 3.742188 -5.320312 4.046875 -5.1875 C 4.359375 -5.0625 4.625 -4.878906 4.84375 -4.640625 C 5.070312 -4.398438 5.242188 -4.113281 5.359375 -3.78125 C 5.484375 -3.457031 5.539062 -3.109375 5.53125 -2.734375 L 5.53125 -2.296875 L 1.328125 -2.296875 L 1.078125 -3.1875 L 4.21875 -3.1875 L 4.046875 -3.015625 L 4.046875 -3.21875 C 4.035156 -3.382812 3.984375 -3.523438 3.890625 -3.640625 C 3.804688 -3.765625 3.691406 -3.863281 3.546875 -3.9375 C 3.398438 -4.007812 3.238281 -4.046875 3.0625 -4.046875 C 2.800781 -4.046875 2.578125 -3.992188 2.390625 -3.890625 C 2.210938 -3.796875 2.078125 -3.648438 1.984375 -3.453125 C 1.890625 -3.265625 1.84375 -3.023438 1.84375 -2.734375 C 1.84375 -2.453125 1.898438 -2.203125 2.015625 -1.984375 C 2.140625 -1.765625 2.320312 -1.59375 2.5625 -1.46875 C 2.800781 -1.351562 3.082031 -1.296875 3.40625 -1.296875 C 3.625 -1.296875 3.820312 -1.328125 4 -1.390625 C 4.175781 -1.460938 4.367188 -1.578125 4.578125 -1.734375 L 5.328125 -0.671875 C 5.117188 -0.503906 4.894531 -0.359375 4.65625 -0.234375 C 4.425781 -0.117188 4.191406 -0.0351562 3.953125 0.015625 C 3.710938 0.0664062 3.46875 0.09375 3.21875 0.09375 Z M 3.21875 0.09375 "/></g></g></g><g fill="#5271ff" fill-opacity="1"><g transform="translate(68.712157, 33.624465)"><g><path d="M 2.34375 0 L 0.125 -5.28125 L 1.890625 -5.28125 L 3.203125 -1.375 L 2.8125 -1.328125 L 4.171875 -5.28125 L 5.921875 -5.28125 L 3.59375 0 Z M 2.34375 0 "/></g></g></g><g fill="#5271ff" fill-opacity="1"><g transform="translate(74.753752, 33.624465)"><g><path d="M 3.21875 0.09375 C 2.632812 0.09375 2.125 -0.0195312 1.6875 -0.25 C 1.257812 -0.476562 0.925781 -0.796875 0.6875 -1.203125 C 0.457031 -1.617188 0.34375 -2.085938 0.34375 -2.609375 C 0.34375 -3.015625 0.40625 -3.390625 0.53125 -3.734375 C 0.664062 -4.078125 0.851562 -4.367188 1.09375 -4.609375 C 1.34375 -4.859375 1.628906 -5.050781 1.953125 -5.1875 C 2.285156 -5.320312 2.644531 -5.390625 3.03125 -5.390625 C 3.40625 -5.390625 3.742188 -5.320312 4.046875 -5.1875 C 4.359375 -5.0625 4.625 -4.878906 4.84375 -4.640625 C 5.070312 -4.398438 5.242188 -4.113281 5.359375 -3.78125 C 5.484375 -3.457031 5.539062 -3.109375 5.53125 -2.734375 L 5.53125 -2.296875 L 1.328125 -2.296875 L 1.078125 -3.1875 L 4.21875 -3.1875 L 4.046875 -3.015625 L 4.046875 -3.21875 C 4.035156 -3.382812 3.984375 -3.523438 3.890625 -3.640625 C 3.804688 -3.765625 3.691406 -3.863281 3.546875 -3.9375 C 3.398438 -4.007812 3.238281 -4.046875 3.0625 -4.046875 C 2.800781 -4.046875 2.578125 -3.992188 2.390625 -3.890625 C 2.210938 -3.796875 2.078125 -3.648438 1.984375 -3.453125 C 1.890625 -3.265625 1.84375 -3.023438 1.84375 -2.734375 C 1.84375 -2.453125 1.898438 -2.203125 2.015625 -1.984375 C 2.140625 -1.765625 2.320312 -1.59375 2.5625 -1.46875 C 2.800781 -1.351562 3.082031 -1.296875 3.40625 -1.296875 C 3.625 -1.296875 3.820312 -1.328125 4 -1.390625 C 4.175781 -1.460938 4.367188 -1.578125 4.578125 -1.734375 L 5.328125 -0.671875 C 5.117188 -0.503906 4.894531 -0.359375 4.65625 -0.234375 C 4.425781 -0.117188 4.191406 -0.0351562 3.953125 0.015625 C 3.710938 0.0664062 3.46875 0.09375 3.21875 0.09375 Z M 3.21875 0.09375 "/></g></g></g><g fill="#5271ff" fill-opacity="1"><g transform="translate(80.596287, 33.624465)"><g><path d="M 0.703125 0 L 0.703125 -7.359375 L 2.3125 -7.359375 L 2.3125 0 Z M 0.703125 0 "/></g></g></g><g fill="#5271ff" fill-opacity="1"><g transform="translate(83.622068, 33.624465)"><g><path d="M 3.1875 0.09375 C 2.644531 0.09375 2.15625 -0.0195312 1.71875 -0.25 C 1.289062 -0.488281 0.953125 -0.8125 0.703125 -1.21875 C 0.460938 -1.632812 0.34375 -2.109375 0.34375 -2.640625 C 0.34375 -3.171875 0.460938 -3.644531 0.703125 -4.0625 C 0.953125 -4.476562 1.289062 -4.800781 1.71875 -5.03125 C 2.15625 -5.269531 2.644531 -5.390625 3.1875 -5.390625 C 3.738281 -5.390625 4.226562 -5.269531 4.65625 -5.03125 C 5.082031 -4.800781 5.414062 -4.476562 5.65625 -4.0625 C 5.90625 -3.644531 6.03125 -3.171875 6.03125 -2.640625 C 6.03125 -2.109375 5.90625 -1.632812 5.65625 -1.21875 C 5.414062 -0.8125 5.082031 -0.488281 4.65625 -0.25 C 4.226562 -0.0195312 3.738281 0.09375 3.1875 0.09375 Z M 3.1875 -1.28125 C 3.425781 -1.28125 3.632812 -1.335938 3.8125 -1.453125 C 4 -1.566406 4.144531 -1.726562 4.25 -1.9375 C 4.351562 -2.144531 4.40625 -2.378906 4.40625 -2.640625 C 4.40625 -2.910156 4.351562 -3.148438 4.25 -3.359375 C 4.144531 -3.566406 4 -3.726562 3.8125 -3.84375 C 3.632812 -3.957031 3.425781 -4.015625 3.1875 -4.015625 C 2.957031 -4.015625 2.75 -3.953125 2.5625 -3.828125 C 2.375 -3.710938 2.222656 -3.550781 2.109375 -3.34375 C 2.003906 -3.144531 1.953125 -2.910156 1.953125 -2.640625 C 1.953125 -2.378906 2.003906 -2.144531 2.109375 -1.9375 C 2.222656 -1.726562 2.375 -1.566406 2.5625 -1.453125 C 2.75 -1.335938 2.957031 -1.28125 3.1875 -1.28125 Z M 3.1875 -1.28125 "/></g></g></g><g fill="#5271ff" fill-opacity="1"><g transform="translate(89.992122, 33.624465)"><g><path d="M 0.703125 2.1875 L 0.703125 -5.28125 L 2.234375 -5.28125 L 2.296875 -4.125 L 1.984375 -4.203125 C 2.023438 -4.421875 2.132812 -4.617188 2.3125 -4.796875 C 2.5 -4.972656 2.726562 -5.113281 3 -5.21875 C 3.269531 -5.332031 3.5625 -5.390625 3.875 -5.390625 C 4.320312 -5.390625 4.722656 -5.269531 5.078125 -5.03125 C 5.429688 -4.800781 5.707031 -4.476562 5.90625 -4.0625 C 6.101562 -3.644531 6.203125 -3.171875 6.203125 -2.640625 C 6.203125 -2.109375 6.101562 -1.632812 5.90625 -1.21875 C 5.707031 -0.8125 5.425781 -0.488281 5.0625 -0.25 C 4.707031 -0.0195312 4.304688 0.09375 3.859375 0.09375 C 3.554688 0.09375 3.269531 0.0351562 3 -0.078125 C 2.726562 -0.203125 2.5 -0.351562 2.3125 -0.53125 C 2.125 -0.71875 2.003906 -0.921875 1.953125 -1.140625 L 2.3125 -1.296875 L 2.3125 2.1875 Z M 3.46875 -1.265625 C 3.707031 -1.265625 3.914062 -1.320312 4.09375 -1.4375 C 4.269531 -1.550781 4.40625 -1.710938 4.5 -1.921875 C 4.59375 -2.128906 4.640625 -2.367188 4.640625 -2.640625 C 4.640625 -2.921875 4.59375 -3.164062 4.5 -3.375 C 4.40625 -3.582031 4.269531 -3.742188 4.09375 -3.859375 C 3.914062 -3.972656 3.707031 -4.03125 3.46875 -4.03125 C 3.226562 -4.03125 3.015625 -3.972656 2.828125 -3.859375 C 2.648438 -3.742188 2.507812 -3.582031 2.40625 -3.375 C 2.3125 -3.164062 2.265625 -2.921875 2.265625 -2.640625 C 2.265625 -2.367188 2.3125 -2.128906 2.40625 -1.921875 C 2.507812 -1.710938 2.648438 -1.550781 2.828125 -1.4375 C 3.015625 -1.320312 3.226562 -1.265625 3.46875 -1.265625 Z M 3.46875 -1.265625 "/></g></g></g><g fill="#5271ff" fill-opacity="1"><g transform="translate(96.541335, 33.624465)"><g><path d="M 3.21875 0.09375 C 2.632812 0.09375 2.125 -0.0195312 1.6875 -0.25 C 1.257812 -0.476562 0.925781 -0.796875 0.6875 -1.203125 C 0.457031 -1.617188 0.34375 -2.085938 0.34375 -2.609375 C 0.34375 -3.015625 0.40625 -3.390625 0.53125 -3.734375 C 0.664062 -4.078125 0.851562 -4.367188 1.09375 -4.609375 C 1.34375 -4.859375 1.628906 -5.050781 1.953125 -5.1875 C 2.285156 -5.320312 2.644531 -5.390625 3.03125 -5.390625 C 3.40625 -5.390625 3.742188 -5.320312 4.046875 -5.1875 C 4.359375 -5.0625 4.625 -4.878906 4.84375 -4.640625 C 5.070312 -4.398438 5.242188 -4.113281 5.359375 -3.78125 C 5.484375 -3.457031 5.539062 -3.109375 5.53125 -2.734375 L 5.53125 -2.296875 L 1.328125 -2.296875 L 1.078125 -3.1875 L 4.21875 -3.1875 L 4.046875 -3.015625 L 4.046875 -3.21875 C 4.035156 -3.382812 3.984375 -3.523438 3.890625 -3.640625 C 3.804688 -3.765625 3.691406 -3.863281 3.546875 -3.9375 C 3.398438 -4.007812 3.238281 -4.046875 3.0625 -4.046875 C 2.800781 -4.046875 2.578125 -3.992188 2.390625 -3.890625 C 2.210938 -3.796875 2.078125 -3.648438 1.984375 -3.453125 C 1.890625 -3.265625 1.84375 -3.023438 1.84375 -2.734375 C 1.84375 -2.453125 1.898438 -2.203125 2.015625 -1.984375 C 2.140625 -1.765625 2.320312 -1.59375 2.5625 -1.46875 C 2.800781 -1.351562 3.082031 -1.296875 3.40625 -1.296875 C 3.625 -1.296875 3.820312 -1.328125 4 -1.390625 C 4.175781 -1.460938 4.367188 -1.578125 4.578125 -1.734375 L 5.328125 -0.671875 C 5.117188 -0.503906 4.894531 -0.359375 4.65625 -0.234375 C 4.425781 -0.117188 4.191406 -0.0351562 3.953125 0.015625 C 3.710938 0.0664062 3.46875 0.09375 3.21875 0.09375 Z M 3.21875 0.09375 "/></g></g></g><g fill="#5271ff" fill-opacity="1"><g transform="translate(102.38387, 33.624465)"><g><path d="M 0.703125 0 L 0.703125 -5.28125 L 2.234375 -5.28125 L 2.296875 -3.5625 L 2 -3.90625 C 2.082031 -4.175781 2.210938 -4.425781 2.390625 -4.65625 C 2.578125 -4.882812 2.789062 -5.0625 3.03125 -5.1875 C 3.28125 -5.320312 3.546875 -5.390625 3.828125 -5.390625 C 3.941406 -5.390625 4.050781 -5.378906 4.15625 -5.359375 C 4.257812 -5.347656 4.347656 -5.328125 4.421875 -5.296875 L 4 -3.53125 C 3.925781 -3.570312 3.828125 -3.609375 3.703125 -3.640625 C 3.578125 -3.671875 3.453125 -3.6875 3.328125 -3.6875 C 3.179688 -3.6875 3.046875 -3.660156 2.921875 -3.609375 C 2.796875 -3.554688 2.6875 -3.484375 2.59375 -3.390625 C 2.507812 -3.296875 2.441406 -3.1875 2.390625 -3.0625 C 2.335938 -2.9375 2.3125 -2.796875 2.3125 -2.640625 L 2.3125 0 Z M 0.703125 0 "/></g></g></g></svg>