<svg xmlns="http://www.w3.org/2000/svg" xmlns:xlink="http://www.w3.org/1999/xlink" width="50" zoomAndPan="magnify" viewBox="0 0 37.5 37.499999" height="50" preserveAspectRatio="xMidYMid meet" version="1.0"><defs><clipPath id="6ce2955d07"><path d="M 0 0 L 37.007812 0 L 37.007812 37.007812 L 0 37.007812 Z M 0 0 " clip-rule="nonzero"/></clipPath></defs><g clip-path="url(#6ce2955d07)"><path fill="#5271ff" d="M 30.699219 12.875 L 29.980469 12.875 C 29.886719 12.554688 29.757812 12.246094 29.597656 11.953125 L 30.109375 11.4375 C 30.324219 11.222656 30.320312 10.867188 30.105469 10.652344 L 29.007812 9.554688 C 28.792969 9.335938 28.4375 9.335938 28.222656 9.554688 L 27.710938 10.066406 C 27.414062 9.90625 27.105469 9.777344 26.785156 9.683594 L 26.785156 8.960938 C 26.785156 8.652344 26.535156 8.402344 26.226562 8.402344 L 24.675781 8.402344 C 24.371094 8.402344 24.117188 8.652344 24.117188 8.960938 L 24.117188 9.683594 C 23.796875 9.777344 23.488281 9.90625 23.191406 10.066406 L 22.683594 9.554688 C 22.464844 9.335938 22.109375 9.339844 21.894531 9.554688 L 20.796875 10.652344 C 20.582031 10.867188 20.578125 11.222656 20.796875 11.441406 L 21.308594 11.949219 C 21.148438 12.242188 21.015625 12.554688 20.921875 12.875 L 20.203125 12.875 C 19.894531 12.875 19.644531 13.125 19.644531 13.433594 L 19.644531 14.984375 C 19.644531 15.292969 19.894531 15.542969 20.203125 15.542969 L 20.921875 15.542969 C 21.019531 15.863281 21.148438 16.175781 21.308594 16.46875 L 20.796875 16.976562 C 20.582031 17.191406 20.578125 17.546875 20.796875 17.769531 L 21.894531 18.863281 C 22.109375 19.082031 22.464844 19.082031 22.683594 18.863281 L 23.191406 18.355469 C 23.484375 18.515625 23.796875 18.644531 24.117188 18.738281 L 24.117188 19.457031 C 24.117188 19.765625 24.367188 20.015625 24.675781 20.015625 L 26.226562 20.015625 C 26.53125 20.015625 26.785156 19.765625 26.785156 19.457031 L 26.785156 18.738281 C 27.105469 18.644531 27.417969 18.515625 27.710938 18.355469 L 28.21875 18.863281 C 28.4375 19.082031 28.789062 19.082031 29.007812 18.863281 L 30.109375 17.765625 C 30.320312 17.546875 30.320312 17.195312 30.105469 16.976562 L 29.59375 16.46875 C 29.753906 16.171875 29.882812 15.863281 29.976562 15.542969 L 30.699219 15.542969 C 31.007812 15.542969 31.257812 15.292969 31.257812 14.984375 L 31.257812 13.433594 C 31.257812 13.125 31.007812 12.875 30.699219 12.875 Z M 30.445312 14.730469 L 29.664062 14.730469 C 29.476562 14.730469 29.308594 14.863281 29.269531 15.046875 C 29.167969 15.496094 28.992188 15.921875 28.742188 16.3125 C 28.640625 16.472656 28.664062 16.683594 28.796875 16.820312 L 29.351562 17.371094 L 28.617188 18.105469 L 28.0625 17.554688 C 27.925781 17.417969 27.71875 17.398438 27.554688 17.5 C 27.167969 17.75 26.742188 17.925781 26.292969 18.023438 C 26.105469 18.066406 25.972656 18.230469 25.972656 18.421875 L 25.972656 19.203125 L 24.933594 19.203125 L 24.933594 18.421875 C 24.933594 18.230469 24.800781 18.066406 24.613281 18.023438 C 24.164062 17.925781 23.738281 17.75 23.351562 17.5 C 23.191406 17.398438 22.976562 17.417969 22.84375 17.554688 L 22.289062 18.105469 L 21.554688 17.371094 L 22.109375 16.820312 C 22.242188 16.683594 22.265625 16.472656 22.164062 16.3125 C 21.914062 15.925781 21.738281 15.5 21.636719 15.046875 C 21.597656 14.863281 21.433594 14.730469 21.242188 14.730469 L 20.460938 14.730469 L 20.460938 13.691406 L 21.242188 13.691406 C 21.429688 13.691406 21.597656 13.558594 21.636719 13.371094 C 21.738281 12.917969 21.914062 12.496094 22.164062 12.109375 C 22.265625 11.945312 22.242188 11.734375 22.109375 11.601562 L 21.554688 11.046875 L 22.289062 10.3125 L 22.84375 10.863281 C 22.976562 11 23.1875 11.023438 23.347656 10.917969 C 23.742188 10.667969 24.167969 10.492188 24.613281 10.398438 C 24.800781 10.355469 24.933594 10.191406 24.933594 10 L 24.933594 9.21875 L 25.972656 9.21875 L 25.972656 10 C 25.972656 10.191406 26.105469 10.355469 26.292969 10.398438 C 26.742188 10.492188 27.164062 10.667969 27.558594 10.917969 C 27.71875 11.023438 27.925781 11 28.0625 10.863281 L 28.617188 10.3125 L 29.351562 11.046875 L 28.800781 11.601562 C 28.664062 11.734375 28.640625 11.945312 28.746094 12.105469 C 28.996094 12.496094 29.171875 12.921875 29.269531 13.371094 C 29.308594 13.558594 29.476562 13.691406 29.667969 13.691406 L 30.449219 13.691406 L 30.449219 14.730469 Z M 25.453125 11.195312 C 23.792969 11.195312 22.441406 12.546875 22.441406 14.210938 C 22.441406 15.871094 23.792969 17.222656 25.453125 17.222656 C 27.113281 17.222656 28.46875 15.871094 28.46875 14.210938 C 28.464844 12.546875 27.113281 11.195312 25.453125 11.195312 Z M 25.453125 16.410156 C 24.238281 16.410156 23.253906 15.421875 23.253906 14.210938 C 23.253906 12.996094 24.238281 12.011719 25.453125 12.011719 C 26.667969 12.011719 27.652344 12.996094 27.652344 14.210938 C 27.652344 15.421875 26.667969 16.410156 25.453125 16.410156 Z M 16.109375 27.085938 L 15.652344 27.085938 L 15.652344 25.789062 C 15.652344 25.398438 15.335938 25.078125 14.949219 25.078125 L 10.90625 25.078125 L 10.140625 24.308594 C 10.007812 24.175781 9.828125 24.101562 9.644531 24.101562 L 6.8125 24.101562 C 6.421875 24.101562 6.105469 24.421875 6.105469 24.8125 L 6.105469 27.085938 L 5.648438 27.085938 C 5.414062 27.085938 5.199219 27.191406 5.054688 27.378906 C 4.914062 27.566406 4.867188 27.800781 4.925781 28.027344 L 6.273438 32.941406 C 6.367188 33.261719 6.660156 33.488281 6.996094 33.488281 L 14.761719 33.488281 C 15.097656 33.488281 15.390625 33.261719 15.484375 32.9375 L 16.828125 28.027344 C 16.890625 27.800781 16.84375 27.5625 16.703125 27.378906 C 16.558594 27.191406 16.34375 27.085938 16.109375 27.085938 Z M 6.917969 24.914062 L 9.597656 24.914062 L 10.367188 25.691406 C 10.5 25.820312 10.675781 25.890625 10.859375 25.890625 L 14.839844 25.890625 L 14.839844 27.085938 L 6.917969 27.085938 Z M 14.710938 32.675781 L 7.046875 32.675781 L 5.734375 27.898438 L 16.023438 27.898438 Z M 7.496094 30.285156 C 7.496094 30.15625 7.558594 30.03125 7.667969 29.953125 L 9.113281 28.921875 C 9.296875 28.789062 9.550781 28.832031 9.683594 29.015625 C 9.8125 29.199219 9.769531 29.453125 9.589844 29.582031 L 8.601562 30.285156 L 9.589844 30.992188 C 9.769531 31.121094 9.8125 31.375 9.683594 31.558594 C 9.601562 31.667969 9.480469 31.726562 9.351562 31.726562 C 9.269531 31.726562 9.1875 31.703125 9.113281 31.652344 L 7.667969 30.617188 C 7.558594 30.539062 7.496094 30.417969 7.496094 30.285156 Z M 12.347656 30.988281 L 13.332031 30.285156 L 12.347656 29.582031 C 12.164062 29.453125 12.125 29.199219 12.253906 29.015625 C 12.386719 28.832031 12.640625 28.789062 12.820312 28.917969 L 14.269531 29.953125 C 14.378906 30.03125 14.441406 30.152344 14.441406 30.285156 C 14.441406 30.417969 14.378906 30.539062 14.269531 30.617188 L 12.820312 31.652344 C 12.75 31.703125 12.667969 31.726562 12.585938 31.726562 C 12.457031 31.726562 12.335938 31.667969 12.253906 31.554688 C 12.125 31.375 12.164062 31.121094 12.347656 30.988281 Z M 10.066406 31.132812 L 11.148438 29.0625 C 11.253906 28.863281 11.5 28.785156 11.699219 28.890625 C 11.898438 28.996094 11.972656 29.242188 11.871094 29.441406 L 10.785156 31.507812 C 10.714844 31.648438 10.574219 31.726562 10.425781 31.726562 C 10.363281 31.726562 10.296875 31.710938 10.238281 31.679688 C 10.039062 31.578125 9.960938 31.332031 10.066406 31.132812 Z M 31.207031 24.574219 L 31.226562 24.5625 L 30.839844 24.226562 C 29.707031 23.253906 28.261719 22.71875 26.769531 22.71875 C 26.394531 22.71875 26.023438 22.753906 25.660156 22.820312 C 24.570312 23.015625 23.546875 23.5 22.699219 24.226562 C 22.699219 24.226562 22.695312 24.230469 22.695312 24.230469 L 22.3125 24.5625 L 22.332031 24.574219 C 21.699219 25.214844 21.207031 25.980469 20.898438 26.824219 C 20.652344 27.507812 20.523438 28.230469 20.523438 28.964844 C 20.523438 29.699219 20.652344 30.421875 20.898438 31.105469 C 21.207031 31.949219 21.699219 32.714844 22.332031 33.355469 L 22.3125 33.371094 L 22.699219 33.703125 C 23.828125 34.675781 25.273438 35.210938 26.769531 35.210938 C 27.886719 35.210938 28.980469 34.910156 29.933594 34.347656 C 30.25 34.160156 30.554688 33.945312 30.835938 33.703125 C 30.839844 33.703125 30.839844 33.699219 30.84375 33.699219 L 31.222656 33.371094 L 31.207031 33.355469 C 31.839844 32.71875 32.328125 31.949219 32.636719 31.105469 C 32.886719 30.421875 33.015625 29.699219 33.015625 28.964844 C 33.015625 28.230469 32.886719 27.511719 32.636719 26.824219 C 32.328125 25.980469 31.839844 25.214844 31.207031 24.574219 Z M 31.773438 26.882812 L 30.03125 26.882812 C 29.9375 26.382812 29.8125 25.910156 29.652344 25.476562 C 29.972656 25.355469 30.261719 25.214844 30.523438 25.054688 C 31.0625 25.574219 31.488281 26.195312 31.773438 26.882812 Z M 29 24.015625 C 29.039062 24.035156 29.082031 24.050781 29.121094 24.070312 C 29.257812 24.136719 29.390625 24.203125 29.519531 24.28125 C 29.53125 24.289062 29.546875 24.300781 29.5625 24.308594 C 29.660156 24.367188 29.761719 24.433594 29.855469 24.5 C 29.691406 24.582031 29.511719 24.660156 29.324219 24.726562 C 29.179688 24.441406 29.023438 24.183594 28.851562 23.953125 C 28.898438 23.972656 28.949219 23.992188 29 24.015625 Z M 24.203125 30.234375 C 24.152344 29.824219 24.125 29.402344 24.125 28.964844 C 24.125 28.527344 24.152344 28.105469 24.203125 27.695312 L 29.332031 27.695312 C 29.382812 28.105469 29.414062 28.527344 29.414062 28.964844 C 29.414062 29.402344 29.382812 29.824219 29.332031 30.234375 Z M 29.203125 31.046875 C 29.117188 31.464844 29 31.855469 28.867188 32.214844 C 27.554688 31.890625 25.980469 31.890625 24.667969 32.214844 C 24.535156 31.855469 24.421875 31.464844 24.335938 31.050781 L 29.203125 31.050781 Z M 24.332031 26.882812 C 24.421875 26.464844 24.535156 26.078125 24.667969 25.71875 C 25.324219 25.878906 26.039062 25.96875 26.765625 25.96875 C 27.496094 25.96875 28.210938 25.878906 28.867188 25.71875 C 29 26.074219 29.113281 26.464844 29.203125 26.882812 Z M 26.769531 23.535156 C 27.4375 23.535156 28.058594 24.082031 28.53125 24.964844 C 27.421875 25.210938 26.113281 25.210938 25.003906 24.964844 C 25.476562 24.082031 26.097656 23.535156 26.769531 23.535156 Z M 23.972656 24.3125 C 23.988281 24.300781 24.003906 24.289062 24.019531 24.28125 C 24.148438 24.207031 24.28125 24.136719 24.414062 24.070312 C 24.457031 24.050781 24.5 24.035156 24.542969 24.015625 C 24.589844 23.992188 24.640625 23.972656 24.6875 23.953125 C 24.515625 24.183594 24.355469 24.445312 24.210938 24.730469 C 24.023438 24.660156 23.84375 24.582031 23.683594 24.5 C 23.777344 24.433594 23.871094 24.371094 23.972656 24.3125 Z M 23.015625 25.054688 C 23.273438 25.214844 23.5625 25.355469 23.882812 25.476562 C 23.726562 25.910156 23.597656 26.382812 23.503906 26.882812 L 21.761719 26.882812 C 22.046875 26.195312 22.472656 25.574219 23.015625 25.054688 Z M 21.335938 28.964844 C 21.335938 28.535156 21.390625 28.109375 21.492188 27.695312 L 23.378906 27.695312 C 23.332031 28.105469 23.308594 28.527344 23.308594 28.964844 C 23.308594 29.402344 23.332031 29.824219 23.378906 30.234375 L 21.492188 30.234375 C 21.390625 29.820312 21.335938 29.394531 21.335938 28.964844 Z M 21.761719 31.046875 L 23.503906 31.046875 C 23.597656 31.550781 23.726562 32.023438 23.882812 32.453125 C 23.5625 32.574219 23.273438 32.714844 23.015625 32.875 C 22.472656 32.355469 22.046875 31.734375 21.761719 31.046875 Z M 24.539062 33.914062 C 24.496094 33.894531 24.457031 33.878906 24.417969 33.859375 C 24.28125 33.792969 24.148438 33.722656 24.019531 33.648438 C 24.007812 33.644531 24 33.636719 23.988281 33.628906 C 23.882812 33.566406 23.78125 33.5 23.679688 33.429688 C 23.84375 33.347656 24.023438 33.273438 24.210938 33.203125 C 24.355469 33.484375 24.515625 33.746094 24.6875 33.976562 C 24.636719 33.957031 24.585938 33.933594 24.539062 33.914062 Z M 26.769531 34.394531 C 26.097656 34.394531 25.476562 33.847656 25.007812 32.96875 C 26.113281 32.71875 27.421875 32.71875 28.53125 32.96875 C 28.058594 33.847656 27.4375 34.394531 26.769531 34.394531 Z M 29.574219 33.613281 C 29.554688 33.625 29.535156 33.636719 29.515625 33.648438 C 29.386719 33.726562 29.253906 33.792969 29.121094 33.859375 C 29.078125 33.878906 29.035156 33.898438 28.992188 33.917969 C 28.945312 33.9375 28.898438 33.957031 28.851562 33.976562 C 29.023438 33.746094 29.179688 33.488281 29.324219 33.203125 C 29.511719 33.273438 29.691406 33.347656 29.855469 33.429688 C 29.761719 33.492188 29.667969 33.554688 29.574219 33.613281 Z M 30.523438 32.875 C 30.261719 32.714844 29.972656 32.574219 29.652344 32.453125 C 29.8125 32.023438 29.9375 31.550781 30.03125 31.046875 L 31.773438 31.046875 C 31.488281 31.734375 31.0625 32.355469 30.523438 32.875 Z M 32.046875 30.234375 L 30.15625 30.234375 C 30.203125 29.824219 30.226562 29.402344 30.226562 28.964844 C 30.226562 28.527344 30.203125 28.105469 30.15625 27.695312 L 32.046875 27.695312 C 32.144531 28.109375 32.199219 28.535156 32.199219 28.964844 C 32.199219 29.394531 32.144531 29.820312 32.046875 30.234375 Z M 35.433594 0 L 1.574219 0 C 0.703125 0 0 0.707031 0 1.574219 L 0 35.433594 C 0 36.296875 0.703125 37.007812 1.574219 37.007812 L 35.433594 37.007812 C 36.296875 37.007812 37.007812 36.296875 37.007812 35.433594 L 37.007812 1.574219 C 37.007812 0.707031 36.296875 0 35.433594 0 Z M 36.191406 35.433594 C 36.191406 35.851562 35.851562 36.191406 35.433594 36.191406 L 1.574219 36.191406 C 1.152344 36.191406 0.8125 35.851562 0.8125 35.433594 L 0.8125 4.761719 L 36.191406 4.761719 Z M 36.191406 3.945312 L 0.8125 3.945312 L 0.8125 1.574219 C 0.8125 1.15625 1.152344 0.8125 1.574219 0.8125 L 35.433594 0.8125 C 35.851562 0.8125 36.191406 1.15625 36.191406 1.574219 Z M 33.917969 2.378906 C 33.917969 2.796875 33.582031 3.132812 33.164062 3.132812 C 32.75 3.132812 32.414062 2.796875 32.414062 2.378906 C 32.414062 1.964844 32.75 1.628906 33.164062 1.628906 C 33.582031 1.628906 33.917969 1.964844 33.917969 2.378906 Z M 30.71875 2.378906 C 30.71875 2.796875 30.382812 3.132812 29.96875 3.132812 C 29.546875 3.132812 29.210938 2.796875 29.210938 2.378906 C 29.210938 1.964844 29.546875 1.628906 29.96875 1.628906 C 30.382812 1.628906 30.71875 1.964844 30.71875 2.378906 Z M 27.523438 2.378906 C 27.523438 2.796875 27.183594 3.132812 26.765625 3.132812 C 26.351562 3.132812 26.011719 2.796875 26.011719 2.378906 C 26.011719 1.964844 26.351562 1.628906 26.765625 1.628906 C 27.183594 1.628906 27.523438 1.964844 27.523438 2.378906 Z M 3.523438 21.582031 L 15.011719 21.582031 C 15.40625 21.582031 15.722656 21.261719 15.722656 20.871094 L 15.722656 7.550781 C 15.722656 7.15625 15.40625 6.835938 15.011719 6.835938 L 3.523438 6.835938 C 3.132812 6.835938 2.8125 7.15625 2.8125 7.550781 L 2.8125 20.867188 C 2.8125 21.261719 3.132812 21.582031 3.523438 21.582031 Z M 3.625 7.652344 L 14.910156 7.652344 L 14.910156 20.765625 L 3.625 20.765625 Z M 3.523438 35.175781 L 18.414062 35.175781 C 18.804688 35.175781 19.125 34.855469 19.125 34.464844 L 19.125 23.125 C 19.125 22.730469 18.804688 22.414062 18.414062 22.414062 L 3.523438 22.414062 C 3.132812 22.414062 2.8125 22.730469 2.8125 23.125 L 2.8125 34.464844 C 2.8125 34.855469 3.132812 35.175781 3.523438 35.175781 Z M 3.625 23.226562 L 18.3125 23.226562 L 18.3125 34.363281 L 3.625 34.363281 Z M 17.425781 21.582031 L 33.480469 21.582031 C 33.871094 21.582031 34.191406 21.261719 34.191406 20.871094 L 34.191406 7.550781 C 34.191406 7.15625 33.871094 6.835938 33.480469 6.835938 L 17.425781 6.835938 C 17.035156 6.835938 16.714844 7.15625 16.714844 7.550781 L 16.714844 20.867188 C 16.714844 21.261719 17.035156 21.582031 17.425781 21.582031 Z M 17.527344 7.652344 L 33.378906 7.652344 L 33.378906 20.765625 L 17.527344 20.765625 Z M 5.046875 11.1875 L 9.644531 11.1875 C 9.976562 11.1875 10.25 10.914062 10.25 10.582031 L 10.25 9.1875 C 10.25 8.855469 9.976562 8.582031 9.644531 8.582031 L 5.046875 8.582031 C 4.714844 8.582031 4.441406 8.855469 4.441406 9.1875 L 4.441406 10.582031 C 4.441406 10.914062 4.714844 11.1875 5.046875 11.1875 Z M 5.253906 9.394531 L 9.4375 9.394531 L 9.4375 10.375 L 5.253906 10.375 Z M 4.441406 13.386719 C 4.441406 13.160156 4.621094 12.980469 4.847656 12.980469 L 10.171875 12.980469 C 10.398438 12.980469 10.578125 13.160156 10.578125 13.386719 C 10.578125 13.613281 10.398438 13.792969 10.171875 13.792969 L 4.847656 13.792969 C 4.621094 13.792969 4.441406 13.609375 4.441406 13.386719 Z M 12.121094 15.945312 C 12.121094 16.167969 11.9375 16.351562 11.714844 16.351562 L 4.847656 16.351562 C 4.621094 16.351562 4.441406 16.167969 4.441406 15.945312 C 4.441406 15.71875 4.621094 15.539062 4.847656 15.539062 L 11.714844 15.539062 C 11.9375 15.539062 12.121094 15.71875 12.121094 15.945312 Z M 12.121094 18.503906 C 12.121094 18.726562 11.9375 18.910156 11.714844 18.910156 L 4.847656 18.910156 C 4.621094 18.910156 4.441406 18.726562 4.441406 18.503906 C 4.441406 18.277344 4.621094 18.097656 4.847656 18.097656 L 11.714844 18.097656 C 11.9375 18.097656 12.121094 18.277344 12.121094 18.503906 Z M 12.121094 18.503906 " fill-opacity="1" fill-rule="nonzero"/></g></svg>