<svg xmlns="http://www.w3.org/2000/svg" xmlns:xlink="http://www.w3.org/1999/xlink" width="150" zoomAndPan="magnify" viewBox="0 0 112.5 30.000001" height="40" preserveAspectRatio="xMidYMid meet" version="1.0"><defs><g/><clipPath id="a7dcf57e2c"><path d="M 88 3 L 110.445312 3 L 110.445312 27 L 88 27 Z M 88 3 " clip-rule="nonzero"/></clipPath><clipPath id="ad9b698dec"><path d="M 88 2 L 110.445312 2 L 110.445312 27 L 88 27 Z M 88 2 " clip-rule="nonzero"/></clipPath></defs><g clip-path="url(#a7dcf57e2c)"><path fill="#5271ff" d="M 105.300781 4.011719 C 105.429688 4.140625 105.542969 4.246094 105.550781 4.246094 C 105.554688 4.246094 105.457031 4.140625 105.328125 4.011719 C 105.199219 3.882812 105.085938 3.773438 105.082031 3.773438 C 105.074219 3.773438 105.175781 3.882812 105.300781 4.011719 M 106.6875 7.210938 C 106.6875 7.285156 106.695312 7.34375 106.699219 7.339844 C 106.71875 7.316406 106.730469 7.070312 106.710938 7.070312 C 106.699219 7.070312 106.6875 7.132812 106.6875 7.210938 M 104.324219 9.171875 C 104.324219 10.242188 104.328125 10.679688 104.332031 10.144531 C 104.335938 9.609375 104.335938 8.734375 104.332031 8.203125 C 104.328125 7.667969 104.324219 8.105469 104.324219 9.171875 M 92.1875 9.039062 C 92.1875 9.117188 92.191406 9.148438 92.195312 9.105469 C 92.203125 9.058594 92.203125 8.992188 92.195312 8.957031 C 92.191406 8.917969 92.1875 8.957031 92.1875 9.039062 M 107.417969 12.714844 C 107.5 12.796875 107.574219 12.863281 107.578125 12.863281 C 107.585938 12.863281 107.523438 12.796875 107.445312 12.714844 C 107.363281 12.632812 107.292969 12.566406 107.285156 12.566406 C 107.277344 12.566406 107.339844 12.632812 107.417969 12.714844 M 88.8125 13.023438 C 88.710938 13.125 88.632812 13.210938 88.640625 13.210938 C 88.644531 13.210938 88.734375 13.125 88.835938 13.023438 C 88.9375 12.921875 89.015625 12.839844 89.007812 12.839844 C 89 12.839844 88.914062 12.921875 88.8125 13.023438 M 88.050781 14.632812 C 88.050781 14.742188 88.054688 14.785156 88.0625 14.726562 C 88.066406 14.667969 88.066406 14.578125 88.0625 14.527344 C 88.054688 14.476562 88.050781 14.523438 88.050781 14.632812 M 110.304688 14.613281 C 110.304688 14.675781 110.3125 14.722656 110.320312 14.714844 C 110.34375 14.691406 110.347656 14.496094 110.324219 14.496094 C 110.3125 14.496094 110.304688 14.550781 110.304688 14.613281 M 107.40625 16.519531 L 107.269531 16.664062 L 107.414062 16.527344 C 107.546875 16.402344 107.566406 16.378906 107.550781 16.378906 C 107.546875 16.378906 107.480469 16.441406 107.40625 16.519531 M 104.324219 20.042969 C 104.324219 21.113281 104.328125 21.550781 104.332031 21.015625 C 104.335938 20.480469 104.335938 19.605469 104.332031 19.070312 C 104.328125 18.539062 104.324219 18.976562 104.324219 20.042969 M 106.6875 22.011719 C 106.6875 22.09375 106.695312 22.148438 106.707031 22.140625 C 106.722656 22.121094 106.71875 21.898438 106.699219 21.878906 C 106.695312 21.871094 106.6875 21.933594 106.6875 22.011719 M 105.300781 25.214844 L 105.066406 25.453125 L 105.308594 25.21875 C 105.441406 25.089844 105.550781 24.980469 105.550781 24.976562 C 105.550781 24.960938 105.519531 24.988281 105.300781 25.214844 M 97.519531 26.625 C 97.578125 26.628906 97.671875 26.628906 97.730469 26.625 C 97.789062 26.617188 97.742188 26.613281 97.625 26.613281 C 97.511719 26.613281 97.464844 26.617188 97.519531 26.625 " fill-opacity="1" fill-rule="evenodd"/></g><g clip-path="url(#ad9b698dec)"><path fill="#5271ff" d="M 97.175781 2.464844 C 96.460938 2.527344 95.867188 2.886719 95.503906 3.476562 C 95.222656 3.9375 95.179688 3.960938 94.667969 3.980469 C 94.363281 3.992188 94.253906 4.003906 94.074219 4.058594 C 93.617188 4.191406 93.179688 4.476562 92.902344 4.816406 C 92.71875 5.042969 92.542969 5.402344 92.476562 5.695312 C 92.40625 5.992188 92.417969 6.273438 92.511719 6.621094 C 92.699219 7.308594 92.707031 7.347656 92.675781 7.460938 C 92.609375 7.703125 92.332031 7.859375 92.019531 7.824219 C 91.9375 7.816406 91.757812 7.820312 91.621094 7.835938 C 90.96875 7.90625 90.339844 8.28125 89.992188 8.8125 C 89.820312 9.070312 89.734375 9.289062 89.675781 9.628906 C 89.621094 9.933594 89.570312 10.070312 89.453125 10.214844 C 89.382812 10.300781 89.378906 10.328125 89.390625 10.417969 C 89.441406 10.738281 89.640625 11.113281 89.917969 11.40625 C 90.28125 11.785156 90.574219 11.914062 91.25 11.996094 C 91.484375 12.023438 91.644531 12.082031 91.714844 12.160156 C 91.738281 12.1875 91.789062 12.308594 91.832031 12.429688 C 92.101562 13.1875 92.566406 13.65625 93.234375 13.835938 C 93.421875 13.886719 93.597656 13.894531 94.097656 13.867188 C 94.53125 13.84375 94.582031 13.855469 94.695312 13.980469 C 94.972656 14.285156 94.851562 14.792969 94.480469 14.894531 C 94.074219 15.003906 93.511719 14.996094 93.03125 14.878906 C 92.183594 14.667969 91.371094 14.023438 90.972656 13.242188 L 90.855469 13.015625 L 90.742188 13 C 90.59375 12.976562 90.210938 12.851562 90.007812 12.761719 C 89.699219 12.621094 89.378906 12.40625 89.113281 12.160156 C 89.042969 12.09375 88.984375 12.050781 88.984375 12.0625 C 88.984375 12.078125 89.007812 12.152344 89.035156 12.230469 C 89.101562 12.429688 89.121094 12.59375 89.082031 12.703125 C 89.0625 12.765625 88.964844 12.886719 88.800781 13.058594 C 88.660156 13.203125 88.503906 13.382812 88.445312 13.457031 C 88.027344 14.015625 87.949219 14.84375 88.25 15.5 C 88.488281 16.011719 88.828125 16.335938 89.410156 16.609375 C 89.703125 16.746094 89.8125 16.828125 89.882812 16.957031 C 89.964844 17.121094 89.953125 17.226562 89.816406 17.519531 C 89.609375 17.96875 89.554688 18.148438 89.539062 18.449219 C 89.476562 19.53125 90.3125 20.539062 91.410156 20.710938 C 91.660156 20.75 91.847656 20.902344 91.902344 21.121094 C 91.933594 21.234375 91.914062 21.320312 91.820312 21.535156 C 91.664062 21.890625 91.601562 22.410156 91.667969 22.832031 C 91.839844 23.960938 92.679688 24.839844 93.851562 25.121094 C 94.101562 25.183594 94.535156 25.199219 95.027344 25.160156 C 95.421875 25.128906 95.433594 25.136719 95.761719 25.601562 C 96.054688 26.015625 96.398438 26.296875 96.816406 26.457031 C 97.140625 26.582031 97.320312 26.613281 97.699219 26.597656 C 98.09375 26.585938 98.246094 26.550781 98.558594 26.394531 C 99.082031 26.140625 99.425781 25.757812 99.628906 25.210938 L 99.695312 25.035156 L 99.699219 22.355469 L 99.707031 19.679688 L 99.46875 19.648438 C 99.339844 19.632812 99.050781 19.570312 98.832031 19.511719 C 98.328125 19.375 98.0625 19.324219 97.847656 19.324219 C 97.636719 19.324219 97.277344 19.402344 97.054688 19.496094 C 96.5625 19.703125 96.117188 20.164062 95.90625 20.683594 C 95.871094 20.769531 95.84375 20.84375 95.847656 20.847656 C 95.851562 20.851562 95.953125 20.878906 96.074219 20.90625 C 96.683594 21.054688 97.136719 21.367188 97.417969 21.847656 C 97.558594 22.089844 97.632812 22.324219 97.613281 22.457031 C 97.53125 22.949219 96.9375 23.117188 96.664062 22.722656 C 96.621094 22.660156 96.527344 22.515625 96.457031 22.410156 C 96.367188 22.273438 96.289062 22.183594 96.207031 22.128906 C 95.753906 21.828125 95.140625 21.996094 94.898438 22.488281 L 94.820312 22.644531 L 94.839844 22.984375 C 94.851562 23.171875 94.859375 23.367188 94.859375 23.417969 C 94.855469 23.707031 94.476562 23.972656 94.199219 23.882812 C 94.054688 23.835938 93.972656 23.746094 93.890625 23.554688 C 93.785156 23.300781 93.753906 23.105469 93.769531 22.820312 C 93.800781 22.304688 94.054688 21.796875 94.476562 21.425781 C 94.542969 21.363281 94.632812 21.292969 94.675781 21.269531 C 94.742188 21.230469 94.753906 21.203125 94.792969 21 C 95.085938 19.457031 96.253906 18.402344 97.75 18.320312 C 98.109375 18.300781 98.34375 18.332031 98.914062 18.472656 C 99.394531 18.59375 99.71875 18.652344 99.746094 18.625 C 99.773438 18.597656 99.792969 12.929688 99.765625 12.945312 C 99.753906 12.953125 99.617188 13.042969 99.457031 13.148438 C 98.957031 13.484375 98.46875 13.6875 97.984375 13.769531 C 97.628906 13.828125 97.015625 13.804688 96.660156 13.722656 C 95.457031 13.441406 94.484375 12.59375 94.109375 11.503906 L 94.023438 11.25 L 93.851562 11.195312 C 93.496094 11.082031 93.199219 10.902344 92.914062 10.636719 C 92.472656 10.21875 92.238281 9.75 92.191406 9.171875 C 92.171875 8.917969 92.199219 8.785156 92.308594 8.660156 C 92.472656 8.476562 92.777344 8.421875 93 8.539062 C 93.160156 8.625 93.203125 8.703125 93.273438 9.078125 C 93.351562 9.460938 93.398438 9.585938 93.527344 9.742188 C 93.808594 10.085938 94.234375 10.246094 94.695312 10.1875 C 94.980469 10.152344 95.179688 10.058594 95.386719 9.863281 C 95.636719 9.625 95.707031 9.460938 95.792969 8.933594 C 95.808594 8.832031 95.847656 8.71875 95.875 8.675781 C 96.035156 8.4375 96.46875 8.410156 96.695312 8.625 C 96.820312 8.742188 96.84375 8.816406 96.839844 9.085938 C 96.835938 9.246094 96.816406 9.40625 96.785156 9.53125 C 96.613281 10.214844 96.039062 10.847656 95.3125 11.164062 C 95.207031 11.210938 95.117188 11.253906 95.109375 11.261719 C 95.101562 11.265625 95.136719 11.347656 95.183594 11.441406 C 95.441406 11.953125 95.945312 12.394531 96.515625 12.609375 C 96.875 12.742188 97.046875 12.773438 97.453125 12.773438 C 97.886719 12.773438 98.132812 12.722656 98.488281 12.554688 C 99.132812 12.246094 99.585938 11.695312 99.71875 11.054688 C 99.746094 10.925781 99.753906 10.28125 99.757812 7.726562 C 99.765625 4.5625 99.765625 4.554688 99.710938 4.339844 C 99.523438 3.574219 99.097656 3 98.5 2.699219 C 98.285156 2.59375 97.960938 2.496094 97.746094 2.476562 C 97.429688 2.445312 97.386719 2.445312 97.175781 2.464844 M 101.664062 2.625 C 101.429688 2.675781 101.25 2.773438 101.074219 2.949219 C 100.621094 3.402344 100.609375 4.140625 101.050781 4.59375 C 101.304688 4.851562 101.507812 4.933594 101.957031 4.96875 C 102.488281 5.003906 102.851562 5.121094 103.238281 5.371094 C 103.742188 5.703125 104.089844 6.191406 104.269531 6.839844 C 104.320312 7.027344 104.320312 7.085938 104.339844 9.296875 C 104.355469 11.726562 104.351562 11.644531 104.488281 12.175781 C 104.695312 12.988281 105.121094 13.742188 105.722656 14.34375 C 105.859375 14.480469 105.972656 14.601562 105.972656 14.609375 C 105.972656 14.617188 105.863281 14.734375 105.726562 14.867188 C 105.125 15.476562 104.695312 16.226562 104.488281 17.042969 C 104.351562 17.574219 104.355469 17.492188 104.339844 19.921875 C 104.320312 22.183594 104.320312 22.1875 104.265625 22.394531 C 104.113281 22.945312 103.832031 23.386719 103.414062 23.71875 C 103.015625 24.039062 102.558594 24.207031 101.964844 24.25 C 101.503906 24.285156 101.304688 24.367188 101.050781 24.625 C 100.609375 25.074219 100.621094 25.816406 101.074219 26.269531 C 101.253906 26.449219 101.429688 26.539062 101.6875 26.597656 C 101.847656 26.628906 101.925781 26.632812 102.234375 26.605469 C 103.453125 26.511719 104.496094 26.03125 105.328125 25.175781 C 105.945312 24.542969 106.320312 23.886719 106.539062 23.0625 C 106.695312 22.464844 106.695312 22.472656 106.710938 20.019531 L 106.726562 17.777344 L 106.796875 17.558594 C 106.988281 16.941406 107.378906 16.4375 107.917969 16.125 C 108.246094 15.929688 108.542969 15.84375 109.042969 15.800781 C 109.253906 15.78125 109.476562 15.746094 109.535156 15.722656 C 109.886719 15.597656 110.195312 15.25 110.277344 14.890625 C 110.308594 14.75 110.308594 14.464844 110.277344 14.328125 C 110.195312 13.964844 109.886719 13.617188 109.535156 13.492188 C 109.476562 13.472656 109.253906 13.4375 109.046875 13.417969 C 108.632812 13.382812 108.46875 13.34375 108.210938 13.238281 C 107.546875 12.960938 107.039062 12.410156 106.816406 11.722656 C 106.71875 11.414062 106.714844 11.324219 106.714844 9.375 C 106.714844 7.308594 106.699219 6.90625 106.601562 6.4375 C 106.304688 4.957031 105.332031 3.710938 103.964844 3.058594 C 103.460938 2.820312 102.886719 2.664062 102.292969 2.613281 C 101.925781 2.582031 101.863281 2.582031 101.664062 2.625 " fill-opacity="1" fill-rule="evenodd"/></g><g fill="#5271ff" fill-opacity="1"><g transform="translate(1.572579, 15.200384)"><g><path d="M 0.890625 0 L 0.453125 -2.4375 L 4.921875 -2.4375 C 5.390625 -2.4375 5.71875 -2.484375 5.90625 -2.578125 C 6.09375 -2.671875 6.21875 -2.773438 6.28125 -2.890625 L 6.9375 -0.8125 C 6.90625 -0.613281 6.769531 -0.453125 6.53125 -0.328125 C 6.300781 -0.210938 6.035156 -0.128906 5.734375 -0.078125 C 5.441406 -0.0234375 5.171875 0 4.921875 0 Z M 2.796875 -5.578125 L 4.71875 -8.046875 L 7.453125 -3.109375 C 7.566406 -2.910156 7.679688 -2.765625 7.796875 -2.671875 C 7.910156 -2.578125 8.039062 -2.515625 8.1875 -2.484375 C 8.332031 -2.453125 8.507812 -2.4375 8.71875 -2.4375 L 8.875 -2.4375 L 8.875 0 L 8.71875 0 C 8.375 0 8.054688 -0.015625 7.765625 -0.046875 C 7.472656 -0.0859375 7.191406 -0.164062 6.921875 -0.28125 C 6.660156 -0.40625 6.398438 -0.585938 6.140625 -0.828125 C 5.890625 -1.066406 5.628906 -1.394531 5.359375 -1.8125 Z M 2.796875 -5.578125 "/></g></g></g><g fill="#5271ff" fill-opacity="1"><g transform="translate(10.442805, 15.200384)"><g><path d="M 0 0 L 0 -2.4375 L 2.15625 -2.4375 C 2.195312 -2.613281 2.234375 -2.851562 2.265625 -3.15625 C 2.296875 -3.457031 2.320312 -3.757812 2.34375 -4.0625 C 2.363281 -4.375 2.367188 -4.632812 2.359375 -4.84375 L 5.296875 -5.859375 C 5.109375 -5.109375 4.921875 -4.398438 4.734375 -3.734375 C 4.554688 -3.078125 4.34375 -2.445312 4.09375 -1.84375 C 3.851562 -1.238281 3.539062 -0.625 3.15625 0 Z M 6.375 0 C 5.664062 0 5.0625 -0.0664062 4.5625 -0.203125 C 4.070312 -0.347656 3.660156 -0.515625 3.328125 -0.703125 C 2.992188 -0.898438 2.707031 -1.082031 2.46875 -1.25 L 3.796875 -2.78125 C 3.941406 -2.707031 4.113281 -2.644531 4.3125 -2.59375 C 4.507812 -2.539062 4.726562 -2.5 4.96875 -2.46875 C 5.207031 -2.445312 5.457031 -2.4375 5.71875 -2.4375 L 6.375 -2.4375 Z M 0 -2.4375 L 0.15625 -2.4375 L 0.15625 0 L 0 0 C -0.3125 0 -0.46875 -0.40625 -0.46875 -1.21875 C -0.46875 -2.03125 -0.3125 -2.4375 0 -2.4375 Z M 1.78125 4.1875 L 0.15625 2.515625 L 1.6875 0.875 L 3.328125 2.515625 Z M 4.53125 4.1875 L 2.890625 2.515625 L 4.453125 0.875 L 6.078125 2.515625 Z M 4.53125 4.1875 "/></g></g></g><g fill="#5271ff" fill-opacity="1"><g transform="translate(16.823147, 15.200384)"><g><path d="M 10.484375 0 C 9.773438 0 9.171875 -0.0664062 8.671875 -0.203125 C 8.179688 -0.347656 7.769531 -0.515625 7.4375 -0.703125 C 7.101562 -0.898438 6.816406 -1.082031 6.578125 -1.25 L 7.96875 -2.734375 C 8.15625 -2.648438 8.410156 -2.578125 8.734375 -2.515625 C 9.066406 -2.460938 9.425781 -2.4375 9.8125 -2.4375 L 11.734375 -2.4375 C 11.609375 -2.90625 11.425781 -3.359375 11.1875 -3.796875 C 10.957031 -4.242188 10.691406 -4.660156 10.390625 -5.046875 L 12.640625 -7.3125 C 12.878906 -6.875 13.097656 -6.40625 13.296875 -5.90625 C 13.492188 -5.40625 13.632812 -4.859375 13.71875 -4.265625 C 13.800781 -3.679688 13.804688 -3.035156 13.734375 -2.328125 C 13.660156 -1.628906 13.476562 -0.851562 13.1875 0 Z M 0 0 L 0 -2.4375 L 1.5 -2.4375 C 1.53125 -2.65625 1.550781 -2.878906 1.5625 -3.109375 C 1.582031 -3.335938 1.59375 -3.582031 1.59375 -3.84375 C 1.59375 -4.101562 1.578125 -4.382812 1.546875 -4.6875 L 4.484375 -5.703125 C 4.335938 -4.972656 4.195312 -4.351562 4.0625 -3.84375 C 3.925781 -3.332031 3.773438 -2.878906 3.609375 -2.484375 C 3.453125 -2.097656 3.257812 -1.710938 3.03125 -1.328125 C 2.8125 -0.941406 2.535156 -0.5 2.203125 0 Z M 4.828125 0 C 4.046875 0 3.382812 -0.0664062 2.84375 -0.203125 C 2.300781 -0.347656 1.875 -0.507812 1.5625 -0.6875 C 1.25 -0.875 1.03125 -1.023438 0.90625 -1.140625 L 1.828125 -2.953125 C 2.078125 -2.785156 2.394531 -2.65625 2.78125 -2.5625 C 3.164062 -2.476562 3.585938 -2.4375 4.046875 -2.4375 L 5.921875 -2.4375 C 5.953125 -2.59375 5.972656 -2.785156 5.984375 -3.015625 C 6.003906 -3.253906 6.015625 -3.515625 6.015625 -3.796875 C 6.015625 -4.085938 6 -4.382812 5.96875 -4.6875 L 8.953125 -5.703125 C 8.796875 -4.972656 8.648438 -4.351562 8.515625 -3.84375 C 8.378906 -3.332031 8.226562 -2.878906 8.0625 -2.484375 C 7.894531 -2.097656 7.695312 -1.710938 7.46875 -1.328125 C 7.25 -0.941406 6.976562 -0.5 6.65625 0 Z M 0 -2.4375 L 0.15625 -2.4375 L 0.15625 0 L 0 0 C -0.3125 0 -0.46875 -0.40625 -0.46875 -1.21875 C -0.46875 -2.03125 -0.3125 -2.4375 0 -2.4375 Z M 0 -2.4375 "/></g></g></g><g fill="#5271ff" fill-opacity="1"><g transform="translate(31.529055, 15.200384)"><g/></g></g><g fill="#5271ff" fill-opacity="1"><g transform="translate(36.493271, 15.200384)"><g><path d="M 4.15625 -0.234375 C 3.394531 -0.234375 2.722656 -0.34375 2.140625 -0.5625 C 1.566406 -0.78125 1.113281 -1.09375 0.78125 -1.5 C 0.457031 -1.914062 0.296875 -2.414062 0.296875 -3 C 0.296875 -3.539062 0.4375 -4.03125 0.71875 -4.46875 C 1.007812 -4.90625 1.410156 -5.300781 1.921875 -5.65625 C 2.429688 -6.007812 3.035156 -6.34375 3.734375 -6.65625 C 4.441406 -6.976562 5.203125 -7.289062 6.015625 -7.59375 L 6.390625 -5.140625 C 5.703125 -4.972656 5.125 -4.796875 4.65625 -4.609375 C 4.195312 -4.429688 3.832031 -4.25 3.5625 -4.0625 C 3.289062 -3.882812 3.09375 -3.710938 2.96875 -3.546875 C 2.851562 -3.390625 2.796875 -3.253906 2.796875 -3.140625 C 2.796875 -3.003906 2.882812 -2.890625 3.0625 -2.796875 C 3.238281 -2.710938 3.570312 -2.671875 4.0625 -2.671875 C 4.164062 -2.671875 4.316406 -2.675781 4.515625 -2.6875 C 4.710938 -2.695312 4.941406 -2.71875 5.203125 -2.75 C 5.460938 -2.789062 5.734375 -2.847656 6.015625 -2.921875 L 6.59375 -0.875 C 6.175781 -0.675781 5.785156 -0.519531 5.421875 -0.40625 C 5.054688 -0.289062 4.632812 -0.234375 4.15625 -0.234375 Z M 7.953125 0 C 7.285156 0 6.753906 -0.0859375 6.359375 -0.265625 C 5.960938 -0.453125 5.660156 -0.6875 5.453125 -0.96875 C 5.253906 -1.257812 5.117188 -1.566406 5.046875 -1.890625 C 4.984375 -2.222656 4.953125 -2.535156 4.953125 -2.828125 L 4.953125 -8.3125 L 7.453125 -8.3125 L 7.453125 -3.53125 C 7.453125 -3.125 7.554688 -2.835938 7.765625 -2.671875 C 7.984375 -2.515625 8.332031 -2.4375 8.8125 -2.4375 L 9.328125 -2.4375 L 9.328125 0 Z M 7.953125 0 "/></g></g></g><g fill="#5271ff" fill-opacity="1"><g transform="translate(45.814793, 15.200384)"><g><path d="M 3.546875 -2.4375 L 5.421875 -2.4375 L 5.421875 0 L 3.546875 0 Z M 0 0 L 0 -2.4375 L 1.515625 -2.4375 L 1.515625 -11.515625 L 4.015625 -11.515625 L 4.015625 0 Z M 0 -2.4375 L 0.15625 -2.4375 L 0.15625 0 L 0 0 C -0.3125 0 -0.46875 -0.40625 -0.46875 -1.21875 C -0.46875 -2.03125 -0.3125 -2.4375 0 -2.4375 Z M 0 -2.4375 "/></g></g></g><g fill="#5271ff" fill-opacity="1"><g transform="translate(51.230304, 15.200384)"><g><path d="M 0 0 L 0 -2.4375 L 1.515625 -2.4375 L 1.515625 -11.515625 L 4.015625 -11.515625 L 4.015625 0 Z M 0 -2.4375 L 0.15625 -2.4375 L 0.15625 0 L 0 0 C -0.3125 0 -0.46875 -0.40625 -0.46875 -1.21875 C -0.46875 -2.03125 -0.3125 -2.4375 0 -2.4375 Z M 0 -2.4375 "/></g></g></g><g fill="#5271ff" fill-opacity="1"><g transform="translate(56.319011, 15.200384)"><g><path d="M 1.078125 -11.515625 L 3.578125 -11.515625 L 3.578125 0 L 1.078125 0 Z M 1.078125 -11.515625 "/></g></g></g><g fill="#5271ff" fill-opacity="1"><g transform="translate(60.971996, 15.200384)"><g><path d="M 0.890625 0 L 0.453125 -2.4375 L 4.921875 -2.4375 C 5.390625 -2.4375 5.71875 -2.484375 5.90625 -2.578125 C 6.09375 -2.671875 6.21875 -2.773438 6.28125 -2.890625 L 6.9375 -0.8125 C 6.90625 -0.613281 6.769531 -0.453125 6.53125 -0.328125 C 6.300781 -0.210938 6.035156 -0.128906 5.734375 -0.078125 C 5.441406 -0.0234375 5.171875 0 4.921875 0 Z M 2.796875 -5.578125 L 4.71875 -8.046875 L 7.453125 -3.109375 C 7.566406 -2.910156 7.679688 -2.765625 7.796875 -2.671875 C 7.910156 -2.578125 8.039062 -2.515625 8.1875 -2.484375 C 8.332031 -2.453125 8.507812 -2.4375 8.71875 -2.4375 L 8.875 -2.4375 L 8.875 0 L 8.71875 0 C 8.375 0 8.054688 -0.015625 7.765625 -0.046875 C 7.472656 -0.0859375 7.191406 -0.164062 6.921875 -0.28125 C 6.660156 -0.40625 6.398438 -0.585938 6.140625 -0.828125 C 5.890625 -1.066406 5.628906 -1.394531 5.359375 -1.8125 Z M 2.796875 -5.578125 "/></g></g></g><g fill="#5271ff" fill-opacity="1"><g transform="translate(69.842222, 15.200384)"><g><path d="M 0 0 L 0 -2.4375 L 2.15625 -2.4375 C 2.195312 -2.613281 2.234375 -2.851562 2.265625 -3.15625 C 2.296875 -3.457031 2.320312 -3.757812 2.34375 -4.0625 C 2.363281 -4.375 2.367188 -4.632812 2.359375 -4.84375 L 5.296875 -5.859375 C 5.109375 -5.109375 4.921875 -4.398438 4.734375 -3.734375 C 4.554688 -3.078125 4.34375 -2.445312 4.09375 -1.84375 C 3.851562 -1.238281 3.539062 -0.625 3.15625 0 Z M 6.375 0 C 5.664062 0 5.0625 -0.0664062 4.5625 -0.203125 C 4.070312 -0.347656 3.660156 -0.515625 3.328125 -0.703125 C 2.992188 -0.898438 2.707031 -1.082031 2.46875 -1.25 L 3.796875 -2.78125 C 3.941406 -2.707031 4.113281 -2.644531 4.3125 -2.59375 C 4.507812 -2.539062 4.726562 -2.5 4.96875 -2.46875 C 5.207031 -2.445312 5.457031 -2.4375 5.71875 -2.4375 L 6.375 -2.4375 Z M 0 -2.4375 L 0.15625 -2.4375 L 0.15625 0 L 0 0 C -0.3125 0 -0.46875 -0.40625 -0.46875 -1.21875 C -0.46875 -2.03125 -0.3125 -2.4375 0 -2.4375 Z M 3.125 4.1875 L 1.484375 2.515625 L 3.046875 0.875 L 4.6875 2.515625 Z M 3.125 4.1875 "/></g></g></g><g fill="#5271ff" fill-opacity="1"><g transform="translate(76.222564, 15.200384)"><g><path d="M 0 0 L 0 -2.4375 L 1.5625 -2.4375 C 1.488281 -2.582031 1.414062 -2.785156 1.34375 -3.046875 C 1.269531 -3.304688 1.234375 -3.609375 1.234375 -3.953125 C 1.234375 -4.660156 1.394531 -5.265625 1.71875 -5.765625 C 2.039062 -6.265625 2.5 -6.644531 3.09375 -6.90625 C 3.6875 -7.175781 4.382812 -7.3125 5.1875 -7.3125 C 5.664062 -7.3125 6.140625 -7.253906 6.609375 -7.140625 C 7.078125 -7.035156 7.492188 -6.890625 7.859375 -6.703125 L 6.859375 -4.546875 C 6.566406 -4.660156 6.285156 -4.742188 6.015625 -4.796875 C 5.742188 -4.859375 5.46875 -4.890625 5.1875 -4.890625 C 4.675781 -4.890625 4.304688 -4.769531 4.078125 -4.53125 C 3.847656 -4.289062 3.734375 -4 3.734375 -3.65625 C 3.734375 -3.445312 3.796875 -3.25 3.921875 -3.0625 C 4.054688 -2.875 4.269531 -2.722656 4.5625 -2.609375 C 4.851562 -2.492188 5.238281 -2.4375 5.71875 -2.4375 L 7.90625 -2.4375 L 7.90625 0 Z M 0 -2.4375 L 0.15625 -2.4375 L 0.15625 0 L 0 0 C -0.3125 0 -0.46875 -0.40625 -0.46875 -1.21875 C -0.46875 -2.03125 -0.3125 -2.4375 0 -2.4375 Z M 0 -2.4375 "/></g></g></g><g fill="#5271ff" fill-opacity="1"><g transform="translate(1.572579, 26.328756)"><g><path d="M 0.765625 0 L 0.765625 -5.671875 L 1.8125 -5.671875 L 1.8125 0 Z M 1.234375 -2.328125 L 1.234375 -3.28125 L 4.171875 -3.28125 L 4.171875 -2.328125 Z M 1.234375 -4.703125 L 1.234375 -5.671875 L 4.53125 -5.671875 L 4.53125 -4.703125 Z M 1.234375 -4.703125 "/></g></g></g><g fill="#5271ff" fill-opacity="1"><g transform="translate(6.493046, 26.328756)"><g><path d="M 0.578125 0 L 0.578125 -4.28125 L 1.5625 -4.28125 L 1.578125 -2.90625 L 1.4375 -3.21875 C 1.5 -3.4375 1.601562 -3.628906 1.75 -3.796875 C 1.894531 -3.972656 2.0625 -4.109375 2.25 -4.203125 C 2.445312 -4.304688 2.648438 -4.359375 2.859375 -4.359375 C 2.953125 -4.359375 3.039062 -4.347656 3.125 -4.328125 C 3.207031 -4.316406 3.273438 -4.300781 3.328125 -4.28125 L 3.0625 -3.1875 C 3 -3.226562 2.925781 -3.253906 2.84375 -3.265625 C 2.757812 -3.285156 2.675781 -3.296875 2.59375 -3.296875 C 2.445312 -3.296875 2.3125 -3.269531 2.1875 -3.21875 C 2.070312 -3.164062 1.96875 -3.09375 1.875 -3 C 1.789062 -2.914062 1.71875 -2.8125 1.65625 -2.6875 C 1.601562 -2.5625 1.578125 -2.425781 1.578125 -2.28125 L 1.578125 0 Z M 0.578125 0 "/></g></g></g><g fill="#5271ff" fill-opacity="1"><g transform="translate(9.905757, 26.328756)"><g><path d="M 2.53125 0.078125 C 2.101562 0.078125 1.722656 -0.015625 1.390625 -0.203125 C 1.054688 -0.398438 0.789062 -0.664062 0.59375 -1 C 0.40625 -1.332031 0.3125 -1.710938 0.3125 -2.140625 C 0.3125 -2.566406 0.40625 -2.945312 0.59375 -3.28125 C 0.789062 -3.613281 1.054688 -3.875 1.390625 -4.0625 C 1.722656 -4.257812 2.101562 -4.359375 2.53125 -4.359375 C 2.945312 -4.359375 3.320312 -4.257812 3.65625 -4.0625 C 4 -3.875 4.265625 -3.613281 4.453125 -3.28125 C 4.648438 -2.945312 4.75 -2.566406 4.75 -2.140625 C 4.75 -1.710938 4.648438 -1.332031 4.453125 -1 C 4.265625 -0.664062 4 -0.398438 3.65625 -0.203125 C 3.320312 -0.015625 2.945312 0.078125 2.53125 0.078125 Z M 2.53125 -0.796875 C 2.757812 -0.796875 2.96875 -0.851562 3.15625 -0.96875 C 3.34375 -1.09375 3.488281 -1.253906 3.59375 -1.453125 C 3.695312 -1.660156 3.742188 -1.890625 3.734375 -2.140625 C 3.742188 -2.398438 3.695312 -2.628906 3.59375 -2.828125 C 3.488281 -3.035156 3.34375 -3.195312 3.15625 -3.3125 C 2.96875 -3.425781 2.757812 -3.484375 2.53125 -3.484375 C 2.300781 -3.484375 2.09375 -3.421875 1.90625 -3.296875 C 1.71875 -3.179688 1.570312 -3.019531 1.46875 -2.8125 C 1.363281 -2.613281 1.3125 -2.390625 1.3125 -2.140625 C 1.3125 -1.890625 1.363281 -1.660156 1.46875 -1.453125 C 1.570312 -1.253906 1.71875 -1.09375 1.90625 -0.96875 C 2.09375 -0.851562 2.300781 -0.796875 2.53125 -0.796875 Z M 2.53125 -0.796875 "/></g></g></g><g fill="#5271ff" fill-opacity="1"><g transform="translate(14.955928, 26.328756)"><g><path d="M 0.578125 0 L 0.578125 -4.28125 L 1.546875 -4.28125 L 1.5625 -3.390625 L 1.375 -3.296875 C 1.4375 -3.484375 1.546875 -3.65625 1.703125 -3.8125 C 1.859375 -3.976562 2.039062 -4.109375 2.25 -4.203125 C 2.46875 -4.304688 2.691406 -4.359375 2.921875 -4.359375 C 3.242188 -4.359375 3.515625 -4.289062 3.734375 -4.15625 C 3.960938 -4.03125 4.128906 -3.835938 4.234375 -3.578125 C 4.335938 -3.316406 4.390625 -2.992188 4.390625 -2.609375 L 4.390625 0 L 3.40625 0 L 3.40625 -2.53125 C 3.40625 -2.757812 3.375 -2.941406 3.3125 -3.078125 C 3.257812 -3.222656 3.171875 -3.328125 3.046875 -3.390625 C 2.921875 -3.460938 2.769531 -3.492188 2.59375 -3.484375 C 2.445312 -3.484375 2.3125 -3.457031 2.1875 -3.40625 C 2.0625 -3.363281 1.953125 -3.300781 1.859375 -3.21875 C 1.773438 -3.132812 1.707031 -3.035156 1.65625 -2.921875 C 1.601562 -2.816406 1.578125 -2.703125 1.578125 -2.578125 L 1.578125 0 L 1.078125 0 C 0.984375 0 0.894531 0 0.8125 0 C 0.726562 0 0.648438 0 0.578125 0 Z M 0.578125 0 "/></g></g></g><g fill="#5271ff" fill-opacity="1"><g transform="translate(19.892609, 26.328756)"><g><path d="M 1.046875 0 L 1.046875 -5.359375 L 2.046875 -5.359375 L 2.046875 0 Z M 0.203125 -3.34375 L 0.203125 -4.28125 L 2.96875 -4.28125 L 2.96875 -3.34375 Z M 0.203125 -3.34375 "/></g></g></g><g fill="#5271ff" fill-opacity="1"><g transform="translate(23.045922, 26.328756)"><g><path d="M 0.4375 -1.84375 L 0.4375 -2.796875 L 2.90625 -2.796875 L 2.90625 -1.84375 Z M 0.4375 -1.84375 "/></g></g></g><g fill="#5271ff" fill-opacity="1"><g transform="translate(26.377576, 26.328756)"><g><path d="M 0.765625 0 L 0.765625 -5.671875 L 4.46875 -5.671875 L 4.46875 -4.71875 L 1.796875 -4.71875 L 1.796875 -0.953125 L 4.5 -0.953125 L 4.5 0 Z M 1.25 -2.4375 L 1.25 -3.375 L 4.046875 -3.375 L 4.046875 -2.4375 Z M 1.25 -2.4375 "/></g></g></g><g fill="#5271ff" fill-opacity="1"><g transform="translate(31.435854, 26.328756)"><g><path d="M 0.578125 0 L 0.578125 -4.28125 L 1.546875 -4.28125 L 1.5625 -3.390625 L 1.375 -3.296875 C 1.4375 -3.484375 1.546875 -3.65625 1.703125 -3.8125 C 1.859375 -3.976562 2.039062 -4.109375 2.25 -4.203125 C 2.46875 -4.304688 2.691406 -4.359375 2.921875 -4.359375 C 3.242188 -4.359375 3.515625 -4.289062 3.734375 -4.15625 C 3.960938 -4.03125 4.128906 -3.835938 4.234375 -3.578125 C 4.335938 -3.316406 4.390625 -2.992188 4.390625 -2.609375 L 4.390625 0 L 3.40625 0 L 3.40625 -2.53125 C 3.40625 -2.757812 3.375 -2.941406 3.3125 -3.078125 C 3.257812 -3.222656 3.171875 -3.328125 3.046875 -3.390625 C 2.921875 -3.460938 2.769531 -3.492188 2.59375 -3.484375 C 2.445312 -3.484375 2.3125 -3.457031 2.1875 -3.40625 C 2.0625 -3.363281 1.953125 -3.300781 1.859375 -3.21875 C 1.773438 -3.132812 1.707031 -3.035156 1.65625 -2.921875 C 1.601562 -2.816406 1.578125 -2.703125 1.578125 -2.578125 L 1.578125 0 L 1.078125 0 C 0.984375 0 0.894531 0 0.8125 0 C 0.726562 0 0.648438 0 0.578125 0 Z M 0.578125 0 "/></g></g></g><g fill="#5271ff" fill-opacity="1"><g transform="translate(36.372535, 26.328756)"><g><path d="M 2.3125 0.078125 C 1.925781 0.078125 1.582031 -0.015625 1.28125 -0.203125 C 0.976562 -0.398438 0.738281 -0.660156 0.5625 -0.984375 C 0.394531 -1.316406 0.3125 -1.703125 0.3125 -2.140625 C 0.3125 -2.566406 0.394531 -2.945312 0.5625 -3.28125 C 0.738281 -3.613281 0.976562 -3.875 1.28125 -4.0625 C 1.582031 -4.257812 1.921875 -4.359375 2.296875 -4.359375 C 2.503906 -4.359375 2.703125 -4.328125 2.890625 -4.265625 C 3.078125 -4.203125 3.25 -4.113281 3.40625 -4 C 3.5625 -3.882812 3.679688 -3.757812 3.765625 -3.625 C 3.859375 -3.5 3.910156 -3.363281 3.921875 -3.21875 L 3.65625 -3.171875 L 3.65625 -6 L 4.640625 -6 L 4.640625 0 L 3.6875 0 L 3.65625 -1 L 3.859375 -0.984375 C 3.847656 -0.847656 3.796875 -0.71875 3.703125 -0.59375 C 3.617188 -0.46875 3.503906 -0.351562 3.359375 -0.25 C 3.222656 -0.15625 3.0625 -0.078125 2.875 -0.015625 C 2.695312 0.046875 2.507812 0.078125 2.3125 0.078125 Z M 2.5 -0.765625 C 2.726562 -0.765625 2.929688 -0.820312 3.109375 -0.9375 C 3.285156 -1.050781 3.425781 -1.210938 3.53125 -1.421875 C 3.632812 -1.628906 3.6875 -1.867188 3.6875 -2.140625 C 3.6875 -2.410156 3.632812 -2.644531 3.53125 -2.84375 C 3.425781 -3.050781 3.285156 -3.210938 3.109375 -3.328125 C 2.929688 -3.453125 2.726562 -3.515625 2.5 -3.515625 C 2.257812 -3.515625 2.050781 -3.453125 1.875 -3.328125 C 1.695312 -3.210938 1.554688 -3.050781 1.453125 -2.84375 C 1.359375 -2.644531 1.3125 -2.410156 1.3125 -2.140625 C 1.3125 -1.867188 1.359375 -1.628906 1.453125 -1.421875 C 1.554688 -1.210938 1.695312 -1.050781 1.875 -0.9375 C 2.050781 -0.820312 2.257812 -0.765625 2.5 -0.765625 Z M 2.5 -0.765625 "/></g></g></g><g fill="#5271ff" fill-opacity="1"><g transform="translate(41.568616, 26.328756)"><g/></g></g><g fill="#5271ff" fill-opacity="1"><g transform="translate(43.943733, 26.328756)"><g><path d="M 0.765625 0 L 0.765625 -5.671875 L 3.046875 -5.671875 C 3.453125 -5.671875 3.820312 -5.601562 4.15625 -5.46875 C 4.488281 -5.332031 4.773438 -5.140625 5.015625 -4.890625 C 5.253906 -4.640625 5.4375 -4.335938 5.5625 -3.984375 C 5.6875 -3.640625 5.75 -3.257812 5.75 -2.84375 C 5.75 -2.414062 5.6875 -2.023438 5.5625 -1.671875 C 5.4375 -1.328125 5.253906 -1.03125 5.015625 -0.78125 C 4.773438 -0.53125 4.488281 -0.335938 4.15625 -0.203125 C 3.820312 -0.0664062 3.453125 0 3.046875 0 Z M 1.8125 -0.8125 L 1.734375 -0.96875 L 3 -0.96875 C 3.257812 -0.96875 3.492188 -1.007812 3.703125 -1.09375 C 3.921875 -1.1875 4.097656 -1.3125 4.234375 -1.46875 C 4.378906 -1.632812 4.488281 -1.832031 4.5625 -2.0625 C 4.644531 -2.289062 4.6875 -2.550781 4.6875 -2.84375 C 4.6875 -3.125 4.644531 -3.378906 4.5625 -3.609375 C 4.488281 -3.835938 4.378906 -4.03125 4.234375 -4.1875 C 4.085938 -4.351562 3.910156 -4.476562 3.703125 -4.5625 C 3.492188 -4.65625 3.257812 -4.703125 3 -4.703125 L 1.71875 -4.703125 L 1.8125 -4.84375 Z M 1.8125 -0.8125 "/></g></g></g><g fill="#5271ff" fill-opacity="1"><g transform="translate(50.072027, 26.328756)"><g><path d="M 2.59375 0.078125 C 2.132812 0.078125 1.734375 -0.015625 1.390625 -0.203125 C 1.054688 -0.390625 0.789062 -0.644531 0.59375 -0.96875 C 0.40625 -1.289062 0.3125 -1.664062 0.3125 -2.09375 C 0.3125 -2.4375 0.363281 -2.742188 0.46875 -3.015625 C 0.570312 -3.296875 0.722656 -3.535156 0.921875 -3.734375 C 1.117188 -3.929688 1.347656 -4.085938 1.609375 -4.203125 C 1.878906 -4.316406 2.171875 -4.375 2.484375 -4.375 C 2.773438 -4.375 3.039062 -4.316406 3.28125 -4.203125 C 3.519531 -4.097656 3.726562 -3.953125 3.90625 -3.765625 C 4.082031 -3.578125 4.21875 -3.351562 4.3125 -3.09375 C 4.40625 -2.84375 4.453125 -2.566406 4.453125 -2.265625 L 4.4375 -1.90625 L 0.984375 -1.90625 L 0.796875 -2.59375 L 3.609375 -2.59375 L 3.484375 -2.453125 L 3.484375 -2.640625 C 3.472656 -2.804688 3.421875 -2.953125 3.328125 -3.078125 C 3.234375 -3.203125 3.113281 -3.300781 2.96875 -3.375 C 2.820312 -3.445312 2.664062 -3.484375 2.5 -3.484375 C 2.226562 -3.484375 2 -3.429688 1.8125 -3.328125 C 1.632812 -3.234375 1.5 -3.085938 1.40625 -2.890625 C 1.3125 -2.703125 1.265625 -2.460938 1.265625 -2.171875 C 1.265625 -1.898438 1.320312 -1.660156 1.4375 -1.453125 C 1.550781 -1.242188 1.71875 -1.082031 1.9375 -0.96875 C 2.15625 -0.851562 2.40625 -0.796875 2.6875 -0.796875 C 2.894531 -0.796875 3.082031 -0.828125 3.25 -0.890625 C 3.414062 -0.960938 3.597656 -1.082031 3.796875 -1.25 L 4.28125 -0.5625 C 4.132812 -0.425781 3.96875 -0.3125 3.78125 -0.21875 C 3.59375 -0.125 3.394531 -0.0507812 3.1875 0 C 2.988281 0.0507812 2.789062 0.078125 2.59375 0.078125 Z M 2.59375 0.078125 "/></g></g></g><g fill="#5271ff" fill-opacity="1"><g transform="translate(54.822261, 26.328756)"><g><path d="M 1.953125 0 L 0.15625 -4.28125 L 1.234375 -4.28125 L 2.453125 -1.09375 L 2.25 -1.015625 L 3.53125 -4.28125 L 4.59375 -4.28125 L 2.6875 0 Z M 1.953125 0 "/></g></g></g><g fill="#5271ff" fill-opacity="1"><g transform="translate(59.556289, 26.328756)"><g><path d="M 2.59375 0.078125 C 2.132812 0.078125 1.734375 -0.015625 1.390625 -0.203125 C 1.054688 -0.390625 0.789062 -0.644531 0.59375 -0.96875 C 0.40625 -1.289062 0.3125 -1.664062 0.3125 -2.09375 C 0.3125 -2.4375 0.363281 -2.742188 0.46875 -3.015625 C 0.570312 -3.296875 0.722656 -3.535156 0.921875 -3.734375 C 1.117188 -3.929688 1.347656 -4.085938 1.609375 -4.203125 C 1.878906 -4.316406 2.171875 -4.375 2.484375 -4.375 C 2.773438 -4.375 3.039062 -4.316406 3.28125 -4.203125 C 3.519531 -4.097656 3.726562 -3.953125 3.90625 -3.765625 C 4.082031 -3.578125 4.21875 -3.351562 4.3125 -3.09375 C 4.40625 -2.84375 4.453125 -2.566406 4.453125 -2.265625 L 4.4375 -1.90625 L 0.984375 -1.90625 L 0.796875 -2.59375 L 3.609375 -2.59375 L 3.484375 -2.453125 L 3.484375 -2.640625 C 3.472656 -2.804688 3.421875 -2.953125 3.328125 -3.078125 C 3.234375 -3.203125 3.113281 -3.300781 2.96875 -3.375 C 2.820312 -3.445312 2.664062 -3.484375 2.5 -3.484375 C 2.226562 -3.484375 2 -3.429688 1.8125 -3.328125 C 1.632812 -3.234375 1.5 -3.085938 1.40625 -2.890625 C 1.3125 -2.703125 1.265625 -2.460938 1.265625 -2.171875 C 1.265625 -1.898438 1.320312 -1.660156 1.4375 -1.453125 C 1.550781 -1.242188 1.71875 -1.082031 1.9375 -0.96875 C 2.15625 -0.851562 2.40625 -0.796875 2.6875 -0.796875 C 2.894531 -0.796875 3.082031 -0.828125 3.25 -0.890625 C 3.414062 -0.960938 3.597656 -1.082031 3.796875 -1.25 L 4.28125 -0.5625 C 4.132812 -0.425781 3.96875 -0.3125 3.78125 -0.21875 C 3.59375 -0.125 3.394531 -0.0507812 3.1875 0 C 2.988281 0.0507812 2.789062 0.078125 2.59375 0.078125 Z M 2.59375 0.078125 "/></g></g></g><g fill="#5271ff" fill-opacity="1"><g transform="translate(64.306523, 26.328756)"><g><path d="M 0.59375 0 L 0.59375 -6 L 1.578125 -6 L 1.578125 0 Z M 0.59375 0 "/></g></g></g><g fill="#5271ff" fill-opacity="1"><g transform="translate(66.487093, 26.328756)"><g><path d="M 2.53125 0.078125 C 2.101562 0.078125 1.722656 -0.015625 1.390625 -0.203125 C 1.054688 -0.398438 0.789062 -0.664062 0.59375 -1 C 0.40625 -1.332031 0.3125 -1.710938 0.3125 -2.140625 C 0.3125 -2.566406 0.40625 -2.945312 0.59375 -3.28125 C 0.789062 -3.613281 1.054688 -3.875 1.390625 -4.0625 C 1.722656 -4.257812 2.101562 -4.359375 2.53125 -4.359375 C 2.945312 -4.359375 3.320312 -4.257812 3.65625 -4.0625 C 4 -3.875 4.265625 -3.613281 4.453125 -3.28125 C 4.648438 -2.945312 4.75 -2.566406 4.75 -2.140625 C 4.75 -1.710938 4.648438 -1.332031 4.453125 -1 C 4.265625 -0.664062 4 -0.398438 3.65625 -0.203125 C 3.320312 -0.015625 2.945312 0.078125 2.53125 0.078125 Z M 2.53125 -0.796875 C 2.757812 -0.796875 2.96875 -0.851562 3.15625 -0.96875 C 3.34375 -1.09375 3.488281 -1.253906 3.59375 -1.453125 C 3.695312 -1.660156 3.742188 -1.890625 3.734375 -2.140625 C 3.742188 -2.398438 3.695312 -2.628906 3.59375 -2.828125 C 3.488281 -3.035156 3.34375 -3.195312 3.15625 -3.3125 C 2.96875 -3.425781 2.757812 -3.484375 2.53125 -3.484375 C 2.300781 -3.484375 2.09375 -3.421875 1.90625 -3.296875 C 1.71875 -3.179688 1.570312 -3.019531 1.46875 -2.8125 C 1.363281 -2.613281 1.3125 -2.390625 1.3125 -2.140625 C 1.3125 -1.890625 1.363281 -1.660156 1.46875 -1.453125 C 1.570312 -1.253906 1.71875 -1.09375 1.90625 -0.96875 C 2.09375 -0.851562 2.300781 -0.796875 2.53125 -0.796875 Z M 2.53125 -0.796875 "/></g></g></g><g fill="#5271ff" fill-opacity="1"><g transform="translate(71.537263, 26.328756)"><g><path d="M 0.578125 1.78125 L 0.578125 -4.28125 L 1.5625 -4.28125 L 1.578125 -3.3125 L 1.40625 -3.375 C 1.4375 -3.550781 1.523438 -3.710938 1.671875 -3.859375 C 1.828125 -4.003906 2.015625 -4.117188 2.234375 -4.203125 C 2.453125 -4.296875 2.679688 -4.34375 2.921875 -4.34375 C 3.296875 -4.34375 3.628906 -4.25 3.921875 -4.0625 C 4.222656 -3.875 4.457031 -3.613281 4.625 -3.28125 C 4.789062 -2.945312 4.875 -2.566406 4.875 -2.140625 C 4.875 -1.710938 4.789062 -1.332031 4.625 -1 C 4.457031 -0.664062 4.226562 -0.398438 3.9375 -0.203125 C 3.644531 -0.015625 3.3125 0.078125 2.9375 0.078125 C 2.6875 0.078125 2.445312 0.03125 2.21875 -0.0625 C 1.988281 -0.164062 1.796875 -0.296875 1.640625 -0.453125 C 1.484375 -0.609375 1.382812 -0.769531 1.34375 -0.9375 L 1.578125 -1.0625 L 1.578125 1.78125 Z M 2.734375 -0.8125 C 2.960938 -0.8125 3.164062 -0.867188 3.34375 -0.984375 C 3.519531 -1.097656 3.660156 -1.253906 3.765625 -1.453125 C 3.867188 -1.648438 3.921875 -1.878906 3.921875 -2.140625 C 3.921875 -2.398438 3.867188 -2.628906 3.765625 -2.828125 C 3.671875 -3.023438 3.535156 -3.179688 3.359375 -3.296875 C 3.179688 -3.410156 2.972656 -3.46875 2.734375 -3.46875 C 2.503906 -3.46875 2.296875 -3.410156 2.109375 -3.296875 C 1.929688 -3.179688 1.789062 -3.023438 1.6875 -2.828125 C 1.59375 -2.628906 1.546875 -2.398438 1.546875 -2.140625 C 1.546875 -1.878906 1.59375 -1.648438 1.6875 -1.453125 C 1.789062 -1.253906 1.929688 -1.097656 2.109375 -0.984375 C 2.296875 -0.867188 2.503906 -0.8125 2.734375 -0.8125 Z M 2.734375 -0.8125 "/></g></g></g><g fill="#5271ff" fill-opacity="1"><g transform="translate(76.725236, 26.328756)"><g><path d="M 2.59375 0.078125 C 2.132812 0.078125 1.734375 -0.015625 1.390625 -0.203125 C 1.054688 -0.390625 0.789062 -0.644531 0.59375 -0.96875 C 0.40625 -1.289062 0.3125 -1.664062 0.3125 -2.09375 C 0.3125 -2.4375 0.363281 -2.742188 0.46875 -3.015625 C 0.570312 -3.296875 0.722656 -3.535156 0.921875 -3.734375 C 1.117188 -3.929688 1.347656 -4.085938 1.609375 -4.203125 C 1.878906 -4.316406 2.171875 -4.375 2.484375 -4.375 C 2.773438 -4.375 3.039062 -4.316406 3.28125 -4.203125 C 3.519531 -4.097656 3.726562 -3.953125 3.90625 -3.765625 C 4.082031 -3.578125 4.21875 -3.351562 4.3125 -3.09375 C 4.40625 -2.84375 4.453125 -2.566406 4.453125 -2.265625 L 4.4375 -1.90625 L 0.984375 -1.90625 L 0.796875 -2.59375 L 3.609375 -2.59375 L 3.484375 -2.453125 L 3.484375 -2.640625 C 3.472656 -2.804688 3.421875 -2.953125 3.328125 -3.078125 C 3.234375 -3.203125 3.113281 -3.300781 2.96875 -3.375 C 2.820312 -3.445312 2.664062 -3.484375 2.5 -3.484375 C 2.226562 -3.484375 2 -3.429688 1.8125 -3.328125 C 1.632812 -3.234375 1.5 -3.085938 1.40625 -2.890625 C 1.3125 -2.703125 1.265625 -2.460938 1.265625 -2.171875 C 1.265625 -1.898438 1.320312 -1.660156 1.4375 -1.453125 C 1.550781 -1.242188 1.71875 -1.082031 1.9375 -0.96875 C 2.15625 -0.851562 2.40625 -0.796875 2.6875 -0.796875 C 2.894531 -0.796875 3.082031 -0.828125 3.25 -0.890625 C 3.414062 -0.960938 3.597656 -1.082031 3.796875 -1.25 L 4.28125 -0.5625 C 4.132812 -0.425781 3.96875 -0.3125 3.78125 -0.21875 C 3.59375 -0.125 3.394531 -0.0507812 3.1875 0 C 2.988281 0.0507812 2.789062 0.078125 2.59375 0.078125 Z M 2.59375 0.078125 "/></g></g></g><g fill="#5271ff" fill-opacity="1"><g transform="translate(81.47547, 26.328756)"><g><path d="M 0.578125 0 L 0.578125 -4.28125 L 1.5625 -4.28125 L 1.578125 -2.90625 L 1.4375 -3.21875 C 1.5 -3.4375 1.601562 -3.628906 1.75 -3.796875 C 1.894531 -3.972656 2.0625 -4.109375 2.25 -4.203125 C 2.445312 -4.304688 2.648438 -4.359375 2.859375 -4.359375 C 2.953125 -4.359375 3.039062 -4.347656 3.125 -4.328125 C 3.207031 -4.316406 3.273438 -4.300781 3.328125 -4.28125 L 3.0625 -3.1875 C 3 -3.226562 2.925781 -3.253906 2.84375 -3.265625 C 2.757812 -3.285156 2.675781 -3.296875 2.59375 -3.296875 C 2.445312 -3.296875 2.3125 -3.269531 2.1875 -3.21875 C 2.070312 -3.164062 1.96875 -3.09375 1.875 -3 C 1.789062 -2.914062 1.71875 -2.8125 1.65625 -2.6875 C 1.601562 -2.5625 1.578125 -2.425781 1.578125 -2.28125 L 1.578125 0 Z M 0.578125 0 "/></g></g></g></svg>