<svg xmlns="http://www.w3.org/2000/svg" xmlns:xlink="http://www.w3.org/1999/xlink" width="50" zoomAndPan="magnify" viewBox="0 0 37.5 37.499999" height="50" preserveAspectRatio="xMidYMid meet" version="1.0"><defs><clipPath id="2a4b1d1e14"><path d="M 0 0 L 37.007812 0 L 37.007812 37.007812 L 0 37.007812 Z M 0 0 " clip-rule="nonzero"/></clipPath><clipPath id="9b6aee355f"><path d="M 18.503906 0 C 8.285156 0 0 8.285156 0 18.503906 C 0 28.722656 8.285156 37.007812 18.503906 37.007812 C 28.722656 37.007812 37.007812 28.722656 37.007812 18.503906 C 37.007812 8.285156 28.722656 0 18.503906 0 Z M 18.503906 0 " clip-rule="nonzero"/></clipPath><clipPath id="12a3f16b66"><path d="M 6.476562 8.882812 L 30.902344 8.882812 L 30.902344 28.125 L 6.476562 28.125 Z M 6.476562 8.882812 " clip-rule="nonzero"/></clipPath></defs><g clip-path="url(#2a4b1d1e14)"><g clip-path="url(#9b6aee355f)"><path fill="#eef1ff" d="M 0 0 L 37.007812 0 L 37.007812 37.007812 L 0 37.007812 Z M 0 0 " fill-opacity="1" fill-rule="nonzero"/><path stroke-linecap="butt" transform="matrix(0.740132, 0, 0, 0.740132, 0.0000005, 0.000000000000005259)" fill="none" stroke-linejoin="miter" d="M 25.000834 -0.000000000000007105 C 11.194167 -0.000000000000007105 -0.000000675556 11.194167 -0.000000675556 25.000835 C -0.000000675556 38.807503 11.194167 50.00167 25.000834 50.00167 C 38.807502 50.00167 50.001669 38.807503 50.001669 25.000835 C 50.001669 11.194167 38.807502 -0.000000000000007105 25.000834 -0.000000000000007105 Z M 25.000834 -0.000000000000007105 " stroke="#bac6ff" stroke-width="2" stroke-opacity="1" stroke-miterlimit="4"/></g></g><g clip-path="url(#12a3f16b66)"><path fill="#293980" d="M 7.878906 16.097656 L 29.496094 16.097656 C 30.269531 16.097656 30.902344 15.476562 30.902344 14.714844 C 30.902344 14.441406 30.816406 14.171875 30.664062 13.949219 L 27.777344 9.6875 C 27.4375 9.183594 26.871094 8.882812 26.257812 8.882812 L 11.121094 8.882812 C 10.511719 8.882812 9.9375 9.183594 9.597656 9.6875 L 6.710938 13.945312 C 6.558594 14.171875 6.476562 14.441406 6.476562 14.710938 C 6.476562 15.476562 7.105469 16.097656 7.878906 16.097656 Z M 8.917969 17.300781 L 8.917969 26.320312 C 8.917969 27.316406 9.738281 28.125 10.75 28.125 L 19.300781 28.125 C 20.308594 28.125 21.128906 27.316406 21.128906 26.320312 L 21.128906 17.300781 L 18.6875 17.300781 L 18.6875 23.3125 L 11.359375 23.3125 L 11.359375 17.300781 Z M 26.015625 17.300781 L 26.015625 26.921875 C 26.015625 27.585938 26.5625 28.125 27.238281 28.125 C 27.914062 28.125 28.457031 27.585938 28.457031 26.921875 L 28.457031 17.300781 Z M 26.015625 17.300781 " fill-opacity="1" fill-rule="nonzero"/></g></svg>